<svg width="132" height="35" viewBox="0 0 132 35" fill="none" xmlns="http://www.w3.org/2000/svg">
<path fill-rule="evenodd" clip-rule="evenodd" d="M1.38191 9.58999C1.71453 9.2368 2.10201 8.92818 2.53407 8.67958L10.3283 4.17893C11.8971 3.27366 13.8277 3.27366 15.3965 4.17893L23.1907 8.67958C23.6228 8.92818 24.0103 9.2368 24.3429 9.58999L12.8624 16.2184L1.38191 9.58999ZM25.5122 11.6148C25.6511 12.0795 25.7248 12.5681 25.7248 13.0671V22.0683C25.7248 23.8789 24.7595 25.5506 23.1907 26.4558L15.3965 30.9565C14.9644 31.2068 14.5032 31.3868 14.0317 31.5V18.2432L25.5122 11.6148ZM11.6931 31.5C11.2216 31.3868 10.7604 31.2068 10.3283 30.9565L2.53407 26.4558C0.965275 25.5506 0 23.8789 0 22.0683V13.0671C0 12.5681 0.0737257 12.0795 0.212603 11.6148L11.6931 18.2432V31.5Z" fill="black"/>
<path d="M51.8752 13.7585H48.7729C48.6536 13.0956 48.4315 12.5123 48.1067 12.0085C47.7819 11.5047 47.3842 11.0772 46.9135 10.7259C46.4429 10.3745 45.9159 10.1094 45.3326 9.9304C44.7559 9.75142 44.1427 9.66193 43.4931 9.66193C42.3198 9.66193 41.2691 9.95691 40.3411 10.5469C39.4197 11.1368 38.6905 12.0019 38.1536 13.142C37.6233 14.2822 37.3581 15.6742 37.3581 17.3182C37.3581 18.9754 37.6233 20.3741 38.1536 21.5142C38.6905 22.6544 39.423 23.5161 40.351 24.0994C41.2791 24.6828 42.3231 24.9744 43.4831 24.9744C44.1261 24.9744 44.736 24.8883 45.3127 24.7159C45.896 24.5369 46.423 24.2751 46.8936 23.9304C47.3643 23.5857 47.762 23.1648 48.0868 22.6676C48.4183 22.1638 48.647 21.5871 48.7729 20.9375L51.8752 20.9474C51.7095 21.9484 51.388 22.8698 50.9107 23.7116C50.44 24.5469 49.8335 25.2694 49.0911 25.8793C48.3553 26.4825 47.5134 26.9498 46.5655 27.2812C45.6176 27.6127 44.5835 27.7784 43.4632 27.7784C41.7 27.7784 40.129 27.3608 38.7502 26.5256C37.3714 25.6837 36.2843 24.4806 35.4888 22.9162C34.7 21.3518 34.3056 19.4858 34.3056 17.3182C34.3056 15.1439 34.7033 13.2779 35.4988 11.7202C36.2942 10.1558 37.3813 8.95597 38.7601 8.12074C40.1389 7.27888 41.7066 6.85795 43.4632 6.85795C44.5437 6.85795 45.5513 7.01373 46.486 7.32528C47.4273 7.63021 48.2724 8.08097 49.0215 8.67756C49.7705 9.26752 50.3903 9.99006 50.8809 10.8452C51.3714 11.6937 51.7028 12.6648 51.8752 13.7585ZM61.7463 27.8082C60.3145 27.8082 59.0649 27.4801 57.9977 26.8239C56.9305 26.1676 56.1019 25.2495 55.5119 24.0696C54.9219 22.8897 54.627 21.5109 54.627 19.9332C54.627 18.349 54.9219 16.9635 55.5119 15.777C56.1019 14.5904 56.9305 13.669 57.9977 13.0128C59.0649 12.3565 60.3145 12.0284 61.7463 12.0284C63.1781 12.0284 64.4276 12.3565 65.4949 13.0128C66.5621 13.669 67.3907 14.5904 67.9806 15.777C68.5706 16.9635 68.8656 18.349 68.8656 19.9332C68.8656 21.5109 68.5706 22.8897 67.9806 24.0696C67.3907 25.2495 66.5621 26.1676 65.4949 26.8239C64.4276 27.4801 63.1781 27.8082 61.7463 27.8082ZM61.7562 25.3125C62.6842 25.3125 63.4532 25.0672 64.063 24.5767C64.6729 24.0862 65.1236 23.4332 65.4153 22.6179C65.7136 21.8026 65.8627 20.9044 65.8627 19.9233C65.8627 18.9489 65.7136 18.054 65.4153 17.2386C65.1236 16.4167 64.6729 15.7571 64.063 15.2599C63.4532 14.7628 62.6842 14.5142 61.7562 14.5142C60.8216 14.5142 60.046 14.7628 59.4295 15.2599C58.8197 15.7571 58.3656 16.4167 58.0673 17.2386C57.7756 18.054 57.6298 18.9489 57.6298 19.9233C57.6298 20.9044 57.7756 21.8026 58.0673 22.6179C58.3656 23.4332 58.8197 24.0862 59.4295 24.5767C60.046 25.0672 60.8216 25.3125 61.7562 25.3125ZM72.1841 33.2273V12.2273H75.0875V14.7031H75.3361C75.5085 14.3849 75.757 14.017 76.0819 13.5994C76.4067 13.1818 76.8574 12.8172 77.4341 12.5057C78.0108 12.1875 78.7731 12.0284 79.7211 12.0284C80.954 12.0284 82.0544 12.34 83.0222 12.9631C83.99 13.5862 84.749 14.4844 85.2992 15.6577C85.856 16.831 86.1344 18.2429 86.1344 19.8935C86.1344 21.544 85.8593 22.9593 85.3091 24.1392C84.7589 25.3125 84.0033 26.2173 83.0421 26.8537C82.0809 27.4834 80.9838 27.7983 79.7509 27.7983C78.8229 27.7983 78.0639 27.6425 77.4739 27.331C76.8906 27.0194 76.4332 26.6548 76.1017 26.2372C75.7703 25.8196 75.5151 25.4484 75.3361 25.1236H75.1571V33.2273H72.1841ZM75.0975 19.8636C75.0975 20.9375 75.2533 21.8788 75.5648 22.6875C75.8764 23.4962 76.3271 24.1293 76.9171 24.5866C77.507 25.0374 78.2296 25.2628 79.0847 25.2628C79.973 25.2628 80.7154 25.0275 81.312 24.5568C81.9086 24.0795 82.3593 23.4332 82.6642 22.6179C82.9758 21.8026 83.1316 20.8845 83.1316 19.8636C83.1316 18.8561 82.9791 17.9512 82.6742 17.1491C82.3759 16.3471 81.9251 15.714 81.3219 15.25C80.7253 14.786 79.9796 14.554 79.0847 14.554C78.223 14.554 77.4938 14.776 76.8972 15.2202C76.3072 15.6643 75.8598 16.2841 75.5549 17.0795C75.2499 17.875 75.0975 18.803 75.0975 19.8636ZM95.8986 27.8082C94.4668 27.8082 93.2173 27.4801 92.15 26.8239C91.0828 26.1676 90.2542 25.2495 89.6642 24.0696C89.0743 22.8897 88.7793 21.5109 88.7793 19.9332C88.7793 18.349 89.0743 16.9635 89.6642 15.777C90.2542 14.5904 91.0828 13.669 92.15 13.0128C93.2173 12.3565 94.4668 12.0284 95.8986 12.0284C97.3304 12.0284 98.58 12.3565 99.6472 13.0128C100.714 13.669 101.543 14.5904 102.133 15.777C102.723 16.9635 103.018 18.349 103.018 19.9332C103.018 21.5109 102.723 22.8897 102.133 24.0696C101.543 25.2495 100.714 26.1676 99.6472 26.8239C98.58 27.4801 97.3304 27.8082 95.8986 27.8082ZM95.9086 25.3125C96.8366 25.3125 97.6055 25.0672 98.2154 24.5767C98.8252 24.0862 99.276 23.4332 99.5676 22.6179C99.8659 21.8026 100.015 20.9044 100.015 19.9233C100.015 18.9489 99.8659 18.054 99.5676 17.2386C99.276 16.4167 98.8252 15.7571 98.2154 15.2599C97.6055 14.7628 96.8366 14.5142 95.9086 14.5142C94.9739 14.5142 94.1983 14.7628 93.5819 15.2599C92.972 15.7571 92.5179 16.4167 92.2196 17.2386C91.928 18.054 91.7821 18.9489 91.7821 19.9233C91.7821 20.9044 91.928 21.8026 92.2196 22.6179C92.5179 23.4332 92.972 24.0862 93.5819 24.5767C94.1983 25.0672 94.9739 25.3125 95.9086 25.3125ZM106.336 27.5V12.2273H109.21V14.6534H109.369C109.648 13.8314 110.138 13.1851 110.841 12.7145C111.55 12.2372 112.352 11.9986 113.247 11.9986C113.433 11.9986 113.651 12.0052 113.903 12.0185C114.162 12.0317 114.364 12.0483 114.51 12.0682V14.9119C114.39 14.8788 114.178 14.8423 113.873 14.8026C113.568 14.7562 113.264 14.733 112.959 14.733C112.256 14.733 111.63 14.8821 111.079 15.1804C110.536 15.4721 110.105 15.8797 109.787 16.4034C109.469 16.9205 109.309 17.5104 109.309 18.1733V27.5H106.336ZM121.39 27.8381C120.423 27.8381 119.548 27.6591 118.765 27.3011C117.983 26.9366 117.363 26.4096 116.906 25.7202C116.455 25.0308 116.23 24.1856 116.23 23.1847C116.23 22.3229 116.396 21.6136 116.727 21.0568C117.059 20.5 117.506 20.0592 118.069 19.7344C118.633 19.4096 119.263 19.1643 119.959 18.9986C120.655 18.8329 121.364 18.7069 122.086 18.6207C123.001 18.5147 123.744 18.4285 124.314 18.3622C124.884 18.2893 125.298 18.1733 125.557 18.0142C125.815 17.8551 125.944 17.5966 125.944 17.2386V17.169C125.944 16.3007 125.699 15.6278 125.209 15.1506C124.725 14.6733 124.002 14.4347 123.041 14.4347C122.04 14.4347 121.251 14.6567 120.675 15.1009C120.104 15.5384 119.71 16.0256 119.491 16.5625L116.697 15.9261C117.029 14.9981 117.513 14.2491 118.149 13.679C118.792 13.1023 119.531 12.6847 120.366 12.4261C121.202 12.161 122.08 12.0284 123.001 12.0284C123.611 12.0284 124.257 12.1013 124.94 12.2472C125.63 12.3864 126.273 12.6449 126.869 13.0227C127.472 13.4006 127.966 13.9408 128.351 14.6435C128.735 15.3395 128.927 16.2443 128.927 17.358V27.5H126.024V25.4119H125.905C125.712 25.7964 125.424 26.1742 125.04 26.5455C124.655 26.9167 124.161 27.2249 123.558 27.4702C122.955 27.7154 122.232 27.8381 121.39 27.8381ZM122.037 25.4517C122.859 25.4517 123.561 25.2893 124.145 24.9645C124.735 24.6397 125.182 24.2154 125.487 23.6918C125.799 23.1615 125.954 22.5947 125.954 21.9915V20.0227C125.848 20.1288 125.643 20.2282 125.338 20.321C125.04 20.4072 124.698 20.4834 124.314 20.5497C123.929 20.6094 123.555 20.6657 123.19 20.7188C122.826 20.7652 122.521 20.8049 122.275 20.8381C121.699 20.911 121.172 21.0336 120.694 21.206C120.224 21.3783 119.846 21.6269 119.561 21.9517C119.282 22.2699 119.143 22.6941 119.143 23.2244C119.143 23.9602 119.415 24.517 119.959 24.8949C120.502 25.2661 121.195 25.4517 122.037 25.4517Z" fill="black"/>
</svg>
