<svg width="93" height="20" viewBox="0 0 93 20" fill="none" xmlns="http://www.w3.org/2000/svg">
<g clip-path="url(#clip0_57_439)">
<mask id="mask0_57_439" style="mask-type:luminance" maskUnits="userSpaceOnUse" x="0" y="0" width="93" height="20">
<path d="M92.666 0H0.666016V20H92.666V0Z" fill="white"/>
</mask>
<g mask="url(#mask0_57_439)">
<path d="M90.1368 20.0001C89.3952 20.0001 88.7852 19.7859 88.3076 19.3573C87.846 18.9124 87.6152 18.3685 87.6152 17.7257C87.6152 17.0665 87.846 16.5143 88.3076 16.0693C88.7852 15.6243 89.3952 15.4019 90.1368 15.4019C90.862 15.4019 91.4552 15.6243 91.9168 16.0693C92.3948 16.5143 92.6336 17.0665 92.6336 17.7257C92.6336 18.3685 92.3948 18.9124 91.9168 19.3573C91.4552 19.7859 90.862 20.0001 90.1368 20.0001Z" fill="#1E1E1E"/>
<path d="M70.5371 12.8802C70.5371 11.4628 70.8007 10.2185 71.3279 9.14719C71.8719 8.07591 72.6055 7.25183 73.5283 6.67499C74.4515 6.09815 75.4815 5.80975 76.6187 5.80975C77.5911 5.80975 78.4399 6.00751 79.1651 6.40307C79.9067 6.79863 80.4751 7.31779 80.8707 7.96055V6.00751H85.0979V19.8023H80.8707V17.8493C80.4587 18.492 79.8819 19.0112 79.1403 19.4068C78.4151 19.8023 77.5663 20.0001 76.5939 20.0001C75.4731 20.0001 74.4515 19.7116 73.5283 19.1348C72.6055 18.5415 71.8719 17.7092 71.3279 16.6379C70.8007 15.5502 70.5371 14.2976 70.5371 12.8802ZM80.8707 12.9049C80.8707 11.8501 80.5739 11.0178 79.9807 10.408C79.4039 9.79819 78.6951 9.49327 77.8547 9.49327C77.0139 9.49327 76.2971 9.79819 75.7039 10.408C75.1271 11.0014 74.8387 11.8254 74.8387 12.8802C74.8387 13.935 75.1271 14.7755 75.7039 15.4018C76.2971 16.0116 77.0139 16.3165 77.8547 16.3165C78.6951 16.3165 79.4039 16.0116 79.9807 15.4018C80.5739 14.792 80.8707 13.9597 80.8707 12.9049Z" fill="#1E1E1E"/>
<path d="M68.3155 1.50787V19.802H64.0879V1.50787H68.3155Z" fill="#1E1E1E"/>
<path d="M58.9239 4.57352C58.1819 4.57352 57.5723 4.35928 57.0943 3.93078C56.6331 3.48578 56.4023 2.94189 56.4023 2.29913C56.4023 1.63988 56.6331 1.096 57.0943 0.667488C57.5723 0.222496 58.1819 0 58.9239 0C59.6491 0 60.2423 0.222496 60.7039 0.667488C61.1819 1.096 61.4207 1.63988 61.4207 2.29913C61.4207 2.94189 61.1819 3.48578 60.7039 3.93078C60.2423 4.35928 59.6491 4.57352 58.9239 4.57352ZM61.0251 6.0074V19.8022H56.7979V6.0074H61.0251Z" fill="#1E1E1E"/>
<path d="M48.544 5.85895C50.1592 5.85895 51.4448 6.38635 52.4008 7.44115C53.3732 8.47943 53.8592 9.91331 53.8592 11.7427V19.802H49.6568V12.3113C49.6568 11.3884 49.4176 10.6714 48.9396 10.1605C48.4616 9.64963 47.8192 9.39415 47.0112 9.39415C46.2036 9.39415 45.5612 9.64963 45.0832 10.1605C44.6052 10.6714 44.366 11.3884 44.366 12.3113V19.802H40.1387V6.00727H44.366V7.83667C44.7948 7.22687 45.3716 6.74895 46.0968 6.40283C46.822 6.04023 47.6376 5.85895 48.544 5.85895Z" fill="#1E1E1E"/>
<path d="M22.5195 12.8802C22.5195 11.4628 22.7833 10.2185 23.3107 9.14719C23.8545 8.07591 24.588 7.25183 25.5109 6.67499C26.4338 6.09815 27.4638 5.80975 28.6011 5.80975C29.5736 5.80975 30.4223 6.00751 31.1474 6.40307C31.8891 6.79863 32.4578 7.31779 32.8534 7.96055V6.00751H37.0807V19.8023H32.8534V17.8493C32.4411 18.492 31.8645 19.0112 31.1227 19.4068C30.3976 19.8023 29.5487 20.0001 28.5765 20.0001C27.4556 20.0001 26.4338 19.7116 25.5109 19.1348C24.588 18.5415 23.8545 17.7092 23.3107 16.6379C22.7833 15.5502 22.5195 14.2976 22.5195 12.8802ZM32.8534 12.9049C32.8534 11.8501 32.5567 11.0178 31.9634 10.408C31.3865 9.79819 30.6778 9.49327 29.8371 9.49327C28.9967 9.49327 28.2798 9.79819 27.6865 10.408C27.1096 11.0014 26.8211 11.8254 26.8211 12.8802C26.8211 13.935 27.1096 14.7755 27.6865 15.4018C28.2798 16.0116 28.9967 16.3165 29.8371 16.3165C30.6778 16.3165 31.3865 16.0116 31.9634 15.4018C32.5567 14.792 32.8534 13.9597 32.8534 12.9049Z" fill="#1E1E1E"/>
<path d="M20.3199 2.44708V19.8018H16.0924V9.39389L12.2111 19.8018H8.7995L4.89346 9.36921V19.8018H0.666016V2.44708H5.65982L10.53 14.4619L15.3508 2.44708H20.3199Z" fill="#1E1E1E"/>
</g>
</g>
<defs>
<clipPath id="clip0_57_439">
<rect width="92" height="20" fill="white" transform="translate(0.666016)"/>
</clipPath>
</defs>
</svg>
