<svg width="79" height="20" viewBox="0 0 79 20" fill="none" xmlns="http://www.w3.org/2000/svg">
<mask id="mask0_57_427" style="mask-type:luminance" maskUnits="userSpaceOnUse" x="1" y="0" width="78" height="20">
<path d="M78.3333 0H1V20H78.3333V0Z" fill="white"/>
</mask>
<g mask="url(#mask0_57_427)">
<mask id="mask1_57_427" style="mask-type:luminance" maskUnits="userSpaceOnUse" x="1" y="0" width="77" height="20">
<path d="M77.91 0.651062H1.22461V19.1942H77.91V0.651062Z" fill="white"/>
</mask>
<g mask="url(#mask1_57_427)">
<path d="M40.2073 3.53582C38.8338 4.34079 37.5429 5.29842 36.3341 6.40869C35.1255 7.49122 33.9442 8.60149 32.7906 9.73962C32.1313 10.378 31.4858 11.0303 30.854 11.6964C30.2221 12.3626 29.5903 13.0288 28.9587 13.695C28.6289 14.0836 28.2717 14.4722 27.8873 14.8608C27.5301 15.2216 27.1731 15.6103 26.8159 16.0266C27.3929 15.8878 27.956 15.7213 28.5053 15.527C29.0822 15.3326 29.6042 15.1661 30.0711 15.0274C30.4831 14.944 30.9227 14.833 31.3895 14.6942C31.8567 14.5554 32.3235 14.4444 32.7906 14.3612C33.2575 14.2501 33.7245 14.1946 34.1915 14.1946C34.6859 14.1669 35.1391 14.2363 35.5513 14.4028C36.0731 14.5971 36.3891 14.9302 36.4989 15.402C36.5813 15.7074 36.5538 15.9989 36.4164 16.2764C36.8835 16.1376 37.3367 15.985 37.7762 15.8184C38.2433 15.6518 38.6827 15.4992 39.0949 15.3604C39.8913 15.1106 40.6879 14.8608 41.4847 14.611C42.2813 14.3334 43.0915 14.1114 43.9157 13.9448C44.1355 13.8893 44.3965 13.8616 44.6987 13.8616C45.0282 13.8338 45.3167 13.8615 45.5638 13.9448C45.8111 14.028 45.9895 14.1807 46.0995 14.4028C46.2369 14.5971 46.2506 14.8886 46.1407 15.2771C46.0582 15.527 45.8935 15.7351 45.6462 15.9017C45.3991 16.0404 45.1107 16.1516 44.7809 16.2348C44.4513 16.318 44.1218 16.3874 43.792 16.443C43.4625 16.4707 43.2015 16.5124 43.0091 16.5678C42.0753 16.8454 41.1551 17.1368 40.2484 17.4422C39.342 17.7198 38.4355 17.9974 37.5291 18.275C37.062 18.4137 36.5538 18.5526 36.0045 18.6913C35.4551 18.8579 34.9331 18.8856 34.4387 18.7745C34.2464 18.7468 34.0405 18.6636 33.8207 18.5247C33.3537 18.1639 33.134 17.8308 33.1613 17.5255C33.1889 17.2201 33.3124 16.9148 33.5322 16.6094H33.0377C32.0488 16.776 31.0599 16.9842 30.0711 17.234C29.2744 17.4561 28.4642 17.7058 27.64 17.9834C26.8433 18.261 26.0193 18.4414 25.1677 18.5247C24.8655 18.5524 24.5635 18.497 24.2613 18.3582C23.9591 18.2472 23.7393 18.0112 23.6019 17.6504C23.4922 17.345 23.4922 17.0536 23.6019 16.776C23.7119 16.4707 23.8629 16.1793 24.0553 15.9017C23.2586 16.3736 22.5033 16.776 21.789 17.1091C21.1023 17.4144 20.5803 17.6365 20.2232 17.7753C19.509 18.0806 18.7398 18.3998 17.9158 18.733C17.0917 19.066 16.2677 19.2187 15.4435 19.1908C14.5371 19.1354 13.9877 18.8856 13.7954 18.4414C13.6031 17.9974 13.6443 17.4422 13.919 16.776C14.1662 16.0821 14.5645 15.3466 15.1139 14.5694C15.6633 13.7644 16.2401 13.001 16.8445 12.2794C17.4763 11.5577 18.0531 10.9331 18.5751 10.4058C19.097 9.85062 19.4403 9.48975 19.6051 9.32322L20.1821 8.74029C19.3855 8.74029 18.6025 8.74029 17.8334 8.74029C17.0643 8.74029 16.2814 8.75416 15.4847 8.78195C13.8915 8.83742 12.312 8.92069 10.7462 9.03175C9.15299 9.11502 7.55979 9.23995 5.96655 9.40649C5.38967 9.48975 4.82656 9.57302 4.27716 9.65629C3.7003 9.71182 3.12344 9.80896 2.54658 9.94775C2.40924 9.97549 2.25815 10.0171 2.09333 10.0727C1.92851 10.1282 1.77743 10.1282 1.64008 10.0727C1.33792 9.96162 1.20057 9.76735 1.22804 9.48975C1.22804 9.18442 1.36539 8.99009 1.64008 8.90682C4.93643 8.04635 8.32892 7.50509 11.8176 7.28309C15.3062 7.03322 18.7537 6.88055 22.1599 6.82502C22.8739 6.15888 23.5882 5.50661 24.3024 4.86819C25.0167 4.22977 25.7447 3.59135 26.4862 2.95293C26.8433 2.61983 27.2555 2.20349 27.7224 1.70385C28.2168 1.17647 28.7113 0.843381 29.2058 0.704594C29.4805 0.621323 29.7139 0.635201 29.9062 0.746227C30.1259 0.829501 30.2909 0.982174 30.4006 1.20422C30.5106 1.39852 30.5517 1.62059 30.5245 1.87039C30.4968 2.12021 30.3868 2.34227 30.1947 2.53657C29.3431 3.25825 28.5053 3.97995 27.6813 4.70163C26.8571 5.39557 26.0469 6.11725 25.2501 6.86669C25.6621 6.86669 26.0469 6.92222 26.404 7.03322C26.7335 7.11649 27.022 7.25529 27.269 7.44962C27.5439 7.64389 27.7362 7.93535 27.8459 8.32395C27.9283 8.65702 27.8873 8.94855 27.7224 9.19835C27.5575 9.42035 27.3515 9.58696 27.1044 9.69795C26.8571 9.78115 26.5961 9.79509 26.3215 9.73962C26.0742 9.65629 25.8819 9.47589 25.7447 9.19835C25.3875 9.05955 24.9755 8.96235 24.5084 8.90682C24.0415 8.82362 23.6019 8.78195 23.1899 8.78195L22.7779 9.15669C21.6517 10.2392 20.4567 11.405 19.1931 12.6541C17.957 13.9032 16.9818 15.2494 16.2677 16.6928C17.2291 16.4984 18.2179 16.2208 19.2343 15.86C20.2507 15.4992 21.2533 15.0967 22.2422 14.6526C23.2311 14.2085 24.2064 13.7366 25.1677 13.237C26.1293 12.7096 27.022 12.1684 27.8459 11.6132C28.8899 10.5307 29.9475 9.47589 31.0189 8.44889C32.1175 7.39409 33.2299 6.38095 34.3564 5.40944C35.0431 4.79879 35.7435 4.20201 36.4577 3.6191C37.1719 3.03619 37.8999 2.49494 38.6415 1.99531C38.9438 1.77325 39.2733 1.63446 39.6304 1.57895C40.0151 1.49568 40.3309 1.64833 40.5782 2.03695C40.7155 2.28675 40.7429 2.56433 40.6607 2.86965C40.6055 3.14722 40.4545 3.36929 40.2073 3.53582Z" fill="#1E1E1E"/>
<path d="M64.3087 16.0683C63.6768 16.1238 63.0451 16.2348 62.4133 16.4013C61.8089 16.5401 61.1909 16.6789 60.5591 16.8177C58.9109 17.2063 57.2764 17.581 55.6557 17.9419C54.035 18.2749 52.3868 18.5248 50.7113 18.6913C50.2717 18.7468 49.8047 18.7885 49.3102 18.8162C48.8433 18.8439 48.3626 18.8301 47.8681 18.7745C47.4011 18.719 46.948 18.608 46.5084 18.4415C46.0689 18.3027 45.6707 18.0806 45.3135 17.7753C45.0113 17.5255 44.7777 17.234 44.6131 16.9009C44.4206 16.5679 44.3108 16.2209 44.2833 15.86C44.2284 15.4992 44.2559 15.1523 44.3657 14.8192C44.4757 14.4583 44.6817 14.1391 44.9837 13.8615C45.1761 13.6672 45.4781 13.5146 45.8904 13.4035C46.3297 13.2648 46.8106 13.1676 47.3324 13.1121C47.8543 13.0566 48.3764 13.0427 48.8982 13.0705C49.4201 13.0982 49.8733 13.1953 50.2579 13.3619C50.6426 13.5285 50.9035 13.7643 51.0408 14.0697C51.2057 14.3473 51.192 14.7081 50.9997 15.1523C50.8349 15.4853 50.5875 15.7213 50.2579 15.86C49.9284 15.9989 49.5575 16.096 49.1455 16.1515C48.7333 16.1793 48.3075 16.1793 47.8681 16.1515C47.4286 16.096 47.0439 16.0405 46.7144 15.9849C46.8241 16.096 47.0439 16.1931 47.3737 16.2765C47.7033 16.3319 48.0466 16.3736 48.4037 16.4013C48.7884 16.4291 49.1317 16.4429 49.4339 16.4429C49.7635 16.4429 49.9695 16.4429 50.0519 16.4429C51.3979 16.3319 52.7302 16.1376 54.0488 15.86C55.3949 15.5825 56.7271 15.291 58.0455 14.9857C59.0071 14.7636 59.9546 14.5416 60.8887 14.3195C61.85 14.0697 62.8115 13.8893 63.7729 13.7783C64.1851 13.7505 64.5284 13.8477 64.8031 14.0697C65.0777 14.2918 65.2562 14.5555 65.3387 14.8608C65.4211 15.1383 65.38 15.402 65.2151 15.6519C65.0777 15.9017 64.7755 16.0405 64.3087 16.0683Z" fill="#1E1E1E"/>
<path d="M76.7453 16.0681C75.3446 16.0959 73.916 16.1375 72.46 16.1931C71.004 16.2208 69.576 16.0542 68.1746 15.6934C68.0653 15.6934 67.9553 15.6656 67.8453 15.6101C67.6806 16.0819 67.4333 16.5399 67.1035 16.9841C66.8015 17.4005 66.458 17.7613 66.0735 18.0666C65.6888 18.3719 65.2631 18.5939 64.7962 18.7328C64.3566 18.8716 63.917 18.8855 63.4775 18.7745C63.0655 18.6634 62.7633 18.4552 62.571 18.1499C62.3512 17.8445 62.2277 17.4976 62.2002 17.1089C62.1728 16.7204 62.2277 16.3318 62.365 15.9432C62.4751 15.5546 62.6397 15.2076 62.8595 14.9023C63.2166 14.4582 63.6699 14.1251 64.2192 13.9031C64.7686 13.6809 65.318 13.6532 65.8675 13.8198C65.9224 13.4311 66.1422 13.1259 66.5266 12.9038C66.9112 12.6817 67.3233 12.7095 67.7626 12.9871C68.1746 13.2369 68.6146 13.4311 69.0813 13.5699C69.576 13.6809 70.084 13.7504 70.606 13.7781C71.128 13.8059 71.636 13.8198 72.1306 13.8198C72.6526 13.7921 73.1466 13.7781 73.614 13.7781C74.1633 13.7781 74.754 13.7504 75.3853 13.6949C76.0173 13.6116 76.594 13.6532 77.116 13.8198C77.4186 13.9308 77.6246 14.1112 77.734 14.3611C77.8713 14.6109 77.9126 14.8606 77.858 15.1105C77.8306 15.3603 77.7206 15.5824 77.528 15.7766C77.336 15.9709 77.0753 16.0681 76.7453 16.0681ZM64.4253 16.6094C64.5077 16.5261 64.6726 16.4845 64.9197 16.4845V16.1097C64.8648 16.1652 64.7824 16.2346 64.6726 16.3179C64.5626 16.3735 64.4802 16.4705 64.4253 16.6094Z" fill="#1E1E1E"/>
</g>
</g>
</svg>
