<svg width="90" height="20" viewBox="0 0 90 20" fill="none" xmlns="http://www.w3.org/2000/svg">
<g clip-path="url(#clip0_57_451)">
<mask id="mask0_57_451" style="mask-type:luminance" maskUnits="userSpaceOnUse" x="1" y="0" width="89" height="20">
<path d="M89.6667 0H1V20H89.6667V0Z" fill="white"/>
</mask>
<g mask="url(#mask0_57_451)">
<mask id="mask1_57_451" style="mask-type:luminance" maskUnits="userSpaceOnUse" x="1" y="0" width="89" height="20">
<path d="M89.1673 0.662415H1V19.2054H89.1673V0.662415Z" fill="white"/>
</mask>
<g mask="url(#mask1_57_451)">
<path d="M7.70593 18.7867C5.90127 18.7268 4.53753 18.3182 3.61469 17.5605C2.69186 16.7828 2.02537 15.9155 1.61522 14.9585C1.20507 13.9815 1 12.9945 1 11.9975C1 10.9607 1.19482 9.96377 1.58446 9.00671C1.99461 8.02971 2.66111 7.16237 3.58395 6.40471C4.52728 5.62709 5.71671 5.22832 7.15223 5.20837H17.1188C18.5543 5.22832 19.7336 5.62709 20.6564 6.40471C21.5998 7.16237 22.2663 8.02971 22.6559 9.00671C23.0659 9.96377 23.2711 10.9607 23.2711 11.9975C23.2711 12.9945 23.0659 13.9815 22.6559 14.9585C22.2457 15.9155 21.5792 16.7828 20.6564 17.5605C19.7336 18.3182 18.3698 18.7268 16.5651 18.7867H7.70593ZM7.02918 9.21604C6.63953 9.21604 6.30117 9.37557 6.01407 9.69457C5.72697 9.99364 5.51163 10.3526 5.3681 10.7713C5.24503 11.17 5.18351 11.5688 5.18351 11.9676C5.18351 12.3864 5.24503 12.805 5.3681 13.2237C5.51163 13.6225 5.72697 13.9815 6.01407 14.3005C6.30117 14.5996 6.63953 14.759 7.02918 14.7789H17.2419C17.6315 14.759 17.9699 14.5996 18.257 14.3005C18.5441 13.9815 18.7492 13.6225 18.8722 13.2237C19.0159 12.805 19.0875 12.3864 19.0875 11.9676C19.0875 11.5688 19.0159 11.17 18.8722 10.7713C18.7492 10.3526 18.5441 9.99364 18.257 9.69457C17.9699 9.37557 17.6315 9.21604 17.2419 9.21604H7.02918Z" fill="#1E1E1E"/>
<path d="M46.341 6.94344C46.341 7.44184 46.1359 7.86057 45.7257 8.19957C45.3362 8.51857 44.8543 8.67811 44.2801 8.67811H31.268C31.0015 8.67811 30.7862 8.72791 30.6221 8.82764C30.458 8.92731 30.335 9.03697 30.253 9.15664C30.1708 9.25631 30.1299 9.34604 30.1299 9.42577C30.1299 9.52544 30.1708 9.63517 30.253 9.75477C30.335 9.85444 30.458 9.95417 30.6221 10.0538C30.7862 10.1336 31.0015 10.1834 31.268 10.2034H41.327C42.6189 10.2233 43.6854 10.4726 44.5262 10.9511C45.3668 11.4097 45.9616 11.958 46.3102 12.596C46.6793 13.2142 46.8638 13.8422 46.8638 14.4802C46.8638 15.0984 46.6793 15.7264 46.3102 16.3645C45.941 16.9826 45.3362 17.5309 44.4952 18.0094C43.675 18.468 42.6189 18.6972 41.327 18.6972C41.1013 18.7172 40.9374 18.7272 40.8348 18.7272H28.8994C28.3253 18.7272 27.833 18.5677 27.4228 18.2487C27.0333 17.9097 26.8385 17.5009 26.8385 17.0225C26.8385 16.5239 27.0434 16.1052 27.4536 15.7662C27.8433 15.4472 28.3253 15.2878 28.8994 15.2878H41.573C41.8807 15.3077 42.1267 15.2678 42.3112 15.1682C42.5163 15.0685 42.6702 14.9588 42.7728 14.8392C42.8754 14.7195 42.9265 14.5999 42.9265 14.4802C42.9265 14.4205 42.8754 14.3207 42.7728 14.1812C42.6702 14.0217 42.5163 13.902 42.3112 13.8222C42.1267 13.7226 41.8807 13.6628 41.573 13.6428H31.4835C30.2939 13.6229 29.3097 13.3836 28.5304 12.925C27.7511 12.4465 27.1974 11.8982 26.8692 11.28C26.5411 10.662 26.377 10.0439 26.377 9.42577C26.377 8.80771 26.5411 8.19957 26.8692 7.60137C27.218 6.98331 27.7716 6.45491 28.5304 6.01627C29.3097 5.55767 30.2939 5.30843 31.4835 5.26855C31.6883 5.24863 31.8423 5.23865 31.9449 5.23865H44.2801C44.8543 5.23865 45.3362 5.40813 45.7257 5.74708C46.1359 6.0661 46.341 6.46488 46.341 6.94344Z" fill="#1E1E1E"/>
<path d="M52.4018 0.662476C52.9556 0.682414 53.4272 0.881801 53.8168 1.26064C54.2066 1.61954 54.4117 2.06816 54.4322 2.60651V17.2615C54.3091 18.4578 53.6323 19.1058 52.4018 19.2055C51.8276 19.2055 51.3252 19.026 50.8946 18.6672C50.4844 18.2884 50.2793 17.8198 50.2793 17.2615V2.60651C50.2998 2.04822 50.5152 1.58963 50.9254 1.23073C51.3354 0.851894 51.8276 0.662476 52.4018 0.662476Z" fill="#1E1E1E"/>
<path d="M64.7059 18.7867C62.9013 18.7268 61.5376 18.3182 60.6148 17.5605C59.6919 16.7828 59.0253 15.9155 58.6153 14.9585C58.2051 13.9815 58 12.9945 58 11.9975C58 10.9607 58.1949 9.96377 58.5845 9.00671C58.9947 8.02971 59.6612 7.16237 60.584 6.40471C61.5274 5.62709 62.7166 5.22832 64.1523 5.20837H74.1187C75.5547 5.22832 76.734 5.62709 77.6567 6.40471C78.6 7.16237 79.266 8.02971 79.656 9.00671C80.066 9.96377 80.2713 10.9607 80.2713 11.9975C80.2713 12.9945 80.066 13.9815 79.656 14.9585C79.246 15.9155 78.5793 16.7828 77.6567 17.5605C76.734 18.3182 75.37 18.7268 73.5653 18.7867H64.7059ZM64.0293 9.21604C63.6397 9.21604 63.3011 9.37557 63.0141 9.69457C62.7269 9.99364 62.5118 10.3526 62.3681 10.7713C62.245 11.17 62.1835 11.5688 62.1835 11.9676C62.1835 12.3864 62.245 12.805 62.3681 13.2237C62.5118 13.6225 62.7269 13.9815 63.0141 14.3005C63.3011 14.5996 63.6397 14.759 64.0293 14.7789H74.242C74.6313 14.759 74.97 14.5996 75.2567 14.3005C75.544 13.9815 75.7493 13.6225 75.872 13.2237C76.016 12.805 76.0873 12.3864 76.0873 11.9676C76.0873 11.5688 76.016 11.17 75.872 10.7713C75.7493 10.3526 75.544 9.99364 75.2567 9.69457C74.97 9.37557 74.6313 9.21604 74.242 9.21604H64.0293Z" fill="#1E1E1E"/>
<path d="M86.8758 19.2058C88.0918 19.2058 89.0778 18.2174 89.0778 16.9984C89.0778 15.7791 88.0918 14.7908 86.8758 14.7908C85.6598 14.7908 84.6738 15.7791 84.6738 16.9984C84.6738 18.2174 85.6598 19.2058 86.8758 19.2058Z" fill="#1E1E1E"/>
</g>
</g>
</g>
<defs>
<clipPath id="clip0_57_451">
<rect width="89.3333" height="20" fill="white" transform="translate(0.666016)"/>
</clipPath>
</defs>
</svg>
