<svg width="72" height="20" viewBox="0 0 72 20" fill="none" xmlns="http://www.w3.org/2000/svg">
<mask id="mask0_57_401" style="mask-type:luminance" maskUnits="userSpaceOnUse" x="0" y="0" width="72" height="20">
<path d="M71.6673 0H0.333984V20H71.6673V0Z" fill="white"/>
</mask>
<g mask="url(#mask0_57_401)">
<mask id="mask1_57_401" style="mask-type:luminance" maskUnits="userSpaceOnUse" x="0" y="0" width="72" height="20">
<path d="M71.4953 0.651062H0.333984V19.1942H71.4953V0.651062Z" fill="white"/>
</mask>
<g mask="url(#mask1_57_401)">
<path d="M28.1927 15.7304C27.0629 15.7304 26.1099 15.57 25.3339 15.249C24.5694 14.9279 23.9931 14.475 23.6051 13.8903C23.2171 13.2941 23.0231 12.5947 23.0231 11.7921V11.689H24.8719V11.9641C24.8719 12.4227 24.9744 12.8068 25.1799 13.1164C25.3854 13.4144 25.7277 13.6438 26.2069 13.8043C26.6864 13.9534 27.3482 14.0279 28.1927 14.0279C28.9231 14.0279 29.5052 13.9763 29.9387 13.8731C30.3725 13.7584 30.6804 13.5864 30.8631 13.3572C31.0571 13.1164 31.1541 12.8183 31.1541 12.4629C31.1541 11.9584 30.9944 11.5916 30.6747 11.3622C30.3552 11.1329 29.8359 10.9494 29.1171 10.8119L26.3097 10.3476C25.6707 10.2214 25.1002 10.038 24.5979 9.79722C24.0959 9.54496 23.7021 9.21243 23.4167 8.79969C23.1429 8.37543 23.0059 7.84809 23.0059 7.21749C23.0059 6.80476 23.0972 6.39772 23.2799 5.99644C23.4624 5.59515 23.7477 5.23399 24.1357 4.91297C24.5237 4.59193 25.0259 4.3397 25.6421 4.15625C26.2697 3.96134 27.0344 3.86389 27.9359 3.86389C29.0542 3.86389 29.9729 4.03586 30.6919 4.37982C31.4109 4.72379 31.9415 5.19386 32.2839 5.79006C32.6377 6.37479 32.8145 7.04549 32.8145 7.80222V7.90543H30.9829V7.68183C30.9829 7.21176 30.8801 6.82196 30.6747 6.51237C30.4694 6.19135 30.1327 5.95631 29.6649 5.80727C29.1969 5.64674 28.5637 5.56649 27.7647 5.56649C27.0687 5.56649 26.5037 5.62381 26.0701 5.73847C25.6479 5.85313 25.3397 6.0251 25.1456 6.2544C24.9517 6.47226 24.8547 6.75889 24.8547 7.11429C24.8547 7.43536 24.9231 7.69903 25.0601 7.90543C25.1971 8.11176 25.4081 8.27803 25.6934 8.40409C25.9787 8.51876 26.3439 8.62769 26.7889 8.73096L29.5791 9.21243C30.3439 9.35003 30.9772 9.55643 31.4795 9.83156C31.9929 10.1068 32.3752 10.4564 32.6262 10.8806C32.8773 11.3049 33.0029 11.7979 33.0029 12.3597C33.0029 12.9445 32.8374 13.4948 32.5064 14.0107C32.1755 14.5266 31.6562 14.9452 30.9487 15.2662C30.2411 15.5757 29.3225 15.7304 28.1927 15.7304ZM38.3894 15.5586H36.0957L33.5449 7.01109H35.4622L36.8829 11.861L37.2767 14.0623H37.4137L38.0469 11.689L39.8272 7.01109H42.1895L43.987 11.689L44.6203 14.0623H44.7572L45.151 11.861L46.5717 7.01109H48.4548L45.8699 15.5586H43.5762L41.7102 10.6399L41.0597 8.54169H40.9229L40.2725 10.6399L38.3894 15.5586ZM51.2425 15.5586H49.3938V7.01109H51.2425V15.5586ZM51.2425 6.01363H49.3938V4.03587H51.2425V6.01363ZM56.9773 15.7304C55.6078 15.7304 54.5465 15.4668 53.7933 14.9394C53.0515 14.412 52.6805 13.6553 52.6805 12.6692V12.6176H54.5293V12.7552C54.5293 13.317 54.7121 13.7069 55.077 13.9247C55.4537 14.131 56.0871 14.2343 56.9773 14.2343C57.8103 14.2343 58.3753 14.1483 58.6718 13.9763C58.98 13.7929 59.1341 13.512 59.1341 13.1336C59.1341 12.7782 59.0143 12.526 58.7745 12.3769C58.5463 12.2279 58.124 12.1132 57.5078 12.033L55.1798 11.7234C54.3695 11.6202 53.7363 11.3909 53.2797 11.0355C52.8233 10.6686 52.595 10.124 52.595 9.40163C52.595 8.89709 52.7435 8.45569 53.04 8.07736C53.3368 7.68756 53.7818 7.38376 54.3753 7.16589C54.9687 6.94803 55.699 6.83916 56.5663 6.83916C57.4337 6.83916 58.1755 6.95383 58.7918 7.18309C59.4193 7.41243 59.8988 7.75636 60.2296 8.21496C60.5721 8.67363 60.7433 9.24109 60.7433 9.91756V9.96923H58.9116V9.86596C58.9116 9.53342 58.8431 9.25256 58.7061 9.02329C58.5693 8.79396 58.3239 8.62196 57.9701 8.50736C57.6277 8.38123 57.1428 8.31816 56.5151 8.31816C55.7275 8.31816 55.1798 8.40989 54.8718 8.59336C54.5636 8.77676 54.4095 9.06909 54.4095 9.47042C54.4095 9.80296 54.5237 10.0437 54.752 10.1927C54.9801 10.3418 55.4081 10.4622 56.0358 10.5539L58.0043 10.829C59.0085 10.9552 59.7503 11.2017 60.2296 11.5686C60.709 11.9354 60.9486 12.4744 60.9486 13.1852C60.9486 13.7126 60.7831 14.1712 60.4523 14.561C60.1213 14.9394 59.659 15.2317 59.0655 15.4382C58.4723 15.633 57.7761 15.7304 56.9773 15.7304ZM66.3051 15.7304C64.9359 15.7304 63.8744 15.4668 63.1213 14.9394C62.3795 14.412 62.0086 13.6553 62.0086 12.6692V12.6176H63.8574V12.7552C63.8574 13.317 64.0399 13.7069 64.4051 13.9247C64.7817 14.131 65.4151 14.2343 66.3051 14.2343C67.1387 14.2343 67.7033 14.1483 68 13.9763C68.308 13.7929 68.462 13.512 68.462 13.1336C68.462 12.7782 68.342 12.526 68.1027 12.3769C67.8747 12.2279 67.452 12.1132 66.836 12.033L64.5079 11.7234C63.6977 11.6202 63.0641 11.3909 62.6077 11.0355C62.1514 10.6686 61.9231 10.124 61.9231 9.40163C61.9231 8.89709 62.0713 8.45569 62.3681 8.07736C62.6649 7.68756 63.1099 7.38376 63.7034 7.16589C64.2966 6.94803 65.0271 6.83916 65.8944 6.83916C66.7613 6.83916 67.5033 6.95383 68.1193 7.18309C68.7473 7.41243 69.2267 7.75636 69.558 8.21496C69.9 8.67363 70.0713 9.24109 70.0713 9.91756V9.96923H68.2393V9.86596C68.2393 9.53342 68.1713 9.25256 68.034 9.02329C67.8973 8.79396 67.652 8.62196 67.298 8.50736C66.956 8.38123 66.4706 8.31816 65.8431 8.31816C65.0556 8.31816 64.5079 8.40989 64.1996 8.59336C63.8916 8.77676 63.7376 9.06909 63.7376 9.47042C63.7376 9.80296 63.8516 10.0437 64.0799 10.1927C64.3081 10.3418 64.7361 10.4622 65.3636 10.5539L67.3327 10.829C68.3367 10.9552 69.0787 11.2017 69.558 11.5686C70.0367 11.9354 70.2767 12.4744 70.2767 13.1852C70.2767 13.7126 70.1113 14.1712 69.78 14.561C69.4493 14.9394 68.9873 15.2317 68.3933 15.4382C67.8 15.633 67.104 15.7304 66.3051 15.7304Z" fill="#1E1E1E"/>
<path d="M11.4147 0.651245H7.58594V7.93661L11.4147 4.29393V0.651245Z" fill="#1E1E1E"/>
<path d="M0.333984 11.7831V7.9364H7.58552L3.95974 11.7831H0.333984Z" fill="#1E1E1E"/>
<path d="M18.6656 7.93671V11.7834H11.4141L15.0398 7.93671H18.6656Z" fill="#1E1E1E"/>
<path d="M11.4296 7.92151H7.57031V19.069H11.4296V7.92151Z" fill="#1E1E1E"/>
</g>
</g>
</svg>
