<svg width="85" height="20" viewBox="0 0 85 20" fill="none" xmlns="http://www.w3.org/2000/svg">
<g clip-path="url(#clip0_57_415)">
<mask id="mask0_57_415" style="mask-type:luminance" maskUnits="userSpaceOnUse" x="0" y="0" width="85" height="20">
<path d="M84.334 0H0.333984V20H84.334V0Z" fill="white"/>
</mask>
<g mask="url(#mask0_57_415)">
<path d="M29.1107 18.4378C27.1663 18.4378 25.6499 17.9 24.5611 16.824C23.4853 15.7483 22.9473 14.2122 22.9473 12.2161V4.59442H26.0971V12.0995C26.0971 14.5364 27.1081 15.7548 29.1301 15.7548C30.1153 15.7548 30.8671 15.463 31.3855 14.8797C31.9039 14.2836 32.1633 13.3568 32.1633 12.0995V4.59442H35.2741V12.2161C35.2741 14.2122 34.7297 15.7483 33.6409 16.824C32.5651 17.9 31.0551 18.4378 29.1107 18.4378Z" fill="#1E1E1E"/>
<path d="M36.8105 11.5156H42.3131V13.9461H36.8105V11.5156Z" fill="#1E1E1E"/>
<path d="M46.0564 7.16089H41.7012V4.59442H53.5616V7.16089H49.2062V18.2046H46.0564V7.16089Z" fill="#1E1E1E"/>
<path d="M64.3814 7.74347V18.2039H61.504V16.9597C61.1022 17.4131 60.6224 17.7633 60.065 18.0095C59.5078 18.2427 58.905 18.3593 58.257 18.3593C56.8832 18.3593 55.7942 17.9639 54.9906 17.1735C54.187 16.3827 53.7852 15.2095 53.7852 13.6541V7.74347H56.8182V13.2069C56.8182 14.8921 57.5248 15.7347 58.9376 15.7347C59.6634 15.7347 60.2468 15.5013 60.6874 15.0347C61.128 14.5551 61.3484 13.8485 61.3484 12.9153V7.74347H64.3814Z" fill="#1E1E1E"/>
<path d="M69.118 9.12456C69.4806 8.61903 69.9666 8.23663 70.576 7.97743C71.198 7.71816 71.9106 7.58856 72.7146 7.58856V10.3884C72.3773 10.3625 72.1506 10.3495 72.034 10.3495C71.1653 10.3495 70.4853 10.5958 69.9926 11.0883C69.5 11.5679 69.254 12.2938 69.254 13.2659V18.2045H66.2207V7.7441H69.118V9.12456Z" fill="#1E1E1E"/>
<path d="M79.9029 7.58856C81.1996 7.58856 82.2429 7.97743 83.0336 8.75516C83.8376 9.5329 84.2389 10.6865 84.2389 12.216V18.2045H81.2056V12.6826C81.2056 11.8531 81.0243 11.2374 80.6616 10.8356C80.2983 10.4208 79.7736 10.2134 79.0863 10.2134C78.3216 10.2134 77.7129 10.4532 77.2589 10.9328C76.8049 11.3994 76.5783 12.0994 76.5783 13.0326V18.2045H73.5449V7.7441H76.4423V8.96903C76.8443 8.5283 77.3429 8.1913 77.9396 7.95796C78.5356 7.7117 79.1903 7.58856 79.9029 7.58856Z" fill="#1E1E1E"/>
<path fill-rule="evenodd" clip-rule="evenodd" d="M9.39677 1.05689C9.91403 0.539631 10.7526 0.539631 11.27 1.05689L16.1136 5.90068L11.2478 10.5453C10.7188 11.0504 9.88037 11.0309 9.3753 10.5018C8.87017 9.97267 8.8897 9.13427 9.41883 8.6292L10.9128 7.20313H7.68437C5.09972 7.20313 3.00445 9.2984 3.00445 11.8831C3.00445 14.4678 5.09972 16.563 7.68437 16.563H14.2186C14.95 16.563 15.5432 17.156 15.5432 17.8874C15.5432 18.619 14.95 19.212 14.2186 19.212H7.68437C3.63671 19.212 0.355469 15.9308 0.355469 11.8831C0.355469 7.8354 3.63671 4.55414 7.68437 4.55414H11.021L9.39677 2.93002C8.87957 2.41277 8.87957 1.57414 9.39677 1.05689Z" fill="#1E1E1E"/>
</g>
</g>
<defs>
<clipPath id="clip0_57_415">
<rect width="84.6667" height="20" fill="white"/>
</clipPath>
</defs>
</svg>
