<svg width="12" height="13" viewBox="0 0 12 13" fill="none" xmlns="http://www.w3.org/2000/svg">
<path d="M0.540381 11.0404C0.28654 11.2942 0.28654 11.7058 0.540381 11.9596C0.794221 12.2135 1.20578 12.2135 1.45962 11.9596L0.540381 11.0404ZM11.65 1.5C11.65 1.14102 11.359 0.85 11 0.85H5.15C4.79102 0.85 4.5 1.14102 4.5 1.5C4.5 1.85899 4.79102 2.15 5.15 2.15L10.35 2.15L10.35 7.35C10.35 7.70898 10.641 8 11 8C11.359 8 11.65 7.70898 11.65 7.35V1.5ZM1 11.5L1.45962 11.9596L6.45962 6.95962L6 6.5L5.54038 6.04038L0.540381 11.0404L1 11.5ZM6 6.5L6.45962 6.95962L11.4596 1.95962L11 1.5L10.5404 1.04038L5.54038 6.04038L6 6.5Z" fill="#797979"/>
</svg>
