<svg width="50" height="54" viewBox="0 0 50 54" fill="none" xmlns="http://www.w3.org/2000/svg">
<path fill-rule="evenodd" clip-rule="evenodd" d="M2.66511 11.745C3.30659 11.0639 4.05387 10.4687 4.88714 9.98922L19.9189 1.30941C22.9445 -0.43647 26.6677 -0.43647 29.6932 1.30941L44.725 9.98922C45.5583 10.4687 46.3055 11.0639 46.947 11.745L24.8061 24.5283L2.66511 11.745ZM49.2021 15.6501C49.4699 16.5462 49.6121 17.4886 49.6121 18.4508V35.8104C49.6121 39.3022 47.7505 42.5261 44.725 44.272L29.6932 52.9518C28.8599 53.4346 27.9705 53.7818 27.0612 54V28.4334L49.2021 15.6501ZM22.551 54C21.6417 53.7818 20.7522 53.4346 19.9189 52.9518L4.88714 44.272C1.8616 42.5261 0 39.3022 0 35.8104V18.4508C0 17.4886 0.142185 16.5462 0.410019 15.6501L22.551 28.4334V54Z" fill="white"/>
</svg>
