<svg width="291" height="76" viewBox="0 0 291 76" fill="none" xmlns="http://www.w3.org/2000/svg">
<path d="M268.939 75.37C261.269 75.28 255.079 74.33 249.609 70.64C247.279 69.07 247.009 67.26 248.799 65.21C250.299 63.49 251.839 61.79 253.289 60.03C253.899 59.28 254.269 59.26 255.039 59.89C259.739 63.72 265.019 65.56 271.129 64.42C271.809 64.29 272.469 64.04 273.089 63.74C274.349 63.13 275.079 62.15 275.039 60.67C274.999 59.21 274.269 58.23 272.969 57.67C270.519 56.61 267.849 56.46 265.299 55.79C263.229 55.25 261.119 54.86 259.069 54.26C253.709 52.68 249.299 49.97 248.549 43.84C247.779 37.52 250.379 32.61 255.649 29.14C259.739 26.45 264.379 25.67 269.189 25.72C275.649 25.78 281.759 26.95 286.979 31.1C287.819 31.78 288.149 32.16 287.149 33.05C284.859 35.11 282.679 37.28 280.489 39.46C279.839 40.11 279.429 40.14 278.669 39.56C274.869 36.7 270.609 35.58 265.879 36.38C265.179 36.5 264.529 36.73 263.929 37.1C262.809 37.79 262.269 38.79 262.369 40.1C262.449 41.31 263.309 41.94 264.309 42.33C266.829 43.31 269.529 43.53 272.149 44.15C274.959 44.81 277.839 45.16 280.559 46.15C285.599 48 289.379 51.09 290.179 56.67C291.029 62.66 288.809 67.49 283.829 70.95C278.989 74.31 273.479 75.38 268.939 75.38H268.929L268.939 75.37Z" fill="black"/>
<path d="M142.65 47.15V22.6C142.65 19.57 143.18 16.67 144.93 14.12C147.55 10.32 151.44 8.88998 155.82 8.52998C158.75 8.29998 161.69 8.43998 164.59 8.96998C165.44 9.12998 165.76 9.45996 165.74 10.33C165.7 13.01 165.68 15.69 165.74 18.36C165.76 19.34 165.41 19.53 164.53 19.43C163.4 19.3 162.24 19.22 161.1 19.25C158.68 19.3 157.56 20.47 157.52 22.86C157.5 23.9 157.58 24.95 157.5 25.98C157.43 26.99 157.73 27.38 158.81 27.34C160.75 27.27 162.69 27.36 164.64 27.3C165.57 27.27 165.97 27.48 165.95 28.52C165.89 31.35 165.9 34.18 165.95 37C165.96 37.89 165.74 38.23 164.79 38.19C162.85 38.13 160.91 38.25 158.96 38.14C157.71 38.07 157.49 38.54 157.5 39.66C157.54 50.62 157.5 61.58 157.55 72.54C157.55 73.88 157.25 74.3 155.85 74.27C151.97 74.16 148.08 74.19 144.2 74.27C142.99 74.29 142.6 74.01 142.61 72.73C142.67 64.2 142.64 55.67 142.64 47.14H142.65V47.15Z" fill="black"/>
<path d="M119.08 34.0597C120.91 31.8797 122.88 30.0297 125.22 28.5697C128.99 26.2297 133.05 25.5697 137.4 26.2597C138.28 26.3997 138.4 26.8197 138.39 27.5597C138.37 31.0797 138.35 34.5997 138.4 38.1197C138.42 39.1297 138.03 39.2497 137.15 39.1397C134.24 38.7697 131.31 38.5397 128.38 39.0897C122.48 40.1797 119.35 43.8697 119.34 49.8297C119.33 57.5097 119.32 65.1897 119.36 72.8897C119.36 73.9697 119.14 74.3397 117.98 74.3097C113.9 74.2397 109.82 74.2597 105.74 74.3097C104.73 74.3197 104.38 74.0797 104.38 72.9997C104.41 58.0297 104.41 43.0497 104.38 28.0897C104.38 27.0897 104.71 26.8397 105.66 26.8597C109.74 26.8997 113.82 26.8997 117.9 26.8597C118.81 26.8597 119.11 27.0897 119.08 28.0197C119.02 30.0397 119.06 32.0597 119.06 34.0797L119.08 34.0597Z" fill="black"/>
<path d="M190.69 26.9C190.72 27.4 190.8 27.88 190.8 28.38C190.8 43.15 190.8 57.94 190.83 72.71C190.83 73.91 190.58 74.31 189.3 74.29C185.22 74.21 181.14 74.23 177.06 74.29C176.06 74.3 175.81 73.97 175.81 73.02C175.84 60.92 175.84 48.82 175.81 36.72C175.81 35.8 176.21 35.41 176.9 35C181.43 32.32 185.94 29.61 190.46 26.91C190.54 26.78 190.63 26.78 190.7 26.91H190.69V26.9Z" fill="black"/>
<path d="M190.67 26.9198L190.54 26.9398L190.41 26.9198C185.92 24.2498 181.45 21.5598 176.94 18.9198C176.12 18.4298 175.74 17.9298 175.75 16.9398C175.8 11.8898 175.8 6.81981 175.75 1.76981C175.74 0.389813 176.13 0.399823 177.16 1.02982C181.24 3.49982 185.35 5.92982 189.49 8.30982C190.42 8.84982 190.79 9.47983 190.77 10.5698C190.69 16.0298 190.69 21.4698 190.65 26.9298H190.66L190.67 26.9198Z" fill="black"/>
<path d="M46.0398 15.9597C41.5298 11.5797 35.8898 10.0397 29.7798 9.99973C20.4698 9.93973 11.1498 9.99972 1.84984 9.95972C0.519842 9.94972 0.0898438 10.2397 0.0898438 11.6597C0.149844 21.8297 0.119844 31.9997 0.119844 42.1697C0.119844 52.3397 0.149844 62.5097 0.0898438 72.6797C0.0898438 74.0297 0.489844 74.3297 1.76984 74.2897C6.09984 74.2097 10.4298 74.2197 14.7598 74.2897C15.9798 74.3097 16.3498 73.9997 16.3398 72.7397C16.2798 66.2897 16.3398 59.8397 16.2898 53.3997C16.2898 52.2997 16.5598 51.9397 17.6998 51.9697C21.7798 52.0297 25.8698 52.0297 29.9498 51.9897C42.0898 51.8497 50.1198 45.1997 51.6298 33.8997C52.5298 27.1397 51.1298 20.9197 46.0598 15.9697H46.0498L46.0398 15.9597ZM35.9998 32.3797C35.4998 36.1797 32.8198 38.8797 28.7898 39.4097C24.9298 39.9197 21.0298 39.5197 17.1498 39.6297C16.1898 39.6597 16.3098 39.0297 16.3098 38.4297V30.9897C16.3098 28.5597 16.3198 26.1297 16.3098 23.6997C16.3098 22.9997 16.4298 22.5797 17.2698 22.5997C20.8998 22.6497 24.5498 22.5197 28.1698 22.7297C33.5898 23.0597 36.6998 26.9997 35.9998 32.3797Z" fill="black"/>
<path d="M244.56 50.7196C244.56 48.7396 244.63 46.7496 244.55 44.7696C244.25 37.6996 241.06 32.2996 234.77 28.9896C227.32 25.0896 219.51 24.7296 211.67 27.7096C203.55 30.7996 199.1 37.4496 199.08 46.1096C199.08 49.7796 199 53.4496 199.11 57.1196C199.32 64.3896 202.71 69.7596 209.38 72.7396C217.25 76.2496 225.33 76.4296 233.27 72.9796C239.5 70.2796 243.35 65.5296 244.38 58.7296C244.78 56.0696 244.53 53.3796 244.56 50.7096V50.7196ZM229.47 56.7096C229.41 59.6096 228.39 62.1096 225.51 63.3296C222.47 64.6096 219.45 64.4096 216.74 62.4296C214.86 61.0696 214.25 59.0296 214.22 56.8096C214.19 54.7796 214.22 52.7496 214.22 50.7096C214.22 48.6696 214.15 46.6496 214.23 44.6196C214.49 38.6496 220.23 35.3696 225.6 38.1096C228.27 39.4696 229.42 41.8096 229.47 44.6696C229.55 48.6796 229.55 52.6996 229.47 56.7096Z" fill="black"/>
<path d="M96.2094 43.5496C95.7794 36.8696 92.6394 31.7796 86.6794 28.5496C82.0094 26.0296 76.9694 25.4896 71.7594 26.0096C60.0294 27.1896 52.4294 35.2096 52.1194 46.8396C52.0394 50.2596 51.9894 53.6896 52.1694 57.1096C52.5894 65.0496 56.6394 70.4996 64.0294 73.4196C69.6894 75.6596 75.5494 75.9296 81.5094 74.9096C86.2094 74.0996 90.4694 72.3096 94.1494 69.2296C95.0894 68.4396 95.4194 67.8496 94.5394 66.7196C93.1194 64.8796 91.8394 62.9096 90.5994 60.9396C89.9894 59.9696 89.6294 59.7696 88.4794 60.4396C83.9294 63.1396 79.0794 64.8096 73.6794 63.4796C69.3394 62.4096 67.2394 59.6896 67.2294 55.5496C67.2294 54.5196 67.4994 54.1996 68.5594 54.2096C72.9394 54.2596 77.3194 54.2296 81.6994 54.2296H94.9994C95.7494 54.2296 96.3394 54.2596 96.3094 53.1896C96.2394 49.9696 96.3994 46.7296 96.1894 43.5196V43.5396L96.2094 43.5496ZM81.0394 45.6096C78.9094 45.5696 76.7694 45.5996 74.6194 45.5996C72.4694 45.5996 70.4394 45.5696 68.3594 45.6096C67.5194 45.6296 67.2594 45.3596 67.2394 44.5096C67.1094 39.9696 70.1694 36.8596 74.8594 36.8596C79.5494 36.8596 82.3494 39.9096 82.1894 44.5396C82.1594 45.4196 81.8394 45.6296 81.0394 45.6096Z" fill="black"/>
</svg>
