<svg width="412" height="76" viewBox="0 0 412 76" fill="none" xmlns="http://www.w3.org/2000/svg">
<path d="M26.12 2.79004L0 72.61H14.66L20.73 57.41H48.74L55.15 72.61H69.87L43.15 2.80005H26.13L26.12 2.79004ZM24.37 45.24L27.53 36.34C28.74 32.72 30.02 28.52 31.37 23.76C32.33 20.37 33.41 16.53 34.53 12.47C35.68 16.47 36.78 20.27 37.77 23.62C39.18 28.35 40.53 32.59 41.84 36.34L45.11 45.24H24.37Z" fill="black"/>
<path d="M170.72 2.79004L144.6 72.6H159.26L165.33 57.4H193.34L199.75 72.6H214.47L187.75 2.79004H170.73H170.72ZM168.97 45.24L172.13 36.34C173.34 32.72 174.62 28.52 175.97 23.76C176.93 20.37 178.01 16.53 179.13 12.47C180.28 16.47 181.38 20.27 182.37 23.62C183.78 28.35 185.13 32.59 186.44 36.34L189.71 45.24H168.97Z" fill="black"/>
<path d="M123.09 48.67C112.85 33.38 102.61 18.08 92.3703 2.79004H78.5703V72.6H91.0003C91.2503 57.53 91.5003 42.46 91.7503 27.39C101.85 42.46 111.96 57.53 122.06 72.6H135.9V2.79004H123.52C123.38 18.08 123.23 33.38 123.09 48.67Z" fill="black"/>
<path d="M237.69 2.79004H223.17V72.61H273.46V62.0601H237.69V2.79004Z" fill="black"/>
<path d="M299.64 42.5699H334.95V30.48H299.64V13.33H337.78V2.79004H285.12V72.61H338V62.0601H299.64V42.5699Z" fill="black"/>
<path d="M411.47 52.8698C410.9 55.1898 410.04 57.4098 408.91 59.4998C407.28 62.5798 405.09 65.3198 402.42 67.6598C399.75 69.9998 396.63 71.8498 393.1 73.1498C389.59 74.4698 385.66 75.1298 381.4 75.1298C375.08 75.1298 369.36 73.6198 364.37 70.6398C359.39 67.6598 355.4 63.3097 352.53 57.7197C349.67 52.1797 348.23 45.4497 348.23 37.7397C348.23 30.0297 349.67 23.2498 352.55 17.6798C355.44 12.0798 359.44 7.72976 364.45 4.74976C369.45 1.77976 375.15 0.259766 381.4 0.259766C385.32 0.259766 389.05 0.829717 392.48 1.95972C395.94 3.09972 399.07 4.77973 401.8 6.96973C404.51 9.15973 406.8 11.8698 408.56 15.0498C409.7 17.1098 410.61 19.4297 411.26 21.9397C406.29 23.1497 401.33 24.3498 396.36 25.5598L396.01 24.4497C395.65 23.2797 395.17 22.2297 394.63 21.3397C393.76 19.9097 392.68 18.7097 391.39 17.7197C390.09 16.7197 388.6 15.9598 386.96 15.4298C385.29 14.9098 383.5 14.6398 381.6 14.6398C378.17 14.6398 375.09 15.5298 372.44 17.2598C369.79 19.0098 367.68 21.6097 366.16 24.9697C364.6 28.4097 363.83 32.7097 363.83 37.7397C363.83 42.7697 364.62 47.1497 366.19 50.5797C367.71 53.9297 369.82 56.4997 372.47 58.1997C375.12 59.8997 378.17 60.7498 381.55 60.7498C383.45 60.7498 385.25 60.4797 386.91 59.9597C388.54 59.4397 390.04 58.6698 391.37 57.6698C392.66 56.6898 393.77 55.4598 394.65 54.0398C395.49 52.6598 396.09 51.0397 396.44 49.2297L396.68 47.9397C401.62 49.5697 406.53 51.2097 411.45 52.8597L411.47 52.8698Z" fill="black"/>
</svg>
