<svg width="128" height="76" viewBox="0 0 128 76" fill="none" xmlns="http://www.w3.org/2000/svg">
<path d="M37.5201 28.6798C32.4001 28.6798 28.2501 32.8298 28.2501 37.9498C28.2501 43.0698 32.4001 47.2197 37.5201 47.2197C42.6401 47.2197 46.7901 43.0698 46.7901 37.9498C46.7901 32.8298 42.6401 28.6798 37.5301 28.6798H37.5201ZM37.5201 44.1597C34.0901 44.1597 31.3101 41.3798 31.3101 37.9498C31.3101 34.5198 34.0901 31.7398 37.5201 31.7398C40.9501 31.7398 43.7301 34.5198 43.7301 37.9498C43.7301 41.3798 40.9501 44.1597 37.5201 44.1597ZM89.9401 0.509785C80.1401 0.499785 70.7201 4.33978 63.7301 11.2198C56.7401 4.34978 47.3201 0.499785 37.5201 0.509785C16.8401 0.509785 0.0800781 17.2698 0.0800781 37.9498C0.0800781 58.6298 16.8401 75.3898 37.5201 75.3898C47.3201 75.3998 56.7401 71.5598 63.7301 64.6798C70.7201 71.5498 80.1401 75.3998 89.9401 75.3898C110.62 75.3898 127.38 58.6298 127.38 37.9498C127.38 17.2698 110.62 0.509785 89.9401 0.509785ZM89.9401 72.4697C80.5201 72.4697 71.9801 68.6798 65.7501 62.5398C68.4601 59.4298 70.6301 55.8898 72.1901 52.0698H69.0001C67.6501 55.0698 65.8801 57.8698 63.7301 60.3698C61.5901 57.8698 59.8101 55.0698 58.4601 52.0698H55.2701C56.8301 55.8898 59.0001 59.4298 61.7101 62.5398C55.4801 68.6698 46.9301 72.4697 37.5201 72.4697C18.4901 72.4697 3.00008 56.9898 3.00008 37.9498C3.00008 18.9098 18.4801 3.42977 37.5201 3.42977C46.9401 3.42977 55.4801 7.21976 61.7101 13.3598C59.0001 16.4698 56.8301 20.0098 55.2701 23.8298H58.4601C59.8101 20.8298 61.5901 18.0298 63.7301 15.5298C65.8701 18.0298 67.6501 20.8298 69.0001 23.8298H72.1901C70.6301 20.0098 68.4601 16.4698 65.7501 13.3598C71.9801 7.22976 80.5301 3.42977 89.9401 3.42977C108.97 3.42977 124.46 18.9098 124.46 37.9498C124.46 56.9898 108.97 72.4697 89.9401 72.4697ZM112.3 39.6798C114.22 38.8298 115.57 36.9798 115.62 34.8598C115.67 32.6098 114.4 30.6797 112.39 29.7197C111.13 29.1197 109.79 29.0098 108.41 29.0098H102.38V46.8898H105.52V40.4697H109.33L113.16 46.8898H116.84L112.31 39.6798H112.3ZM112.46 34.6597C112.46 35.5497 112.09 36.3998 111.38 36.9498C110.69 37.4898 109.82 37.6997 108.95 37.7197C108.14 37.7397 105.85 37.7197 105.52 37.7197V31.7798H107.99C109.11 31.7798 110.33 31.7398 111.31 32.3898C112.08 32.9098 112.46 33.7598 112.46 34.6698V34.6597ZM36.5401 24.9598C36.5401 25.9098 35.7701 26.6798 34.8201 26.6798C33.8701 26.6798 33.1001 25.9098 33.1001 24.9598C33.1001 24.0098 33.8701 23.2398 34.8201 23.2398C35.7701 23.2398 36.5401 24.0098 36.5401 24.9598ZM41.9401 24.9598C41.9401 25.9098 41.1701 26.6798 40.2201 26.6798C39.2701 26.6798 38.5001 25.9098 38.5001 24.9598C38.5001 24.0098 39.2701 23.2398 40.2201 23.2398C41.1701 23.2398 41.9401 24.0098 41.9401 24.9598ZM60.3601 39.6798C62.2801 38.8298 63.6301 36.9798 63.6801 34.8598C63.7301 32.6098 62.4601 30.6797 60.4501 29.7197C59.1901 29.1197 57.8501 29.0098 56.4701 29.0098H50.4401V46.8898H53.5801V40.4697H57.3901L61.2201 46.8898H64.9001L60.3601 39.6798ZM60.5201 34.6597C60.5201 35.5497 60.1501 36.3998 59.4401 36.9498C58.7501 37.4898 57.8801 37.6997 57.0101 37.7197C56.2001 37.7397 53.9101 37.7197 53.5801 37.7197V31.7798H56.0501C57.1701 31.7798 58.3901 31.7398 59.3701 32.3898C60.1401 32.9098 60.5201 33.7598 60.5201 34.6698V34.6597ZM81.4601 39.0898C81.0901 38.4998 80.5801 37.9998 79.9801 37.6498C80.5301 37.3098 80.9901 36.8498 81.3201 36.2998C81.7101 35.6398 81.9101 34.8698 81.9101 34.0198C81.9101 32.4598 81.3601 31.2198 80.2901 30.3298C79.2301 29.4598 77.7701 29.0098 75.9601 29.0098H68.6001V46.8898H76.0601C77.8801 46.8898 79.3701 46.4398 80.4601 45.5498C81.5701 44.6498 82.1301 43.3398 82.1301 41.6498C82.1301 40.6498 81.9001 39.7898 81.4601 39.0898ZM78.2801 43.3398C77.7701 43.7798 77.0201 43.9998 76.0601 43.9998H71.6501V39.2098H75.8701C77.0101 39.2098 77.8301 39.4198 78.3201 39.8498C78.8101 40.2798 79.0401 40.8398 79.0401 41.5998C79.0401 42.3298 78.8001 42.9098 78.2901 43.3398H78.2801ZM78.1601 35.6398C77.7201 36.0698 77.0001 36.2798 76.0301 36.2798H71.6401V31.8598H75.9501C76.9201 31.8598 77.6501 32.0498 78.1201 32.4298C78.5901 32.8098 78.8101 33.3198 78.8101 33.9998C78.8101 34.6698 78.6001 35.1998 78.1501 35.6298L78.1601 35.6398ZM89.4301 31.9898V36.4398H96.7601V39.4198H89.4301V43.8898H98.2601V46.8898H86.3801V29.0098H98.2601V31.9898H89.4301ZM18.8401 37.9498L27.7801 46.8898H23.7401L15.7701 38.9798V46.8898H12.6301V29.0098H15.7701V36.9598L23.7401 29.0098H27.7801L18.8401 37.9498Z" fill="black"/>
<path d="M37.5201 28.6798C32.4001 28.6798 28.2501 32.8298 28.2501 37.9498C28.2501 43.0698 32.4001 47.2197 37.5201 47.2197C42.6401 47.2197 46.7901 43.0698 46.7901 37.9498C46.7901 32.8298 42.6401 28.6798 37.5301 28.6798H37.5201ZM37.5201 44.1597C34.0901 44.1597 31.3101 41.3798 31.3101 37.9498C31.3101 34.5198 34.0901 31.7398 37.5201 31.7398C40.9501 31.7398 43.7301 34.5198 43.7301 37.9498C43.7301 41.3798 40.9501 44.1597 37.5201 44.1597ZM89.9401 0.509785C80.1401 0.499785 70.7201 4.33978 63.7301 11.2198C56.7401 4.34978 47.3201 0.499785 37.5201 0.509785C16.8401 0.509785 0.0800781 17.2698 0.0800781 37.9498C0.0800781 58.6298 16.8401 75.3898 37.5201 75.3898C47.3201 75.3998 56.7401 71.5598 63.7301 64.6798C70.7201 71.5498 80.1401 75.3998 89.9401 75.3898C110.62 75.3898 127.38 58.6298 127.38 37.9498C127.38 17.2698 110.62 0.509785 89.9401 0.509785ZM89.9401 72.4697C80.5201 72.4697 71.9801 68.6798 65.7501 62.5398C68.4601 59.4298 70.6301 55.8898 72.1901 52.0698H69.0001C67.6501 55.0698 65.8801 57.8698 63.7301 60.3698C61.5901 57.8698 59.8101 55.0698 58.4601 52.0698H55.2701C56.8301 55.8898 59.0001 59.4298 61.7101 62.5398C55.4801 68.6698 46.9301 72.4697 37.5201 72.4697C18.4901 72.4697 3.00008 56.9898 3.00008 37.9498C3.00008 18.9098 18.4801 3.42977 37.5201 3.42977C46.9401 3.42977 55.4801 7.21976 61.7101 13.3598C59.0001 16.4698 56.8301 20.0098 55.2701 23.8298H58.4601C59.8101 20.8298 61.5901 18.0298 63.7301 15.5298C65.8701 18.0298 67.6501 20.8298 69.0001 23.8298H72.1901C70.6301 20.0098 68.4601 16.4698 65.7501 13.3598C71.9801 7.22976 80.5301 3.42977 89.9401 3.42977C108.97 3.42977 124.46 18.9098 124.46 37.9498C124.46 56.9898 108.97 72.4697 89.9401 72.4697ZM112.3 39.6798C114.22 38.8298 115.57 36.9798 115.62 34.8598C115.67 32.6098 114.4 30.6797 112.39 29.7197C111.13 29.1197 109.79 29.0098 108.41 29.0098H102.38V46.8898H105.52V40.4697H109.33L113.16 46.8898H116.84L112.31 39.6798H112.3ZM112.46 34.6597C112.46 35.5497 112.09 36.3998 111.38 36.9498C110.69 37.4898 109.82 37.6997 108.95 37.7197C108.14 37.7397 105.85 37.7197 105.52 37.7197V31.7798H107.99C109.11 31.7798 110.33 31.7398 111.31 32.3898C112.08 32.9098 112.46 33.7598 112.46 34.6698V34.6597ZM36.5401 24.9598C36.5401 25.9098 35.7701 26.6798 34.8201 26.6798C33.8701 26.6798 33.1001 25.9098 33.1001 24.9598C33.1001 24.0098 33.8701 23.2398 34.8201 23.2398C35.7701 23.2398 36.5401 24.0098 36.5401 24.9598ZM41.9401 24.9598C41.9401 25.9098 41.1701 26.6798 40.2201 26.6798C39.2701 26.6798 38.5001 25.9098 38.5001 24.9598C38.5001 24.0098 39.2701 23.2398 40.2201 23.2398C41.1701 23.2398 41.9401 24.0098 41.9401 24.9598ZM60.3601 39.6798C62.2801 38.8298 63.6301 36.9798 63.6801 34.8598C63.7301 32.6098 62.4601 30.6797 60.4501 29.7197C59.1901 29.1197 57.8501 29.0098 56.4701 29.0098H50.4401V46.8898H53.5801V40.4697H57.3901L61.2201 46.8898H64.9001L60.3601 39.6798ZM60.5201 34.6597C60.5201 35.5497 60.1501 36.3998 59.4401 36.9498C58.7501 37.4898 57.8801 37.6997 57.0101 37.7197C56.2001 37.7397 53.9101 37.7197 53.5801 37.7197V31.7798H56.0501C57.1701 31.7798 58.3901 31.7398 59.3701 32.3898C60.1401 32.9098 60.5201 33.7598 60.5201 34.6698V34.6597ZM81.4601 39.0898C81.0901 38.4998 80.5801 37.9998 79.9801 37.6498C80.5301 37.3098 80.9901 36.8498 81.3201 36.2998C81.7101 35.6398 81.9101 34.8698 81.9101 34.0198C81.9101 32.4598 81.3601 31.2198 80.2901 30.3298C79.2301 29.4598 77.7701 29.0098 75.9601 29.0098H68.6001V46.8898H76.0601C77.8801 46.8898 79.3701 46.4398 80.4601 45.5498C81.5701 44.6498 82.1301 43.3398 82.1301 41.6498C82.1301 40.6498 81.9001 39.7898 81.4601 39.0898ZM78.2801 43.3398C77.7701 43.7798 77.0201 43.9998 76.0601 43.9998H71.6501V39.2098H75.8701C77.0101 39.2098 77.8301 39.4198 78.3201 39.8498C78.8101 40.2798 79.0401 40.8398 79.0401 41.5998C79.0401 42.3298 78.8001 42.9098 78.2901 43.3398H78.2801ZM78.1601 35.6398C77.7201 36.0698 77.0001 36.2798 76.0301 36.2798H71.6401V31.8598H75.9501C76.9201 31.8598 77.6501 32.0498 78.1201 32.4298C78.5901 32.8098 78.8101 33.3198 78.8101 33.9998C78.8101 34.6698 78.6001 35.1998 78.1501 35.6298L78.1601 35.6398ZM89.4301 31.9898V36.4398H96.7601V39.4198H89.4301V43.8898H98.2601V46.8898H86.3801V29.0098H98.2601V31.9898H89.4301ZM18.8401 37.9498L27.7801 46.8898H23.7401L15.7701 38.9798V46.8898H12.6301V29.0098H15.7701V36.9598L23.7401 29.0098H27.7801L18.8401 37.9498Z" fill="black"/>
</svg>
