<svg width="255" height="76" viewBox="0 0 255 76" fill="none" xmlns="http://www.w3.org/2000/svg">
<path d="M87.3604 0.319824V75.1898H0.610352V0.319824H87.3503H87.3604ZM22.8304 11.8898H13.3904V52.8298C13.3904 53.2398 14.2803 55.4098 14.5504 55.9298C16.0303 58.7698 19.5904 60.9198 22.8204 60.5898V28.9398H33.4704V21.4798C33.4704 21.4798 33.0504 21.0198 33.0104 21.0198H22.8104V11.8898H22.8304ZM69.0903 21.3198H35.3103V52.5198C35.3103 52.7198 36.1304 55.1098 36.3004 55.4798C37.7304 58.5698 41.2703 60.8398 44.7403 60.5798V28.9298H59.5004C59.5004 28.9298 59.9604 29.3498 59.9604 29.3898V53.4298C59.9604 53.6198 61.0104 56.0798 61.2304 56.4198C62.7504 58.8198 66.2003 60.8798 69.0903 60.5798V21.3198Z" fill="#FBFCFC"/>
<path d="M97.1006 43.2397L101.011 43.2897L107.911 60.2798L115.101 43.2798L119.021 43.2397V65.1498H116.591V46.2798L109.251 64.0497C108.971 65.0997 107.931 65.7097 107.191 64.6697L99.5606 46.2897L99.8606 65.1597H97.1206V43.2397H97.1006Z" fill="#F0F8F9"/>
<path d="M236.491 35.7798C236.061 38.7698 233.091 40.8098 230.251 41.0998C228.101 41.3198 222.861 41.6498 223.711 38.3598C229.591 39.8198 234.521 39.2698 234.051 31.9698C226.631 37.3898 220.561 29.5298 223.561 21.9298C225.301 17.5298 230.521 15.9698 233.901 19.4798C234.511 19.2198 234.261 18.0898 234.371 17.9798C234.511 17.8398 236.051 18.0498 236.491 17.9698V35.7798ZM228.801 19.8698C224.181 20.8298 223.991 31.9698 230.211 31.6498C231.201 31.5998 233.691 30.6698 233.991 29.6298C234.221 28.8498 234.191 23.3798 234.031 22.4098C233.691 20.2598 230.661 19.4898 228.791 19.8798L228.801 19.8698Z" fill="#F0F8F9"/>
<path d="M161.62 41.4097V65.1497C159.88 65.1797 159.34 65.5897 159.18 63.6297C153.82 68.1297 147.66 64.4197 147.59 57.6897C147.54 52.5997 151.57 47.2997 156.96 49.5697C157.85 49.9397 158.3 50.6697 159.18 50.8497V41.4097H161.62ZM158.49 62.0197C159.03 61.3597 159.1 53.8197 158.73 52.9797C158.14 51.6797 155.47 51.3097 154.2 51.4797C148.8 52.1997 148.78 64.8397 156.23 63.2497C156.6 63.1697 158.29 62.2597 158.49 62.0197Z" fill="#F0F8F9"/>
<path d="M148.531 10.0596V19.7996C149.781 19.3596 150.711 18.0196 152.101 17.7396C153.801 17.3896 155.721 17.5596 157.061 18.7296C157.421 19.0496 158.571 20.5496 158.571 20.8696V33.1996H156.141V22.0896C156.141 21.9696 155.671 21.0596 155.531 20.8696C153.651 18.2796 148.531 21.0696 148.531 22.6996V33.1996H146.101V10.0696H148.531V10.0596Z" fill="#F0F8F9"/>
<path d="M127.23 26.1897H116.58C116.91 31.9397 122.2 32.0997 126.62 30.7597C127.3 33.4597 124.99 33.6997 122.83 33.8097C118.09 34.0697 114.56 31.8897 114.15 26.9497C113.15 14.9097 128.48 14.1397 127.23 26.1897ZM124.49 24.0597C124.79 18.0497 117.19 18.6697 116.88 24.0597H124.49Z" fill="#F0F8F9"/>
<path d="M210.54 17.74C211.41 17.56 213.21 17.5801 214.1 17.7001C222.48 18.8501 221.88 35.08 211.46 33.72C203.08 32.63 203.44 19.19 210.54 17.74ZM215.69 30.35C218.12 27.92 217.69 20.9301 213.98 19.9501C206.51 17.9701 205.77 31.2 212.33 31.66C213.29 31.73 215.02 31.02 215.69 30.35Z" fill="#F0F8F9"/>
<path d="M185.591 17.7399C197.701 15.8199 197.371 34.8299 186.461 33.7599C177.801 32.9099 178.061 18.9299 185.591 17.7399ZM186.191 19.8699C181.631 20.7099 181.131 30.1699 186.331 31.4599C193.561 33.2599 194.251 18.3799 186.191 19.8699Z" fill="#F0F8F9"/>
<path d="M143.97 65.1499H141.23V53.7398C141.23 51.2498 137.43 51.0598 135.64 52.1098C135.34 52.2798 133.62 53.8998 133.62 54.0398V65.1499H130.88V49.6299C132.96 49.4899 133.13 49.3799 133.47 51.4599C134.1 51.4499 134.71 50.3398 135.34 49.9798C137.75 48.5798 141.45 48.7898 143 51.3598C143.36 51.9598 143.96 53.7598 143.96 54.3498V65.1499H143.97Z" fill="#F0F8F9"/>
<path d="M163.45 33.4998V17.9798C163.92 18.0698 165.32 17.8198 165.55 18.0098C165.73 18.1598 165.68 19.5398 166.04 19.7998C168.31 17.0498 174.12 16.5298 175.69 20.1898C175.79 20.4198 176.23 21.9698 176.23 22.0798V33.0398C176.23 33.6898 173.49 33.6898 173.49 33.0398V21.7799C173.49 21.4899 172.44 20.3298 172.08 20.1498C170.23 19.1798 166.43 20.6698 166.17 22.6798C165.76 25.8098 166.54 29.7698 166.14 32.9998C165.86 33.8498 164.19 33.4098 163.44 33.4998H163.45Z" fill="#F0F8F9"/>
<path d="M241.92 18.0298C242.53 18.4098 245.66 28.5097 246.69 29.8497C247.66 28.5197 250.91 18.3597 251.45 18.0197C251.84 17.7697 253.53 18.1097 254.15 17.9797L244.51 40.8197C243.95 40.6597 242.14 41.2397 242.28 40.3497C242.56 38.5197 245.4 34.3297 245.27 32.8197L239.55 18.4297C239.26 17.6597 241.81 17.9597 241.93 18.0397L241.92 18.0298Z" fill="#F0F8F9"/>
<path d="M177.45 49.6296C177.47 50.2596 177.53 50.8396 177.29 51.4396C176.64 53.0796 171.9 58.5396 170.51 60.4896C169.97 61.2496 169.22 62.1497 168.93 63.0197H178.06V65.1497H165.28L165.56 63.4496L174.1 51.7496H165.58V49.6196H177.45V49.6296Z" fill="#F0F8F9"/>
<path d="M114.141 11.8896V14.0197H106.841V33.1896H104.401V14.0197H97.1006V11.8896H114.141Z" fill="#FBFCFC"/>
<path d="M127.23 48.1099V65.4599C125.59 66.0499 122.66 63.3699 122.66 61.9599V48.1099H127.23Z" fill="#FBFCFC"/>
<path d="M141.791 18.3196C142.021 18.6796 141.731 19.8796 141.831 20.4096C136.501 18.5996 132.811 20.8496 133.301 26.6596C133.721 31.6496 138.151 32.1696 142.141 30.7596C142.841 33.3896 140.471 33.7896 138.341 33.8196C128.231 33.9796 128.301 19.3896 136.041 17.7996C137.041 17.5896 141.301 17.5296 141.801 18.3196H141.791Z" fill="#F0F8F9"/>
<path d="M201.18 10.0596H198.75V33.1896H201.18V10.0596Z" fill="#FBFCFC"/>
<path d="M127.23 42.9297H122.66V47.4997H127.23V42.9297Z" fill="#F0F8F9"/>
</svg>
