<svg width="468" height="76" viewBox="0 0 468 76" fill="none" xmlns="http://www.w3.org/2000/svg">
<path d="M150.4 38.0899C150.4 49.4699 143.84 61.7799 126.26 61.7799C113.56 61.7799 102 54.7099 102 38.0899C102 24.2999 110.73 13.6799 127.98 14.6399C146.37 15.6599 150.41 29.8999 150.41 38.0899H150.4ZM117.61 29.4199C115.98 31.9499 115.35 34.9899 115.35 37.9999C115.35 44.9799 118.81 51.3099 126.25 51.3099C133.69 51.3099 136.94 45.4999 136.94 38.6099C136.94 33.7299 135.74 29.9399 133.24 27.5599C130.47 25.0599 127.37 24.9699 125.47 25.1199C121.65 25.3899 119.42 26.6599 117.61 29.4199Z" fill="white"/>
<path d="M268.22 19.7296C269.54 18.3496 270.39 17.3197 272.71 16.2097C274.79 15.3397 277.74 14.6396 280.93 14.6396C283.61 14.6396 286.62 15.0596 288.94 16.3596C293.7 18.8596 294.9 22.9197 294.9 29.9097V60.6796H281.71V35.3297C281.71 31.2997 281.62 29.8196 281.11 28.6196C280.09 26.2096 277.74 25.1597 275.15 25.1597C268.17 25.1597 268.17 30.7596 268.17 36.3596V60.6796H254.86V15.7596H268.23V19.7296H268.22Z" fill="white"/>
<path d="M248.54 49.0498C247.34 51.6098 243.42 61.7798 226.11 61.7798C212.74 61.7798 203.32 53.6198 203.32 38.8698C203.32 27.9998 208.68 14.6398 226.47 14.6398C229.12 14.6398 236.89 14.3098 242.7 20.5098C248.54 26.7998 248.9 35.5898 249.08 40.6798H216.9C216.81 46.2798 220 51.8798 227.17 51.8798C234.34 51.8798 236.89 47.1498 238.55 43.9598L248.57 49.0498H248.54ZM235.32 32.3998C235.08 30.4998 234.72 27.9998 232.82 26.0198C231.19 24.3898 228.7 23.5198 226.35 23.5198C223.16 23.5198 220.93 25.0898 219.61 26.4698C217.8 28.4298 217.38 30.4998 216.96 32.3998H235.32Z" fill="white"/>
<path d="M433.35 25.0901H442.17V15.7601H433.44V6.31006H420.25V15.7601H418.14L412.09 25.0901H420.25V46.4601C420.25 50.7601 420.31 53.9601 422.15 56.6401C425.01 60.7601 430.01 61.0401 434.58 61.0401C436.99 61.0401 438.7 60.7701 441.56 60.3501V49.9901L436.8 50.1701C433.25 50.1701 433.25 47.8201 433.34 45.0801V25.0901H433.35Z" fill="white"/>
<path d="M301.521 6.30005H314.711V15.75H328.441L322.391 25.08H314.621V45.0701C314.561 47.8101 314.561 50.16 318.081 50.16L322.841 49.98V60.34C319.981 60.76 318.261 61.03 315.861 61.03C311.281 61.03 306.261 60.7601 303.431 56.6301C301.621 53.9501 301.531 50.76 301.531 46.45V6.29004L301.521 6.30005Z" fill="white"/>
<path d="M454.39 25.0898H452.76V17.1398H449.75V15.7598H457.34V17.1398H454.39V25.0898ZM467.18 25.0898H465.55L465.61 19.3398L465.7 17.4098L465.25 18.9798L463.32 25.0898H461.87L459.97 18.9798L459.49 17.4398L459.61 19.3398L459.67 25.0898H458.1V15.7598H460.33L462.65 23.1398L464.94 15.7598H467.14V25.0898H467.17H467.18Z" fill="white"/>
<path d="M370.04 49.0798L367.54 52.9898C365.16 56.4498 360.71 61.7798 347.94 61.7798C335.17 61.7798 325.57 53.6198 325.57 38.8698C325.57 27.9998 330.93 14.6398 348.72 14.6398C351.4 14.6398 359.17 14.3098 364.95 20.5098C370.82 26.7998 371.15 35.5898 371.33 40.6798H339.15C339.06 46.2798 341.83 51.8798 348.99 51.8798C356.15 51.8798 358.32 47.1498 359.95 43.9598L370.07 49.0798H370.04ZM357.57 32.3998C357.33 30.4998 356.97 27.9998 355.07 26.0198C353.44 24.3898 350.92 23.5198 348.6 23.5198C345.41 23.5198 343.15 25.0898 341.86 26.4698C340.05 28.4298 339.63 30.4998 339.18 32.3998H357.57Z" fill="white"/>
<path d="M415.281 60.6698L398.781 37.0398L412.541 15.7598H397.431L390.931 25.8098L383.921 15.7598H368.811L383.681 37.0398L368.391 60.6698H383.501L391.541 48.2698L400.181 60.6698H415.291H415.281Z" fill="white"/>
<path d="M168.7 19.7296C169.96 17.7996 174.06 14.6396 180.53 14.6396C191.58 14.6396 199.35 23.0096 199.35 37.9996C199.35 47.2096 195.98 61.7796 179.99 61.7796C174.21 61.7796 169.75 58.5897 168.61 56.6897V75.5397H155.33V15.7496H168.7V19.7197V19.7296ZM177.67 24.9996C175.26 24.9996 172.76 25.9596 170.87 28.3696C168.97 30.7196 168.1 34.3297 168.1 38.2397C168.1 43.5397 169.67 46.7297 171.29 48.5997C172.83 50.3197 175.08 51.3096 177.25 51.3096C183.72 51.3096 186.55 44.5097 186.55 37.9097C186.55 32.3697 184.92 26.5297 179.48 25.2397C178.88 25.0797 178.28 24.9996 177.67 24.9996Z" fill="white"/>
<path d="M29.8605 33.73C25.9205 33.73 22.7305 36.92 22.7305 40.86C22.7305 44.8 25.9205 47.99 29.8605 47.99C33.8005 47.99 37.0205 44.8 37.0205 40.86C37.0205 36.92 33.8305 33.73 29.8605 33.73Z" fill="white"/>
<path d="M63.0303 0.879883H12.8803C6.08031 0.879883 0.570312 6.38988 0.570312 13.1599V63.2499C0.570312 70.0499 6.08031 75.5299 12.8803 75.5299H63.0303C69.8303 75.5299 75.3403 70.0499 75.3403 63.2499V13.1599C75.3403 6.38988 69.8303 0.879883 63.0303 0.879883ZM61.8003 26.7099L58.6703 31.5899C58.5203 31.7999 58.2803 31.9499 58.0103 31.9499H53.8603C53.4403 31.9499 53.0803 32.2799 53.0803 32.7299H53.1103V45.6999C53.1103 47.6299 53.0503 49.2199 55.4903 49.2199L57.9303 49.1299C58.3803 49.0999 58.7403 49.4599 58.7403 49.9099V55.5699C58.7403 55.9299 58.4703 56.2899 58.0803 56.3499C56.4803 56.5899 55.4003 56.7099 53.9303 56.7099C50.7703 56.7099 47.3403 56.5299 45.3503 53.6999C44.3303 52.1599 44.1203 50.3899 44.0603 48.1599C41.4103 53.2799 36.0803 56.7699 29.9103 56.7699C21.1203 56.7699 13.9803 49.6399 13.9803 40.8399C13.9803 32.0399 21.1103 24.9399 29.9103 24.9399C36.0503 24.9399 41.3803 28.4299 44.0603 33.5199V19.7299C44.0603 19.3099 44.3903 18.9499 44.8403 18.9499H52.3703C52.7903 18.9499 53.1503 19.3099 53.1503 19.7299V24.6999C53.1503 25.1199 53.5103 25.4799 53.9303 25.4799H61.1603C61.7903 25.4799 62.1803 26.1699 61.8203 26.6799L61.8003 26.7099Z" fill="white"/>
</svg>
