<svg width="156" height="48" viewBox="0 0 156 48" fill="none" xmlns="http://www.w3.org/2000/svg">
<path d="M152.146 28.4662C152.058 28.9092 151.903 29.2856 151.692 29.6177C151.482 29.9495 151.205 30.2156 150.851 30.4256C150.508 30.6252 150.077 30.7355 149.567 30.7355C149.069 30.7355 148.637 30.6361 148.294 30.4256C147.952 30.2253 147.66 29.9488 147.442 29.6177C147.231 29.286 147.076 28.9092 146.977 28.4662C146.88 28.0266 146.831 27.5774 146.833 27.127C146.833 26.6622 146.878 26.197 146.966 25.7659C147.055 25.3229 147.209 24.9356 147.42 24.6035C147.63 24.2599 147.907 23.9946 148.261 23.7735C148.604 23.5629 149.036 23.4523 149.545 23.4523C150.043 23.4523 150.464 23.5629 150.807 23.7735C151.15 23.9861 151.442 24.2736 151.659 24.6144C151.881 24.9574 152.036 25.3557 152.135 25.7878C152.234 26.2304 152.279 26.6731 152.279 27.127C152.279 27.5809 152.234 28.0236 152.146 28.4662ZM155.091 24.8912C154.88 24.1496 154.57 23.5076 154.15 22.9431C153.718 22.3899 153.187 21.9356 152.545 21.6039C151.902 21.2718 151.128 21.0947 150.231 21.0947C149.523 21.0947 148.88 21.2387 148.294 21.5155C147.707 21.7923 147.22 22.2459 146.844 22.8547H146.8V21.4046H143.833V36.7572H146.955V31.3662H146.999C147.367 31.9078 147.871 32.3431 148.46 32.6283C149.058 32.916 149.7 33.06 150.408 33.06C151.238 33.06 151.969 32.8941 152.6 32.573C153.209 32.261 153.742 31.8188 154.161 31.2778C154.581 30.7355 154.891 30.1154 155.091 29.4072C155.301 28.6987 155.4 27.9686 155.4 27.2045C155.4 26.3966 155.301 25.6219 155.091 24.88V24.8912ZM139.694 28.4662C139.605 28.9092 139.45 29.2856 139.24 29.6177C139.029 29.9498 138.753 30.2156 138.398 30.4256C138.055 30.6252 137.624 30.7355 137.115 30.7355C136.616 30.7355 136.196 30.6361 135.841 30.4256C135.499 30.2251 135.208 29.9487 134.989 29.6177C134.779 29.286 134.624 28.9092 134.525 28.4662C134.427 28.0266 134.379 27.5774 134.381 27.127C134.381 26.6622 134.425 26.197 134.513 25.7659C134.602 25.3229 134.757 24.9356 134.967 24.6035C135.178 24.2599 135.454 23.9946 135.808 23.7735C136.151 23.5629 136.583 23.4523 137.092 23.4523C137.591 23.4523 138.011 23.5629 138.354 23.7735C138.698 23.986 138.989 24.2735 139.206 24.6144C139.428 24.9574 139.583 25.3557 139.683 25.7878C139.782 26.2304 139.826 26.6731 139.826 27.127C139.826 27.5809 139.782 28.0236 139.694 28.4662ZM141.697 22.9431C141.276 22.3899 140.734 21.9356 140.092 21.6039C139.45 21.2718 138.675 21.0947 137.778 21.0947C137.07 21.0947 136.428 21.2387 135.841 21.5155C135.255 21.7923 134.768 22.2459 134.391 22.8547H134.347V21.4046H131.38V36.7572H134.502V31.3662H134.546C134.914 31.9078 135.418 32.3431 136.008 32.6283C136.605 32.916 137.247 33.06 137.955 33.06C138.796 33.06 139.516 32.8941 140.147 32.573C140.756 32.2608 141.289 31.8187 141.708 31.2778C142.129 30.7355 142.439 30.1154 142.649 29.4072C142.853 28.6907 142.958 27.9495 142.959 27.2045C142.959 26.3966 142.859 25.6219 142.649 24.88C142.439 24.1386 142.129 23.4964 141.697 22.9322V22.9431ZM121.152 26.7065L123.2 20.9394H123.244L125.226 26.7065H121.152ZM121.484 17.0654L115.541 32.772H119.016L120.245 29.2744H126.123L127.307 32.772H130.893L125.016 17.0654H121.474H121.484ZM115.286 27.7912C115.075 27.4369 114.81 27.127 114.467 26.8836C114.135 26.6403 113.747 26.4516 113.315 26.297C112.878 26.1533 112.435 26.0278 111.987 25.9209C111.544 25.8209 111.113 25.7212 110.692 25.6328C110.271 25.5444 109.884 25.4445 109.563 25.3339C109.231 25.2233 108.965 25.0796 108.766 24.9021C108.555 24.725 108.456 24.5038 108.456 24.2161C108.456 23.9837 108.511 23.7953 108.633 23.6513C108.755 23.5076 108.899 23.408 109.065 23.3305C109.231 23.253 109.419 23.2086 109.629 23.1868C109.821 23.1656 110.013 23.1546 110.205 23.1537C110.758 23.1537 111.245 23.2643 111.655 23.4745C112.065 23.6847 112.297 24.0943 112.33 24.6919H115.297C115.241 23.9834 115.054 23.408 114.755 22.9428C114.456 22.4776 114.079 22.1128 113.626 21.836C113.172 21.5592 112.652 21.3602 112.076 21.2384C111.5 21.1165 110.902 21.0613 110.283 21.0613C109.663 21.0613 109.065 21.1169 108.479 21.2271C107.892 21.3377 107.361 21.5261 106.896 21.8029C106.42 22.0797 106.043 22.4452 105.767 22.9097C105.479 23.3745 105.335 23.9837 105.335 24.7138C105.335 25.212 105.435 25.6325 105.645 25.9755C105.844 26.3192 106.121 26.6066 106.453 26.839C106.796 27.0605 107.173 27.2488 107.604 27.3925C108.036 27.5362 108.479 27.6584 108.933 27.7577C110.051 27.9901 110.914 28.2226 111.545 28.455C112.165 28.6874 112.475 29.0417 112.475 29.5065C112.475 29.7833 112.408 30.0157 112.276 30.2038C112.146 30.3876 111.975 30.539 111.777 30.6464C111.578 30.757 111.357 30.8348 111.113 30.8898C110.885 30.9418 110.651 30.9678 110.416 30.9673C110.106 30.9673 109.807 30.9345 109.53 30.8567C109.243 30.7792 108.988 30.668 108.767 30.5134C108.545 30.3584 108.368 30.1591 108.225 29.9157C108.081 29.6724 108.014 29.3844 108.014 29.0523H105.048C105.081 29.8158 105.247 30.4468 105.568 30.956C105.878 31.4655 106.287 31.8638 106.774 32.1737C107.261 32.4836 107.826 32.7048 108.457 32.8376C109.088 32.9706 109.73 33.0372 110.394 33.0372C111.036 33.0372 111.678 32.9706 112.298 32.8485C112.918 32.727 113.471 32.5055 113.958 32.1956C114.445 31.8857 114.833 31.4761 115.132 30.9779C115.43 30.469 115.585 29.8492 115.585 29.0963C115.585 28.5653 115.486 28.1226 115.275 27.768L115.286 27.7912ZM102.368 17.9954H99.2467V21.4046H97.3536V23.4964H99.2467V30.2044C99.2467 30.7801 99.346 31.234 99.5344 31.588C99.7228 31.9426 99.9883 32.2078 100.32 32.4074C100.652 32.5955 101.029 32.7282 101.461 32.7948C101.915 32.8624 102.374 32.8956 102.833 32.8941C103.143 32.8941 103.453 32.8832 103.785 32.8722C104.078 32.8623 104.37 32.8327 104.66 32.7835V30.3593C104.507 30.3938 104.351 30.416 104.195 30.4256C104.026 30.4388 103.856 30.4462 103.686 30.4477C103.154 30.4477 102.811 30.3593 102.634 30.1819C102.457 30.0051 102.368 29.6505 102.368 29.1307V23.4964H104.66V21.4046H102.368V17.9954H102.368ZM93.4131 28.3778C93.4131 28.5546 93.3912 28.7874 93.3578 29.0863C93.3205 29.3921 93.2186 29.6864 93.0588 29.9498C92.8929 30.2378 92.6493 30.4812 92.3062 30.6917C91.9745 30.9017 91.4872 31.0016 90.8786 31.0016C90.6349 31.0016 90.3913 30.9791 90.1479 30.9351C89.9155 30.8904 89.7053 30.8129 89.5281 30.7027C89.351 30.5918 89.2182 30.4481 89.1073 30.2488C89.008 30.0607 88.9524 29.8283 88.9524 29.5402C88.9524 29.2413 89.008 29.0089 89.1073 28.8099C89.207 28.6212 89.3507 28.4662 89.5172 28.3338C89.6831 28.2119 89.8824 28.1126 90.1148 28.0351C90.3472 27.9577 90.5687 27.9021 90.8121 27.8577C91.062 27.8147 91.3129 27.7778 91.5646 27.7471C91.8192 27.714 92.052 27.6806 92.2844 27.6365C92.5168 27.5925 92.727 27.5369 92.9264 27.4706C93.1257 27.4044 93.2915 27.3157 93.4246 27.1939V28.3563L93.4131 28.3778ZM96.5345 30.2484V24.3264C96.5345 23.6404 96.3796 23.0868 96.07 22.6663C95.7601 22.2455 95.3611 21.9247 94.8854 21.6923C94.3983 21.4599 93.867 21.3049 93.2803 21.2165C92.7044 21.1378 92.124 21.0971 91.5428 21.0947C90.9114 21.0947 90.2807 21.1612 89.6609 21.2831C89.0414 21.4049 88.4766 21.6148 87.9783 21.9141C87.4879 22.2059 87.0682 22.6029 86.7497 23.0765C86.4289 23.5635 86.2405 24.1721 86.1964 24.9028H89.3179C89.3732 24.2833 89.5834 23.8516 89.9374 23.5857C90.2919 23.3199 90.7677 23.1874 91.3878 23.1874C91.6646 23.1874 91.9298 23.2093 92.1738 23.2427C92.4005 23.2725 92.6189 23.3478 92.8158 23.4642C93.0041 23.5748 93.1478 23.7297 93.2587 23.929C93.3693 24.1283 93.4246 24.3936 93.4246 24.7369C93.4356 25.0577 93.3471 25.3017 93.1366 25.4785C92.9264 25.6444 92.6496 25.7775 92.2956 25.8659C91.9417 25.9543 91.5431 26.0208 91.0892 26.0652C90.6353 26.1095 90.1704 26.1648 89.7056 26.2423C89.2407 26.3198 88.7756 26.4191 88.3107 26.541C87.8459 26.6628 87.436 26.8508 87.0818 27.1058C86.7166 27.36 86.4289 27.6921 86.1964 28.1017C85.964 28.5225 85.8531 29.0538 85.8531 29.6958C85.8531 30.2825 85.9525 30.7917 86.1521 31.2122C86.3389 31.6221 86.6195 31.9824 86.9712 32.264C87.3367 32.5482 87.754 32.7587 88.1998 32.8838C88.6647 33.0166 89.1739 33.0828 89.7162 33.0828C90.4247 33.0828 91.111 32.9834 91.7861 32.7729C92.4538 32.5691 93.0593 32.1999 93.5461 31.6995C93.5571 31.8876 93.5905 32.0753 93.6236 32.264C93.6567 32.4408 93.712 32.6292 93.7676 32.8063H96.9334C96.7894 32.5739 96.6788 32.2193 96.6235 31.7545C96.5649 31.266 96.5353 30.7745 96.5348 30.2825V30.2484H96.5345ZM83.6726 22.3896C83.3627 21.9913 82.9419 21.6701 82.4109 21.4486C81.8795 21.2162 81.1935 21.1053 80.3519 21.1053C79.7652 21.1053 79.1676 21.2603 78.5478 21.5592C77.928 21.8582 77.4297 22.3452 77.0314 22.9981H76.9649V17.0764H73.8435V32.7832H76.9649V26.8171C76.9649 25.6547 77.1533 24.8247 77.5406 24.3155C77.9171 23.8063 78.5369 23.5629 79.3891 23.5629C80.1307 23.5629 80.6621 23.7953 80.9498 24.2599C81.2378 24.7247 81.3928 25.4223 81.3928 26.3629V32.7832H84.5142V25.7878C84.5142 25.0793 84.4477 24.4376 84.3258 23.8619C84.204 23.2861 83.9825 22.7882 83.6726 22.3896ZM67.1685 27.9021H67.1242L64.4457 17.0767H61.2134L58.4902 27.7693H58.4459L55.9552 17.0767H52.502L56.6637 32.7835H60.1615L62.7738 22.0906H62.8181L65.4747 32.7835H68.9061L70.7876 25.81L73.1343 17.0767H69.747L67.1685 27.9021Z" fill="#FAF8FF"/>
<path d="M23.223 42.236C19.404 42.236 15.8399 41.0848 12.8625 39.1258L5.62309 41.4387L7.96979 34.4433C5.71181 31.3437 4.38382 27.525 4.38382 23.4073C4.38382 13.0246 12.8294 4.57906 23.2121 4.57906C33.5948 4.57906 42.0404 13.0246 42.0404 23.4073C42.0404 33.7898 33.5948 42.2356 23.2121 42.2356H23.223V42.236ZM23.223 1.01465C10.8585 1.01465 0.830343 11.0437 0.830343 23.4077C0.830343 27.6359 2.00369 31.5986 4.04019 34.9747L0 46.9846L12.3977 43.011C15.7114 44.8433 19.4365 45.8032 23.223 45.8004C35.5873 45.8004 45.6157 35.7719 45.6157 23.4077C45.6154 11.0437 35.5873 1.01465 23.223 1.01465Z" fill="#FAF8FF"/>
<path d="M23.5059 4C34.2557 4.00011 42.9999 12.7471 43 23.5C43 34.2527 34.2558 42.9999 23.5059 43C19.5404 43 15.8611 41.8198 12.7783 39.7793L5.2832 42.1748L7.71289 34.9297C5.37506 31.7196 4.00003 27.7645 4 23.5C4 12.747 12.7442 4.00011 23.4941 4H23.5059ZM16.1387 13.1914C15.4191 13.1915 14.6667 13.4016 14.2129 13.8662C13.6596 14.4307 12.2871 15.7483 12.2871 18.4492C12.2872 21.1501 14.2569 23.7624 14.5225 24.1279C14.7994 24.493 18.3642 30.1155 23.8984 32.4072C28.2258 34.2001 29.5102 34.0344 30.4951 33.8242C31.9338 33.5144 33.7382 32.4514 34.1924 31.168C34.6463 29.8837 34.6468 28.7871 34.5137 28.5547C34.3809 28.3223 34.0151 28.1901 33.4619 27.9131C32.9087 27.6363 30.2182 26.308 29.709 26.1309C29.2109 25.943 28.7354 26.0098 28.3594 26.541C27.8281 27.2825 27.3075 28.0347 26.8867 28.4883C26.5547 28.8425 26.0122 28.8876 25.5586 28.6992C24.9497 28.4449 23.2449 27.8462 21.1416 25.9756C19.5145 24.5258 18.4077 22.722 18.0869 22.1797C17.7658 21.6265 18.0543 21.3045 18.3086 21.0059C18.5852 20.6629 18.8504 20.4195 19.127 20.0986C19.4037 19.7779 19.5593 19.6116 19.7363 19.2354C19.9246 18.8703 19.7919 18.4935 19.6592 18.2168C19.5264 17.94 18.4188 15.2392 17.9648 14.1436C17.5997 13.2694 17.3235 13.2354 16.7705 13.2129C16.5604 13.1994 16.3492 13.1924 16.1387 13.1914Z" fill="#FAF8FF"/>
</svg>
