<svg width="179" height="76" viewBox="0 0 179 76" fill="none" xmlns="http://www.w3.org/2000/svg">
<path d="M115.139 19.4502C110.849 19.4502 109.099 23.5602 108.829 26.4702H120.919C120.919 23.8402 119.839 19.4502 115.129 19.4502H115.139Z" fill="white"/>
<path d="M163.65 0.410167H15.0595C6.79953 0.410167 0.0795312 7.0602 0.0195312 15.3202V60.3702C0.0795312 68.6302 6.79953 75.2902 15.0595 75.2802H163.64C171.9 75.2802 178.62 68.6302 178.68 60.3702V15.3202C178.62 7.0602 171.9 0.400167 163.64 0.410167H163.65ZM61.4195 47.7502H51.4795V28.9102C51.4795 23.8402 49.9395 20.9302 46.6395 20.9302C44.4195 21.0102 42.5095 22.5402 41.9395 24.6902C41.6695 25.5902 41.5395 26.5202 41.5395 27.4602V47.7602H31.5995V28.3502C31.5995 23.9502 30.1195 20.9702 26.8995 20.9702C24.6395 21.1002 22.7095 22.6802 22.1395 24.8702C21.8395 25.7202 21.6995 26.6302 21.7295 27.5302V47.7602H11.7895V24.1202C11.7895 19.8002 11.6595 16.1102 11.5195 13.0602H20.1195L20.5795 17.7402H20.7895C22.8795 14.2602 26.6795 12.1802 30.7295 12.2802C34.6795 12.1302 38.2795 14.4902 39.7295 18.1702H39.8595C40.9595 16.4902 42.3995 15.0602 44.0895 13.9802C45.9595 12.8202 48.1295 12.2302 50.3395 12.2802C56.6595 12.2802 61.4195 16.9602 61.4195 27.3502V47.7502ZM90.8295 35.9002C86.0795 49.6702 82.9195 55.2002 79.2295 58.6702C76.4995 61.2202 73.0595 62.8802 69.3595 63.4202L67.2095 54.2702C68.7995 53.9502 70.3195 53.3202 71.6695 52.4302C73.4295 51.3802 74.8795 49.8902 75.8995 48.1102C76.2295 47.6502 76.4095 47.1102 76.4395 46.5502C76.4195 45.9302 76.2595 45.3202 75.9795 44.7802L63.9095 13.0702H75.2595L80.1695 30.0902C80.7095 32.1202 81.3695 34.7102 81.7795 36.5602H81.9895C82.4595 34.7102 82.9995 32.0802 83.4695 30.0902L87.4895 13.0702H98.4995L90.8395 35.9102L90.8295 35.9002ZM130.09 33.8302H108.94C109.29 38.3002 113.44 40.4302 118.21 40.4302C121.29 40.4702 124.36 39.9902 127.28 39.0102L128.63 46.3302C124.84 47.8402 120.78 48.5902 116.7 48.5302C105.55 48.5302 99.1695 41.6502 99.1695 30.7902C99.1695 22.0302 104.34 12.2802 115.76 12.2802C126.37 12.2802 130.41 21.0002 130.44 29.5802C130.44 31.0002 130.33 32.4302 130.1 33.8302H130.09ZM166.95 23.3402V42.6402C166.95 49.3102 165.67 54.7702 161.98 58.2402C158.2 61.2602 153.43 62.7802 148.59 62.4902C144.49 62.6102 140.42 61.6902 136.77 59.8302L138.78 51.6802C141.67 53.3802 144.96 54.3002 148.32 54.3402C153.15 54.3402 156.84 51.5802 156.84 45.1902V42.9202H156.71C154.73 45.8502 151.39 47.5702 147.85 47.4602C139.72 47.4602 135.1 40.5102 135.1 30.5002C135.1 19.3702 140.83 12.2702 148.86 12.2702C152.54 12.0602 156.03 13.9602 157.85 17.1702H157.98L158.32 13.0502H167.21C167.08 15.2502 166.94 18.1602 166.94 23.3302L166.95 23.3402Z" fill="white"/>
<path d="M150.42 20.27C145.03 20.27 140.67 24.64 140.67 30.02C140.67 35.4 145.04 39.77 150.42 39.77C155.8 39.77 160.17 35.4 160.17 30.02C160.17 24.64 155.8 20.27 150.42 20.27ZM153.99 34.48L150.9 31.68L150.48 34.19L146.25 26.83L154.01 30.34L151.53 30.99L154.62 33.79L153.99 34.47V34.48Z" fill="white"/>
</svg>
