<svg width="242" height="76" viewBox="0 0 242 76" fill="none" xmlns="http://www.w3.org/2000/svg">
<mask id="mask0_78_296" style="mask-type:luminance" maskUnits="userSpaceOnUse" x="0" y="0" width="242" height="76">
<path d="M241.43 0.970215H0.139648V75.7802H241.43V0.970215Z" fill="white"/>
</mask>
<g mask="url(#mask0_78_296)">
<path d="M143.359 46.56C137.659 46.56 137.359 41.52 137.359 37.14C137.359 32.76 137.659 27.66 143.359 27.66C149.059 27.66 149.419 32.4 149.419 37.14C149.419 41.88 149.119 46.56 143.359 46.56ZM131.239 64.62H137.359V49.08C139.639 51.24 142.099 52.68 145.219 52.68C148.939 52.68 151.639 51 153.379 48.72C155.059 46.56 155.539 44.58 155.539 37.14C155.539 29.7 155.059 27.66 153.379 25.5C151.639 23.22 148.939 21.54 145.219 21.54C142.099 21.54 139.279 22.98 137.359 25.08V21.9H131.239V64.63V64.62Z" fill="white"/>
<path d="M185.709 47.4C183.069 50.46 179.409 52.68 174.789 52.68C167.769 52.68 160.989 48.24 160.989 37.14C160.989 26.04 167.769 21.54 174.789 21.54C179.409 21.54 183.069 23.76 185.709 26.82L181.209 30.84C179.709 28.98 177.549 27.66 175.029 27.66C170.049 27.66 167.109 30.48 167.109 37.14C167.109 43.8 170.049 46.56 175.029 46.56C177.549 46.56 179.709 45.24 181.209 43.38L185.709 47.4Z" fill="white"/>
<path d="M206.86 41.6403C206.86 46.3803 205.12 46.9203 200.02 46.9203C195.88 46.9203 194.26 45.1203 194.26 43.0803C194.26 40.8603 195.94 39.4203 199.54 39.4203H206.86V41.6403ZM206.86 52.3203H212.98V31.5503C212.98 24.0503 207.82 21.5303 200.32 21.5303C195.76 21.5303 192.4 22.7303 190.06 25.9703L194.86 29.6303C195.94 27.8903 197.44 27.2903 200.62 27.2903C205 27.2903 206.86 28.3103 206.86 31.1903V34.3703H198.4C191.86 34.3703 188.5 38.5103 188.5 43.3703C188.5 48.6503 192.46 52.6703 199.24 52.6703C203.38 52.6703 205.48 51.7103 206.74 49.6103H206.86V52.3103V52.3203Z" fill="white"/>
<path d="M220.909 21.8903H227.029V25.1303H227.149C229.079 22.7303 231.829 21.5303 235.069 21.5303C237.529 21.5303 239.569 22.4303 241.429 23.8703L236.989 29.1503C235.549 28.0703 234.529 27.6503 232.969 27.6503C229.969 27.6503 227.029 29.5703 227.029 34.0103V52.3103H220.909V21.8903Z" fill="white"/>
<path d="M240.23 50.37C240.23 50.79 240.1 51.21 239.87 51.56C239.63 51.91 239.3 52.19 238.91 52.35C238.52 52.51 238.09 52.55 237.67 52.47C237.25 52.39 236.87 52.18 236.57 51.88C236.27 51.58 236.07 51.2 235.98 50.78C235.9 50.36 235.94 49.93 236.1 49.54C236.26 49.15 236.54 48.82 236.89 48.58C237.24 48.35 237.65 48.22 238.08 48.22C238.65 48.22 239.19 48.45 239.59 48.85C239.99 49.25 240.22 49.79 240.22 50.36L240.23 50.37ZM235.5 50.37C235.5 50.88 235.65 51.38 235.94 51.81C236.22 52.24 236.63 52.57 237.1 52.76C237.57 52.96 238.09 53.01 238.59 52.91C239.09 52.81 239.55 52.56 239.92 52.2C240.28 51.84 240.53 51.38 240.63 50.87C240.73 50.37 240.68 49.85 240.48 49.37C240.28 48.9 239.95 48.49 239.53 48.21C239.11 47.93 238.6 47.77 238.09 47.77C237.4 47.77 236.75 48.04 236.26 48.53C235.77 49.02 235.5 49.67 235.5 50.36V50.37ZM238.81 51.86H239.37L238.52 50.55C238.96 50.49 239.28 50.27 239.28 49.73C239.28 49.14 238.94 48.88 238.23 48.88H237.1V51.86H237.55V50.56H238.03L238.81 51.86ZM237.55 50.19V49.25H238.15C238.61 49.25 238.82 49.39 238.82 49.73C238.82 50.07 238.61 50.2 238.15 50.2H237.55V50.19Z" fill="white"/>
<path d="M86.3496 47.4601L101.59 27.2901H87.1896V21.8901H109.04V26.7501L93.7996 46.5601H109.04V52.3201H86.3496V47.4601Z" fill="white"/>
<path d="M116.08 21.8903H122.2V52.3103H116.08V21.8903ZM116.08 9.59033H122.2V15.7103H116.08V9.59033Z" fill="white"/>
<path d="M37.5496 0.970215C16.9096 0.970215 0.139648 17.7702 0.139648 38.3802C0.139648 58.9902 16.9396 75.7902 37.5496 75.7902C58.1596 75.7902 74.9596 59.0002 74.9596 38.3802C74.9596 17.7602 58.1596 0.970215 37.5496 0.970215ZM37.5096 72.1402C18.8996 72.1402 3.78965 57.0202 3.78965 38.4102C3.78965 19.8002 18.8996 4.69022 37.5096 4.69022C56.1196 4.69022 71.2297 19.8002 71.2297 38.4102C71.2297 57.0202 56.1196 72.1402 37.5096 72.1402Z" fill="white"/>
<path d="M69.6493 50.68C69.8393 50.22 69.9993 49.72 70.1493 49.22H41.8893L43.2693 47.45H62.8393C62.9393 47.45 63.0293 47.44 63.1193 47.4C63.2093 47.36 63.2893 47.31 63.3593 47.24C63.4293 47.17 63.4793 47.09 63.5193 47C63.5593 46.91 63.5693 46.81 63.5693 46.72C63.5693 46.53 63.4793 46.36 63.3393 46.23C63.1993 46.1 63.0193 46.03 62.8393 46.03H44.3893L45.7393 44.3H55.6993C56.0493 44.3 56.3193 43.99 56.3193 43.57C56.3193 43.19 56.0393 42.84 55.6993 42.84H29.2493L45.4393 21.73H18.7593V27.5H32.9493L18.0693 46.8L14.9893 50.68H26.7893C27.2993 49.43 28.1593 48.36 29.2793 47.61C30.3993 46.86 31.7093 46.46 33.0593 46.46C34.4093 46.46 35.7193 46.86 36.8393 47.61C37.9593 48.36 38.8193 49.43 39.3293 50.68H69.6693H69.6493Z" fill="white"/>
<path d="M38.3195 53.2901C38.3195 54.3201 38.0195 55.3201 37.4495 56.1701C36.8795 57.0201 36.0695 57.6901 35.1195 58.0801C34.1695 58.4701 33.1295 58.5801 32.1195 58.3801C31.1095 58.1801 30.1895 57.6901 29.4595 56.9601C28.7295 56.2301 28.2395 55.3101 28.0395 54.3001C27.8395 53.2901 27.9395 52.2501 28.3395 51.3001C28.7395 50.3501 29.3995 49.5401 30.2495 48.9701C31.0995 48.4001 32.1095 48.1001 33.1295 48.1001C34.5095 48.1001 35.8295 48.6501 36.7995 49.6201C37.7695 50.5901 38.3195 51.9101 38.3195 53.2901Z" fill="white"/>
</g>
</svg>
