<svg width="163" height="76" viewBox="0 0 163 76" fill="none" xmlns="http://www.w3.org/2000/svg">
<path d="M74.5196 0.850194C102.18 -0.0798058 130.39 3.03018 156.92 10.7102C163.51 27.7202 164.62 48.4002 156.97 65.2302C155.18 66.9802 139.04 69.9203 135.4 70.5603C93.1896 78.0503 47.8696 77.1603 6.65959 65.1603C-0.840414 48.4803 -0.990413 27.8802 6.26959 11.0802C28.2396 4.69017 51.5796 1.62019 74.5196 0.850194ZM9.77958 61.6803C47.3796 71.9703 87.2296 73.1602 125.79 67.6902C131.62 66.8602 148.08 64.5603 152.65 62.4103C155.24 61.2003 157.45 49.0003 157.7 45.8103C158.14 40.1603 157.06 19.4302 153.86 15.2602C152.26 13.1602 141.59 11.2602 138.37 10.5702C103.6 3.07016 65.3796 3.71017 30.4196 9.83017C25.8296 10.6302 13.6696 12.4502 10.1396 14.2202C8.39959 15.0902 7.59959 20.4103 7.13959 22.4203C4.05959 35.9403 4.90959 48.6702 9.76959 61.6902L9.77958 61.6803Z" fill="white"/>
<path d="M102.329 39.4402C100.949 45.5902 100.079 52.1403 101.459 58.4003C84.6992 68.6603 55.9092 62.4504 55.9092 39.0604C55.9092 16.5804 82.8992 9.10033 100.829 15.9103L97.4792 25.9803C81.2592 7.50028 61.7592 23.2004 68.1592 44.8104C70.4092 52.4004 80.0692 61.1203 88.3592 58.6703C93.2992 57.2103 95.7392 44.5303 88.9192 42.7403L79.9092 39.4203H102.339L102.329 39.4402Z" fill="white"/>
<path d="M144.9 19.3501L143.45 28.2501C129.58 12.1301 111.59 25.9901 118.96 44.8701C123.28 55.9501 134.94 58.6201 144.95 52.8801L143.85 57.3701C129.86 61.7901 109.34 58.3201 108.3 40.5901C107.15 21.0301 128.9 13.7801 144.91 19.3501H144.9Z" fill="white"/>
<path d="M52.2199 19.3204L50.7399 28.2504C37.3099 12.5004 19.6399 25.1505 25.7099 43.9205C29.5199 55.6905 41.9299 58.8504 52.2399 52.8804L51.1399 57.3704C38.1699 61.6504 17.3199 58.5405 15.6099 42.0605C13.4799 21.5905 35.3999 13.5504 52.2299 19.3204H52.2199Z" fill="white"/>
</svg>
