<svg width="122" height="48" viewBox="0 0 122 48" fill="none" xmlns="http://www.w3.org/2000/svg">
<g clip-path="url(#clip0_56_2359)">
<path d="M38.3423 32.4265L39.8104 28.995C41.4179 30.1854 43.5145 30.8155 45.6117 30.8155C47.1495 30.8155 48.1279 30.2205 48.1279 29.3103C48.0928 26.7891 38.8666 28.7499 38.7964 22.4113C38.7613 19.1898 41.6274 16.7037 45.6819 16.7037C48.0928 16.7037 50.5048 17.2992 52.217 18.665L50.8451 22.1697C49.2697 21.1567 47.3239 20.4504 45.4719 20.4504C44.2138 20.4504 43.3747 21.0454 43.3747 21.8163C43.4098 24.3024 52.7067 22.9366 52.8114 28.995C52.8114 32.2866 50.0151 34.5978 46.0307 34.5978C43.0955 34.5978 40.4044 33.8976 38.3418 32.4265H38.3423ZM96.8003 27.7524C96.4298 28.4109 95.8907 28.9589 95.2385 29.3403C94.5862 29.7217 93.8443 29.9227 93.0887 29.9228C90.7339 29.9228 88.8252 28.0101 88.8252 25.6508C88.8252 23.2914 90.7339 21.3787 93.0887 21.3787C93.8443 21.3788 94.5862 21.5798 95.2385 21.9612C95.8907 22.3426 96.4298 22.8906 96.8003 23.5491L100.882 21.2835C99.3531 18.5513 96.4369 16.7037 93.0887 16.7037C88.157 16.7037 84.1592 20.7091 84.1592 25.6508C84.1592 30.5919 88.157 34.5978 93.0887 34.5978C96.4369 34.5978 99.3531 32.7502 100.882 30.018L96.8003 27.7524ZM55.46 34.2474H60.5625V9.25586H55.4605L55.46 34.2474ZM103.459 9.25586V34.2474H108.561V26.76L114.608 34.2474H121.13L113.441 25.3525L120.57 17.0526H114.328L108.561 23.9531V9.25586H103.459ZM76.2828 17.0536V19.0851C75.4442 17.6841 73.3821 16.7037 71.2153 16.7037C66.7418 16.7037 63.2121 20.661 63.2121 25.6332C63.2121 30.6055 66.7418 34.5978 71.2153 34.5978C73.3821 34.5978 75.4442 33.6174 76.2828 32.2164V34.2474H81.3854V17.0536H76.2828ZM76.2828 27.787C75.549 29.0125 74.0112 29.9223 72.299 29.9223C69.9437 29.9223 68.035 28.0101 68.035 25.6508C68.035 23.2914 69.9437 21.3787 72.299 21.3787C74.0112 21.3787 75.549 22.3241 76.2828 23.5842V27.787Z" fill="#FAF8FF"/>
<path d="M11.396 8.70312C9.74244 8.70312 8.40214 10.0464 8.40214 11.703C8.40175 12.0966 8.47887 12.4864 8.62911 12.8501C8.77936 13.2139 8.99977 13.5444 9.27778 13.823C9.55579 14.1016 9.88594 14.3227 10.2494 14.4736C10.6128 14.6246 11.0025 14.7025 11.396 14.7029H14.3904V11.703C14.3911 10.9081 14.076 10.1456 13.5144 9.58299C12.9529 9.02041 12.1909 8.70392 11.396 8.70312ZM11.396 16.7028H3.41185C1.75827 16.7028 0.417969 18.0461 0.417969 19.7032C0.417969 21.3598 1.75827 22.7031 3.41185 22.7031H11.3965C13.0496 22.7031 14.3904 21.3598 14.3904 19.7032C14.3904 18.0461 13.0496 16.7028 11.396 16.7028Z" fill="#FAF8FF"/>
<path d="M30.3591 19.7032C30.3591 18.0461 29.0183 16.7028 27.3648 16.7028C25.7112 16.7028 24.3709 18.0461 24.3709 19.7032V22.7031H27.3648C28.1596 22.7023 28.9216 22.3858 29.4832 21.8233C30.0447 21.2607 30.3598 20.4981 30.3591 19.7032ZM22.375 19.7032V11.703C22.3756 10.9081 22.0606 10.1456 21.499 9.58299C20.9375 9.02041 20.1755 8.70392 19.3806 8.70312C17.727 8.70312 16.3867 10.0464 16.3867 11.703V19.7027C16.3867 21.3603 17.727 22.7036 19.3806 22.7036C20.1755 22.7028 20.9375 22.3863 21.499 21.8238C22.0606 21.2612 22.3756 20.4986 22.375 19.7037" fill="#FAF8FF"/>
<path d="M19.3806 38.7031C20.1755 38.7023 20.9375 38.3858 21.499 37.8233C22.0606 37.2607 22.3756 36.4981 22.375 35.7032C22.3756 34.9084 22.0606 34.1458 21.499 33.5832C20.9375 33.0206 20.1755 32.7041 19.3806 32.7033H16.3867V35.7032C16.3867 37.3598 17.727 38.7031 19.3806 38.7031ZM19.3806 30.7034H27.3653C29.0183 30.7034 30.3591 29.3601 30.3591 27.703C30.3598 26.9081 30.0447 26.1456 29.4832 25.583C28.9216 25.0204 28.1596 24.7039 27.3648 24.7031H19.3806C17.727 24.7031 16.3867 26.0464 16.3867 27.703C16.3863 28.0966 16.4635 28.4864 16.6137 28.8501C16.7639 29.2139 16.9844 29.5444 17.2624 29.823C17.5404 30.1016 17.8705 30.3227 18.234 30.4736C18.5974 30.6246 18.987 30.7025 19.3806 30.7029" fill="#FAF8FF"/>
<path d="M0.41797 27.703C0.417575 28.0966 0.494701 28.4864 0.644943 28.8501C0.795186 29.2139 1.0156 29.5444 1.29361 29.823C1.57162 30.1016 1.90177 30.3227 2.26522 30.4736C2.62867 30.6246 3.01829 30.7025 3.41185 30.7029C4.20672 30.7021 4.96872 30.3856 5.53026 29.823C6.0918 29.2605 6.40689 28.4979 6.40622 27.703V24.7031H3.41185C1.75827 24.7031 0.41797 26.0464 0.41797 27.703ZM8.40214 27.703V35.7027C8.40214 37.3598 9.74245 38.7031 11.396 38.7031C12.1909 38.7023 12.9529 38.3858 13.5144 37.8233C14.076 37.2607 14.3911 36.4981 14.3904 35.7032V27.703C14.3908 27.3094 14.3137 26.9196 14.1634 26.5558C14.0131 26.192 13.7926 25.8614 13.5146 25.5828C13.2365 25.3043 12.9063 25.0832 12.5428 24.9323C12.1793 24.7813 11.7896 24.7035 11.396 24.7031C9.74245 24.7031 8.40214 26.0464 8.40214 27.703Z" fill="#FAF8FF"/>
</g>
<defs>
<clipPath id="clip0_56_2359">
<rect width="121" height="48" fill="white" transform="translate(0.417969)"/>
</clipPath>
</defs>
</svg>
