<svg width="369" height="76" viewBox="0 0 369 76" fill="none" xmlns="http://www.w3.org/2000/svg">
<path d="M116.97 57.0702C114.59 57.0702 112.95 56.4903 111.9 55.5403C110.05 53.9003 109.94 51.2103 109.94 47.7703V35.6102H105.71V32.1202L109.94 31.3302L110.84 24.3003L116.34 23.3502V31.3302H123.9L123.27 35.6102H116.35V48.6102C116.35 50.6702 116.51 52.3602 119.15 52.3602C121.16 52.3602 122.96 51.6702 123.33 51.5702L124.65 55.2202C124.07 55.4802 121.22 57.0702 116.99 57.0702M142.23 56.4902L141.76 53.6403C141.18 54.2703 138.43 57.0203 134.47 57.0203C130.51 57.0203 127.49 54.5402 127.49 49.2002C127.49 41.3202 135.73 41.4803 141.44 41.1703V39.8502C141.44 36.9402 140.96 35.6202 137.26 35.6202C134.46 35.6202 131.34 36.5203 130.76 36.6803L129.65 33.0303C130.13 32.8203 134.67 30.8103 139.43 30.8103C147.41 30.8103 147.57 35.2002 147.57 40.7502V56.5002H142.23V56.4902ZM141.44 44.3302C136.05 44.7002 133.62 45.5503 133.62 48.9303C133.62 51.7303 135.26 52.4203 137 52.4203C139.38 52.4203 140.96 50.8302 141.44 50.4602V44.3302ZM169.61 56.4902V41.2703C169.61 38.1003 169.29 36.0902 166.44 36.0902C164.11 36.0902 161.63 37.7302 160.63 38.3602V56.4902H154.24V31.3302H159.74L160.22 34.6603C161.7 33.5003 165.24 30.8003 168.89 30.8003C175.81 30.8003 176.02 36.0302 176.02 40.1002V56.4802H169.63L169.61 56.4902ZM195.67 57.0103C191.6 57.0103 189.01 54.0002 188.64 53.4702L188.22 56.4802H182.67V20.2302L189.07 19.2803V33.8702C190.76 32.6502 193.56 30.8003 196.58 30.8003C202.29 30.8003 205.46 35.6102 205.46 43.7502C205.46 51.8902 201.44 57.0203 195.68 57.0203L195.67 57.0103ZM194.03 36.0303C191.7 36.0303 189.75 37.4603 189.06 37.9303V49.1302C189.54 49.7602 191.23 51.7202 194.19 51.7202C196.94 51.7202 198.79 49.2302 198.79 44.1102C198.79 38.4002 197.15 36.0203 194.03 36.0203V36.0303ZM214.22 27.0503C212.21 27.0503 210.57 25.4103 210.57 23.4003C210.57 21.3903 212.21 19.7502 214.22 19.7502C216.23 19.7502 217.81 21.3903 217.81 23.4003C217.81 25.4103 216.22 27.0503 214.22 27.0503ZM211 31.3302H217.39V56.4902H211V31.3302ZM234.19 57.0103C227.16 57.0103 222.93 52.7302 222.93 44.1102C222.93 35.4902 227 30.7903 234.45 30.7903C238.57 30.7903 242.33 32.3803 242.91 32.8003L241.43 36.5002C240.53 36.2402 237.99 35.6002 235.72 35.6002C231.75 35.6002 229.59 38.3003 229.59 43.9003C229.59 49.1903 231.55 51.9303 235.67 51.9303C238.47 51.9303 240.53 50.8702 241.59 50.4502L243.44 53.8302C242.91 54.3102 239.05 57.0002 234.19 57.0002V57.0103ZM280.39 55.4303C278.28 56.2703 276.42 56.4902 270.24 56.4902H261.57V21.2402H271.35C277.8 21.2402 285.3 21.3503 285.3 30.0103C285.3 34.7103 282.81 37.5702 277.95 38.3602C283.18 38.8902 286.09 41.5803 286.09 46.9203C286.09 51.1003 283.98 54.0003 280.38 55.4303H280.39ZM277.01 26.7302C275.85 26.0402 274.68 25.8903 271.51 25.8903H268.13V36.2502H270.83C276.96 36.2502 278.86 34.7703 278.86 30.7603C278.86 29.0103 278.23 27.4802 277.01 26.7402V26.7302ZM276.84 41.4802C275.73 40.9002 274.62 40.7402 271.5 40.7402H268.12V51.7903H270.55C273.4 51.7903 275.15 51.7403 276.63 51.0503C278.22 50.2603 279.27 48.6702 279.27 46.0802C279.27 43.7502 278.37 42.2802 276.84 41.4802ZM305.28 56.4902L304.81 53.6403C304.23 54.2703 301.48 57.0203 297.52 57.0203C293.56 57.0203 290.54 54.5402 290.54 49.2002C290.54 41.3202 298.78 41.4803 304.49 41.1703V39.8502C304.49 36.9402 304.02 35.6202 300.32 35.6202C297.52 35.6202 294.4 36.5203 293.82 36.6803L292.71 33.0303C293.19 32.8203 297.73 30.8103 302.49 30.8103C310.47 30.8103 310.63 35.2002 310.63 40.7502V56.5002H305.29L305.28 56.4902ZM304.49 44.3302C299.1 44.7002 296.67 45.5503 296.67 48.9303C296.67 51.7303 298.31 52.4203 300.05 52.4203C302.43 52.4203 304.01 50.8302 304.49 50.4602V44.3302ZM332.66 56.4902V41.2703C332.66 38.1003 332.34 36.0902 329.49 36.0902C327.16 36.0902 324.68 37.7302 323.68 38.3602V56.4902H317.28V31.3302H322.78L323.26 34.6603C324.74 33.5003 328.28 30.8003 331.93 30.8003C338.85 30.8003 339.06 36.0302 339.06 40.1002V56.4802H332.66V56.4902ZM361.25 56.4902L352.11 44.6503V56.4902H345.71V20.2302L352.11 19.2803V42.5303L361.15 31.3302H367.91L358.03 43.3302L368.6 56.4902H361.25ZM90.5999 56.9602C84.1999 56.9602 80.1899 54.5303 79.9199 54.2603L82.1399 49.9303C82.6699 50.1903 85.7899 51.9402 90.2299 51.9402C94.2999 51.9402 96.8899 49.8302 96.8899 46.8602C96.8899 45.4302 96.3599 44.4302 95.2499 43.5802C91.0699 40.4102 80.3499 41.1002 80.3499 31.1102C80.3499 24.6102 84.9999 20.7502 92.5599 20.7502C97.0999 20.7502 101.28 22.2303 102.44 22.8103L100.96 27.2502C100.17 26.9902 96.8899 25.8202 92.9799 25.8202C89.7599 25.8202 86.8999 27.2502 86.8999 30.6302C86.8999 33.7502 89.8099 34.5902 94.5099 36.0702C99.7399 37.7602 103.5 39.8803 103.5 45.9003C103.5 52.8203 98.8499 56.9502 90.5999 56.9502V56.9602Z" fill="white"/>
<path fill-rule="evenodd" clip-rule="evenodd" d="M56.4803 39.96C56.1503 42.36 55.6303 44.65 54.8703 46.89C52.7203 53.21 49.4603 58.6 44.5003 62.55L33.6303 41.75C34.6103 40.64 40.4603 45.4099 46.2103 44.6899C49.1903 44.3199 53.0503 43.01 56.4803 39.96ZM28.8203 67.92L8.35028 25.3199L6.09028 23.45C5.50028 32.97 5.58028 40.15 7.88028 46.9C11.2803 56.93 17.5003 64.61 28.8303 67.92H28.8203ZM14.5703 7.31006C20.1403 6.42006 25.7903 5.99001 31.3103 6.01001C39.3103 5.98001 47.5903 6.87002 55.5903 8.77002C55.6703 9.82002 55.7403 10.86 55.8103 11.86C52.5903 14.04 49.6203 14.88 46.9903 15.33C36.2603 17.16 29.4803 7.36002 20.4903 11.77L14.5603 7.31995L14.5703 7.31006ZM56.9403 34.08C57.0803 28.98 56.6803 23.24 56.1603 16.34C53.0703 18 50.3103 19.23 47.8203 19.66C36.8303 21.56 31.8803 14.68 24.3903 15.09C21.4903 15.25 18.1803 17.0101 16.1403 18.1801L16.1003 13.6L9.80028 8.45996C8.40028 7.31996 7.54028 8.09001 7.53028 9.89001L7.49028 17.86L11.4203 21.35L37.2203 73.29C35.7003 74.05 34.1603 74.94 32.4203 75.47C31.7503 75.67 31.0003 75.67 30.3303 75.47C28.5103 74.91 26.9003 73.9601 25.3103 73.1801C14.9303 68.0701 8.07028 62.0501 3.97028 52.5601C-0.269718 42.7401 0.410282 29.0599 2.30028 7.31995C2.48028 5.25995 3.60028 3.90004 5.93028 3.42004C14.9403 1.56004 23.5203 0.77 31.3103 0.75C39.1403 0.76 47.7703 1.55004 56.8103 3.42004C59.1403 3.90004 60.2603 5.24995 60.4403 7.31995C62.3303 29.0699 63.0103 42.7501 58.7703 52.5601C55.4003 60.3801 50.1303 65.84 42.5703 70.38L26.4403 38.0699C39.1403 30.6299 38.2203 47.47 56.9403 34.09V34.08Z" fill="white"/>
</svg>
