<svg width="474" height="75" viewBox="0 0 474 75" fill="none" xmlns="http://www.w3.org/2000/svg">
<path d="M463.93 13.3199V12.6299H467.59V13.3199H466.17V17.2199H465.35V13.3199H463.93Z" fill="white"/>
<path d="M468.31 17.2201V12.6201H469.55L470.42 14.9901C470.45 15.0801 470.49 15.1901 470.52 15.3301C470.55 15.4701 470.6 15.6201 470.64 15.7801C470.68 15.9401 470.72 16.1001 470.75 16.2501C470.78 16.4001 470.82 16.5401 470.84 16.6601H470.67C470.69 16.5401 470.73 16.4101 470.76 16.2601C470.79 16.1101 470.83 15.9501 470.87 15.7901C470.91 15.6301 470.95 15.4801 470.99 15.3401C471.03 15.2001 471.06 15.0801 471.09 14.9901L471.95 12.6201H473.19V17.2201H472.37V14.9001C472.37 14.8001 472.37 14.6801 472.37 14.5401C472.37 14.4001 472.37 14.2501 472.37 14.0901C472.37 13.9301 472.37 13.7701 472.38 13.6001C472.39 13.4301 472.38 13.2801 472.38 13.1301H472.44C472.4 13.2901 472.35 13.4601 472.31 13.6301C472.27 13.8001 472.21 13.9601 472.17 14.1201C472.13 14.2801 472.08 14.4301 472.04 14.5601C472 14.6901 471.96 14.8001 471.93 14.8901L471.08 17.2101H470.38L469.52 14.8901C469.49 14.8001 469.45 14.7001 469.41 14.5601C469.37 14.4201 469.32 14.2801 469.27 14.1301C469.22 13.9801 469.17 13.8101 469.12 13.6301C469.07 13.4501 469.02 13.2901 468.98 13.1201H469.05C469.05 13.2601 469.05 13.4101 469.05 13.5701C469.05 13.7301 469.05 13.8901 469.06 14.0601C469.07 14.2301 469.06 14.3801 469.06 14.5201C469.06 14.6601 469.06 14.7901 469.06 14.8901V17.2101H468.25L468.31 17.2201Z" fill="white"/>
<path d="M94.3799 9.74023H104.22C106.98 23.1202 109.74 36.4902 112.49 49.8702C115.95 36.4902 119.41 23.1202 122.86 9.74023H130.86C134.28 23.1202 137.7 36.4902 141.13 49.8702C144.01 36.4902 146.89 23.1202 149.78 9.74023H159.07C155.04 28.0902 151 46.4302 146.97 64.7802H137.23C133.73 51.8802 130.23 38.9902 126.72 26.0902C123.31 38.9902 119.9 51.8802 116.49 64.7802H106.98C102.78 46.4302 98.5799 28.0902 94.3799 9.74023Z" fill="white"/>
<path d="M176.57 22.9102C166.11 22.9102 157.64 29.5502 157.64 44.0202C157.64 59.7702 166.12 65.1302 176.57 65.1302C187.02 65.1302 195.5 60.1702 195.5 44.0202C195.5 28.8602 187.02 22.9102 176.57 22.9102ZM176.59 57.7202C171.28 57.7202 167.24 55.4002 166.97 44.1802C166.72 33.9302 171.28 30.6402 176.59 30.6402C181.9 30.6402 186.21 33.8102 186.21 44.1802C186.21 54.5502 181.9 57.7202 176.59 57.7202Z" fill="white"/>
<path d="M203.229 23.9504H212.32V28.0804C212.9 27.1504 214.159 25.4304 216.399 24.1704C219.709 22.3204 222.929 22.7404 223.949 22.9104V31.9404C223.349 31.7804 219.279 30.7504 215.66 33.3004C215.639 33.3204 215.609 33.3304 215.589 33.3504C213.349 34.9604 212.1 37.6304 212.1 40.3904V64.7904H203.229V23.9504Z" fill="white"/>
<path d="M267.189 64.7802H255.839L242.959 47.5602L239.279 51.3902V64.7802H230.189V9.74023H239.279V38.2702L243.829 33.5402L253.059 23.9402H265.669L249.349 40.9202L267.189 64.7802Z" fill="white"/>
<path d="M280.24 56.9502V9.74023H271.14V56.9502V64.7802H280.24H296.08V56.9502H280.24Z" fill="white"/>
<path d="M311.38 56.9502V9.74023H302.29V56.9502V64.7802H311.38H327.23V56.9502H311.38Z" fill="white"/>
<path d="M412.91 22.8504C405.05 22.1704 400.16 28.5004 399.88 28.8904C398.93 27.5104 397.05 25.2604 393.92 23.9204C388.45 21.5704 383.32 23.7704 382.08 24.3004C380.15 25.1304 378.69 26.2004 377.63 27.1404V23.9504H368.54V64.7904H377.63V37.2804C377.63 35.2004 378.38 33.1504 379.88 31.7104C381.59 30.0704 383.9 29.2104 386.22 29.4704C387.08 29.5704 387.9 29.8204 388.67 30.1904C391.31 31.4904 392.86 34.2904 392.86 37.2304V64.7904H401.95V38.7204C401.95 35.5304 403.67 32.4704 406.58 31.1404C408.11 30.4304 409.79 30.2304 411.35 30.6204C412.4 30.8804 413.27 31.3804 413.98 31.9704C415.75 33.4404 416.68 35.6904 416.68 37.9904V64.8004H425.77V37.3304C425.77 31.8904 422.86 26.7404 417.99 24.3104C416.42 23.5204 414.7 23.0204 412.9 22.8704L412.91 22.8504Z" fill="white"/>
<path d="M353.64 23.7203C346.85 21.0403 338.07 22.8003 333.85 28.6103C332.01 31.1403 331.47 33.8303 331.3 35.5203H340.03C340.19 34.9403 340.98 32.4103 343.53 30.9903C345.66 29.8003 347.74 30.1203 348.62 30.2503C349.52 30.3903 351.91 30.7503 353.61 32.7903C355.96 35.6003 355.05 39.2503 354.94 39.6603C352.56 39.1103 348.29 38.4503 343.25 39.6603C339.68 40.5103 335.26 41.5703 332.53 45.7103C330.22 49.2203 329.55 54.3003 331.71 58.4603C334.87 64.5803 342.59 65.7603 347.6 64.7803C351.17 64.0803 353.67 62.2303 354.97 61.1003V64.4503H363.93V39.1903C363.93 34.3203 361.94 29.5803 358.21 26.4403C356.95 25.3803 355.44 24.4203 353.65 23.7103L353.64 23.7203ZM353.86 53.2403C352.78 54.9803 351.33 55.8103 350.73 56.1503C348.34 57.4903 344.16 58.4203 341.71 56.1503C340.2 54.7503 340.04 52.7703 340.02 52.4803C339.88 50.4303 340.93 48.9403 341.37 48.3203C343.47 45.3503 348.67 44.2503 354.53 45.3803C354.74 45.9803 356.02 49.7903 353.87 53.2403H353.86Z" fill="white"/>
<path d="M453.65 23.7203C446.86 21.0403 438.08 22.8003 433.86 28.6103C432.02 31.1403 431.48 33.8303 431.31 35.5203H440.04C440.2 34.9403 440.99 32.4103 443.54 30.9903C445.67 29.8003 447.75 30.1203 448.63 30.2503C449.53 30.3903 451.92 30.7503 453.62 32.7903C455.97 35.6003 455.06 39.2503 454.95 39.6603C452.57 39.1103 448.3 38.4503 443.26 39.6603C439.69 40.5103 435.27 41.5703 432.54 45.7103C430.23 49.2203 429.56 54.3003 431.72 58.4603C434.88 64.5803 442.6 65.7603 447.61 64.7803C451.18 64.0803 453.68 62.2303 454.98 61.1003V64.4503H463.94V39.1903C463.94 34.3203 461.95 29.5803 458.22 26.4403C456.96 25.3803 455.45 24.4203 453.66 23.7103L453.65 23.7203ZM453.87 53.2403C452.79 54.9803 451.34 55.8103 450.74 56.1503C448.35 57.4903 444.17 58.4203 441.72 56.1503C440.21 54.7503 440.05 52.7703 440.03 52.4803C439.89 50.4303 440.94 48.9403 441.38 48.3203C443.48 45.3503 448.68 44.2503 454.54 45.3803C454.75 45.9803 456.03 49.7903 453.88 53.2403H453.87Z" fill="white"/>
<path d="M37.5797 0C16.9097 0 0.139648 16.76 0.139648 37.44C0.139648 58.12 16.8997 74.88 37.5797 74.88C58.2597 74.88 75.0196 58.12 75.0196 37.44C75.0196 16.76 58.2597 0 37.5797 0ZM38.6196 10.01C39.3096 8.7 41.0797 5.61 41.6897 5.86C42.2197 6.08 41.8396 8.85 40.7396 11.18C39.4796 13.85 37.2296 16.06 36.6996 15.74C36.1196 15.39 37.5996 11.94 38.6196 10.01ZM32.5797 7.85C33.5297 4.91 35.4896 1.8 36.3696 2.07C37.2796 2.35 36.9496 6.2 36.3696 8.79C35.5496 12.5 33.5297 16.79 32.4897 16.55C31.4697 16.32 31.3197 11.72 32.5797 7.84V7.85ZM50.6396 29.31C49.5496 30.6 47.6796 30.46 47.4296 30.43H37.9697C40.4397 38 42.2396 44.69 43.5596 50.19C45.0696 56.5 45.8297 60.76 44.4097 65.76C43.9797 67.29 43.4096 68.62 42.8396 69.73C42.1096 71.15 40.6996 72.11 39.1096 72.23C35.7597 72.48 30.7096 72.35 25.1196 70.25C18.6196 67.81 14.4797 63.89 12.4897 61.73C16.2797 61.73 20.0696 61.72 23.8496 61.71C23.6696 52.11 24.1596 44.05 24.7596 37.91C25.1396 34.05 25.8096 28.32 29.4096 22.62C32.3396 17.98 34.6996 17.33 35.5096 17.17C37.4896 16.76 39.6896 17.86 44.0696 20.06C50.1096 23.09 50.8696 24.74 51.1296 25.67C51.2496 26.11 51.7696 27.98 50.6497 29.31H50.6396Z" fill="white"/>
</svg>
