<svg width="575" height="77" viewBox="0 0 575 77" fill="none" xmlns="http://www.w3.org/2000/svg">
<path d="M524.08 75.29C521.55 75.38 518.94 75.29 516.41 75.2C516.32 62.03 516.41 48.78 516.32 35.61C516.32 35.17 516.32 34.74 516.41 34.3L525.48 34.21C525.48 47.2 525.57 60.11 525.48 73.01C525.48 73.71 525.48 74.4899 525.39 75.1899C524.87 75.2799 524.43 75.28 524.08 75.28V75.29Z" fill="white"/>
<path d="M562.1 6.49022C561.14 5.88022 560.36 5.01028 559.83 4.05028C558.96 4.92028 558.09 5.71022 557.13 6.49022C556.61 6.93022 556.69 6.14022 557.04 5.62022L560.18 0.740218C561.58 0.830218 561.14 0.220228 562.8 1.00023C564.72 1.87023 564.63 3.27024 564.2 5.01024C563.94 5.79024 563.24 6.41027 562.46 6.67027L562.11 6.50023L562.1 6.49022Z" fill="white"/>
<path d="M419.18 26.9803C417.17 26.8103 415.17 26.8903 413.51 25.5803C412.38 24.6203 411.68 23.2304 411.5 21.7404C411.5 19.0404 411.94 16.3304 412.81 13.8104C412.9 13.3704 413.33 14.5104 413.42 14.8604C413.68 16.8704 414.29 18.7804 415.16 20.5304C416.82 21.2304 418.56 21.5804 420.39 21.6604C425.62 21.7504 432.07 21.4904 436.09 17.6504L434.78 14.5104L437.13 8.84033C439.75 12.1503 440.09 16.8604 437.91 20.5204C434.25 26.8904 425.7 27.5803 419.16 26.9703L419.18 26.9803Z" fill="white"/>
<path d="M446.21 17.4805C446.12 13.9905 446.12 10.5005 446.21 6.93054L449.87 3.44043L449.96 15.8204L446.3 18.7805C446.21 18.3405 446.21 17.9105 446.21 17.4705V17.4805Z" fill="white"/>
<path d="M427.29 4.14014C425.46 4.23014 423.71 4.23014 421.88 4.14014L424.06 0.910156L429.47 1.00012L427.9 4.14014H427.29Z" fill="white"/>
<path d="M483.27 27.6805V4.40051C483.27 4.05051 483.36 3.70043 483.53 3.44043L486.15 1.52051L486.24 22.3605C489.29 23.0605 492.08 22.2705 494.79 20.7905C494.09 18.7805 493.48 17.7405 494.18 15.6505C494.53 14.6005 496.19 13.7305 497.23 13.6405C498.36 13.5505 500.19 13.4705 501.07 14.2505C502.64 15.7305 502.12 18.6105 501.24 20.2705C503.51 20.5305 505.69 20.1805 507.87 19.4905C508.22 19.3205 508.57 19.1405 508.92 18.9705C508.57 17.9205 508.4 16.7905 508.57 15.6605C508.57 14.9605 509.09 14.2605 509.7 14.0005C511.18 13.4805 512.75 13.5605 514.15 14.3505C514.59 14.7005 514.85 15.1305 514.93 15.6605C515.19 16.6205 515.63 17.0604 515.37 18.1904C515.28 18.6304 515.02 19.0605 514.76 19.4105C512.14 23.0705 502.73 25.3405 498.45 25.8605C498.01 25.9505 497.67 25.9505 497.23 25.8605L496.18 24.5505C493.91 25.7705 491.56 26.8205 489.12 27.6005C487.2 28.0405 485.2 28.1204 483.28 27.6904L483.27 27.6805Z" fill="white"/>
<path d="M433.57 28.2903C432.96 28.2903 432.44 27.9403 432.96 27.6803C442.12 24.1003 450.66 19.1302 456.85 11.2002C458.25 9.2802 459.2 7.19029 459.9 4.92029C460.68 4.40029 461.47 3.96023 462.25 3.61023L463.65 3.26025V21.4802C464.96 22.0002 466.44 22.1803 467.84 21.9203C469.76 21.5703 471.5 20.8702 473.16 19.8302C473.07 18.1702 473.77 15.7302 475.34 14.9502C475.51 14.8602 475.78 14.7802 475.95 14.6902C477 14.6002 478.13 14.7803 479.09 15.3003C480.57 16.1703 480.4 17.9203 479.87 19.3103C478.65 22.6203 471.67 25.5002 468.45 26.4602C465.75 27.2402 463.04 27.6803 460.25 27.6803V13.7302C460.25 12.8602 460.25 11.9003 459.73 12.6803C455.72 18.4403 451.27 23.4903 444.73 26.2803C441.15 27.7603 437.41 28.4603 433.57 28.2903Z" fill="white"/>
<path d="M166.48 74.5004C167.09 70.0504 166.74 65.4304 165.43 61.1604C164.82 58.9804 163.95 56.8904 162.81 54.8804C159.32 48.6904 154.35 43.4604 148.34 39.6204C141.97 35.4304 135.52 33.5204 128.98 30.1204C125.32 28.1104 121.83 25.7603 118.69 22.9703L114.59 26.2804C118.78 28.0204 122.96 29.7704 127.06 31.7704C135.61 35.8704 143.28 41.9704 148.34 49.9104C152.09 55.7504 154.27 62.3804 154.71 69.2704C154.8 70.7504 154.71 72.2304 154.36 73.6304L154.19 74.5004C147.21 73.9804 139.72 74.5004 132.74 74.4104C134.14 65.6004 131.17 56.8804 125.85 49.9104C120.01 42.2404 111.46 36.9203 102.66 33.3403C102.31 33.2503 102.05 33.1703 101.7 33.0803L98.2099 34.6504C109.2 41.3604 118.18 51.9204 120.36 64.9104C121.06 68.0504 120.97 71.3604 120.27 74.5004C102.74 74.0604 85.0399 74.5004 67.4299 74.5004C67.1699 71.5404 66.5599 69.8804 66.9099 66.7404C68.4799 53.1404 77.1999 41.4504 88.8799 34.5604L85.4799 33.1604C75.7999 37.0004 67.9499 42.2304 61.6799 50.5104C59.0599 54.0904 57.2299 58.1004 56.1899 62.3704C55.2299 66.2904 55.3199 70.4804 55.6699 74.4904C49.2999 74.1404 42.8499 74.1404 36.4899 74.4904C36.0499 74.4904 35.6199 74.4904 35.0899 74.4004C33.6899 65.2404 36.2199 56.2604 41.3699 48.6804C46.2499 41.2704 53.6599 35.7703 61.5099 31.8503C65.3499 29.9303 69.2699 28.4503 73.1899 26.7103L68.8299 23.2203C65.7799 25.8403 62.5499 28.1004 58.9799 30.1104C53.1399 33.1604 47.2999 34.9904 41.5399 38.3904C33.1699 43.3604 26.1099 51.2104 23.2299 60.5404C21.7499 64.9004 21.4899 69.5204 22.3599 74.0604C21.6599 74.3204 20.9599 74.4104 20.2699 74.5004C14.0799 74.2404 7.70989 74.2404 1.43989 74.5004C0.129894 70.0504 0.829894 65.0004 1.95989 60.5504C4.74989 49.8204 12.7699 40.6704 22.0999 34.9104C27.5899 31.5104 33.7799 29.4204 39.5399 26.5404C45.7299 23.4904 51.9199 18.5204 55.3199 12.5004C56.7999 10.0604 57.7599 7.27038 58.0199 4.39038C58.1099 4.04038 58.1899 3.61038 58.4599 3.26038H62.4699C62.9899 8.40038 65.1699 13.2004 68.7499 16.8604C72.2399 13.1104 74.4199 8.40038 74.9399 3.26038L79.0399 3.17041C79.7399 8.40041 81.9999 13.2803 85.5799 17.2103C87.3199 15.4703 88.7199 13.3703 89.8499 11.1903C91.2499 8.05031 91.4199 6.39038 92.1999 3.26038H96.3899C96.9099 8.32038 99.0899 13.1104 102.49 16.8604C105.72 12.9404 108.16 8.40033 108.68 3.34033H112.87C113.31 8.22033 115.4 12.8404 118.71 16.5104C121.94 12.7604 123.94 8.14038 124.47 3.26038H128.57C129.44 10.2404 133.19 16.1704 138.6 20.6104C141.22 22.7904 144.01 24.8004 147.06 26.3704C153.43 29.6804 159.62 31.5104 165.81 35.5304C175.31 41.5504 183.08 50.8804 185.95 61.8604C186.65 64.7404 187.08 67.6203 187.17 70.5803C187.17 71.8903 187 73.2803 186.65 74.5903C179.85 74.1503 173.13 74.4204 166.51 74.5004H166.48ZM85.6499 28.5504L89.6599 26.6304L85.8199 23.5803L81.7199 26.8104C83.0299 27.3304 84.3399 27.9404 85.6399 28.5504H85.6499ZM101.43 28.1104L101.87 28.2804C103.35 27.5804 104.75 26.9703 106.14 26.1903L102.48 23.1404L98.1199 26.6304C99.2499 27.0704 100.39 27.5904 101.43 28.1104ZM93.3199 31.8604C94.4499 31.9504 95.4999 31.0803 96.4599 30.4603L93.8399 29.4104L91.1399 30.8104C91.8399 31.2504 92.5399 31.5904 93.3199 31.8604ZM171.1 70.0604L182.52 69.9703V68.6604C182.35 65.2604 181.56 61.8604 180.25 58.6304C176.76 50.0004 169.96 43.0203 161.94 38.2303C156.18 34.8303 150.26 33.0003 144.5 29.9503C136.91 26.0303 130.37 19.9204 126.54 12.2504C125.23 14.8704 123.58 17.3904 121.74 19.7504C124.44 22.1904 127.5 24.2804 130.72 26.0304C136.91 29.2604 143.54 31.4403 149.47 35.1903C153.39 37.7203 156.97 40.6804 160.11 44.0004C166.48 50.8904 171.27 60.5703 171.1 70.0703V70.0604ZM110.24 23.4904L110.59 23.7504L115.65 19.7404C113.82 17.4704 112.16 14.9404 110.85 12.4204C109.54 15.1204 107.8 17.7404 105.79 20.0104C107.1 21.2304 108.67 22.3604 110.24 23.5004V23.4904ZM88.9599 20.3503L94.0199 24.0104C95.9399 22.7904 97.6799 21.4804 99.3399 19.9104C97.3299 17.5604 95.6799 14.9404 94.3699 12.1504C92.8899 15.1104 91.0599 17.9103 88.9599 20.3503ZM137.44 70.0604L150.52 69.9703C150.43 68.0503 150.17 66.1304 149.82 64.3004C149.3 61.6804 148.51 59.1604 147.29 56.8004C143.02 48.1704 136.04 41.8003 127.76 37.0903C122.27 33.9503 115.99 32.2903 110.58 28.9803L107.7 30.6404C111.97 32.8204 116.16 35.3504 120.08 38.0504C129.32 44.9404 137.96 57.9304 137.43 70.0504L137.44 70.0604ZM77.0999 24.1003L77.3599 24.2704L82.4999 20.4304C80.4099 17.9904 78.5799 15.3703 77.0899 12.5803C75.6099 15.2803 73.9499 17.8104 71.9499 20.1704C73.6899 21.5704 75.3499 22.8703 77.0899 24.0903L77.0999 24.1003ZM16.5899 69.9703H17.4599C17.4599 67.1803 17.8099 64.4804 18.4199 61.7704C20.8599 50.9604 28.5299 41.4504 37.7799 35.5204C44.2299 31.4204 50.5999 29.4204 57.1399 25.9304C60.1899 24.2704 63.0699 22.2704 65.6899 20.0004C63.5999 17.6504 61.8499 15.0304 60.5499 12.1504C56.6299 20.2604 49.5599 26.4503 41.6299 30.4603C35.6099 33.5103 29.9499 35.2604 24.0999 38.9204C21.3999 40.6604 18.8699 42.5803 16.5099 44.8503C9.96989 51.2203 5.16989 59.9404 5.25989 69.2704C5.25989 69.5304 5.34989 69.7904 5.42989 70.0504C9.17989 69.9604 12.8399 69.9603 16.5899 69.9603V69.9703ZM39.1699 69.9703L51.1199 69.8804C51.1199 65.6104 51.8199 61.3303 53.2999 57.3203C58.6199 44.5003 67.5099 36.1303 80.3299 30.7203C79.2799 30.4603 78.3199 29.9404 77.5399 29.2404C71.9599 32.4704 65.8599 34.2103 60.2699 37.4403C57.7399 38.9203 55.2999 40.5804 53.0299 42.4104C45.0999 48.6904 38.4699 59.5903 39.1699 69.9603V69.9703ZM71.4399 69.9703H116.52C116.43 67.3503 116.08 64.8304 115.3 62.3804C112.07 51.3104 103.7 42.1504 93.4999 36.9204C89.5799 39.1004 85.9099 41.7204 82.5999 44.7704C76.0599 51.1404 70.7399 60.6403 71.4399 69.9703Z" fill="white"/>
<path d="M526.52 25.9303C524.78 24.4503 523.03 22.2703 523.21 19.9103C523.38 17.1203 524.87 14.2403 526.52 12.0603C527.57 10.6603 528.87 9.44022 530.27 8.48022C531.67 7.52022 533.06 6.74028 534.63 6.04028C535.15 5.95028 535.76 5.87027 536.29 5.78027C538.21 8.22027 538.82 11.3602 538.03 14.3302C537.33 16.6802 534.89 17.4702 532.8 17.8202C532.28 17.9102 531.67 17.9103 531.14 17.9103V14.0702C532.1 14.0702 533.06 14.0702 534.1 13.9802C535.93 13.2802 534.88 11.0202 534.1 9.88025C532.88 10.5802 525.47 15.6402 526.08 17.4702C525.99 19.4802 528 21.3902 529.74 22.0902C534.36 24.0102 543.52 20.2603 547.18 17.3802L547.27 5.09021C548.14 4.13021 549.19 3.26021 550.23 2.47021V21.9103C552.76 23.0403 555.29 22.3503 557.38 20.7803C557.29 18.6903 556.94 17.2003 558.34 15.5503C559.39 14.2403 561.13 13.6302 562.79 13.9802L563.4 14.0702C566.02 15.1202 564.27 19.0402 563.4 20.6102C565.58 21.1302 566.36 21.2203 568.46 20.2603C569.94 19.5603 571.25 18.4303 572.12 17.0303L570.38 14.5902L573.26 9.88025C574.48 11.4502 574.66 13.6303 574.74 15.5503C574.57 17.0303 574.22 18.5103 573.52 19.9103C570.82 24.2703 565.24 25.4002 560.44 25.8402L559.04 24.4402C555.73 26.2702 552.24 27.6703 548.4 27.4003C547.96 27.3103 547.44 27.1402 547.09 26.9602V21.2903C542.73 24.5203 537.67 27.3902 532.18 27.8302C530.09 27.7402 528.08 27.1303 526.51 25.9103L526.52 25.9303Z" fill="white"/>
<path d="M287.86 75.3802C287.69 75.0302 287.6 74.6002 287.6 74.2502C287.6 68.6702 287.77 63.0002 287.34 57.4202C287.25 56.4602 286.9 55.5902 286.29 54.8902C284.98 53.5802 282.98 53.2302 281.23 54.0202C279.92 54.7202 278.96 55.9402 278.79 57.4202C278.27 62.9102 278.62 69.7102 278.7 75.3802H269.54C269.54 65.8802 269.8 56.3702 269.28 46.8702H277.04L277.48 49.5702C277.48 49.8302 277.92 49.8302 278.18 50.0102C280.88 46.7002 285.42 45.7402 289.43 46.6102C290.83 46.9602 292.13 47.6602 293.18 48.6202C294.49 49.9302 296.32 52.9802 296.41 54.9002C296.76 61.7002 296.58 68.5002 296.5 75.3902H287.87L287.86 75.3802Z" fill="white"/>
<path d="M568.37 32.1303L565.67 30.2103C566.45 28.7303 567.41 27.3302 568.37 25.9402C568.54 25.7702 568.81 26.2003 568.98 26.2903C569.85 26.8103 570.72 27.3403 571.51 28.0303L568.81 32.3903L568.37 32.1303Z" fill="white"/>
<path d="M379.239 75.2901C376.709 75.3801 374.099 75.3801 371.569 75.2001C371.129 65.7801 370.699 56.4501 370.699 47.0401C370.699 46.7801 370.089 47.2102 369.829 47.3002C367.479 56.1102 364.599 65.0001 361.899 73.6301C361.809 73.9801 361.549 74.3301 361.379 74.5901C359.199 74.7601 357.109 74.7601 354.929 74.5901C354.669 74.4201 354.409 74.2401 354.319 73.9801C351.789 65.0001 349.439 55.8401 346.909 46.7701C346.819 46.3301 346.469 47.5501 346.469 47.9901C346.469 48.7701 346.639 49.5601 346.559 50.5201C346.299 58.1901 345.949 65.9501 345.599 73.6301C345.509 74.1501 345.339 74.6801 345.159 75.2001L337.229 75.3701C338.009 62.3801 338.709 49.4701 339.759 36.4801C343.509 36.3101 347.349 36.3101 351.099 36.4801C351.449 36.6501 351.709 37.0001 351.879 37.3501C354.149 45.7201 356.849 54.0001 358.509 62.4601C361.129 53.7401 363.649 45.1901 366.269 36.4801C370.189 36.2201 374.199 36.1301 378.129 36.3901C378.479 49.2101 379.439 62.2001 380.049 75.1101L379.269 75.2801L379.239 75.2901Z" fill="white"/>
<path d="M421.01 75.9899C418.13 75.8199 415.95 74.42 414.03 72.41C413.16 71.45 412.63 69.36 412.63 68.05C412.46 66.13 412.8 64.2099 413.5 62.4699C414.46 60.2899 418.21 58.11 420.39 57.41C423.09 56.8 425.8 56.4499 428.5 56.4499C429.02 55.8399 429.11 54.9699 428.59 54.3599C427.89 53.5799 427.02 52.9599 425.97 52.6999C424.49 52.6099 423.09 52.61 421.61 52.79C419.6 53.05 417.77 53.75 416.03 54.8L414.46 48.9599C415.77 48.2599 417.08 47.74 418.47 47.3C419.08 47.13 422.92 46.43 423.44 46.43C427.36 46.26 431.64 46.69 434.69 49.31C437.04 51.23 437.92 54.63 438 57.51C438.17 63.44 437.91 69.37 438.26 75.3C435.82 75.39 433.38 75.39 430.94 75.3C429.98 74.95 430.07 73.47 429.98 72.77C427.63 74.95 424.4 76.1699 421 75.9999L421.01 75.9899ZM423.54 69.4499C425.81 69.9699 428.07 68.8399 429.03 66.7499C429.38 65.5299 429.47 64.2199 429.29 62.9999C429.2 62.7399 429.46 62.22 429.12 62.13C426.85 61.87 422.58 62.2199 421.71 64.8299C421.19 66.3099 421.1 67.2699 422.23 68.5799C422.58 69.0199 423.01 69.3599 423.54 69.4499Z" fill="white"/>
<path d="M215.05 75.7201C213.31 75.6301 211.65 75.4601 209.91 75.1101V36.7401C217.06 35.6101 228.83 34.8201 234.85 39.4401C237.99 41.8801 238.43 46.5901 236.77 49.9901C235.9 51.8201 233.63 53.3901 231.89 54.3501C236.08 55.4801 239.04 59.3201 238.95 63.7701C239.12 71.7001 231.97 75.3701 224.91 75.7201C221.77 75.8101 218.37 75.8101 215.06 75.7201H215.05ZM219.06 51.4801C221.07 51.7401 223.07 51.6501 225.08 51.2201C226.56 50.9601 227.78 50.0001 228.48 48.6901C228.92 47.5601 228.92 45.2001 227.87 44.3301C225.34 42.2401 222.11 42.4102 219.06 42.9302C218.97 45.7202 218.97 48.6001 219.06 51.4801ZM219.06 68.8401C221.07 69.2801 223.16 69.2801 225.08 68.7501C226.74 68.4901 228.13 67.5301 229.09 66.1301C229.87 65.0801 229.96 62.2102 229.18 61.1602C226.83 58.0202 222.64 58.0202 219.07 58.2802C218.98 61.7702 218.98 65.3401 219.07 68.8301L219.06 68.8401Z" fill="white"/>
<path d="M318.29 75.3802C316.11 71.6302 313.84 67.8802 311.66 64.1302C310.61 64.7402 309.92 65.7002 309.57 66.8302C309.22 69.6202 309.57 72.5902 309.57 75.4602H300.5C300.59 62.2102 300.5 48.9502 300.5 35.7002V34.3003H309.39C309.39 34.8203 309.48 35.2603 309.48 35.7803C309.39 42.8403 309.48 49.9102 309.39 56.9702C309.39 57.8402 309.39 58.8002 309.83 58.1002C312.01 54.5202 314.28 51.0403 316.72 47.6403C316.89 47.3803 317.16 47.2002 317.42 47.1202L328.06 46.9502L317.86 58.5503L329.54 75.3802H318.29Z" fill="white"/>
<path d="M246.27 75.6404C243.48 74.7704 241.389 72.5904 240.429 69.8804C240.079 68.0504 240.079 66.1303 240.429 64.2103C243.049 57.7603 249.849 56.1004 256.209 56.3604C256.379 56.1004 256.469 55.7504 256.649 55.4904C256.739 54.6204 255.78 53.5704 254.99 53.2204C251.5 51.6504 246.97 52.7803 243.74 54.7003C243.3 53.0403 242.779 51.5604 242.339 49.9004C242.249 49.5504 242.169 49.1204 242.249 48.7704C246.78 46.4204 251.929 45.7204 256.899 46.5904C260.739 47.2904 264.139 49.9004 265.179 53.6504C266.749 59.6704 265.62 68.7404 266.14 75.3604H258.029L257.51 72.7404C256.2 74.1404 254.459 75.1803 252.539 75.7003C250.449 76.1403 248.269 76.1404 246.259 75.6104L246.27 75.6404ZM249.929 68.7504C250.709 69.3604 252.72 69.9704 253.77 69.2704C254.73 68.8304 256.389 67.7904 256.649 66.7404C256.909 65.5204 257.09 64.2104 257 62.9904C256.91 62.6404 257.17 62.1204 256.91 62.1204C254.38 61.9504 250.63 62.2904 249.32 64.9104C248.62 66.2204 248.879 67.7904 249.929 68.7504Z" fill="white"/>
<path d="M493.47 75.8101C491.29 75.2901 488.41 73.28 487.72 71.1C486.59 67.35 486.24 65.2601 488.33 61.7701C489.38 60.4601 490.68 59.4201 492.17 58.5401C495.57 56.9701 499.32 56.27 503.07 56.45C503.33 55.67 503.24 54.7901 502.9 54.0101C499.5 51.1301 493.92 52.8801 490.43 54.6201L488.77 48.86C493.13 46.85 498.01 46.0701 502.81 46.5101C503.86 46.6801 504.9 46.86 505.95 47.21C507.08 47.73 508.13 48.3401 509.18 49.1301C510.23 50.2601 511.01 51.57 511.62 52.97C511.97 54.19 512.23 55.41 512.4 56.72C512.4 61.69 511.7 70.6701 512.92 75.1201C510.39 75.2101 507.86 75.29 505.33 75.21C504.63 74.43 504.2 73.4701 504.02 72.4201C502.54 74.4301 501.84 74.43 499.75 75.47C498.62 76.08 494.61 76.08 493.47 75.82V75.8101ZM497.83 69.45C498.7 69.54 499.49 69.5401 500.36 69.5401C501.76 69.1001 502.8 68.14 503.41 66.84C503.76 65.36 503.76 63.7901 503.58 62.3101C502.27 62.0501 500.96 62.14 499.74 62.48C498.08 62.92 495.64 64.22 495.73 66.23C495.64 67.45 496.43 69.11 497.82 69.46L497.83 69.45Z" fill="white"/>
<path d="M563.32 75.6403C561.84 75.0303 560.53 74.1603 559.48 73.0203C558.26 71.1903 557.56 69.0102 557.56 66.7402C557.3 62.4702 557.56 58.1102 557.56 53.7502L553.81 53.3103V46.9402H557.47C557.56 45.4602 557.56 43.8903 557.56 42.4103C557.56 42.0603 558.08 41.6302 558.34 41.4502C560.17 40.7502 562.09 40.3203 563.92 39.7903C564.62 39.6203 565.4 39.5303 566.1 39.5303L566.27 46.9402L572.72 47.0303V53.3103C571.32 53.7503 569.84 53.7502 568.36 53.4802C567.58 53.3902 566.88 53.5702 566.18 54.0002C566.09 58.2702 566.27 62.4603 566.53 66.6403C568.36 68.8203 569.76 68.7303 572.37 68.0403C572.2 70.3103 572.2 72.4903 572.2 74.6703C571.94 75.0203 571.94 75.1902 571.33 75.3702C568.8 75.9802 566.01 76.0702 563.31 75.6302L563.32 75.6403Z" fill="white"/>
<path d="M390.14 75.5503C387.61 74.7703 386.74 73.8903 385.26 71.8003C384.56 70.1403 384.04 68.4902 383.6 66.8302C383.43 60.2902 383.51 53.6602 383.51 47.1202L392.4 47.0303C392.4 52.9603 392.23 58.9803 392.66 64.9103C392.75 66.1303 393.36 67.3503 394.4 68.0503C396.58 69.1003 399.11 68.5702 400.68 66.8302C400.68 66.7402 401.12 65.7002 401.12 65.6102C401.64 59.5902 401.38 53.4003 401.38 47.3003C404.43 47.0403 407.48 47.0402 410.54 47.2102L410.63 75.4602H402.96L402.79 71.4502C399.65 75.4602 395.12 76.8603 390.15 75.5503H390.14Z" fill="white"/>
<path d="M533.41 75.6402C532.54 75.3802 531.67 74.9401 530.88 74.3301C527.83 72.1501 526.96 68.4002 527.57 64.9102C528.09 62.5602 529.49 60.5502 531.49 59.2402C533.06 58.3702 534.72 57.6702 536.46 57.1502C538.81 56.7102 541.17 56.5402 543.52 56.5402C543.96 55.4102 543.61 54.1002 542.65 53.3102C541.87 52.9602 540.99 52.7002 540.12 52.6102C536.89 52.3502 533.67 53.0502 530.88 54.5302L529.31 48.8602C533.41 46.5902 538.03 46.1602 542.65 46.4202C542.74 46.4202 546.23 47.1201 546.4 47.2001C549.02 48.2501 551.11 50.3401 552.15 52.9601C552.59 54.6201 552.85 56.2702 552.93 57.9302C552.93 63.6902 552.67 69.5301 553.19 75.2001C550.75 75.3701 548.22 75.3702 545.78 75.0302C544.91 74.8602 544.73 72.8502 544.73 72.2402C542.2 76.1602 537.49 76.2502 533.39 75.6402H533.41ZM538.38 69.4501C539.16 69.6201 540.04 69.6202 540.91 69.3602C544.57 68.4002 544.4 65.1702 544.22 62.1202C541.87 61.6802 537.77 62.2901 536.72 64.8201C536.37 65.6001 536.28 66.4801 536.55 67.3501C536.72 68.4001 537.42 69.0901 538.38 69.4401V69.4501Z" fill="white"/>
<path d="M483.44 75.3802C481 75.3802 478.56 75.3802 476.2 75.2902C476.11 69.3602 476.37 63.3402 475.85 57.4102C475.68 55.4002 474.19 53.8302 472.19 53.4902C470.18 53.2302 467.83 55.5802 467.74 57.4102C467.3 63.3402 467.57 69.3602 467.57 75.2902H458.85C458.85 69.3602 459.02 63.4302 458.85 57.4102C458.41 56.2802 457.89 55.2302 457.28 54.2702C456.67 54.0102 455.97 53.7501 455.36 53.5701C454.31 53.7401 452.92 54.0102 452.13 54.8802C451.61 55.7502 451.08 56.6202 450.65 57.5002C450.56 63.5202 450.74 69.5301 450.56 75.4601L442.1 75.5502C442.01 74.9402 442.01 74.3301 442.01 73.7201C442.1 64.9101 442.27 56.0201 441.75 47.2101H449.16C449.33 48.3401 449.42 49.3902 449.42 50.5202C449.42 50.8702 450.12 50.2602 450.29 50.0002C452.82 47.2102 455.35 46.4202 459.01 46.5102C462.32 46.6002 464.33 48.4301 466.16 50.9601C467.29 49.5601 468.69 48.3401 470.26 47.4701C471.31 47.1201 472.35 46.7701 473.4 46.6001C475.75 46.3401 478.11 46.7701 480.29 47.8201C482.47 48.9501 484.13 52.7002 484.39 55.0602C485 60.7302 484.83 67.9702 484.74 73.8102C484.65 74.4202 484.48 74.9402 484.22 75.5502L483.44 75.3802Z" fill="white"/>
</svg>
