<svg width="164" height="76" viewBox="0 0 164 76" fill="none" xmlns="http://www.w3.org/2000/svg">
<path d="M73.2706 59.23C70.9306 56.89 69.6206 53.7 69.6206 50.41C69.6406 48.39 70.1206 46.46 71.0206 44.68C71.9006 42.9 73.3206 41.39 74.9106 40.23C75.9506 39.51 77.1106 38.91 78.3006 38.53C79.5206 38.17 80.8006 37.97 82.0706 37.95H82.0906C85.2806 37.95 88.4006 39.21 90.6906 41.42C93.0106 43.62 94.4006 46.67 94.5206 49.84C94.5206 49.84 94.5206 50.02 94.5606 50.42C94.5606 53.71 93.2406 56.91 90.9106 59.24C88.5706 61.58 85.3806 62.89 82.0906 62.89H82.0506C78.7806 62.87 75.5806 61.53 73.2706 59.22M94.5706 6.73999V28.82C90.8006 26.64 86.4506 25.45 82.1106 25.47H82.0906C79.5406 25.51 77.0006 25.89 74.5406 26.65C72.1006 27.43 69.8106 28.61 67.7106 30.06C64.5006 32.38 61.7606 35.39 59.9506 38.94C58.1306 42.47 57.1606 46.47 57.1406 50.42V50.44C57.1406 53.69 57.7806 56.97 59.0406 59.98C60.3006 62.99 62.1306 65.75 64.4506 68.06C66.7706 70.38 69.5206 72.21 72.5306 73.47C75.5406 74.73 78.8406 75.37 82.0706 75.37H82.0906C85.3406 75.37 88.6206 74.73 91.6306 73.47C94.6406 72.23 97.4006 70.38 99.7106 68.06C102.031 65.76 103.861 62.99 105.121 59.98C106.381 56.97 107.021 53.67 107.021 50.44V6.75C107.021 3.3 104.251 0.52002 100.791 0.52002C97.3306 0.52002 94.5606 3.31 94.5606 6.75L94.5706 6.73999Z" fill="white"/>
<path d="M22.1405 62.35C20.9405 61.95 19.7805 61.37 18.7505 60.65C17.1505 59.49 15.7605 57.98 14.8605 56.2C13.9605 54.42 13.4605 52.47 13.4405 50.47C13.4405 47.18 14.7605 43.98 17.0905 41.65C19.4305 39.31 22.6205 38 25.9105 38H25.9305C29.2205 38 32.4205 39.32 34.7305 41.65C37.0705 43.99 38.3805 47.18 38.3805 50.47C38.3605 50.85 38.3405 51.05 38.3405 51.05C38.2205 54.22 36.8205 57.3 34.5105 59.49C32.2105 61.71 29.1005 62.94 25.9105 62.96H25.8905C24.6305 62.88 23.3505 62.7 22.1405 62.34M25.9105 25.5C22.6605 25.5 19.3805 26.16 16.3705 27.4C13.3605 28.66 10.6005 30.49 8.29047 32.81C5.99047 35.13 4.14047 37.88 2.88047 40.89C1.62047 43.9 0.980469 47.18 0.980469 50.43V50.45C1.00047 54.4 1.98047 58.39 3.79047 61.93C5.61047 65.48 8.32047 68.5 11.5505 70.81C13.6505 72.27 15.9405 73.42 18.3805 74.22C20.8405 74.98 23.3705 75.36 25.9305 75.38H25.9505C30.5005 75.4 35.0705 74.08 38.9605 71.71C39.9405 73.89 42.1105 75.38 44.6505 75.38C48.1005 75.38 50.9005 72.59 50.9005 69.15V50.43C50.9005 47.18 50.2405 43.9 49.0005 40.89C47.7405 37.88 45.9105 35.1 43.5905 32.81C41.2905 30.51 38.5205 28.66 35.5105 27.4C32.5005 26.14 29.2005 25.5 25.9705 25.5H25.9105Z" fill="white"/>
<path d="M134.64 62.35C133.44 61.95 132.28 61.37 131.25 60.65C129.65 59.49 128.26 57.98 127.36 56.2C126.46 54.42 125.96 52.47 125.94 50.47C125.94 47.18 127.26 43.98 129.59 41.65C131.93 39.31 135.12 38 138.41 38H138.43C141.72 38 144.92 39.32 147.23 41.65C149.57 43.99 150.88 47.18 150.88 50.47C150.86 50.85 150.84 51.05 150.84 51.05C150.72 54.22 149.32 57.3 147.01 59.49C144.71 61.71 141.6 62.94 138.41 62.96H138.39C137.13 62.88 135.85 62.7 134.64 62.34M138.41 25.5C135.16 25.5 131.88 26.16 128.87 27.4C125.86 28.66 123.1 30.49 120.79 32.81C118.49 35.13 116.64 37.88 115.38 40.89C114.12 43.9 113.48 47.18 113.48 50.43V50.45C113.5 54.4 114.48 58.39 116.29 61.93C118.11 65.48 120.82 68.5 124.05 70.81C126.15 72.27 128.44 73.42 130.88 74.22C133.34 74.98 135.87 75.36 138.43 75.38H138.45C143 75.4 147.57 74.08 151.46 71.71C152.44 73.89 154.61 75.38 157.15 75.38C160.6 75.38 163.4 72.59 163.4 69.15V50.43C163.4 47.18 162.74 43.9 161.5 40.89C160.24 37.88 158.41 35.1 156.09 32.81C153.79 30.51 151.02 28.66 148.01 27.4C145 26.14 141.7 25.5 138.47 25.5H138.41Z" fill="white"/>
</svg>
