<svg width="379" height="76" viewBox="0 0 379 76" fill="none" xmlns="http://www.w3.org/2000/svg">
<path d="M78.1406 57.2199V18.6399H84.7306V51.1699H95.3606V57.2199H78.1406ZM100.971 57.2199V18.6399H118.241V24.4199H107.231V34.6599H117.421V39.9999H107.231V51.3899H118.781V57.2199H100.971ZM142.821 57.2199L140.911 49.0499H130.781L128.821 57.2199H122.281L131.871 18.6399H140.211L149.631 57.2199H142.821ZM136.011 24.7999H135.791L131.591 43.9199H140.091L136.011 24.7999ZM176.551 30.0299C176.551 31.9899 176.251 33.7099 175.651 35.1799C175.051 36.6499 174.261 37.8699 173.291 38.8599C172.341 39.8299 171.191 40.5699 169.931 41.0399C168.661 41.5099 167.361 41.7499 166.021 41.7499H161.461V57.2199H155.031V18.6299H165.681C166.911 18.6299 168.181 18.8099 169.491 19.1699C170.801 19.5299 171.961 20.1599 173.001 21.0499C174.041 21.9399 174.881 23.1099 175.551 24.5599C176.221 26.0199 176.561 27.8299 176.561 30.0099L176.551 30.0299ZM170.401 30.1099C170.401 28.0499 169.911 26.5499 168.931 25.6099C167.951 24.6699 166.691 24.1999 165.171 24.1999H161.471V36.3999H165.171C166.701 36.3999 167.951 35.8599 168.931 34.7999C169.911 33.7299 170.401 32.1699 170.401 30.0999V30.1099Z" fill="white"/>
<path d="M198.51 26.0996C197.09 24.3896 195.311 23.5396 193.171 23.5396C192.561 23.5396 191.96 23.6396 191.37 23.8396C190.78 24.0396 190.26 24.3596 189.79 24.7896C189.32 25.2196 188.951 25.7896 188.671 26.4796C188.391 27.1696 188.26 27.9796 188.26 28.9296C188.26 30.5696 188.75 31.8296 189.73 32.7196C190.71 33.6096 192.001 34.4496 193.601 35.2596C194.551 35.7296 195.511 36.2796 196.491 36.8996C197.471 37.5096 198.361 38.2596 199.161 39.1296C199.961 39.9996 200.61 41.0396 201.12 42.2296C201.62 43.4296 201.881 44.8496 201.881 46.4796C201.881 48.3696 201.58 50.0396 200.98 51.4896C200.38 52.9396 199.581 54.1696 198.581 55.1696C197.581 56.1696 196.391 56.9396 195.071 57.4296C193.721 57.9396 192.311 58.1896 190.821 58.1896C188.681 58.1896 186.701 57.7696 184.881 56.9396C183.061 56.1096 181.611 55.0496 180.521 53.7796L184.071 48.9796C184.891 49.9896 185.921 50.8096 187.101 51.3796C188.281 51.9596 189.491 52.2496 190.721 52.2496C192.101 52.2496 193.241 51.7796 194.161 50.8296C195.071 49.8796 195.521 48.5596 195.521 46.8496C195.521 45.1396 194.981 43.8596 193.891 42.8696C192.801 41.8796 191.421 40.9796 189.751 40.1396C188.691 39.6296 187.711 39.0696 186.781 38.4496C185.851 37.8296 185.041 37.0896 184.331 36.2396C183.621 35.3896 183.061 34.3896 182.641 33.2496C182.221 32.1096 182.01 30.7396 182.01 29.1396C182.01 27.1396 182.331 25.4296 182.961 23.9896C183.601 22.5596 184.431 21.3696 185.471 20.4196C186.511 19.4696 187.68 18.7696 188.98 18.3196C190.29 17.8596 191.611 17.6396 192.961 17.6396C194.921 17.6396 196.671 17.9596 198.221 18.5896C199.761 19.2296 201.061 20.1696 202.111 21.3896L198.501 26.0796L198.51 26.0996ZM226.87 56.7796C225.29 57.7296 223.301 58.1996 220.911 58.1996C218.731 58.1996 216.761 57.6896 215.001 56.6696C213.241 55.6496 211.751 54.2396 210.531 52.4496C209.311 50.6596 208.371 48.5196 207.691 46.0396C207.021 43.5696 206.68 40.8596 206.68 37.9196C206.68 34.9796 207.021 32.2596 207.691 29.7696C208.361 27.2796 209.311 25.1396 210.551 23.3396C211.791 21.5396 213.281 20.1396 215.051 19.1396C216.821 18.1396 218.76 17.6396 220.9 17.6396C223.04 17.6396 225.061 18.0496 226.731 18.8696C228.381 19.6696 229.791 20.8796 230.821 22.3796L227.061 26.9596C225.57 24.8196 223.651 23.7496 221.281 23.7496C219.971 23.7496 218.831 24.1196 217.84 24.8696C216.861 25.6196 216.041 26.6296 215.391 27.8996C214.741 29.1696 214.251 30.6696 213.921 32.3996C213.59 34.1296 213.43 35.9696 213.43 37.9296C213.43 39.8896 213.601 41.6796 213.921 43.4096C214.251 45.1396 214.741 46.6296 215.391 47.9096C216.041 49.1796 216.87 50.1896 217.87 50.9396C218.87 51.6896 220.041 52.0596 221.381 52.0596C222.651 52.0596 223.751 51.7296 224.671 51.0796C225.601 50.4296 226.36 49.6296 226.99 48.6796L230.751 53.0896C229.731 54.5996 228.431 55.8296 226.851 56.7796H226.87ZM253.981 57.2196V40.1096H242.43V57.2196H235.951V18.6396H242.43V34.2796H253.981V18.6396H260.46V57.2196H253.981ZM294.96 37.8696C294.96 40.9196 294.641 43.6896 294.011 46.1796C293.381 48.6696 292.461 50.8096 291.261 52.5896C290.061 54.3696 288.601 55.7496 286.87 56.7296C285.14 57.7096 283.211 58.1996 281.061 58.1996C278.91 58.1996 276.941 57.7096 275.231 56.7296C273.521 55.7496 272.07 54.3696 270.87 52.5896C269.671 50.8096 268.75 48.6696 268.12 46.1796C267.48 43.6896 267.171 40.9196 267.171 37.8696C267.171 34.8196 267.48 32.0596 268.09 29.5896C268.701 27.1196 269.621 24.9996 270.821 23.2196C272.021 21.4396 273.48 20.0696 275.21 19.1096C276.94 18.1496 278.891 17.6696 281.061 17.6696C283.23 17.6696 285.131 18.1496 286.87 19.1096C288.601 20.0696 290.061 21.4396 291.261 23.2196C292.461 24.9996 293.381 27.1296 294.011 29.5896C294.651 32.0596 294.96 34.8096 294.96 37.8696ZM288.201 37.8696C288.201 35.9096 288.04 34.0596 287.74 32.3396C287.44 30.6196 286.981 29.1296 286.381 27.8696C285.781 26.6196 285.031 25.6196 284.141 24.8996C283.251 24.1796 282.23 23.8096 281.061 23.8096C279.891 23.8096 278.811 24.1696 277.921 24.8996C277.031 25.6196 276.291 26.6196 275.691 27.8696C275.091 29.1196 274.64 30.6096 274.36 32.3396C274.07 34.0696 273.93 35.9096 273.93 37.8696C273.93 39.8296 274.07 41.6796 274.36 43.3996C274.65 45.1296 275.091 46.6196 275.691 47.8996C276.291 49.1696 277.041 50.1696 277.921 50.8896C278.811 51.6096 279.861 51.9796 281.061 51.9796C282.26 51.9796 283.311 51.6196 284.201 50.8896C285.091 50.1596 285.841 49.1596 286.441 47.8996C287.041 46.6396 287.48 45.1296 287.77 43.3996C288.07 41.6696 288.21 39.8296 288.21 37.8696H288.201ZM301.61 57.2196V18.6396H308.201V51.1696H318.83V57.2196H301.61ZM343.881 57.2196L341.971 49.0496H331.84L329.881 57.2196H323.34L332.93 18.6396H341.27L350.691 57.2196H343.881ZM337.08 24.7996H336.86L332.661 43.9196H341.161L337.08 24.7996ZM372.061 57.2196L366.061 40.7596H362.411V57.2196H356.09V18.6396H367.101C368.701 18.6396 370.171 18.8496 371.511 19.2596C372.861 19.6796 374.01 20.3396 374.971 21.2496C375.931 22.1596 376.691 23.3096 377.231 24.6896C377.771 26.0696 378.05 27.7196 378.05 29.6496C378.05 31.1396 377.861 32.4496 377.471 33.5996C377.09 34.7396 376.601 35.7196 376.031 36.5196C375.451 37.3196 374.801 37.9596 374.09 38.4596C373.38 38.9496 372.68 39.2896 371.99 39.4696L378.911 57.2396H372.05L372.061 57.2196ZM371.62 29.9696C371.62 28.8096 371.451 27.8396 371.131 27.0796C370.801 26.3196 370.371 25.7196 369.851 25.2796C369.321 24.8496 368.73 24.5296 368.08 24.3496C367.43 24.1696 366.77 24.0696 366.12 24.0696H362.421V35.9496H366.12C367.721 35.9496 369.041 35.4496 370.071 34.4496C371.121 33.4596 371.631 31.9496 371.631 29.9596L371.62 29.9696Z" fill="white"/>
<path d="M62.0004 33.7598V18.9398C62.0004 17.7698 61.5204 16.9098 60.4604 16.3498C58.5904 15.3598 56.7404 14.3298 54.8804 13.3098L43.7904 7.25985C40.9504 5.70985 38.1104 4.15985 35.2604 2.59985L32.3104 0.98983C31.7404 0.67983 31.1504 0.539831 30.5104 0.709831C30.2104 0.789831 29.9204 0.899828 29.6504 1.04983C28.0804 1.88983 26.5204 2.74985 24.9604 3.59985C21.9004 5.26985 18.8504 6.92985 15.7904 8.59985C11.7404 10.8098 7.69043 13.0199 3.64043 15.2299C2.88043 15.6499 2.11043 16.0299 1.37043 16.4799C0.390429 17.0699 -0.0495711 17.9498 0.130429 19.1098C0.150429 19.1898 0.150429 19.2698 0.130429 19.3498C0.110429 19.6898 0.0704295 20.0198 0.0704295 20.3598V47.9398C0.0704295 48.2498 0.0504299 48.5598 0.0904299 48.8698C0.14043 49.4798 0.17043 50.0799 0.28043 50.6699C0.82043 53.5599 2.17043 56.0098 4.35043 58.0098C5.05043 58.6498 5.76043 59.2699 6.47043 59.8899C9.52043 62.5599 12.7304 65.0198 16.0804 67.2998C20.4404 70.2798 25.0204 72.8898 29.7804 75.1898C30.6204 75.5898 31.4504 75.6098 32.2704 75.1898C34.2504 74.1698 36.2404 73.1798 38.1904 72.0998C43.7804 68.9998 49.0204 65.3898 53.9204 61.2898C55.3804 60.0698 56.8304 58.8198 58.1704 57.4898C60.7104 54.9798 61.9404 51.8698 61.9804 48.3198C62.0204 43.4698 61.9804 38.6098 61.9804 33.7498L62.0004 33.7598ZM57.1804 52.9199C56.7304 53.7299 56.1504 54.4598 55.4704 55.0798C50.9004 59.2598 45.9804 63.0298 40.7404 66.3398C37.7104 68.2498 34.6004 69.9998 31.4004 71.5998C31.1304 71.7298 30.9204 71.7298 30.6504 71.5998C25.4704 69.0198 20.5304 66.0399 15.8504 62.6399C12.7204 60.3699 9.74043 57.9298 6.87043 55.3398C5.68043 54.2798 4.77043 53.0398 4.26043 51.5298C4.00043 50.7398 3.85043 49.9098 3.82043 49.0698C3.82043 48.8598 3.82043 48.6398 3.82043 48.4298V21.9199C4.06043 21.9999 4.24043 22.0398 4.40043 22.0998C5.58043 22.6198 6.76043 23.1598 7.94043 23.6798C8.02043 23.7098 8.09043 23.7498 8.17043 23.7798L8.19043 23.6198L12.4204 25.5698V44.2398C12.4204 44.2398 13.0404 50.2398 28.7804 57.5898V29.2698C22.0704 26.2598 15.3504 23.2598 8.63043 20.2598C7.65043 19.8298 6.68043 19.3899 5.71043 18.9499C5.54043 18.8799 5.39043 18.7798 5.23043 18.7098C5.23043 18.6698 5.23043 18.6198 5.23043 18.5798C5.37043 18.4898 5.51043 18.3998 5.66043 18.3198C10.6904 15.5798 15.7104 12.8398 20.7304 10.0898C24.0504 8.28984 27.3604 6.47984 30.6704 4.65984C30.9504 4.49984 31.1704 4.51984 31.4404 4.65984C33.3004 5.67984 35.1604 6.68983 37.0204 7.70983C40.2804 9.48983 43.5404 11.2698 46.8004 13.0398C49.9904 14.7798 53.1804 16.5198 56.3804 18.2598C56.5404 18.3498 56.6804 18.4598 56.9004 18.5998C56.6704 18.7198 56.5304 18.7998 56.3804 18.8698C53.7304 20.0698 51.0804 21.2599 48.4204 22.4499L39.5304 26.4398C37.4704 27.3698 35.4004 28.2899 33.3404 29.2299V57.7398C49.4604 50.3098 50.0904 44.2098 50.0904 44.2098V25.7398L51.6304 25.0298C51.6304 25.0298 51.6304 24.9499 51.6504 24.9199L58.2104 21.9298C58.2304 22.0098 58.2604 22.0898 58.2704 22.1498C58.2904 22.2798 58.2704 22.3998 58.2704 22.5398V48.4199C58.2704 49.9899 57.9704 51.4798 57.1904 52.8698L57.1804 52.9199Z" fill="white"/>
</svg>
