<svg width="231" height="76" viewBox="0 0 231 76" fill="none" xmlns="http://www.w3.org/2000/svg">
<path d="M107.081 26.4003V46.8802L94.7105 26.2603L94.6606 26.4003H84.3105V64.2202H94.7105V43.9103L107.081 64.2202H117.491V26.4003H107.081Z" fill="white"/>
<path d="M150.32 50.9501C148.61 53.3101 145.84 54.8501 142.72 54.8501C137.52 54.8501 133.31 50.6101 133.31 45.3701C133.31 40.1301 137.52 35.8901 142.72 35.8901C145.93 35.8901 148.76 37.5001 150.46 39.9701L157.88 33.1501C154.27 28.6001 148.7 25.6802 142.44 25.6802C131.56 25.6802 122.75 34.5001 122.75 45.3701C122.75 56.2401 131.57 65.0602 142.44 65.0602C148.61 65.0602 154.12 62.2201 157.73 57.7802L150.33 50.9501H150.32Z" fill="white"/>
<path d="M182.77 43.7201C187.07 42.7101 190.24 39.2301 190.24 35.1001C190.24 30.1801 185.74 26.1802 180.19 26.1802C180.13 26.1802 180.07 26.1802 180.01 26.1802H162.68V64.1401H180.01V64.1201C180.25 64.1301 180.5 64.1401 180.75 64.1401C187.16 64.1401 192.35 59.5301 192.35 53.8501C192.35 48.7801 188.21 44.5701 182.77 43.7201ZM172.24 35.2101H176.32C178.26 35.2601 179.83 36.6301 179.83 38.3201C179.83 40.0101 178.27 41.3802 176.32 41.4202H172.24V35.2101ZM177.27 55.5402C177.19 55.5402 177.12 55.5402 177.04 55.5402H172.24V48.3102H177.18C177.18 48.3102 177.24 48.3102 177.27 48.3102C177.3 48.3102 177.33 48.3102 177.36 48.3102H177.47C179.68 48.4102 181.45 49.9902 181.45 51.9302C181.45 53.8702 179.58 55.5502 177.27 55.5502V55.5402Z" fill="white"/>
<path d="M220.2 64.1703H230.42L216.88 26.3502L216.93 26.2202H207.28L207.33 26.3502L193.79 64.1703H204.01L206.09 58.0802H218.15L220.23 64.1703H220.2ZM208.88 49.8302L212.1 40.3802L215.32 49.8302H208.88Z" fill="white"/>
<path d="M20.8497 0.350098L26.5197 6.96008L32.2597 0.560181L35.5297 3.36011L26.5897 13.9001L17.1797 3.09009L20.8497 0.350098Z" fill="white"/>
<path d="M25.1701 35.4001L29.1101 31.4601L18.3301 31.5801L21.8601 27.2701L42.2401 27.1201L28.5401 38.8601L25.1701 35.4001Z" fill="white"/>
<path d="M42.9796 2.22021V22.2803H38.4796V14.8702L32.2896 22.2803H25.6396L42.9796 2.22021Z" fill="white"/>
<path d="M48.04 5.78027V26.4902L60.6 20.5902L57.5 16.9303L52.63 19.0902V11.0303L48.04 5.78027Z" fill="white"/>
<path d="M52.4404 26.8702H74.2804L52.4404 45.1503V38.6803L61.3404 31.2803L52.5304 31.3702C52.5304 31.3702 52.4404 26.5902 52.4404 26.8702Z" fill="white"/>
<path d="M47.29 29.21V47.95L42.79 45.8V39.15L38.48 43.1801L33.79 40.27L47.29 29.21Z" fill="white"/>
<path d="M42.2304 50.77L28.5404 42.52L26.1104 46.64L33.3204 50.77L26.2004 54.61L28.8304 58.64L42.2304 50.77Z" fill="white"/>
<path d="M47.57 53.2L58.63 46.73V52.26L52.07 56.1V67.35L47.57 69.97C47.57 69.97 47.34 52.9599 47.57 53.1899V53.2Z" fill="white"/>
<path d="M42.8799 56.1104V72.4204L38.2899 75.2303V63.7904L33.6099 67.0703L31.1699 62.9503L42.8799 56.1104Z" fill="white"/>
<path d="M21.42 15.71H0.709961L3.61996 11.12H11.68L7.45996 6.16003L10.93 3.06006L21.42 15.71Z" fill="white"/>
<path d="M21.3301 20.4902H0.620117L3.24012 25.3702H11.1101L7.27012 30.4303L10.9301 33.3302L21.3301 20.4902Z" fill="white"/>
</svg>
