<svg width="352" height="76" viewBox="0 0 352 76" fill="none" xmlns="http://www.w3.org/2000/svg">
<path fill-rule="evenodd" clip-rule="evenodd" d="M0.45043 56.15V2.66992H16.2104L28.0304 37.0099L39.2904 2.66992H55.6104V56.15H43.7904V27.4399L33.0904 56.71H23.5204L12.2604 29.6899V56.15H0.44043H0.45043Z" fill="white"/>
<path fill-rule="evenodd" clip-rule="evenodd" d="M121.49 25.7499C121.49 25.1899 121.49 22.9399 117.55 22.9399C114.74 22.9399 114.18 24.6299 114.18 25.7499C114.18 27.4399 116.99 28.5599 120.37 29.6899C127.69 31.9399 135.01 33.63 135.01 43.2C135.01 52.21 127.13 57.84 118.13 57.84C111.94 57.84 101.8 55.02 100.68 43.77H113.63C114.2 47.71 117.57 47.71 118.14 47.71C120.39 47.71 122.64 46.59 122.64 44.33C122.64 41.52 119.26 40.95 111.38 38.14C105.75 36.45 101.25 32.5099 101.25 26.8799C101.25 18.4299 109.13 12.8099 117.57 12.8099C123.2 12.8099 132.77 15.0599 133.9 25.7599H121.5L121.49 25.7499ZM136.12 0.419922H148.51V9.98993H136.12V0.419922ZM136.12 13.9299H148.51V56.15H136.12V13.9299ZM152.45 13.9299H164.27V18.4299C165.96 16.7399 168.21 12.7999 176.09 12.7999C190.16 12.7999 191.29 24.0599 191.29 30.2499V56.15H178.91V33.0699C178.91 28.5699 177.78 24.6299 172.16 24.6299C165.97 24.6299 164.84 29.13 164.84 33.64V56.1599H152.46V13.9399L152.45 13.9299ZM195.24 0.419922H207.63V9.98993H195.24V0.419922ZM195.24 13.9299H207.63V56.15H195.24V13.9299ZM222.26 35.3199C222.26 30.8199 225.07 24.6299 232.39 24.6299C238.02 24.6299 240.83 27.4399 241.96 30.2599C243.09 31.9499 243.09 34.2 243.09 35.89C243.09 37.58 242.52 39.83 241.4 40.96C239.71 43.77 236.9 46.03 232.4 46.03C225.08 46.03 222.26 39.28 222.26 35.33V35.3199ZM255.47 13.9299H243.09V18.4299C241.4 16.1799 237.46 12.7999 230.7 12.7999C219.44 12.7999 209.31 21.2399 209.31 35.3199C209.31 47.1399 217.19 57.84 230.7 57.84C235.77 57.84 240.83 55.59 243.09 51.65V56.15H255.47V13.9299ZM270.11 34.7599C270.11 29.1299 275.18 24.6299 280.24 24.6299C283.62 24.6299 286.43 25.7599 288.12 28.0099C289.81 29.6999 290.37 32.51 290.37 35.89C290.37 38.71 289.24 40.96 287.56 43.21C285.87 44.9 283.62 46.03 280.24 46.03C275.17 46.03 270.11 42.09 270.11 35.33V34.77V34.7599ZM303.33 13.9299H290.38V17.8699C288.13 14.4899 283.63 12.7999 279.12 12.7999C267.86 12.7999 257.73 21.2399 257.73 35.3199C257.73 49.3999 267.3 57.84 279.12 57.84C285.31 57.84 289.25 53.9 290.38 51.65V53.9C290.38 61.22 285.31 64.59 280.25 64.59C279.69 64.59 278.56 64.59 276.87 64.03C275.16 63.19 273.78 61.8 272.93 60.09H258.29C259.42 66.28 264.48 75.2899 279.69 75.2899C289.82 75.2899 297.7 70.2299 300.52 65.1599C302.77 61.7799 303.33 57.28 303.33 51.09V13.9299ZM317.4 35.3199C317.4 30.8199 320.78 24.6299 328.1 24.6299C333.16 24.6299 335.98 27.4399 337.67 30.2599C338.23 31.9499 338.8 34.2 338.23 35.89C338.23 37.58 337.67 39.83 336.54 40.96C335.41 43.77 332.6 46.03 328.1 46.03C320.21 46.03 317.4 39.28 317.4 35.33V35.3199ZM351.18 13.9299H338.23V18.4299C337.1 16.1799 333.16 12.7999 325.85 12.7999C314.59 12.7999 305.02 21.2399 305.02 35.3199C305.02 47.1399 312.9 57.84 325.85 57.84C330.92 57.84 335.98 55.59 338.23 51.65V56.15H351.18V13.9299ZM79.2703 44.33C75.3303 43.77 76.4603 40.95 76.4603 40.95L97.8503 28.5699C92.7803 16.1899 82.0903 15.6199 78.7103 15.6199C65.2003 15.0599 59.0103 28.5699 58.4403 31.3799C55.6303 50.5199 69.7003 55.59 72.5103 56.15C87.7103 61.78 97.2803 47.71 97.2803 47.71V37.02C89.9603 45.46 82.6403 44.9 79.2603 44.33H79.2703ZM71.9503 35.8799C70.8303 34.7599 69.7003 31.3799 75.3303 27.9999C80.9603 24.6199 83.7803 28.5599 83.7803 28.5599L71.9603 35.8799H71.9503Z" fill="white"/>
</svg>
