<svg width="179" height="48" viewBox="0 0 179 48" fill="none" xmlns="http://www.w3.org/2000/svg">
<g clip-path="url(#clip0_56_2430)">
<path d="M6.86531 22.033C6.80072 21.9484 6.71541 21.882 6.61763 21.8401C6.51985 21.7982 6.41292 21.7822 6.30715 21.7937C6.20139 21.8051 6.10038 21.8437 6.01389 21.9057C5.9274 21.9676 5.85835 22.0508 5.81341 22.1472L0.483261 32.8042C0.434704 32.9013 0.411778 33.0093 0.41666 33.1177C0.421541 33.2262 0.454069 33.3316 0.511153 33.424C0.568238 33.5164 0.647985 33.5926 0.742823 33.6455C0.837661 33.6984 0.944442 33.7262 1.05303 33.7262H8.47499C8.59386 33.7289 8.71097 33.6971 8.81212 33.6346C8.91326 33.5721 8.99407 33.4815 9.04475 33.374C10.6458 30.0657 9.67549 25.0354 6.86531 22.033Z" fill="#FAF8FF"/>
<path d="M10.7744 12.3399C9.44628 14.3835 8.6723 16.7372 8.52842 19.1702C8.38455 21.6032 8.87572 24.0317 9.95373 26.2176L13.5319 33.374C13.5848 33.4798 13.6662 33.5688 13.7668 33.631C13.8674 33.6932 13.9834 33.7262 14.1017 33.7262H21.5223C21.6309 33.7262 21.7377 33.6984 21.8325 33.6455C21.9274 33.5926 22.0071 33.5164 22.0642 33.424C22.1213 33.3316 22.1538 33.2262 22.1587 33.1177C22.1636 33.0093 22.1407 32.9013 22.0921 32.8042C22.0921 32.8042 12.1089 12.8354 11.858 12.3359C11.8083 12.2343 11.7311 12.1486 11.635 12.0889C11.539 12.0291 11.428 11.9976 11.3149 11.9981C11.2018 11.9985 11.0911 12.0308 10.9955 12.0912C10.8999 12.1517 10.8233 12.2379 10.7744 12.3399Z" fill="#FAF8FF"/>
<path d="M97.816 20.8856C97.816 23.5245 99.0402 25.6196 103.829 26.5446C106.685 27.1443 107.284 27.6055 107.284 28.5577C107.284 29.4827 106.684 30.0815 104.672 30.0815C102.24 30.0377 99.8566 29.3928 97.7344 28.2042V32.5025C99.1765 33.2098 101.081 33.9988 104.618 33.9988C109.624 33.9988 111.61 31.7664 111.61 28.4488L97.816 20.8856ZM111.61 28.4488C111.61 25.3201 109.95 23.8507 105.271 22.8444C102.686 22.273 102.06 21.7019 102.06 20.8856C102.06 19.8526 102.985 19.4165 104.699 19.4165C106.767 19.4165 108.808 20.0422 110.739 20.9129V16.8046C108.887 15.9616 106.87 15.5433 104.835 15.5804C100.21 15.5804 97.816 17.5936 97.816 20.8856" fill="#FAF8FF"/>
<path d="M162.129 15.8516V33.7262H165.938V20.0958L167.543 23.714L172.93 33.7262H177.718V15.8516H173.909V27.3872L172.467 24.0405L168.141 15.8516H162.129Z" fill="#FAF8FF"/>
<path d="M137.903 15.8516H133.74V33.7262H137.903V15.8516Z" fill="#FAF8FF"/>
<path d="M128.938 28.4488C128.938 25.3201 127.278 23.8507 122.599 22.8444C120.014 22.273 119.388 21.7019 119.388 20.8856C119.388 19.8526 120.313 19.4165 122.027 19.4165C124.095 19.4165 126.136 20.0422 128.067 20.9129V16.8046C126.215 15.9616 124.198 15.5433 122.163 15.5804C117.538 15.5804 115.144 17.5936 115.144 20.8856C115.144 23.5245 116.368 25.6196 121.157 26.5446C124.013 27.1443 124.612 27.6055 124.612 28.5577C124.612 29.4827 124.012 30.0815 122 30.0815C119.568 30.0377 117.185 29.3928 115.062 28.2042V32.5025C116.505 33.2098 118.409 33.9988 121.946 33.9988C126.952 33.9988 128.938 31.7664 128.938 28.4488Z" fill="#FAF8FF"/>
<path d="M65.4785 15.8516V33.7262H74.0343L75.3815 29.8628H69.6681V15.8516H65.4785Z" fill="#FAF8FF"/>
<path d="M48.5742 15.8516V19.7146H53.1993V33.7262H57.3889V19.7146H62.3406V15.8516H48.5742Z" fill="#FAF8FF"/>
<path d="M42.4993 15.8516H37.0085L30.7754 33.7262H35.5354L36.4191 30.7158C38.5953 31.3548 40.9094 31.3548 43.0857 30.7158L43.9693 33.7262H48.7304L42.4993 15.8516ZM39.7537 27.4925C38.9783 27.4924 38.2069 27.3814 37.463 27.1629L39.7537 19.3625L42.0444 27.1656C41.3004 27.3832 40.529 27.4933 39.7537 27.4925Z" fill="#FAF8FF"/>
<path d="M88.7841 15.8516H83.2937L77.0605 33.7262H81.8216L82.7052 30.7158C84.8815 31.3548 87.1956 31.3548 89.3718 30.7158L90.2555 33.7262H95.0165L88.7841 15.8516ZM86.0389 27.4925C85.2635 27.4924 84.4921 27.3814 83.7481 27.1629L86.0389 19.3625L88.3296 27.1656C87.5855 27.3832 86.8141 27.4933 86.0389 27.4925Z" fill="#FAF8FF"/>
<path d="M152.903 15.8516H147.413L141.18 33.7262H145.941L146.824 30.7158C149.001 31.3548 151.315 31.3548 153.491 30.7158L154.375 33.7262H159.136L152.903 15.8516ZM150.156 27.4925C149.381 27.4924 148.61 27.3814 147.866 27.1629L150.156 19.3625L152.447 27.1656C151.703 27.3832 150.932 27.4933 150.156 27.4925Z" fill="#FAF8FF"/>
</g>
<defs>
<clipPath id="clip0_56_2430">
<rect width="178" height="48" fill="white" transform="translate(0.417969)"/>
</clipPath>
</defs>
</svg>
