<svg width="224" height="48" viewBox="0 0 224 48" fill="none" xmlns="http://www.w3.org/2000/svg">
<g clip-path="url(#clip0_56_2353)">
<path d="M223.418 21.5773V17.6479H218.538V11.5396L218.374 11.5898L213.791 12.9923L213.701 13.0198V17.6479H206.468V15.0698C206.468 13.8694 206.736 12.9504 207.265 12.3382C207.791 11.7325 208.542 11.4249 209.5 11.4249C210.19 11.4249 210.903 11.5872 211.621 11.9071L211.801 11.9874V7.84976L211.716 7.81921C211.046 7.5779 210.135 7.45703 209.006 7.45703C207.583 7.45703 206.29 7.76641 205.162 8.38038C204.05 8.97813 203.135 9.88347 202.524 10.9881C201.905 12.1026 201.59 13.3894 201.59 14.8137V17.6483H198.193V21.5778H201.59V38.1303H206.468V21.5773H213.701V32.0963C213.701 36.4285 215.744 38.6243 219.775 38.6243C220.471 38.6202 221.165 38.543 221.846 38.3939C222.57 38.2381 223.063 38.0823 223.354 37.9161L223.418 37.8781V33.9125L223.22 34.0438C222.955 34.2205 222.625 34.3645 222.239 34.4714C221.85 34.5805 221.526 34.6355 221.275 34.6355C220.331 34.6355 219.633 34.3811 219.199 33.8788C218.761 33.3727 218.538 32.4864 218.538 31.2471V21.5773H223.418ZM187.301 34.6359C185.53 34.6359 184.135 34.0486 183.151 32.8927C182.162 31.7302 181.66 30.0738 181.66 27.9683C181.66 25.7965 182.162 24.0969 183.152 22.9139C184.136 21.7392 185.518 21.1427 187.261 21.1427C188.952 21.1427 190.298 21.7122 191.263 22.8367C192.232 23.9664 192.723 25.6525 192.723 27.8496C192.723 30.0738 192.261 31.7826 191.349 32.9254C190.443 34.0599 189.082 34.6359 187.301 34.6359ZM187.518 17.1543C184.141 17.1543 181.458 18.144 179.546 20.0959C177.634 22.0482 176.665 24.7493 176.665 28.1258C176.665 31.3327 177.611 33.912 179.477 35.7914C181.343 37.6713 183.882 38.6234 187.024 38.6234C190.298 38.6234 192.927 37.6202 194.839 35.6413C196.75 33.6646 197.719 30.9888 197.719 27.6908C197.719 24.4342 196.81 21.8356 195.017 19.9689C193.223 18.1012 190.699 17.1543 187.518 17.1543ZM168.801 17.1543C166.503 17.1543 164.603 17.7421 163.151 18.9007C161.691 20.0662 160.95 21.5952 160.95 23.445C160.95 24.4063 161.11 25.2602 161.425 25.9846C161.741 26.7116 162.231 27.3513 162.882 27.8884C163.528 28.4212 164.525 28.9794 165.847 29.5466C166.958 30.0039 167.786 30.391 168.312 30.6956C168.827 30.9945 169.192 31.2947 169.398 31.5871C169.598 31.8729 169.7 32.2647 169.7 32.7478C169.7 34.1241 168.67 34.7935 166.55 34.7935C165.763 34.7935 164.866 34.6294 163.883 34.3056C162.907 33.9866 161.986 33.5196 161.153 32.921L160.95 32.7762V37.4714L161.024 37.5063C161.715 37.8249 162.585 38.0932 163.61 38.3049C164.634 38.5161 165.563 38.6239 166.371 38.6239C168.864 38.6239 170.872 38.0335 172.337 36.8679C173.811 35.6941 174.559 34.1298 174.559 32.2154C174.559 30.8352 174.156 29.6509 173.363 28.6962C172.576 27.7493 171.209 26.8796 169.303 26.1111C167.785 25.5015 166.812 24.9958 166.411 24.6074C166.024 24.2322 165.827 23.7015 165.827 23.03C165.827 22.4339 166.07 21.957 166.568 21.5703C167.07 21.182 167.768 20.9843 168.643 20.9843C169.456 20.9843 170.287 21.1126 171.114 21.3639C171.941 21.6157 172.666 21.953 173.272 22.365L173.471 22.5011V18.0467L173.395 18.014C172.836 17.774 172.099 17.5689 171.204 17.4031C170.312 17.2381 169.504 17.1543 168.801 17.1543ZM148.235 34.6359C146.465 34.6359 145.069 34.0486 144.086 32.8927C143.096 31.7302 142.595 30.0738 142.595 27.9683C142.595 25.7965 143.096 24.0969 144.087 22.9139C145.07 21.7392 146.452 21.1427 148.196 21.1427C149.887 21.1427 151.233 21.7122 152.197 22.8367C153.166 23.9664 153.658 25.6525 153.658 27.8496C153.658 30.0738 153.195 31.7826 152.284 32.9254C151.378 34.0599 150.016 34.6359 148.235 34.6359ZM148.453 17.1543C145.074 17.1543 142.392 18.144 140.48 20.0959C138.569 22.0482 137.599 24.7493 137.599 28.1258C137.599 31.334 138.546 33.912 140.411 35.7914C142.277 37.6713 144.816 38.6234 147.959 38.6234C151.231 38.6234 153.862 37.6202 155.774 35.6413C157.685 33.6646 158.654 30.9888 158.654 27.6908C158.654 24.4342 157.745 21.8356 155.951 19.9689C154.156 18.1012 151.633 17.1543 148.453 17.1543ZM130.195 21.1951V17.6479H125.377V38.1295H130.195V27.6519C130.195 25.8703 130.599 24.4067 131.396 23.3014C132.183 22.2092 133.232 21.6554 134.512 21.6554C134.946 21.6554 135.433 21.727 135.96 21.8688C136.483 22.0093 136.861 22.1621 137.084 22.3226L137.287 22.4697V17.613L137.208 17.5794C136.76 17.3887 136.125 17.2927 135.322 17.2927C134.111 17.2927 133.028 17.6815 132.1 18.4473C131.285 19.1206 130.696 20.0439 130.246 21.1951H130.195ZM116.75 17.1543C114.539 17.1543 112.567 17.6287 110.89 18.5629C109.21 19.4989 107.911 20.8364 107.026 22.536C106.146 24.2322 105.699 26.2132 105.699 28.4226C105.699 30.3574 106.133 32.1334 106.989 33.6982C107.846 35.266 109.059 36.4927 110.594 37.3436C112.128 38.1932 113.9 38.6239 115.861 38.6239C118.151 38.6239 120.106 38.1661 121.673 37.2637L121.736 37.2271V32.8132L121.534 32.9612C120.813 33.4838 120.019 33.8973 119.177 34.1882C118.325 34.4854 117.549 34.6355 116.869 34.6355C114.978 34.6355 113.461 34.0442 112.359 32.8783C111.255 31.7101 110.695 30.0707 110.695 28.0071C110.695 25.9309 111.279 24.2492 112.429 23.0077C113.576 21.7706 115.097 21.1431 116.948 21.1431C118.532 21.1431 120.075 21.6794 121.534 22.7385L121.736 22.8851V18.2343L121.671 18.1977C121.121 17.89 120.373 17.6361 119.442 17.4437C118.516 17.2516 117.61 17.1543 116.75 17.1543ZM102.381 17.6479H97.5631V38.1295H102.381V17.6479ZM100.022 8.92278C99.2287 8.92278 98.537 9.19289 97.9689 9.72743C97.3981 10.2642 97.1084 10.9396 97.1084 11.7364C97.1084 12.521 97.3946 13.1839 97.9593 13.7062C98.5209 14.2268 99.2147 14.4908 100.022 14.4908C100.828 14.4908 101.524 14.2268 102.093 13.7071C102.664 13.1839 102.954 12.521 102.954 11.7364C102.954 10.9676 102.672 10.2986 102.116 9.74925C101.561 9.20074 100.855 8.92278 100.022 8.92278ZM88.0006 16.1372V38.129H92.9175V9.54983H86.1124L77.4624 30.7776L69.0685 9.54983H61.9863V38.1295H66.607V16.135H66.7658L75.6297 38.1295H79.1162L87.8417 16.1367L88.0006 16.1372Z" fill="#FAF8FF"/>
<path d="M22.6643 22.6643H0V0H22.6643V22.6643Z" fill="#FAF8FF"/>
<path d="M47.6897 22.6643H25.0254V0H47.6897V22.6643Z" fill="#FAF8FF"/>
<path d="M22.6639 47.6975H0V25.0332H22.6639V47.6975Z" fill="#FAF8FF"/>
<path d="M47.6897 47.6975H25.0254V25.0332H47.6897V47.6975Z" fill="#FAF8FF"/>
</g>
<defs>
<clipPath id="clip0_56_2353">
<rect width="223.418" height="48" fill="white"/>
</clipPath>
</defs>
</svg>
