<svg width="28" height="28" viewBox="0 0 28 28" fill="none" xmlns="http://www.w3.org/2000/svg">
<path d="M14 15.2776L9.52852 19.749C9.36122 19.9163 9.14829 20 8.88973 20C8.63118 20 8.41825 19.9163 8.25095 19.749C8.08365 19.5817 8 19.3688 8 19.1103C8 18.8517 8.08365 18.6388 8.25095 18.4715L12.7224 14L8.25095 9.52852C8.08365 9.36122 8 9.14829 8 8.88973C8 8.63118 8.08365 8.41825 8.25095 8.25095C8.41825 8.08365 8.63118 8 8.88973 8C9.14829 8 9.36122 8.08365 9.52852 8.25095L14 12.7224L18.4715 8.25095C18.6388 8.08365 18.8517 8 19.1103 8C19.3688 8 19.5817 8.08365 19.749 8.25095C19.9163 8.41825 20 8.63118 20 8.88973C20 9.14829 19.9163 9.36122 19.749 9.52852L15.2776 14L19.749 18.4715C19.9163 18.6388 20 18.8517 20 19.1103C20 19.3688 19.9163 19.5817 19.749 19.749C19.5817 19.9163 19.3688 20 19.1103 20C18.8517 20 18.6388 19.9163 18.4715 19.749L14 15.2776Z" fill="#fff"/>
</svg>
