<?xml version="1.0" encoding="UTF-8"?>
<svg xmlns="http://www.w3.org/2000/svg" id="Layer_1" data-name="Layer 1" viewBox="0 0 64 64" width="48" height="48"><path d="M28.09326,25.19141a1.00017,1.00017,0,0,0-.85937.96l-.03376,1.13037-7.372,3.686-2.14739-.28741a4.50708,4.50708,0,1,0-6.95807-.75232,3.97248,3.97248,0,0,0-3.29248,3.09149L5.3501,43.2002A3.004,3.004,0,0,0,6.02686,45.757L4.08105,51.60645l-3,7A.99932.99932,0,0,0,2,60H6a.99959.99959,0,0,0,.86816-.50391l4-7a1.00268,1.00268,0,0,0,.11231-.2998l.73218-3.66089.34546.14819.9458,10.40723A1.00039,1.00039,0,0,0,14,60h4a1.00027,1.00027,0,0,0,1-1.00488l-.06348-11.1543A2.97064,2.97064,0,0,0,18.34033,45.79l-2.28369-3.04785.80957-4.85547,6.27539-.89649a1.004,1.004,0,0,0,.498-.22168l3.36108-2.79748A.99918.99918,0,0,0,28,35a.97449.97449,0,0,0,.13037-.00879C45.606,32.69238,56.02,17.75684,59.44189,12.84863c.043-.06152.085-.12109.12549-.17968l2.08448.77441A1.00045,1.00045,0,0,0,62.99609,12.419L62.252,3.91309a.99952.99952,0,0,0-1.40136-.82715l-8.502,3.76855A.99958.99958,0,0,0,52.23486,8.623L54.0083,9.7002A40.10582,40.10582,0,0,1,36.0542,23.18164,38.66964,38.66964,0,0,1,28.09326,25.19141ZM14.5,25A2.5,2.5,0,1,1,12,27.5,2.50263,2.50263,0,0,1,14.5,25ZM9.05127,51.64453,5.41992,58H3.51562l2.43311-5.68359,1.82385-5.47156,2.06177.88464ZM27.08008,31.3031l-4.502,3.7467-6.71972.96a.99991.99991,0,0,0-.84473.82617l-1,6a.99988.99988,0,0,0,.186.76367l2.54687,3.39844a1.072,1.072,0,0,1,.19336.7666L16.99463,58H14.91309l-.917-10.09082a.9997.9997,0,0,0-.60156-.82813L7.8916,44.71973a.99926.99926,0,0,1-.58154-1.11914l2.07715-10.167a1.98623,1.98623,0,0,1,2.18994-1.55273l8.29,1.11035a1.01963,1.01963,0,0,0,.58008-.09668L27.13239,29.552ZM56.27393,9.9873a.99968.99968,0,0,0-.29737-1.43164l-1.06738-.64843,5.47266-2.42578.48437,5.5371L59.542,10.52637a1.00187,1.00187,0,0,0-1.15918.35254c-.1582.21875-.352.49707-.58154.82617C54.582,16.32227,44.94043,30.15039,29.03516,32.834l.17285-5.78906a40.78573,40.78573,0,0,0,7.53906-1.98633A42.20217,42.20217,0,0,0,56.27393,9.9873Z"/><path d="M44.48779,11.13086l-.8999-.50293q.02929-.31641.0293-.62793,0-.312-.0293-.62793l.89941-.50293a1.001,1.001,0,0,0,.47852-1.13086,8.93827,8.93827,0,0,0-2.477-4.165,1.002,1.002,0,0,0-1.17725-.14844l-.86718.48536a.15717.15717,0,0,1-.10059.01562,12.5478,12.5478,0,0,0-1.13818-.66406V2.294a1,1,0,0,0-.74121-.96583A10.00781,10.00781,0,0,0,35.88184,1.001a9.55434,9.55434,0,0,0-2.3462.33105,1.00054,1.00054,0,0,0-.74121.96582l-.00879.999a7.72033,7.72033,0,0,0-1.13037.62988.13539.13539,0,0,1-.09863-.0166l-.86377-.48243a1.00107,1.00107,0,0,0-1.17676.14844,8.93,8.93,0,0,0-2.48242,4.16211,1.001,1.001,0,0,0,.47852,1.13086l.8999.50293q-.02929.31641-.0293.62793,0,.312.0293.62793l-.89941.50293a1.00045,1.00045,0,0,0-.47852,1.13086,8.927,8.927,0,0,0,2.47705,4.165,1.00172,1.00172,0,0,0,1.17725.14844l.86718-.48536a.12066.12066,0,0,1,.10059-.01562,12.644,12.644,0,0,0,1.13818.66406v.96777a1,1,0,0,0,.74121.96583,9.50046,9.50046,0,0,0,2.46.32812c.04052,0,.08154-.001.12255-.001a9.55434,9.55434,0,0,0,2.3462-.33105,1.00054,1.00054,0,0,0,.74121-.96582l.00879-.999a7.75026,7.75026,0,0,0,1.13085-.62988.12571.12571,0,0,1,.09815.0166l.86377.48243a.9979.9979,0,0,0,1.17676-.14844,8.93,8.93,0,0,0,2.48242-4.16211A1.001,1.001,0,0,0,44.48779,11.13086ZM41.51953,9.02051a4.96077,4.96077,0,0,1,0,1.959A1.00061,1.00061,0,0,0,42.01416,12.04l.77979.43555a6.93,6.93,0,0,1-1.18848,1.97265l-.1875-.10449a2.10438,2.10438,0,0,0-2.18945.07031,5.73191,5.73191,0,0,1-.83838.4668,2.03512,2.03512,0,0,0-1.18457,1.85742v.15918a7.11564,7.11564,0,0,1-1.1128.10156,6.73709,6.73709,0,0,1-1.29834-.09863v-.16211a2.03512,2.03512,0,0,0-1.18457-1.85742,5.69026,5.69026,0,0,1-.83593-.46582,2.11515,2.11515,0,0,0-2.19288-.07129l-.19043.10645a6.91029,6.91029,0,0,1-1.18457-1.97461l.77979-.43555a1.00061,1.00061,0,0,0,.49463-1.06055,4.96077,4.96077,0,0,1,0-1.959A1.00061,1.00061,0,0,0,29.98584,7.96l-.77979-.43555a6.93,6.93,0,0,1,1.18848-1.97265l.187.10449a2.10767,2.10767,0,0,0,2.18994-.07031,5.73191,5.73191,0,0,1,.83838-.4668,2.03512,2.03512,0,0,0,1.18457-1.85742V3.10254a7.11564,7.11564,0,0,1,1.1128-.10156,6.348,6.348,0,0,1,1.29834.09863v.16211a2.03512,2.03512,0,0,0,1.18457,1.85742,5.75092,5.75092,0,0,1,.83593.46484,2.10867,2.10867,0,0,0,2.19288.07227l.19043-.10645A6.9326,6.9326,0,0,1,42.794,7.52441L42.01416,7.96A1.00061,1.00061,0,0,0,41.51953,9.02051Z"/><path d="M36,6a4,4,0,1,0,4,4A4.00427,4.00427,0,0,0,36,6Zm0,6a2,2,0,1,1,2-2A2.00229,2.00229,0,0,1,36,12Z"/><path d="M51,29a.99974.99974,0,0,0-1,1V59a.99974.99974,0,0,0,1,1h8a.99974.99974,0,0,0,1-1V30a.99974.99974,0,0,0-1-1Zm7,29H52V31h6Z"/><path d="M38,37a.99974.99974,0,0,0-1,1V59a.99974.99974,0,0,0,1,1h8a.99974.99974,0,0,0,1-1V38a.99974.99974,0,0,0-1-1Zm7,21H39V39h6Z"/><path d="M25,42a.99974.99974,0,0,0-1,1V59a.99974.99974,0,0,0,1,1h8a.99974.99974,0,0,0,1-1V43a.99974.99974,0,0,0-1-1Zm7,16H26V44h6Z"/><rect x="1" y="61" width="62" height="2"/></svg>
