<svg width="48" height="48" viewBox="0 0 512 363" fill="none" xmlns="http://www.w3.org/2000/svg">
<path d="M0 277.24L3.28 262.07C19.4 203.56 82.76 172.06 139.71 194.99C142.97 196.3 153.77 202.89 155.99 202.32C208.14 148.41 298.06 146.81 351.81 199.22C384.46 177.31 426.01 175.31 460.41 194.67C489.39 210.98 509 242.3 511.06 275.7C511.61 284.59 512.15 304.18 510.77 312.41C509.03 322.77 497.75 330.12 487.59 330.13L394.23 330.09C396.29 347.61 385.32 361.39 367.77 362.99H143.24C128.98 362.07 116.73 350.7 116.77 336.09L19.58 335.97C9.36 334.61 3.65 328.32 0.01 319.13V277.25L0 277.24ZM242.33 177.81C196.71 181.82 154.48 215.66 139.71 258.77C131.48 282.79 132.71 308.83 132.65 333.58C132.65 337.54 135.1 343.73 138.98 345.29L367.82 346.09C375.56 346.05 377.83 339.2 378.28 332.62C378.92 323.31 378.63 309.19 378.28 299.63C375.64 225.3 317.44 171.19 242.3 177.81H242.33ZM394.23 313.14H491.54C492.81 313.14 493.91 310.02 494.08 308.7C496.19 293.01 494.43 265.1 488.52 250.33C468.97 201.43 406.88 182.11 363.3 211.92C387.11 240.04 396.57 276.61 394.22 313.14H394.23ZM116.77 319.12C114.04 281.76 121.74 246.41 143.71 215.97C96.85 186.49 30.35 214.42 18.62 268.42C16.4 278.63 15.52 304.36 16.92 314.68C17.1 316 18.2 319.12 19.46 319.12H116.77Z" fill="black"/>
<path d="M257.5 0C355.68 8.11 348.55 151.16 252.84 151.21C156.08 151.26 150.08 8.04 247.52 0H257.5ZM295.07 117.33C348.05 64.9 272.15 -17.14 214.56 30.41C150.96 82.92 237.17 174.63 295.07 117.33Z" fill="black"/>
<path d="M404 52.1502C477.29 44.8902 494.47 152.06 423.01 167.88C341.8 185.86 322.1 60.2602 404 52.1502ZM401.97 69.0702C387.1 71.0802 372.22 85.0502 368.57 99.5202C359.02 137.4 400.38 166.89 433.07 146.02C471.75 121.31 449.44 62.6402 401.97 69.0702Z" fill="black"/>
<path d="M95.61 56.1399C165.56 49.2599 186.1 150.81 118.53 170.79C35.5399 195.33 10.2799 64.5399 95.61 56.1399ZM93.58 73.0599C47.33 79.3599 47.34 150.02 93.58 156.31C159.72 165.32 159.64 64.0599 93.58 73.0599Z" fill="black"/>
</svg>
