<svg width="48" height="48" viewBox="0 0 479 347" fill="none" xmlns="http://www.w3.org/2000/svg">
<path d="M236.595 151.21C332.295 151.16 339.435 8.11 241.255 0H231.275C133.835 8.04 139.835 151.26 236.595 151.21Z" fill="black"/>
<path d="M406.765 167.88C478.235 152.06 461.055 44.8902 387.755 52.1502C305.855 60.2602 325.555 185.86 406.765 167.88Z" fill="black"/>
<path d="M102.285 170.79C169.855 150.81 149.305 49.2604 79.3651 56.1404C-5.96493 64.5404 19.2851 195.33 102.285 170.79Z" fill="black"/>
<path d="M472.285 250.33C452.735 201.43 390.634 182.11 347.064 211.92C370.864 240.03 380.324 276.61 377.984 313.14H475.295C476.555 313.14 477.664 310.02 477.834 308.7C479.954 293.02 478.185 265.1 472.285 250.33Z" fill="black"/>
<path d="M127.465 215.97C80.6049 186.49 14.0949 214.42 2.37492 268.42C0.154916 278.63 -0.725096 304.36 0.674904 314.69C0.844904 316 1.94488 319.12 3.21488 319.12H100.525C97.7949 281.77 105.505 246.42 127.465 215.97Z" fill="black"/>
<path d="M226.074 177.81C180.454 181.83 138.234 215.66 123.464 258.77C115.234 282.8 116.464 308.84 116.404 333.58C116.394 337.55 118.864 343.73 122.744 345.29L351.584 346.1C359.314 346.06 361.595 339.21 362.045 332.63C362.685 323.31 362.394 309.2 362.054 299.64C359.414 225.3 301.214 171.2 226.074 177.81Z" fill="black"/>
</svg>
