<svg id="Layer_1" height="48" viewBox="0 0 512 512" width="48" xmlns="http://www.w3.org/2000/svg" data-name="Layer 1"><path d="m55.559 303.864c-21.152 0-36.381 23.666-39.116 47.78-2.161 18.971 3.212 40.165 24.4 44.009v-35.4a9.351 9.351 0 0 1 18.7 0v35.626h84.018a59.376 59.376 0 0 1 -7.511-10.711c-7.719-14-10.762-32.321-8.571-51.583a114.626 114.626 0 0 1 4.758-22.025c-10.763 6.347-21.734 9.37-32.757 9.018-14.795.477-29.5-5.133-43.75-16.717zm356.966 16.717c-10.982.353-21.911-2.65-32.633-8.946a115.268 115.268 0 0 1 4.738 21.953c2.182 19.262-.86 37.588-8.571 51.583a59.837 59.837 0 0 1 -7.521 10.711h83.924v-35.625a9.351 9.351 0 0 1 18.7 0v35.4c21.183-3.843 26.555-25.038 24.394-44.009-2.733-24.1-17.961-47.78-39.116-47.78h-.177c-14.233 11.584-28.943 17.194-43.739 16.717zm-39.033-97.712a39.293 39.293 0 1 0 39.294-39.293 39.336 39.336 0 0 0 -39.294 39.293zm-170.6-53.255a53.495 53.495 0 1 0 53.5-53.5 53.551 53.551 0 0 0 -53.495 53.5zm-3.592 101.918c.417 0 .821.011 1.226.021 18.13 14.971 36.809 22.223 55.531 21.579 18.753.653 37.391-6.608 55.521-21.579 29.5-.946 50.741 31.293 54.47 64.144 2.992 26.346-4.852 55.9-35.748 60.185h-1.2v-48.757a9.352 9.352 0 0 0 -18.7 0v48.757h-108.682v-48.757a9.352 9.352 0 0 0 -18.7 0v48.757h-1.218c-30.9-4.281-38.744-33.838-35.752-60.185 3.68-32.394 24.384-64.165 53.245-64.165zm-138.858-48.663a39.293 39.293 0 1 0 39.294-39.293 39.335 39.335 0 0 0 -39.294 39.293z" fill-rule="evenodd"/></svg>