<svg width="292" height="209" viewBox="0 0 292 209" fill="none" xmlns="http://www.w3.org/2000/svg">
<g filter="url(#filter0_d_89_6421)">
<path d="M50 48.1445C50 40.3327 56.3327 34 64.1445 34H227.513C235.325 34 241.657 40.3327 241.657 48.1445V128.768C241.657 136.58 235.325 142.912 227.513 142.912H64.1445C56.3327 142.912 50 136.58 50 128.768V48.1445Z" fill="white"/>
</g>
<g clip-path="url(#clip0_89_6421)">
<path d="M64.8498 75.7224H64.1426V76.4297H69.8004V75.7224H69.0931V74.5152L67.4715 72.8935L69.0931 71.2719V70.0646H69.8004V69.3574H64.1426V70.0646H64.8498V71.2719L66.4715 72.8935L64.8498 74.5152V75.7224ZM65.557 70.9791V70.0646H68.3859V70.9791L66.9715 72.3935L65.557 70.9791ZM66.9715 73.3935L68.3859 74.808V75.7224H65.557V74.808L66.9715 73.3935Z" fill="#FFC145"/>
</g>
<path d="M76.7243 75.4083C76.3849 75.4083 76.0688 75.3511 75.776 75.2365C75.4874 75.1219 75.2371 74.9628 75.0249 74.7591C74.8127 74.5512 74.6472 74.3093 74.5284 74.0335C74.4096 73.7577 74.3502 73.4564 74.3502 73.1297C74.3502 72.8029 74.4096 72.5017 74.5284 72.2258C74.6472 71.95 74.8127 71.7103 75.0249 71.5066C75.2371 71.2987 75.4874 71.1374 75.776 71.0229C76.0645 70.9083 76.3806 70.851 76.7243 70.851C77.0638 70.851 77.3757 70.9083 77.66 71.0229C77.9485 71.1332 78.1989 71.2923 78.4111 71.5002C78.6275 71.7039 78.793 71.9437 78.9075 72.2195C79.0264 72.4953 79.0858 72.7987 79.0858 73.1297C79.0858 73.4606 79.0264 73.764 78.9075 74.0399C78.793 74.3157 78.6275 74.5576 78.4111 74.7655C78.1989 74.9692 77.9485 75.1283 77.66 75.2429C77.3757 75.3532 77.0638 75.4083 76.7243 75.4083ZM76.7243 74.8419C76.9705 74.8419 77.1975 74.7994 77.4054 74.7146C77.6176 74.6297 77.8 74.5109 77.9528 74.3581C78.1098 74.2011 78.2307 74.0186 78.3156 73.8107C78.4047 73.6028 78.4493 73.3758 78.4493 73.1297C78.4493 72.8836 78.4047 72.6565 78.3156 72.4486C78.2307 72.2407 78.1098 72.0603 77.9528 71.9076C77.8 71.7506 77.6176 71.6296 77.4054 71.5448C77.1975 71.4599 76.9705 71.4175 76.7243 71.4175C76.474 71.4175 76.2427 71.4599 76.0306 71.5448C75.8226 71.6296 75.6402 71.7506 75.4832 71.9076C75.3262 72.0603 75.2031 72.2407 75.114 72.4486C75.0291 72.6565 74.9867 72.8836 74.9867 73.1297C74.9867 73.3758 75.0291 73.6028 75.114 73.8107C75.2031 74.0186 75.3262 74.2011 75.4832 74.3581C75.6402 74.5109 75.8226 74.6297 76.0306 74.7146C76.2427 74.7994 76.474 74.8419 76.7243 74.8419ZM81.7708 71.9521C82.0466 71.9521 82.2885 72.0052 82.4964 72.1113C82.7086 72.2174 82.8741 72.3786 82.9929 72.595C83.1117 72.8114 83.1711 73.0851 83.1711 73.4161V75.3574H82.5601V73.4861C82.5601 73.1594 82.4794 72.9133 82.3182 72.7478C82.1612 72.5823 81.9384 72.4995 81.6499 72.4995C81.4335 72.4995 81.2446 72.542 81.0834 72.6268C80.9221 72.7117 80.797 72.8369 80.7078 73.0024C80.623 73.1679 80.5805 73.3737 80.5805 73.6198V75.3574H79.9695V71.984H80.5551V72.8942L80.4596 72.6523C80.5699 72.4316 80.7397 72.2598 80.9688 72.1367C81.198 72.0137 81.4653 71.9521 81.7708 71.9521ZM85.7949 73.8744V73.3461H87.5071V73.8744H85.7949ZM93.4416 70.9019H94.0781V75.3574H93.4416V70.9019ZM90.8829 75.3574H90.2464V70.9019H90.8829V75.3574ZM93.4989 73.3715H90.8192V72.8178H93.4989V73.3715ZM96.7675 75.3956C96.428 75.3956 96.1267 75.3214 95.8636 75.1728C95.6005 75.0243 95.3926 74.8206 95.2399 74.5618C95.0871 74.2987 95.0107 74.0017 95.0107 73.6707C95.0107 73.3355 95.0871 73.0384 95.2399 72.7796C95.3926 72.5207 95.6005 72.3192 95.8636 72.1749C96.1267 72.0264 96.428 71.9521 96.7675 71.9521C97.1027 71.9521 97.4018 72.0264 97.6649 72.1749C97.9323 72.3192 98.1402 72.5207 98.2887 72.7796C98.4415 73.0342 98.5178 73.3312 98.5178 73.6707C98.5178 74.0059 98.4415 74.303 98.2887 74.5618C98.1402 74.8206 97.9323 75.0243 97.6649 75.1728C97.4018 75.3214 97.1027 75.3956 96.7675 75.3956ZM96.7675 74.861C96.9839 74.861 97.1769 74.8122 97.3467 74.7146C97.5207 74.617 97.6564 74.4791 97.754 74.3008C97.8516 74.1184 97.9004 73.9083 97.9004 73.6707C97.9004 73.4288 97.8516 73.2209 97.754 73.0469C97.6564 72.8687 97.5207 72.7308 97.3467 72.6332C97.1769 72.5356 96.9839 72.4868 96.7675 72.4868C96.551 72.4868 96.358 72.5356 96.1882 72.6332C96.0185 72.7308 95.8827 72.8687 95.7809 73.0469C95.679 73.2209 95.6281 73.4288 95.6281 73.6707C95.6281 73.9083 95.679 74.1184 95.7809 74.3008C95.8827 74.4791 96.0185 74.617 96.1882 74.7146C96.358 74.8122 96.551 74.861 96.7675 74.861ZM99.3629 75.3574V70.6346H99.9739V75.3574H99.3629ZM102.535 75.3956C102.208 75.3956 101.915 75.3235 101.656 75.1792C101.402 75.0349 101.2 74.8334 101.052 74.5745C100.903 74.3157 100.829 74.0144 100.829 73.6707C100.829 73.327 100.903 73.0278 101.052 72.7732C101.2 72.5144 101.402 72.3128 101.656 72.1686C101.915 72.0243 102.208 71.9521 102.535 71.9521C102.819 71.9521 103.076 72.0158 103.305 72.1431C103.534 72.2704 103.716 72.4613 103.852 72.7159C103.992 72.9705 104.062 73.2888 104.062 73.6707C104.062 74.0526 103.994 74.3708 103.858 74.6254C103.727 74.88 103.547 75.0731 103.317 75.2047C103.088 75.332 102.827 75.3956 102.535 75.3956ZM102.585 74.861C102.798 74.861 102.989 74.8122 103.158 74.7146C103.332 74.617 103.468 74.4791 103.566 74.3008C103.668 74.1184 103.718 73.9083 103.718 73.6707C103.718 73.4288 103.668 73.2209 103.566 73.0469C103.468 72.8687 103.332 72.7308 103.158 72.6332C102.989 72.5356 102.798 72.4868 102.585 72.4868C102.369 72.4868 102.176 72.5356 102.006 72.6332C101.837 72.7308 101.701 72.8687 101.599 73.0469C101.497 73.2209 101.446 73.4288 101.446 73.6707C101.446 73.9083 101.497 74.1184 101.599 74.3008C101.701 74.4791 101.837 74.617 102.006 74.7146C102.176 74.8122 102.369 74.861 102.585 74.861ZM103.738 75.3574V74.4472L103.776 73.6643L103.712 72.8814V70.6346H104.323V75.3574H103.738Z" fill="#7A7A7A"/>
<circle cx="66.6167" cy="56.7688" r="11.6692" fill="white"/>
<g clip-path="url(#clip1_89_6421)">
<path d="M64.9585 48.9819H66.5861C67.2027 48.9819 67.7165 49.4223 67.8339 50.004H68.7624C68.6376 48.914 67.7091 48.0645 66.5861 48.0645H64.9585C63.8355 48.0645 62.907 48.914 62.7822 50.004H63.7107C63.8282 49.4205 64.342 48.9819 64.9585 48.9819Z" fill="#20639B"/>
<path d="M60.819 53.9181C62.1365 54.7695 63.8962 55.2393 65.7752 55.2393C67.6542 55.2393 69.4121 54.7695 70.7314 53.9181C71.9168 53.1529 72.6049 52.1639 72.6893 51.1161C72.3719 50.7179 71.8838 50.4629 71.3333 50.4629H68.779H67.8615H63.6889H62.7714H60.2171C59.6685 50.4629 59.1785 50.7179 58.8611 51.1161C58.9455 52.1639 59.6336 53.1511 60.819 53.9181Z" fill="#20639B"/>
<path d="M65.1445 56.4635C65.1445 56.7498 65.3776 56.9828 65.6638 56.9828H65.8785C66.1648 56.9828 66.3978 56.7498 66.3978 56.4635V56.0488H65.1445V56.4635Z" fill="#20639B"/>
<path d="M60.2156 59.3274H67.9132V58.1585C67.9132 58.0172 67.9701 57.8832 68.0711 57.7841L69.8271 56.0575C69.9262 55.9602 70.0583 55.907 70.1959 55.907H73.0621V52.4609C72.9851 52.6187 72.897 52.7747 72.7961 52.9289C72.4015 53.5326 71.8382 54.072 71.1263 54.5326C70.0198 55.2482 68.6344 55.7143 67.1334 55.8923V56.0464V56.4611C67.1334 57.1529 66.5719 57.7144 65.8801 57.7144H65.6654C64.9736 57.7144 64.4121 57.1529 64.4121 56.4611V56.0464V55.8923C62.9111 55.7161 61.5257 55.2482 60.4193 54.5326C59.7073 54.072 59.144 53.5326 58.7494 52.9289C58.6485 52.7747 58.5605 52.6187 58.4834 52.4609V57.5951C58.4834 58.5512 59.2596 59.3274 60.2156 59.3274Z" fill="#20639B"/>
<path d="M70.583 56.3262C70.3372 56.3262 70.0968 56.4271 69.9225 56.6014L68.6545 57.8786C68.4802 58.0547 68.3848 58.2859 68.3848 58.5336V59.3282V59.5576V59.7869V63.9834C68.3848 64.0275 68.3884 64.0715 68.3939 64.1137C68.4563 64.5651 68.8454 64.9138 69.3151 64.9138H74.5227C75.0347 64.9138 75.453 64.4973 75.453 63.9835V57.2547C75.453 56.8051 75.1337 56.4308 74.7099 56.3445C74.6493 56.3317 74.5869 56.3262 74.5245 56.3262H73.5171H73.2878H73.0584H70.583ZM73.5171 57.2437H74.5227C74.53 57.2437 74.5355 57.2492 74.5355 57.2565V63.9853C74.5355 63.9871 74.5355 63.9871 74.5355 63.989C74.5337 63.9945 74.53 63.9981 74.5245 63.9981C74.5245 63.9981 74.5245 63.9981 74.5227 63.9981H69.3151C69.3077 63.9981 69.3022 63.9926 69.3022 63.9853V59.7869V59.5575V59.3282V58.7226H69.9757C70.3959 58.7226 70.7372 58.3813 70.7372 57.9611V57.2437H73.0584H73.2878H73.5171Z" fill="#20639B"/>
<path d="M72.2424 59.332H70.2441C70.0753 59.332 69.9285 59.4238 69.8478 59.5596C69.8074 59.6274 69.7854 59.7045 69.7854 59.7889V59.7908C69.7854 60.044 69.9909 60.2495 70.2441 60.2495H73.5966C73.8498 60.2495 74.0553 60.044 74.0553 59.7908C74.0553 59.5375 73.8498 59.332 73.5966 59.332H72.6663H72.2424Z" fill="#20639B"/>
<path d="M73.5966 62.2188H70.2441C69.9909 62.2188 69.7854 62.4242 69.7854 62.6775C69.7854 62.9307 69.9909 63.1362 70.2441 63.1362H73.5966C73.8498 63.1362 74.0553 62.9307 74.0553 62.6775C74.0553 62.4242 73.8498 62.2188 73.5966 62.2188Z" fill="#20639B"/>
<path d="M73.5966 60.7773H70.2441C69.9909 60.7773 69.7854 60.9829 69.7854 61.2361C69.7854 61.4893 69.9909 61.6948 70.2441 61.6948H73.5966C73.8498 61.6948 74.0553 61.4893 74.0553 61.2361C74.0553 60.9829 73.8498 60.7773 73.5966 60.7773Z" fill="#20639B"/>
</g>
<path d="M84.7534 58.1174C84.7534 58.5418 84.7004 58.9237 84.5943 59.2631C84.4882 59.6026 84.3326 59.8908 84.1275 60.1277C83.926 60.3611 83.6731 60.5415 83.369 60.6688C83.0684 60.7925 82.7219 60.8544 82.3294 60.8544C81.9758 60.8544 81.6116 60.8049 81.2367 60.7059L81.3004 60.0376C81.3075 59.9739 81.3304 59.9226 81.3693 59.8837C81.4118 59.8413 81.4737 59.8201 81.555 59.8201C81.6151 59.8201 81.6964 59.836 81.799 59.8678C81.9051 59.8961 82.043 59.9103 82.2127 59.9103C82.439 59.9103 82.6388 59.8767 82.8121 59.8095C82.9889 59.7423 83.1374 59.638 83.2576 59.4965C83.3779 59.3515 83.468 59.1677 83.5281 58.9449C83.5918 58.7221 83.6236 58.4551 83.6236 58.144V53.1527H84.7534V58.1174ZM89.0368 58.3773C88.616 58.3915 88.2588 58.4251 87.9653 58.4781C87.6718 58.5276 87.4331 58.5948 87.2493 58.6797C87.0654 58.7646 86.9328 58.8653 86.8515 58.982C86.7701 59.0952 86.7295 59.2225 86.7295 59.3639C86.7295 59.4983 86.7507 59.615 86.7931 59.714C86.8391 59.8095 86.8992 59.889 86.9735 59.9527C87.0512 60.0128 87.1414 60.057 87.244 60.0853C87.3465 60.1136 87.4579 60.1277 87.5781 60.1277C87.7373 60.1277 87.8822 60.1118 88.0131 60.08C88.1474 60.0482 88.273 60.004 88.3897 59.9474C88.5064 59.8873 88.6177 59.8148 88.7238 59.7299C88.8299 59.645 88.9342 59.5478 89.0368 59.4382V58.3773ZM86.0028 56.1337C86.3034 55.8473 86.6287 55.6333 86.9788 55.4919C87.3324 55.3504 87.7196 55.2797 88.1404 55.2797C88.448 55.2797 88.7203 55.331 88.9572 55.4335C89.1941 55.5325 89.3939 55.6722 89.5566 55.8526C89.7192 56.0329 89.8412 56.2486 89.9226 56.4997C90.0074 56.7507 90.0499 57.0283 90.0499 57.3324V60.7695H89.5884C89.4859 60.7695 89.4081 60.7536 89.355 60.7218C89.302 60.6864 89.2596 60.6228 89.2277 60.5308L89.1163 60.0588C88.9784 60.1861 88.8423 60.2992 88.7079 60.3982C88.5735 60.4937 88.4321 60.5768 88.2836 60.6475C88.1386 60.7147 87.983 60.766 87.8168 60.8014C87.6506 60.8367 87.4667 60.8544 87.2652 60.8544C87.053 60.8544 86.8532 60.8261 86.6658 60.7695C86.4819 60.7094 86.321 60.6192 86.1831 60.499C86.0452 60.3788 85.9356 60.2285 85.8543 60.0482C85.7765 59.8678 85.7376 59.6574 85.7376 59.417C85.7376 59.2048 85.7942 59.0015 85.9073 58.807C86.024 58.609 86.2114 58.4322 86.4696 58.2766C86.7312 58.121 87.0707 57.9937 87.488 57.8947C87.9088 57.7957 88.425 57.7391 89.0368 57.7249V57.3324C89.0368 56.9258 88.9501 56.6217 88.7769 56.4201C88.6036 56.2186 88.349 56.1178 88.0131 56.1178C87.7868 56.1178 87.5958 56.1461 87.4402 56.2026C87.2882 56.2592 87.1556 56.3229 87.0424 56.3936C86.9328 56.4608 86.8355 56.5227 86.7507 56.5792C86.6693 56.6358 86.5845 56.6641 86.4961 56.6641C86.4254 56.6641 86.3635 56.6447 86.3104 56.6058C86.2609 56.5669 86.2203 56.5209 86.1884 56.4678L86.0028 56.1337ZM95.9988 55.3805L93.8135 60.7695H92.88L90.6947 55.3805H91.5486C91.63 55.3805 91.6972 55.3999 91.7502 55.4388C91.8032 55.4777 91.8386 55.5272 91.8563 55.5874L93.1452 58.8972C93.1912 59.0351 93.2301 59.173 93.2619 59.3109C93.2972 59.4453 93.3291 59.5796 93.3574 59.714C93.3856 59.5796 93.4175 59.4453 93.4528 59.3109C93.4882 59.1765 93.5306 59.0386 93.5801 58.8972L94.885 55.5874C94.9062 55.5272 94.9433 55.4777 94.9963 55.4388C95.0494 55.3999 95.113 55.3805 95.1873 55.3805H95.9988ZM99.5933 58.3773C99.1725 58.3915 98.8154 58.4251 98.5219 58.4781C98.2284 58.5276 97.9897 58.5948 97.8058 58.6797C97.6219 58.7646 97.4893 58.8653 97.408 58.982C97.3267 59.0952 97.286 59.2225 97.286 59.3639C97.286 59.4983 97.3072 59.615 97.3497 59.714C97.3956 59.8095 97.4557 59.889 97.53 59.9527C97.6078 60.0128 97.698 60.057 97.8005 60.0853C97.9031 60.1136 98.0144 60.1277 98.1347 60.1277C98.2938 60.1277 98.4388 60.1118 98.5696 60.08C98.704 60.0482 98.8295 60.004 98.9462 59.9474C99.0629 59.8873 99.1743 59.8148 99.2804 59.7299C99.3865 59.645 99.4908 59.5478 99.5933 59.4382V58.3773ZM96.5593 56.1337C96.8599 55.8473 97.1852 55.6333 97.5353 55.4919C97.8889 55.3504 98.2761 55.2797 98.6969 55.2797C99.0046 55.2797 99.2768 55.331 99.5138 55.4335C99.7507 55.5325 99.9505 55.6722 100.113 55.8526C100.276 56.0329 100.398 56.2486 100.479 56.4997C100.564 56.7507 100.606 57.0283 100.606 57.3324V60.7695H100.145C100.042 60.7695 99.9646 60.7536 99.9116 60.7218C99.8585 60.6864 99.8161 60.6228 99.7843 60.5308L99.6729 60.0588C99.535 60.1861 99.3988 60.2992 99.2645 60.3982C99.1301 60.4937 98.9886 60.5768 98.8401 60.6475C98.6952 60.7147 98.5396 60.766 98.3734 60.8014C98.2072 60.8367 98.0233 60.8544 97.8217 60.8544C97.6096 60.8544 97.4098 60.8261 97.2224 60.7695C97.0385 60.7094 96.8776 60.6192 96.7397 60.499C96.6018 60.3788 96.4922 60.2285 96.4108 60.0482C96.333 59.8678 96.2941 59.6574 96.2941 59.417C96.2941 59.2048 96.3507 59.0015 96.4639 58.807C96.5806 58.609 96.768 58.4322 97.0261 58.2766C97.2878 58.121 97.6272 57.9937 98.0445 57.8947C98.4653 57.7957 98.9816 57.7391 99.5933 57.7249V57.3324C99.5933 56.9258 99.5067 56.6217 99.3334 56.4201C99.1601 56.2186 98.9055 56.1178 98.5696 56.1178C98.3433 56.1178 98.1524 56.1461 97.9968 56.2026C97.8447 56.2592 97.7121 56.3229 97.599 56.3936C97.4893 56.4608 97.3921 56.5227 97.3072 56.5792C97.2259 56.6358 97.141 56.6641 97.0526 56.6641C96.9819 56.6641 96.92 56.6447 96.867 56.6058C96.8175 56.5669 96.7768 56.5209 96.745 56.4678L96.5593 56.1337ZM111.533 56.9611C111.533 57.5304 111.441 58.0485 111.257 58.5153C111.076 58.982 110.82 59.3834 110.488 59.7193C110.155 60.0517 109.757 60.3098 109.294 60.4937C108.831 60.6776 108.316 60.7695 107.751 60.7695H104.886V53.1527H107.751C108.316 53.1527 108.831 53.2447 109.294 53.4286C109.757 53.6124 110.155 53.8723 110.488 54.2083C110.82 54.5407 111.076 54.942 111.257 55.4123C111.441 55.8791 111.533 56.3954 111.533 56.9611ZM110.376 56.9611C110.376 56.5085 110.314 56.1036 110.191 55.7465C110.067 55.3858 109.89 55.0817 109.66 54.8342C109.434 54.5831 109.158 54.3921 108.833 54.2613C108.511 54.1305 108.15 54.0651 107.751 54.0651H106.021V59.8572H107.751C108.15 59.8572 108.511 59.7918 108.833 59.661C109.158 59.5301 109.434 59.3409 109.66 59.0934C109.89 58.8423 110.067 58.5382 110.191 58.1811C110.314 57.8239 110.376 57.4173 110.376 56.9611ZM116.242 57.4756C116.242 57.2705 116.212 57.0814 116.151 56.9081C116.095 56.7348 116.01 56.5845 115.897 56.4572C115.784 56.3299 115.646 56.2309 115.483 56.1602C115.32 56.0895 115.133 56.0541 114.921 56.0541C114.486 56.0541 114.143 56.1797 113.892 56.4307C113.644 56.6818 113.487 57.0301 113.42 57.4756H116.242ZM117.096 60.0004C116.968 60.1489 116.822 60.278 116.655 60.3876C116.489 60.4937 116.312 60.5803 116.125 60.6475C115.938 60.7147 115.743 60.7642 115.541 60.7961C115.343 60.8279 115.147 60.8438 114.953 60.8438C114.581 60.8438 114.237 60.7819 113.918 60.6581C113.604 60.5308 113.33 60.347 113.096 60.1065C112.866 59.8625 112.686 59.5619 112.555 59.2048C112.428 58.8441 112.364 58.4304 112.364 57.9636C112.364 57.5888 112.423 57.2405 112.539 56.9187C112.656 56.5934 112.822 56.3105 113.038 56.07C113.257 55.8296 113.524 55.6404 113.839 55.5025C114.154 55.3646 114.507 55.2956 114.9 55.2956C115.229 55.2956 115.531 55.3504 115.807 55.4601C116.086 55.5661 116.326 55.7217 116.528 55.9268C116.73 56.1319 116.887 56.3847 117 56.6853C117.117 56.9859 117.175 57.3289 117.175 57.7143C117.175 57.8735 117.157 57.9813 117.122 58.0379C117.087 58.0909 117.021 58.1174 116.926 58.1174H113.393C113.404 58.4392 113.45 58.7204 113.531 58.9608C113.613 59.1977 113.724 59.3958 113.865 59.5549C114.01 59.714 114.182 59.8325 114.38 59.9103C114.578 59.988 114.799 60.0269 115.043 60.0269C115.273 60.0269 115.471 60.0004 115.637 59.9474C115.807 59.8943 115.952 59.8378 116.072 59.7777C116.196 59.714 116.298 59.6557 116.38 59.6026C116.464 59.5496 116.539 59.5231 116.602 59.5231C116.687 59.5231 116.753 59.5549 116.799 59.6185L117.096 60.0004ZM122.841 55.3805L120.656 60.7695H119.722L117.537 55.3805H118.391C118.472 55.3805 118.539 55.3999 118.592 55.4388C118.645 55.4777 118.681 55.5272 118.698 55.5874L119.987 58.8972C120.033 59.0351 120.072 59.173 120.104 59.3109C120.139 59.4453 120.171 59.5796 120.199 59.714C120.228 59.5796 120.259 59.4453 120.295 59.3109C120.33 59.1765 120.373 59.0386 120.422 58.8972L121.727 55.5874C121.748 55.5272 121.785 55.4777 121.838 55.4388C121.891 55.3999 121.955 55.3805 122.029 55.3805H122.841ZM127.078 57.4756C127.078 57.2705 127.048 57.0814 126.988 56.9081C126.931 56.7348 126.846 56.5845 126.733 56.4572C126.62 56.3299 126.482 56.2309 126.319 56.1602C126.157 56.0895 125.969 56.0541 125.757 56.0541C125.322 56.0541 124.979 56.1797 124.728 56.4307C124.481 56.6818 124.323 57.0301 124.256 57.4756H127.078ZM127.932 60.0004C127.805 60.1489 127.658 60.278 127.492 60.3876C127.325 60.4937 127.149 60.5803 126.961 60.6475C126.774 60.7147 126.579 60.7642 126.378 60.7961C126.18 60.8279 125.983 60.8438 125.789 60.8438C125.418 60.8438 125.073 60.7819 124.755 60.6581C124.44 60.5308 124.166 60.347 123.933 60.1065C123.703 59.8625 123.522 59.5619 123.391 59.2048C123.264 58.8441 123.201 58.4304 123.201 57.9636C123.201 57.5888 123.259 57.2405 123.376 56.9187C123.492 56.5934 123.658 56.3105 123.874 56.07C124.093 55.8296 124.36 55.6404 124.675 55.5025C124.99 55.3646 125.343 55.2956 125.736 55.2956C126.065 55.2956 126.367 55.3504 126.643 55.4601C126.922 55.5661 127.163 55.7217 127.364 55.9268C127.566 56.1319 127.723 56.3847 127.836 56.6853C127.953 56.9859 128.011 57.3289 128.011 57.7143C128.011 57.8735 127.994 57.9813 127.958 58.0379C127.923 58.0909 127.858 58.1174 127.762 58.1174H124.23C124.24 58.4392 124.286 58.7204 124.367 58.9608C124.449 59.1977 124.56 59.3958 124.702 59.5549C124.847 59.714 125.018 59.8325 125.216 59.9103C125.414 59.988 125.635 60.0269 125.879 60.0269C126.109 60.0269 126.307 60.0004 126.473 59.9474C126.643 59.8943 126.788 59.8378 126.908 59.7777C127.032 59.714 127.134 59.6557 127.216 59.6026C127.301 59.5496 127.375 59.5231 127.439 59.5231C127.523 59.5231 127.589 59.5549 127.635 59.6185L127.932 60.0004ZM130.184 52.9406V60.7695H129.144V52.9406H130.184ZM133.958 55.2956C134.354 55.2956 134.711 55.361 135.029 55.4919C135.351 55.6192 135.623 55.8048 135.846 56.0488C136.073 56.2893 136.246 56.581 136.366 56.924C136.486 57.2635 136.546 57.6454 136.546 58.0697C136.546 58.494 136.486 58.8777 136.366 59.2207C136.246 59.5637 136.073 59.8554 135.846 60.0959C135.623 60.3364 135.351 60.522 135.029 60.6528C134.711 60.7801 134.354 60.8438 133.958 60.8438C133.558 60.8438 133.198 60.7801 132.876 60.6528C132.558 60.522 132.285 60.3364 132.059 60.0959C131.833 59.8554 131.658 59.5637 131.534 59.2207C131.414 58.8777 131.354 58.494 131.354 58.0697C131.354 57.6454 131.414 57.2635 131.534 56.924C131.658 56.581 131.833 56.2893 132.059 56.0488C132.285 55.8048 132.558 55.6192 132.876 55.4919C133.198 55.361 133.558 55.2956 133.958 55.2956ZM133.958 60.0376C134.467 60.0376 134.847 59.8661 135.098 59.5231C135.349 59.18 135.475 58.6974 135.475 58.075C135.475 57.4527 135.349 56.97 135.098 56.627C134.847 56.2804 134.467 56.1072 133.958 56.1072C133.442 56.1072 133.056 56.2804 132.802 56.627C132.551 56.97 132.425 57.4527 132.425 58.075C132.425 58.6974 132.551 59.18 132.802 59.5231C133.056 59.8661 133.442 60.0376 133.958 60.0376ZM138.735 59.4435C138.905 59.6663 139.087 59.8219 139.282 59.9103C139.48 59.9987 139.701 60.0429 139.945 60.0429C140.418 60.0429 140.784 59.8731 141.043 59.5337C141.304 59.1907 141.435 58.6921 141.435 58.0379C141.435 57.6949 141.405 57.4031 141.345 57.1627C141.288 56.9187 141.204 56.7207 141.09 56.5686C140.981 56.413 140.845 56.2999 140.682 56.2292C140.519 56.1549 140.335 56.1178 140.13 56.1178C139.83 56.1178 139.568 56.185 139.345 56.3193C139.126 56.4537 138.923 56.6447 138.735 56.8922V59.4435ZM138.682 56.1867C138.795 56.0524 138.916 55.9304 139.043 55.8207C139.174 55.7076 139.313 55.6121 139.462 55.5343C139.61 55.453 139.768 55.3911 139.934 55.3487C140.104 55.3027 140.284 55.2797 140.475 55.2797C140.783 55.2797 141.06 55.3398 141.308 55.4601C141.559 55.5803 141.773 55.7571 141.95 55.9905C142.126 56.2239 142.263 56.512 142.358 56.8551C142.457 57.1981 142.507 57.5923 142.507 58.0379C142.507 58.4375 142.452 58.8088 142.342 59.1518C142.236 59.4912 142.082 59.7865 141.881 60.0376C141.683 60.2886 141.439 60.4866 141.149 60.6316C140.862 60.7731 140.539 60.8438 140.178 60.8438C139.856 60.8438 139.58 60.7907 139.351 60.6847C139.121 60.5786 138.916 60.4301 138.735 60.2391V62.5783H137.701V55.3805H138.322C138.467 55.3805 138.557 55.4494 138.592 55.5874L138.682 56.1867ZM147.238 57.4756C147.238 57.2705 147.208 57.0814 147.148 56.9081C147.091 56.7348 147.006 56.5845 146.893 56.4572C146.78 56.3299 146.642 56.2309 146.479 56.1602C146.317 56.0895 146.129 56.0541 145.917 56.0541C145.482 56.0541 145.139 56.1797 144.888 56.4307C144.641 56.6818 144.483 57.0301 144.416 57.4756H147.238ZM148.092 60.0004C147.965 60.1489 147.818 60.278 147.652 60.3876C147.485 60.4937 147.309 60.5803 147.121 60.6475C146.934 60.7147 146.739 60.7642 146.538 60.7961C146.34 60.8279 146.143 60.8438 145.949 60.8438C145.578 60.8438 145.233 60.7819 144.915 60.6581C144.6 60.5308 144.326 60.347 144.093 60.1065C143.863 59.8625 143.682 59.5619 143.551 59.2048C143.424 58.8441 143.361 58.4304 143.361 57.9636C143.361 57.5888 143.419 57.2405 143.536 56.9187C143.652 56.5934 143.818 56.3105 144.034 56.07C144.253 55.8296 144.52 55.6404 144.835 55.5025C145.15 55.3646 145.503 55.2956 145.896 55.2956C146.225 55.2956 146.527 55.3504 146.803 55.4601C147.082 55.5661 147.323 55.7217 147.524 55.9268C147.726 56.1319 147.883 56.3847 147.996 56.6853C148.113 56.9859 148.171 57.3289 148.171 57.7143C148.171 57.8735 148.154 57.9813 148.118 58.0379C148.083 58.0909 148.018 58.1174 147.922 58.1174H144.39C144.4 58.4392 144.446 58.7204 144.527 58.9608C144.609 59.1977 144.72 59.3958 144.862 59.5549C145.007 59.714 145.178 59.8325 145.376 59.9103C145.574 59.988 145.795 60.0269 146.039 60.0269C146.269 60.0269 146.467 60.0004 146.633 59.9474C146.803 59.8943 146.948 59.8378 147.068 59.7777C147.192 59.714 147.294 59.6557 147.376 59.6026C147.461 59.5496 147.535 59.5231 147.599 59.5231C147.683 59.5231 147.749 59.5549 147.795 59.6185L148.092 60.0004ZM150.259 56.4148C150.432 56.0612 150.641 55.7836 150.885 55.582C151.129 55.3805 151.422 55.2797 151.765 55.2797C151.882 55.2797 151.992 55.2939 152.094 55.3221C152.2 55.3469 152.292 55.3858 152.37 55.4388L152.301 56.2186C152.276 56.314 152.218 56.3618 152.126 56.3618C152.077 56.3618 152.002 56.3529 151.903 56.3352C151.804 56.314 151.698 56.3034 151.585 56.3034C151.419 56.3034 151.272 56.3282 151.145 56.3777C151.018 56.4236 150.903 56.4944 150.8 56.5898C150.701 56.6818 150.613 56.7967 150.535 56.9346C150.457 57.069 150.385 57.2228 150.317 57.3961V60.7695H149.283V55.3805H149.877C149.99 55.3805 150.066 55.4017 150.105 55.4441C150.148 55.483 150.178 55.5538 150.195 55.6563L150.259 56.4148ZM152.77 60.1489C152.77 60.0535 152.788 59.9633 152.823 59.8784C152.859 59.7936 152.907 59.7193 152.967 59.6557C153.03 59.592 153.105 59.5425 153.189 59.5071C153.274 59.4682 153.366 59.4488 153.465 59.4488C153.561 59.4488 153.651 59.4682 153.736 59.5071C153.821 59.5425 153.895 59.592 153.959 59.6557C154.022 59.7193 154.072 59.7936 154.107 59.8784C154.146 59.9633 154.165 60.0535 154.165 60.1489C154.165 60.248 154.146 60.3399 154.107 60.4248C154.072 60.5096 154.022 60.5839 153.959 60.6475C153.895 60.7112 153.821 60.7607 153.736 60.7961C153.651 60.8314 153.561 60.8491 153.465 60.8491C153.366 60.8491 153.274 60.8314 153.189 60.7961C153.105 60.7607 153.03 60.7112 152.967 60.6475C152.907 60.5839 152.859 60.5096 152.823 60.4248C152.788 60.3399 152.77 60.248 152.77 60.1489ZM158.276 60.1489C158.276 60.0535 158.294 59.9633 158.329 59.8784C158.365 59.7936 158.412 59.7193 158.472 59.6557C158.536 59.592 158.61 59.5425 158.695 59.5071C158.78 59.4682 158.872 59.4488 158.971 59.4488C159.066 59.4488 159.157 59.4682 159.241 59.5071C159.326 59.5425 159.401 59.592 159.464 59.6557C159.528 59.7193 159.577 59.7936 159.613 59.8784C159.652 59.9633 159.671 60.0535 159.671 60.1489C159.671 60.248 159.652 60.3399 159.613 60.4248C159.577 60.5096 159.528 60.5839 159.464 60.6475C159.401 60.7112 159.326 60.7607 159.241 60.7961C159.157 60.8314 159.066 60.8491 158.971 60.8491C158.872 60.8491 158.78 60.8314 158.695 60.7961C158.61 60.7607 158.536 60.7112 158.472 60.6475C158.412 60.5839 158.365 60.5096 158.329 60.4248C158.294 60.3399 158.276 60.248 158.276 60.1489ZM155.523 60.1489C155.523 60.0535 155.541 59.9633 155.576 59.8784C155.612 59.7936 155.659 59.7193 155.72 59.6557C155.783 59.592 155.857 59.5425 155.942 59.5071C156.027 59.4682 156.119 59.4488 156.218 59.4488C156.314 59.4488 156.404 59.4682 156.489 59.5071C156.573 59.5425 156.648 59.592 156.711 59.6557C156.775 59.7193 156.825 59.7936 156.86 59.8784C156.899 59.9633 156.918 60.0535 156.918 60.1489C156.918 60.248 156.899 60.3399 156.86 60.4248C156.825 60.5096 156.775 60.5839 156.711 60.6475C156.648 60.7112 156.573 60.7607 156.489 60.7961C156.404 60.8314 156.314 60.8491 156.218 60.8491C156.119 60.8491 156.027 60.8314 155.942 60.7961C155.857 60.7607 155.783 60.7112 155.72 60.6475C155.659 60.5839 155.612 60.5096 155.576 60.4248C155.541 60.3399 155.523 60.248 155.523 60.1489Z" fill="black"/>
<rect x="171.631" y="48.2812" width="16.9761" height="16.9761" rx="8.48806" fill="#20639B"/>
<path fill-rule="evenodd" clip-rule="evenodd" d="M176.237 60.313C176.237 60.5088 176.396 60.6673 176.592 60.6666L183.664 60.6433C183.859 60.6427 184.016 60.4845 184.016 60.2897V59.8158C184.016 59.6205 184.175 59.4622 184.37 59.4622C184.565 59.4622 184.723 59.6205 184.723 59.8158V60.2897C184.723 60.8742 184.251 61.3486 183.666 61.3505L176.594 61.3738C176.007 61.3758 175.53 60.9002 175.53 60.313V54.8653C175.53 54.2794 176.004 53.8045 176.59 53.8045H178.33L179.876 52.2579C180.015 52.1198 180.238 52.1198 180.377 52.2579L181.923 53.8045H183.663C184.248 53.8045 184.723 54.2794 184.723 54.8653V57.9299C184.723 58.1251 184.565 58.2835 184.37 58.2835C184.175 58.2835 184.016 58.1251 184.016 57.9299V54.8653C184.016 54.67 183.858 54.5117 183.663 54.5117H181.777C181.683 54.5117 181.593 54.4744 181.527 54.4081L180.126 53.008L178.726 54.4081C178.66 54.4744 178.57 54.5117 178.476 54.5117H176.59C176.395 54.5117 176.237 54.67 176.237 54.8653V60.313Z" fill="white"/>
<path d="M175.881 54.5083L178.357 54.1547L180.125 52.7402L181.893 54.1547L184.368 54.5083L184.722 57.6908V59.8125L184.368 60.8733H175.881V54.5083Z" fill="white"/>
<path fill-rule="evenodd" clip-rule="evenodd" d="M180.125 55.4533C179.8 55.4533 179.536 55.7172 179.536 56.0427C179.536 56.3682 179.8 56.632 180.125 56.632C180.451 56.632 180.714 56.3682 180.714 56.0427C180.714 55.7172 180.451 55.4533 180.125 55.4533ZM178.828 56.0427C178.828 55.3266 179.409 54.7461 180.125 54.7461C180.841 54.7461 181.422 55.3266 181.422 56.0427C181.422 56.7588 180.841 57.3392 180.125 57.3392C179.409 57.3392 178.828 56.7588 178.828 56.0427ZM178.634 59.4609H181.616C181.457 58.7851 180.85 58.2822 180.125 58.2822C179.4 58.2822 178.793 58.7851 178.634 59.4609ZM177.885 59.8145C177.885 58.5776 178.888 57.575 180.125 57.575C181.362 57.575 182.365 58.5776 182.365 59.8145C182.365 60.0098 182.206 60.1681 182.011 60.1681H178.239C178.044 60.1681 177.885 60.0098 177.885 59.8145Z" fill="#20639B"/>
<rect x="192.851" y="48.2812" width="16.9761" height="16.9761" rx="8.48806" fill="#20639B"/>
<g clip-path="url(#clip2_89_6421)">
<path fill-rule="evenodd" clip-rule="evenodd" d="M196.142 56.7691C196.142 56.7691 198.031 52.9961 201.337 52.9961C204.643 52.9961 206.532 56.7691 206.532 56.7691C206.532 56.7691 204.643 60.5422 201.337 60.5422C198.031 60.5422 196.142 56.7691 196.142 56.7691Z" stroke="white" stroke-width="0.707223" stroke-linecap="round" stroke-linejoin="round"/>
<path d="M201.335 59.2435C202.702 59.2435 203.81 58.1353 203.81 56.7682C203.81 55.4012 202.702 54.293 201.335 54.293C199.968 54.293 198.86 55.4012 198.86 56.7682C198.86 58.1353 199.968 59.2435 201.335 59.2435Z" stroke="white" stroke-width="0.707223" stroke-linecap="round" stroke-linejoin="round"/>
<path d="M196.272 52.4004C196.342 52.3313 196.453 52.3313 196.522 52.4004L205.009 60.8867C205.078 60.9558 205.078 61.0677 205.009 61.1367C204.94 61.2058 204.828 61.2058 204.759 61.1367L196.272 52.6504C196.203 52.5813 196.203 52.4694 196.272 52.4004Z" stroke="#20639B" stroke-width="0.353612" stroke-linecap="round" stroke-linejoin="round"/>
<path d="M196.989 51.5547C197.058 51.4856 197.17 51.4856 197.239 51.5547L205.725 60.041C205.794 60.1101 205.794 60.222 205.725 60.291C205.656 60.3601 205.544 60.3601 205.475 60.291L196.989 51.8047C196.92 51.7356 196.92 51.6237 196.989 51.5547Z" stroke="#20639B" stroke-width="0.353612" stroke-linecap="round" stroke-linejoin="round"/>
<path d="M196.989 52.2617C197.058 52.1927 197.17 52.1927 197.239 52.2617L205.725 60.748C205.794 60.8171 205.794 60.929 205.725 60.998C205.656 61.0671 205.544 61.0671 205.475 60.998L196.989 52.5117C196.92 52.4427 196.92 52.3308 196.989 52.2617Z" stroke="white" stroke-width="0.353612" stroke-linecap="round" stroke-linejoin="round"/>
</g>
<rect x="214.07" y="48.2812" width="16.9761" height="16.9761" rx="8.48806" fill="#20639B"/>
<g clip-path="url(#clip3_89_6421)">
<path d="M222.951 53.6745C223.195 53.6745 223.435 53.6019 223.638 53.4659C223.842 53.3299 224 53.1366 224.094 52.9105C224.188 52.6843 224.212 52.4355 224.164 52.1954C224.117 51.9553 223.999 51.7348 223.826 51.5617C223.653 51.3886 223.432 51.2708 223.192 51.223C222.952 51.1752 222.703 51.1998 222.477 51.2934C222.251 51.3871 222.057 51.5457 221.921 51.7493C221.785 51.9528 221.713 52.1921 221.713 52.4369C221.713 52.7651 221.843 53.0799 222.075 53.312C222.307 53.5441 222.622 53.6745 222.951 53.6745ZM222.951 59.8627C222.706 59.8627 222.466 59.9353 222.263 60.0713C222.059 60.2073 221.901 60.4006 221.807 60.6267C221.713 60.8529 221.689 61.1017 221.737 61.3418C221.784 61.5819 221.902 61.8024 222.075 61.9755C222.248 62.1486 222.469 62.2664 222.709 62.3142C222.949 62.362 223.198 62.3374 223.424 62.2438C223.65 62.1501 223.844 61.9915 223.98 61.7879C224.116 61.5844 224.188 61.3451 224.188 61.1003C224.188 60.7721 224.058 60.4573 223.826 60.2252C223.594 59.9931 223.279 59.8627 222.951 59.8627ZM222.951 55.531C222.706 55.531 222.466 55.6035 222.263 55.7395C222.059 55.8755 221.901 56.0688 221.807 56.295C221.713 56.5211 221.689 56.77 221.737 57.0101C221.784 57.2501 221.902 57.4707 222.075 57.6437C222.248 57.8168 222.469 57.9347 222.709 57.9825C222.949 58.0302 223.198 58.0057 223.424 57.912C223.65 57.8184 223.844 57.6597 223.98 57.4562C224.116 57.2527 224.188 57.0134 224.188 56.7686C224.188 56.4404 224.058 56.1256 223.826 55.8935C223.594 55.6614 223.279 55.531 222.951 55.531Z" fill="white"/>
</g>
<path d="M60.6052 87.2594C60.6052 84.1346 63.1383 81.6016 66.263 81.6016H225.388C228.513 81.6016 231.046 84.1346 231.046 87.2593V124.742C231.046 127.867 228.513 130.4 225.388 130.4H66.263C63.1383 130.4 60.6052 127.867 60.6052 124.742V87.2594Z" fill="#20639B" fill-opacity="0.1"/>
<path d="M83.2426 97.8985C83.8763 97.3705 84.3813 96.9315 84.7575 96.5817C85.1338 96.2252 85.4473 95.8556 85.6981 95.4727C85.9489 95.0899 86.0744 94.7137 86.0744 94.344C86.0744 94.0074 85.9951 93.7433 85.8367 93.5519C85.6783 93.3605 85.4341 93.2648 85.104 93.2648C84.774 93.2648 84.5199 93.377 84.3417 93.6014C84.1634 93.8193 84.071 94.1196 84.0644 94.5024H82.7179C82.7443 93.7103 82.9786 93.1097 83.4209 92.7004C83.8697 92.2912 84.4374 92.0866 85.1238 92.0866C85.8763 92.0866 86.4539 92.2879 86.8565 92.6905C87.2592 93.0866 87.4605 93.6113 87.4605 94.2648C87.4605 94.7797 87.3219 95.2714 87.0447 95.7401C86.7674 96.2087 86.4506 96.618 86.0942 96.9678C85.7377 97.311 85.2724 97.7269 84.6981 98.2153H87.6189V99.3639H82.7278V98.3342L83.2426 97.8985ZM88.5122 94.146C88.5452 93.4859 88.7762 92.9777 89.2053 92.6212C89.6409 92.2582 90.2119 92.0767 90.9182 92.0767C91.4 92.0767 91.8126 92.1625 92.1558 92.3341C92.4991 92.4991 92.7565 92.7268 92.9281 93.0173C93.1063 93.3011 93.1954 93.6245 93.1954 93.9876C93.1954 94.4034 93.0865 94.7566 92.8687 95.047C92.6575 95.3308 92.4033 95.5222 92.1063 95.6213V95.6609C92.4892 95.7797 92.7862 95.9909 92.9974 96.2945C93.2152 96.5982 93.3241 96.9876 93.3241 97.4629C93.3241 97.8589 93.2317 98.212 93.0469 98.5223C92.8687 98.8325 92.6014 99.0767 92.2449 99.255C91.8951 99.4266 91.4726 99.5124 90.9776 99.5124C90.2317 99.5124 89.6244 99.3243 89.1558 98.948C88.6871 98.5718 88.4396 98.0173 88.4132 97.2846H89.7597C89.7729 97.6081 89.8819 97.8688 90.0865 98.0668C90.2977 98.2583 90.5848 98.354 90.9479 98.354C91.2845 98.354 91.5419 98.2616 91.7202 98.0767C91.905 97.8853 91.9974 97.6411 91.9974 97.3441C91.9974 96.948 91.872 96.6642 91.6212 96.4926C91.3703 96.3209 90.9809 96.2351 90.4528 96.2351H90.1657V95.0965H90.4528C91.3901 95.0965 91.8588 94.783 91.8588 94.1559C91.8588 93.8721 91.773 93.6509 91.6013 93.4925C91.4363 93.3341 91.1954 93.2549 90.8786 93.2549C90.5683 93.2549 90.3274 93.3407 90.1558 93.5123C89.9908 93.6773 89.8951 93.8886 89.8687 94.146H88.5122Z" fill="#038E00"/>
<path d="M71.538 115.705C71.812 115.705 72.0529 115.669 72.2608 115.596C72.472 115.524 72.6486 115.423 72.7905 115.294C72.9357 115.162 73.0447 115.006 73.1173 114.824C73.1899 114.642 73.2262 114.443 73.2262 114.225C73.2262 113.773 73.0859 113.42 72.8054 113.166C72.5281 112.911 72.1057 112.784 71.538 112.784H70.3994V115.705H71.538ZM71.538 112.027C71.9869 112.027 72.3763 112.08 72.7064 112.185C73.0397 112.288 73.3153 112.435 73.5331 112.626C73.7509 112.817 73.9127 113.048 74.0183 113.319C74.1272 113.59 74.1816 113.892 74.1816 114.225C74.1816 114.555 74.1239 114.857 74.0084 115.131C73.8929 115.405 73.7229 115.641 73.4985 115.839C73.2773 116.037 73.0018 116.192 72.6717 116.304C72.345 116.413 71.9671 116.468 71.538 116.468H70.3994V119.121H69.4439V112.027H71.538ZM77.0353 114.027C77.4017 114.027 77.7317 114.088 78.0254 114.21C78.3192 114.332 78.57 114.506 78.7779 114.73C78.9858 114.954 79.1443 115.227 79.2532 115.547C79.3654 115.864 79.4215 116.218 79.4215 116.611C79.4215 117.007 79.3654 117.364 79.2532 117.68C79.1443 117.997 78.9858 118.268 78.7779 118.492C78.57 118.717 78.3192 118.89 78.0254 119.012C77.7317 119.131 77.4017 119.19 77.0353 119.19C76.6657 119.19 76.3323 119.131 76.0353 119.012C75.7416 118.89 75.4907 118.717 75.2828 118.492C75.0749 118.268 74.9148 117.997 74.8026 117.68C74.6937 117.364 74.6393 117.007 74.6393 116.611C74.6393 116.218 74.6937 115.864 74.8026 115.547C74.9148 115.227 75.0749 114.954 75.2828 114.73C75.4907 114.506 75.7416 114.332 76.0353 114.21C76.3323 114.088 76.6657 114.027 77.0353 114.027ZM77.0353 118.502C77.5304 118.502 77.9 118.337 78.1442 118.007C78.3885 117.674 78.5106 117.21 78.5106 116.616C78.5106 116.019 78.3885 115.553 78.1442 115.22C77.9 114.887 77.5304 114.72 77.0353 114.72C76.7845 114.72 76.565 114.763 76.3769 114.849C76.1921 114.935 76.037 115.058 75.9115 115.22C75.7894 115.382 75.697 115.581 75.6343 115.819C75.5749 116.053 75.5452 116.319 75.5452 116.616C75.5452 117.21 75.6673 117.674 75.9115 118.007C76.1591 118.337 76.5337 118.502 77.0353 118.502ZM83.46 114.933C83.4204 115.006 83.3593 115.042 83.2768 115.042C83.2273 115.042 83.1712 115.024 83.1085 114.987C83.0458 114.951 82.9682 114.911 82.8758 114.869C82.7867 114.822 82.6795 114.781 82.554 114.745C82.4286 114.705 82.2801 114.685 82.1085 114.685C81.96 114.685 81.8263 114.705 81.7075 114.745C81.5887 114.781 81.4864 114.832 81.4006 114.898C81.318 114.964 81.2537 115.042 81.2075 115.131C81.1646 115.217 81.1431 115.311 81.1431 115.413C81.1431 115.542 81.1794 115.649 81.252 115.735C81.328 115.821 81.427 115.895 81.5491 115.958C81.6712 116.02 81.8098 116.076 81.9649 116.126C82.12 116.172 82.2785 116.223 82.4402 116.279C82.6052 116.332 82.7653 116.392 82.9204 116.458C83.0755 116.524 83.2141 116.606 83.3362 116.705C83.4583 116.804 83.5557 116.926 83.6283 117.072C83.7042 117.213 83.7422 117.385 83.7422 117.586C83.7422 117.817 83.7009 118.032 83.6184 118.23C83.5359 118.425 83.4138 118.595 83.2521 118.74C83.0904 118.882 82.8923 118.994 82.658 119.077C82.4237 119.159 82.153 119.2 81.8461 119.2C81.4963 119.2 81.1794 119.144 80.8956 119.032C80.6118 118.916 80.3708 118.77 80.1728 118.591L80.3807 118.255C80.4071 118.212 80.4385 118.179 80.4748 118.156C80.5111 118.133 80.5573 118.121 80.6134 118.121C80.6728 118.121 80.7355 118.144 80.8015 118.19C80.8675 118.237 80.9468 118.288 81.0392 118.344C81.1349 118.4 81.2504 118.451 81.3857 118.497C81.521 118.544 81.6893 118.567 81.8907 118.567C82.0623 118.567 82.2125 118.545 82.3412 118.502C82.4699 118.456 82.5771 118.395 82.663 118.319C82.7488 118.243 82.8115 118.156 82.8511 118.057C82.894 117.958 82.9154 117.852 82.9154 117.74C82.9154 117.601 82.8775 117.487 82.8016 117.398C82.729 117.306 82.6316 117.228 82.5095 117.166C82.3874 117.1 82.2471 117.044 82.0887 116.997C81.9336 116.948 81.7735 116.897 81.6085 116.844C81.4468 116.791 81.2867 116.732 81.1283 116.666C80.9732 116.596 80.8345 116.51 80.7124 116.408C80.5903 116.306 80.4913 116.18 80.4154 116.032C80.3428 115.88 80.3065 115.697 80.3065 115.482C80.3065 115.291 80.3461 115.108 80.4253 114.933C80.5045 114.755 80.62 114.6 80.7718 114.468C80.9237 114.332 81.1101 114.225 81.3313 114.146C81.5524 114.067 81.8049 114.027 82.0887 114.027C82.4187 114.027 82.7141 114.08 82.9748 114.185C83.2389 114.288 83.4666 114.43 83.658 114.611L83.46 114.933ZM85.7533 114.106V119.121H84.8721V114.106H85.7533ZM85.9414 112.532C85.9414 112.618 85.9232 112.699 85.8869 112.774C85.8539 112.847 85.8077 112.913 85.7483 112.972C85.6922 113.029 85.6245 113.073 85.5453 113.106C85.4694 113.139 85.3886 113.156 85.3028 113.156C85.217 113.156 85.1361 113.139 85.0602 113.106C84.9876 113.073 84.9232 113.029 84.8671 112.972C84.811 112.913 84.7665 112.847 84.7334 112.774C84.7004 112.699 84.6839 112.618 84.6839 112.532C84.6839 112.446 84.7004 112.365 84.7334 112.289C84.7665 112.21 84.811 112.142 84.8671 112.086C84.9232 112.027 84.9876 111.981 85.0602 111.948C85.1361 111.915 85.217 111.898 85.3028 111.898C85.3886 111.898 85.4694 111.915 85.5453 111.948C85.6245 111.981 85.6922 112.027 85.7483 112.086C85.8077 112.142 85.8539 112.21 85.8869 112.289C85.9232 112.365 85.9414 112.446 85.9414 112.532ZM91.8547 119.121H90.9735V114.844H88.3893V117.854C88.3893 118.065 88.4404 118.222 88.5428 118.324C88.6451 118.426 88.7771 118.478 88.9388 118.478C89.0312 118.478 89.1104 118.466 89.1764 118.443C89.2457 118.416 89.3051 118.388 89.3546 118.359C89.4041 118.329 89.4454 118.303 89.4784 118.279C89.5147 118.253 89.5461 118.24 89.5725 118.24C89.6187 118.24 89.6599 118.268 89.6962 118.324L89.9537 118.745C89.8018 118.887 89.6187 118.999 89.4041 119.081C89.1896 119.161 88.9685 119.2 88.7408 119.2C88.3447 119.2 88.0394 119.09 87.8249 118.869C87.6137 118.647 87.5081 118.329 87.5081 117.913V114.844H86.9041C86.8513 114.844 86.8068 114.829 86.7704 114.799C86.7341 114.766 86.716 114.717 86.716 114.651V114.299L87.5378 114.19L87.7408 112.646C87.7507 112.596 87.7721 112.557 87.8051 112.527C87.8414 112.494 87.8876 112.477 87.9437 112.477H88.3893V114.205H91.8547V119.121ZM92.0725 112.497C92.0725 112.583 92.0543 112.664 92.018 112.74C91.985 112.812 91.9388 112.877 91.8794 112.933C91.8233 112.989 91.7573 113.034 91.6814 113.067C91.6055 113.1 91.5246 113.116 91.4388 113.116C91.353 113.116 91.2722 113.1 91.1963 113.067C91.1236 113.034 91.0593 112.989 91.0032 112.933C90.9471 112.877 90.9025 112.812 90.8695 112.74C90.8365 112.664 90.82 112.583 90.82 112.497C90.82 112.411 90.8365 112.331 90.8695 112.255C90.9025 112.175 90.9471 112.108 91.0032 112.052C91.0593 111.992 91.1236 111.946 91.1963 111.913C91.2722 111.88 91.353 111.864 91.4388 111.864C91.5246 111.864 91.6055 111.88 91.6814 111.913C91.7573 111.946 91.8233 111.992 91.8794 112.052C91.9388 112.108 91.985 112.175 92.018 112.255C92.0543 112.331 92.0725 112.411 92.0725 112.497ZM95.4162 114.027C95.7826 114.027 96.1126 114.088 96.4063 114.21C96.7001 114.332 96.9509 114.506 97.1588 114.73C97.3667 114.954 97.5252 115.227 97.6341 115.547C97.7463 115.864 97.8024 116.218 97.8024 116.611C97.8024 117.007 97.7463 117.364 97.6341 117.68C97.5252 117.997 97.3667 118.268 97.1588 118.492C96.9509 118.717 96.7001 118.89 96.4063 119.012C96.1126 119.131 95.7826 119.19 95.4162 119.19C95.0466 119.19 94.7132 119.131 94.4162 119.012C94.1225 118.89 93.8716 118.717 93.6637 118.492C93.4558 118.268 93.2957 117.997 93.1835 117.68C93.0746 117.364 93.0201 117.007 93.0201 116.611C93.0201 116.218 93.0746 115.864 93.1835 115.547C93.2957 115.227 93.4558 114.954 93.6637 114.73C93.8716 114.506 94.1225 114.332 94.4162 114.21C94.7132 114.088 95.0466 114.027 95.4162 114.027ZM95.4162 118.502C95.9113 118.502 96.2809 118.337 96.5251 118.007C96.7694 117.674 96.8915 117.21 96.8915 116.616C96.8915 116.019 96.7694 115.553 96.5251 115.22C96.2809 114.887 95.9113 114.72 95.4162 114.72C95.1654 114.72 94.9459 114.763 94.7578 114.849C94.573 114.935 94.4179 115.058 94.2924 115.22C94.1703 115.382 94.0779 115.581 94.0152 115.819C93.9558 116.053 93.9261 116.319 93.9261 116.616C93.9261 117.21 94.0482 117.674 94.2924 118.007C94.54 118.337 94.9146 118.502 95.4162 118.502ZM99.7517 114.834C99.8607 114.712 99.9762 114.601 100.098 114.502C100.22 114.403 100.349 114.319 100.484 114.25C100.623 114.177 100.768 114.123 100.92 114.086C101.075 114.047 101.242 114.027 101.42 114.027C101.694 114.027 101.935 114.073 102.143 114.166C102.354 114.255 102.529 114.383 102.668 114.552C102.81 114.717 102.917 114.916 102.989 115.151C103.062 115.385 103.098 115.644 103.098 115.928V119.121H102.212V115.928C102.212 115.548 102.125 115.255 101.95 115.047C101.778 114.836 101.516 114.73 101.163 114.73C100.902 114.73 100.658 114.793 100.43 114.918C100.206 115.043 99.9976 115.213 99.8062 115.428V119.121H98.9201V114.106H99.4498C99.5752 114.106 99.6527 114.167 99.6824 114.289L99.7517 114.834ZM107.362 114.933C107.322 115.006 107.261 115.042 107.179 115.042C107.129 115.042 107.073 115.024 107.01 114.987C106.948 114.951 106.87 114.911 106.778 114.869C106.689 114.822 106.581 114.781 106.456 114.745C106.331 114.705 106.182 114.685 106.01 114.685C105.862 114.685 105.728 114.705 105.609 114.745C105.491 114.781 105.388 114.832 105.302 114.898C105.22 114.964 105.156 115.042 105.109 115.131C105.067 115.217 105.045 115.311 105.045 115.413C105.045 115.542 105.081 115.649 105.154 115.735C105.23 115.821 105.329 115.895 105.451 115.958C105.573 116.02 105.712 116.076 105.867 116.126C106.022 116.172 106.18 116.223 106.342 116.279C106.507 116.332 106.667 116.392 106.822 116.458C106.977 116.524 107.116 116.606 107.238 116.705C107.36 116.804 107.458 116.926 107.53 117.072C107.606 117.213 107.644 117.385 107.644 117.586C107.644 117.817 107.603 118.032 107.52 118.23C107.438 118.425 107.316 118.595 107.154 118.74C106.992 118.882 106.794 118.994 106.56 119.077C106.326 119.159 106.055 119.2 105.748 119.2C105.398 119.2 105.081 119.144 104.798 119.032C104.514 118.916 104.273 118.77 104.075 118.591L104.283 118.255C104.309 118.212 104.34 118.179 104.377 118.156C104.413 118.133 104.459 118.121 104.515 118.121C104.575 118.121 104.637 118.144 104.703 118.19C104.769 118.237 104.849 118.288 104.941 118.344C105.037 118.4 105.152 118.451 105.288 118.497C105.423 118.544 105.591 118.567 105.793 118.567C105.964 118.567 106.114 118.545 106.243 118.502C106.372 118.456 106.479 118.395 106.565 118.319C106.651 118.243 106.713 118.156 106.753 118.057C106.796 117.958 106.817 117.852 106.817 117.74C106.817 117.601 106.779 117.487 106.703 117.398C106.631 117.306 106.534 117.228 106.411 117.166C106.289 117.1 106.149 117.044 105.991 116.997C105.835 116.948 105.675 116.897 105.51 116.844C105.349 116.791 105.189 116.732 105.03 116.666C104.875 116.596 104.736 116.51 104.614 116.408C104.492 116.306 104.393 116.18 104.317 116.032C104.245 115.88 104.208 115.697 104.208 115.482C104.208 115.291 104.248 115.108 104.327 114.933C104.406 114.755 104.522 114.6 104.674 114.468C104.826 114.332 105.012 114.225 105.233 114.146C105.454 114.067 105.707 114.027 105.991 114.027C106.321 114.027 106.616 114.08 106.877 114.185C107.141 114.288 107.369 114.43 107.56 114.611L107.362 114.933Z" fill="#7A7A7A"/>
<path d="M139.509 93.5222V92.245H141.895V99.4629H140.47V93.5222H139.509ZM147.007 94.047C146.941 93.7697 146.826 93.5618 146.661 93.4232C146.502 93.2846 146.271 93.2153 145.968 93.2153C145.512 93.2153 145.176 93.4001 144.958 93.7697C144.747 94.1328 144.638 94.7269 144.631 95.5519C144.79 95.2879 145.021 95.0833 145.324 94.9381C145.628 94.7863 145.958 94.7104 146.314 94.7104C146.743 94.7104 147.123 94.8028 147.453 94.9876C147.783 95.1724 148.04 95.443 148.225 95.7995C148.41 96.1493 148.503 96.5718 148.503 97.0668C148.503 97.5355 148.407 97.9546 148.215 98.3243C148.031 98.6873 147.757 98.9711 147.394 99.1758C147.031 99.3804 146.598 99.4827 146.097 99.4827C145.41 99.4827 144.869 99.3309 144.473 99.0272C144.083 98.7236 143.809 98.3012 143.651 97.7599C143.499 97.212 143.423 96.5388 143.423 95.7401C143.423 94.5321 143.631 93.6212 144.047 93.0074C144.463 92.3869 145.12 92.0767 146.017 92.0767C146.71 92.0767 147.248 92.2648 147.631 92.641C148.014 93.0173 148.235 93.4859 148.295 94.047H147.007ZM145.998 95.849C145.648 95.849 145.354 95.9513 145.116 96.1559C144.879 96.3605 144.76 96.6576 144.76 97.047C144.76 97.4365 144.869 97.7434 145.087 97.9678C145.311 98.1922 145.625 98.3045 146.027 98.3045C146.384 98.3045 146.664 98.1955 146.869 97.9777C147.08 97.7599 147.186 97.4662 147.186 97.0965C147.186 96.7137 147.083 96.41 146.879 96.1856C146.681 95.9612 146.387 95.849 145.998 95.849Z" fill="#5782FF"/>
<path d="M125.837 117.656C125.89 117.656 125.936 117.677 125.976 117.72L126.357 118.131C126.067 118.468 125.714 118.73 125.298 118.918C124.885 119.106 124.385 119.2 123.798 119.2C123.289 119.2 122.827 119.113 122.412 118.938C121.996 118.76 121.641 118.512 121.347 118.195C121.053 117.875 120.826 117.492 120.664 117.047C120.502 116.601 120.421 116.111 120.421 115.576C120.421 115.042 120.506 114.552 120.674 114.106C120.842 113.661 121.078 113.278 121.382 112.958C121.689 112.638 122.055 112.39 122.481 112.215C122.907 112.037 123.377 111.948 123.892 111.948C124.397 111.948 124.842 112.029 125.228 112.19C125.615 112.352 125.955 112.572 126.248 112.849L125.931 113.289C125.912 113.322 125.885 113.35 125.852 113.373C125.823 113.393 125.781 113.403 125.728 113.403C125.669 113.403 125.596 113.372 125.511 113.309C125.425 113.243 125.313 113.171 125.174 113.091C125.035 113.012 124.862 112.941 124.654 112.878C124.446 112.812 124.19 112.779 123.887 112.779C123.521 112.779 123.186 112.844 122.882 112.972C122.578 113.098 122.316 113.281 122.095 113.522C121.877 113.763 121.707 114.057 121.585 114.403C121.463 114.75 121.402 115.141 121.402 115.576C121.402 116.019 121.464 116.413 121.59 116.76C121.719 117.106 121.892 117.4 122.11 117.641C122.331 117.879 122.59 118.06 122.887 118.185C123.187 118.311 123.511 118.374 123.857 118.374C124.068 118.374 124.258 118.362 124.426 118.339C124.598 118.313 124.755 118.273 124.897 118.22C125.042 118.167 125.176 118.101 125.298 118.022C125.423 117.94 125.547 117.842 125.669 117.73C125.725 117.68 125.781 117.656 125.837 117.656ZM129.981 116.864C129.575 116.877 129.228 116.91 128.941 116.963C128.657 117.012 128.425 117.078 128.243 117.161C128.065 117.243 127.934 117.341 127.852 117.453C127.773 117.565 127.733 117.69 127.733 117.829C127.733 117.961 127.755 118.075 127.797 118.171C127.84 118.266 127.898 118.346 127.971 118.408C128.047 118.468 128.134 118.512 128.233 118.542C128.335 118.568 128.444 118.581 128.56 118.581C128.715 118.581 128.857 118.567 128.986 118.537C129.114 118.504 129.235 118.458 129.347 118.398C129.463 118.339 129.571 118.268 129.674 118.185C129.779 118.103 129.882 118.009 129.981 117.903V116.864ZM127.134 114.814C127.411 114.547 127.71 114.347 128.03 114.215C128.35 114.083 128.705 114.017 129.095 114.017C129.375 114.017 129.624 114.063 129.842 114.156C130.06 114.248 130.243 114.377 130.392 114.542C130.54 114.707 130.652 114.907 130.728 115.141C130.804 115.375 130.842 115.633 130.842 115.913V119.121H130.451C130.365 119.121 130.299 119.108 130.253 119.081C130.207 119.052 130.17 118.996 130.144 118.913L130.045 118.438C129.913 118.56 129.784 118.669 129.659 118.765C129.533 118.857 129.401 118.936 129.263 119.002C129.124 119.065 128.976 119.113 128.817 119.146C128.662 119.182 128.489 119.2 128.297 119.2C128.103 119.2 127.92 119.174 127.748 119.121C127.576 119.065 127.426 118.982 127.297 118.874C127.172 118.765 127.071 118.628 126.996 118.463C126.923 118.294 126.887 118.096 126.887 117.869C126.887 117.671 126.941 117.481 127.05 117.299C127.159 117.114 127.335 116.951 127.58 116.809C127.824 116.667 128.142 116.552 128.535 116.463C128.928 116.37 129.41 116.317 129.981 116.304V115.913C129.981 115.524 129.897 115.23 129.728 115.032C129.56 114.831 129.314 114.73 128.991 114.73C128.773 114.73 128.59 114.758 128.441 114.814C128.296 114.867 128.169 114.928 128.06 114.997C127.954 115.063 127.862 115.124 127.783 115.18C127.707 115.233 127.631 115.26 127.555 115.26C127.496 115.26 127.444 115.245 127.401 115.215C127.359 115.182 127.322 115.142 127.293 115.096L127.134 114.814ZM133.016 114.834C133.125 114.712 133.241 114.601 133.363 114.502C133.485 114.403 133.613 114.319 133.749 114.25C133.887 114.177 134.033 114.123 134.184 114.086C134.34 114.047 134.506 114.027 134.684 114.027C134.958 114.027 135.199 114.073 135.407 114.166C135.618 114.255 135.793 114.383 135.932 114.552C136.074 114.717 136.181 114.916 136.254 115.151C136.326 115.385 136.363 115.644 136.363 115.928V119.121H135.477V115.928C135.477 115.548 135.389 115.255 135.214 115.047C135.043 114.836 134.78 114.73 134.427 114.73C134.166 114.73 133.922 114.793 133.694 114.918C133.47 115.043 133.262 115.213 133.071 115.428V119.121H132.184V114.106H132.714C132.84 114.106 132.917 114.167 132.947 114.289L133.016 114.834ZM140.973 115.299C140.808 115.078 140.63 114.925 140.438 114.839C140.247 114.75 140.032 114.705 139.795 114.705C139.329 114.705 138.971 114.872 138.72 115.205C138.469 115.539 138.344 116.014 138.344 116.631C138.344 116.958 138.372 117.238 138.428 117.473C138.484 117.704 138.567 117.895 138.676 118.047C138.785 118.195 138.918 118.304 139.077 118.374C139.235 118.443 139.415 118.478 139.616 118.478C139.907 118.478 140.159 118.412 140.374 118.279C140.592 118.147 140.791 117.961 140.973 117.72V115.299ZM141.854 111.829V119.121H141.329C141.204 119.121 141.125 119.06 141.092 118.938L141.012 118.329C140.798 118.586 140.554 118.794 140.28 118.953C140.006 119.111 139.689 119.19 139.329 119.19C139.042 119.19 138.781 119.136 138.547 119.027C138.313 118.915 138.113 118.751 137.948 118.537C137.783 118.322 137.656 118.055 137.567 117.735C137.478 117.415 137.433 117.047 137.433 116.631C137.433 116.261 137.483 115.918 137.582 115.601C137.681 115.281 137.823 115.004 138.007 114.77C138.192 114.535 138.418 114.352 138.686 114.22C138.956 114.085 139.26 114.017 139.597 114.017C139.903 114.017 140.166 114.07 140.384 114.175C140.605 114.278 140.801 114.421 140.973 114.606V111.829H141.854ZM144.177 114.106V119.121H143.295V114.106H144.177ZM144.365 112.532C144.365 112.618 144.346 112.699 144.31 112.774C144.277 112.847 144.231 112.913 144.172 112.972C144.115 113.029 144.048 113.073 143.969 113.106C143.893 113.139 143.812 113.156 143.726 113.156C143.64 113.156 143.559 113.139 143.483 113.106C143.411 113.073 143.346 113.029 143.29 112.972C143.234 112.913 143.19 112.847 143.157 112.774C143.124 112.699 143.107 112.618 143.107 112.532C143.107 112.446 143.124 112.365 143.157 112.289C143.19 112.21 143.234 112.142 143.29 112.086C143.346 112.027 143.411 111.981 143.483 111.948C143.559 111.915 143.64 111.898 143.726 111.898C143.812 111.898 143.893 111.915 143.969 111.948C144.048 111.981 144.115 112.027 144.172 112.086C144.231 112.142 144.277 112.21 144.31 112.289C144.346 112.365 144.365 112.446 144.365 112.532ZM148.892 115.299C148.727 115.078 148.549 114.925 148.357 114.839C148.166 114.75 147.951 114.705 147.714 114.705C147.248 114.705 146.89 114.872 146.639 115.205C146.388 115.539 146.263 116.014 146.263 116.631C146.263 116.958 146.291 117.238 146.347 117.473C146.403 117.704 146.486 117.895 146.595 118.047C146.704 118.195 146.837 118.304 146.996 118.374C147.154 118.443 147.334 118.478 147.535 118.478C147.826 118.478 148.078 118.412 148.293 118.279C148.511 118.147 148.71 117.961 148.892 117.72V115.299ZM149.773 111.829V119.121H149.248C149.123 119.121 149.044 119.06 149.011 118.938L148.931 118.329C148.717 118.586 148.473 118.794 148.199 118.953C147.925 119.111 147.608 119.19 147.248 119.19C146.961 119.19 146.7 119.136 146.466 119.027C146.232 118.915 146.032 118.751 145.867 118.537C145.702 118.322 145.575 118.055 145.486 117.735C145.397 117.415 145.352 117.047 145.352 116.631C145.352 116.261 145.402 115.918 145.501 115.601C145.6 115.281 145.742 115.004 145.926 114.77C146.111 114.535 146.337 114.352 146.605 114.22C146.875 114.085 147.179 114.017 147.516 114.017C147.822 114.017 148.085 114.07 148.303 114.175C148.524 114.278 148.72 114.421 148.892 114.606V111.829H149.773ZM153.883 116.864C153.477 116.877 153.13 116.91 152.843 116.963C152.559 117.012 152.326 117.078 152.145 117.161C151.967 117.243 151.836 117.341 151.754 117.453C151.675 117.565 151.635 117.69 151.635 117.829C151.635 117.961 151.657 118.075 151.699 118.171C151.742 118.266 151.8 118.346 151.873 118.408C151.949 118.468 152.036 118.512 152.135 118.542C152.237 118.568 152.346 118.581 152.462 118.581C152.617 118.581 152.759 118.567 152.888 118.537C153.016 118.504 153.137 118.458 153.249 118.398C153.364 118.339 153.473 118.268 153.576 118.185C153.681 118.103 153.784 118.009 153.883 117.903V116.864ZM151.036 114.814C151.313 114.547 151.612 114.347 151.932 114.215C152.252 114.083 152.607 114.017 152.996 114.017C153.277 114.017 153.526 114.063 153.744 114.156C153.962 114.248 154.145 114.377 154.294 114.542C154.442 114.707 154.554 114.907 154.63 115.141C154.706 115.375 154.744 115.633 154.744 115.913V119.121H154.353C154.267 119.121 154.201 119.108 154.155 119.081C154.109 119.052 154.072 118.996 154.046 118.913L153.947 118.438C153.815 118.56 153.686 118.669 153.561 118.765C153.435 118.857 153.303 118.936 153.165 119.002C153.026 119.065 152.878 119.113 152.719 119.146C152.564 119.182 152.391 119.2 152.199 119.2C152.005 119.2 151.822 119.174 151.65 119.121C151.478 119.065 151.328 118.982 151.199 118.874C151.074 118.765 150.973 118.628 150.897 118.463C150.825 118.294 150.789 118.096 150.789 117.869C150.789 117.671 150.843 117.481 150.952 117.299C151.061 117.114 151.237 116.951 151.482 116.809C151.726 116.667 152.044 116.552 152.437 116.463C152.83 116.37 153.312 116.317 153.883 116.304V115.913C153.883 115.524 153.798 115.23 153.63 115.032C153.462 114.831 153.216 114.73 152.893 114.73C152.675 114.73 152.492 114.758 152.343 114.814C152.198 114.867 152.071 114.928 151.962 114.997C151.856 115.063 151.764 115.124 151.685 115.18C151.609 115.233 151.533 115.26 151.457 115.26C151.397 115.26 151.346 115.245 151.303 115.215C151.26 115.182 151.224 115.142 151.194 115.096L151.036 114.814ZM157.558 119.2C157.162 119.2 156.857 119.09 156.642 118.869C156.431 118.647 156.326 118.329 156.326 117.913V114.844H155.722C155.669 114.844 155.624 114.829 155.588 114.799C155.552 114.766 155.533 114.717 155.533 114.651V114.299L156.355 114.195L156.558 112.646C156.568 112.596 156.59 112.557 156.623 112.527C156.659 112.494 156.705 112.477 156.761 112.477H157.207V114.205H158.657V114.844H157.207V117.854C157.207 118.065 157.258 118.222 157.36 118.324C157.463 118.426 157.595 118.478 157.756 118.478C157.849 118.478 157.928 118.466 157.994 118.443C158.063 118.416 158.123 118.388 158.172 118.359C158.222 118.329 158.263 118.303 158.296 118.279C158.332 118.253 158.364 118.24 158.39 118.24C158.436 118.24 158.477 118.268 158.514 118.324L158.771 118.745C158.619 118.887 158.436 118.999 158.222 119.081C158.007 119.161 157.786 119.2 157.558 119.2ZM162.895 116.067C162.895 115.862 162.865 115.676 162.806 115.507C162.749 115.336 162.665 115.189 162.553 115.067C162.444 114.941 162.31 114.845 162.152 114.779C161.994 114.71 161.814 114.675 161.612 114.675C161.19 114.675 160.855 114.799 160.607 115.047C160.363 115.291 160.211 115.631 160.152 116.067H162.895ZM163.608 118.418C163.499 118.55 163.368 118.666 163.216 118.765C163.065 118.86 162.901 118.94 162.726 119.002C162.555 119.065 162.376 119.111 162.192 119.141C162.007 119.174 161.824 119.19 161.642 119.19C161.296 119.19 160.975 119.133 160.682 119.017C160.391 118.898 160.139 118.727 159.924 118.502C159.713 118.275 159.548 117.994 159.429 117.661C159.31 117.327 159.251 116.944 159.251 116.512C159.251 116.162 159.304 115.836 159.409 115.532C159.518 115.228 159.673 114.966 159.875 114.745C160.076 114.52 160.322 114.345 160.612 114.22C160.903 114.091 161.23 114.027 161.593 114.027C161.893 114.027 162.17 114.078 162.424 114.18C162.682 114.279 162.903 114.425 163.088 114.616C163.276 114.804 163.423 115.039 163.528 115.319C163.634 115.596 163.687 115.913 163.687 116.27C163.687 116.408 163.672 116.501 163.642 116.547C163.612 116.593 163.556 116.616 163.474 116.616H160.122C160.132 116.933 160.175 117.209 160.251 117.443C160.33 117.677 160.439 117.874 160.578 118.032C160.716 118.187 160.881 118.304 161.073 118.383C161.264 118.459 161.479 118.497 161.716 118.497C161.938 118.497 162.127 118.473 162.286 118.423C162.447 118.37 162.586 118.314 162.702 118.255C162.817 118.195 162.913 118.141 162.989 118.091C163.068 118.039 163.136 118.012 163.192 118.012C163.264 118.012 163.32 118.04 163.36 118.096L163.608 118.418ZM167.69 114.933C167.65 115.006 167.589 115.042 167.507 115.042C167.457 115.042 167.401 115.024 167.338 114.987C167.276 114.951 167.198 114.911 167.106 114.869C167.017 114.822 166.909 114.781 166.784 114.745C166.659 114.705 166.51 114.685 166.338 114.685C166.19 114.685 166.056 114.705 165.937 114.745C165.819 114.781 165.716 114.832 165.631 114.898C165.548 114.964 165.484 115.042 165.437 115.131C165.395 115.217 165.373 115.311 165.373 115.413C165.373 115.542 165.409 115.649 165.482 115.735C165.558 115.821 165.657 115.895 165.779 115.958C165.901 116.02 166.04 116.076 166.195 116.126C166.35 116.172 166.508 116.223 166.67 116.279C166.835 116.332 166.995 116.392 167.15 116.458C167.305 116.524 167.444 116.606 167.566 116.705C167.688 116.804 167.786 116.926 167.858 117.072C167.934 117.213 167.972 117.385 167.972 117.586C167.972 117.817 167.931 118.032 167.848 118.23C167.766 118.425 167.644 118.595 167.482 118.74C167.32 118.882 167.122 118.994 166.888 119.077C166.654 119.159 166.383 119.2 166.076 119.2C165.726 119.2 165.409 119.144 165.126 119.032C164.842 118.916 164.601 118.77 164.403 118.591L164.611 118.255C164.637 118.212 164.668 118.179 164.705 118.156C164.741 118.133 164.787 118.121 164.843 118.121C164.903 118.121 164.966 118.144 165.032 118.19C165.098 118.237 165.177 118.288 165.269 118.344C165.365 118.4 165.48 118.451 165.616 118.497C165.751 118.544 165.919 118.567 166.121 118.567C166.292 118.567 166.442 118.545 166.571 118.502C166.7 118.456 166.807 118.395 166.893 118.319C166.979 118.243 167.041 118.156 167.081 118.057C167.124 117.958 167.145 117.852 167.145 117.74C167.145 117.601 167.107 117.487 167.032 117.398C166.959 117.306 166.862 117.228 166.739 117.166C166.617 117.1 166.477 117.044 166.319 116.997C166.164 116.948 166.003 116.897 165.838 116.844C165.677 116.791 165.517 116.732 165.358 116.666C165.203 116.596 165.065 116.51 164.942 116.408C164.82 116.306 164.721 116.18 164.645 116.032C164.573 115.88 164.536 115.697 164.536 115.482C164.536 115.291 164.576 115.108 164.655 114.933C164.734 114.755 164.85 114.6 165.002 114.468C165.154 114.332 165.34 114.225 165.561 114.146C165.782 114.067 166.035 114.027 166.319 114.027C166.649 114.027 166.944 114.08 167.205 114.185C167.469 114.288 167.697 114.43 167.888 114.611L167.69 114.933Z" fill="#7A7A7A"/>
<path d="M197.325 97.4332C197.378 97.7236 197.497 97.948 197.682 98.1064C197.873 98.2583 198.127 98.3342 198.444 98.3342C198.853 98.3342 199.15 98.1658 199.335 97.8292C199.52 97.486 199.612 96.9117 199.612 96.1064C199.461 96.3176 199.246 96.4827 198.969 96.6015C198.698 96.7203 198.404 96.7797 198.088 96.7797C197.665 96.7797 197.282 96.6939 196.939 96.5223C196.602 96.344 196.335 96.0833 196.137 95.7401C195.939 95.3902 195.84 94.9678 195.84 94.4727C195.84 93.74 196.058 93.1592 196.494 92.7301C196.929 92.2945 197.523 92.0767 198.276 92.0767C199.213 92.0767 199.873 92.377 200.256 92.9777C200.645 93.5783 200.84 94.4826 200.84 95.6906C200.84 96.5487 200.764 97.2516 200.612 97.7995C200.467 98.3474 200.213 98.7632 199.85 99.047C199.494 99.3309 199.005 99.4728 198.385 99.4728C197.896 99.4728 197.48 99.3804 197.137 99.1956C196.794 99.0041 196.53 98.7566 196.345 98.453C196.167 98.1427 196.065 97.8028 196.038 97.4332H197.325ZM198.375 95.651C198.718 95.651 198.989 95.5453 199.187 95.3341C199.385 95.1229 199.484 94.8391 199.484 94.4826C199.484 94.0932 199.378 93.7928 199.167 93.5816C198.962 93.3638 198.682 93.2549 198.325 93.2549C197.969 93.2549 197.685 93.3671 197.474 93.5915C197.269 93.8093 197.167 94.0998 197.167 94.4628C197.167 94.8127 197.266 95.0998 197.464 95.3242C197.669 95.542 197.972 95.651 198.375 95.651ZM203.523 97.4332C203.576 97.7236 203.695 97.948 203.88 98.1064C204.071 98.2583 204.325 98.3342 204.642 98.3342C205.051 98.3342 205.348 98.1658 205.533 97.8292C205.718 97.486 205.81 96.9117 205.81 96.1064C205.658 96.3176 205.444 96.4827 205.167 96.6015C204.896 96.7203 204.602 96.7797 204.286 96.7797C203.863 96.7797 203.48 96.6939 203.137 96.5223C202.8 96.344 202.533 96.0833 202.335 95.7401C202.137 95.3902 202.038 94.9678 202.038 94.4727C202.038 93.74 202.256 93.1592 202.691 92.7301C203.127 92.2945 203.721 92.0767 204.474 92.0767C205.411 92.0767 206.071 92.377 206.454 92.9777C206.843 93.5783 207.038 94.4826 207.038 95.6906C207.038 96.5487 206.962 97.2516 206.81 97.7995C206.665 98.3474 206.411 98.7632 206.048 99.047C205.691 99.3309 205.203 99.4728 204.583 99.4728C204.094 99.4728 203.678 99.3804 203.335 99.1956C202.992 99.0041 202.728 98.7566 202.543 98.453C202.365 98.1427 202.262 97.8028 202.236 97.4332H203.523ZM204.573 95.651C204.916 95.651 205.187 95.5453 205.385 95.3341C205.583 95.1229 205.682 94.8391 205.682 94.4826C205.682 94.0932 205.576 93.7928 205.365 93.5816C205.16 93.3638 204.88 93.2549 204.523 93.2549C204.167 93.2549 203.883 93.3671 203.672 93.5915C203.467 93.8093 203.365 94.0998 203.365 94.4628C203.365 94.8127 203.464 95.0998 203.662 95.3242C203.866 95.542 204.17 95.651 204.573 95.651Z" fill="#FFC145"/>
<path d="M187.647 113.843C187.618 113.892 187.585 113.93 187.548 113.957C187.515 113.98 187.474 113.991 187.425 113.991C187.368 113.991 187.302 113.963 187.227 113.907C187.151 113.851 187.055 113.79 186.939 113.724C186.827 113.655 186.69 113.592 186.528 113.536C186.37 113.48 186.177 113.452 185.949 113.452C185.735 113.452 185.545 113.482 185.38 113.541C185.218 113.597 185.081 113.675 184.969 113.774C184.86 113.873 184.778 113.99 184.722 114.125C184.665 114.257 184.637 114.401 184.637 114.556C184.637 114.754 184.685 114.919 184.781 115.051C184.88 115.18 185.009 115.29 185.167 115.383C185.329 115.475 185.51 115.556 185.712 115.625C185.916 115.691 186.124 115.76 186.335 115.833C186.55 115.906 186.758 115.988 186.959 116.081C187.164 116.17 187.345 116.284 187.504 116.422C187.665 116.561 187.794 116.731 187.89 116.932C187.989 117.133 188.038 117.381 188.038 117.675C188.038 117.985 187.986 118.277 187.88 118.551C187.774 118.822 187.619 119.057 187.415 119.259C187.213 119.46 186.964 119.619 186.667 119.734C186.373 119.85 186.038 119.907 185.662 119.907C185.2 119.907 184.781 119.825 184.405 119.66C184.028 119.491 183.707 119.265 183.439 118.982L183.717 118.526C183.743 118.49 183.774 118.46 183.811 118.437C183.85 118.411 183.893 118.397 183.939 118.397C183.982 118.397 184.03 118.416 184.083 118.452C184.139 118.485 184.202 118.528 184.271 118.581C184.34 118.633 184.42 118.691 184.509 118.754C184.598 118.817 184.698 118.874 184.811 118.927C184.926 118.98 185.057 119.024 185.202 119.061C185.347 119.094 185.51 119.11 185.692 119.11C185.92 119.11 186.123 119.079 186.301 119.016C186.479 118.954 186.629 118.866 186.751 118.754C186.877 118.638 186.972 118.501 187.038 118.343C187.104 118.185 187.137 118.008 187.137 117.813C187.137 117.599 187.088 117.424 186.989 117.288C186.893 117.15 186.766 117.034 186.608 116.942C186.449 116.85 186.268 116.772 186.063 116.709C185.859 116.643 185.651 116.577 185.439 116.511C185.228 116.442 185.02 116.363 184.816 116.274C184.611 116.185 184.429 116.069 184.271 115.927C184.113 115.785 183.984 115.609 183.885 115.397C183.789 115.183 183.741 114.919 183.741 114.605C183.741 114.354 183.789 114.112 183.885 113.878C183.984 113.643 184.126 113.435 184.311 113.254C184.499 113.072 184.728 112.927 184.999 112.818C185.273 112.709 185.586 112.655 185.939 112.655C186.335 112.655 186.695 112.717 187.019 112.843C187.345 112.968 187.632 113.15 187.88 113.387L187.647 113.843ZM192.514 116.774C192.514 116.569 192.484 116.383 192.425 116.214C192.369 116.043 192.285 115.896 192.173 115.774C192.064 115.648 191.93 115.552 191.772 115.486C191.613 115.417 191.433 115.383 191.232 115.383C190.809 115.383 190.474 115.506 190.227 115.754C189.983 115.998 189.831 116.338 189.771 116.774H192.514ZM193.227 119.125C193.118 119.257 192.988 119.373 192.836 119.472C192.684 119.567 192.521 119.647 192.346 119.709C192.174 119.772 191.996 119.818 191.811 119.848C191.626 119.881 191.443 119.897 191.262 119.897C190.915 119.897 190.595 119.84 190.301 119.724C190.011 119.605 189.758 119.434 189.544 119.209C189.333 118.982 189.168 118.701 189.049 118.368C188.93 118.034 188.87 117.652 188.87 117.219C188.87 116.869 188.923 116.543 189.029 116.239C189.138 115.935 189.293 115.673 189.494 115.452C189.696 115.227 189.941 115.052 190.232 114.927C190.522 114.798 190.849 114.734 191.212 114.734C191.512 114.734 191.79 114.785 192.044 114.887C192.301 114.986 192.522 115.132 192.707 115.323C192.895 115.511 193.042 115.746 193.148 116.026C193.253 116.303 193.306 116.62 193.306 116.977C193.306 117.115 193.291 117.208 193.262 117.254C193.232 117.3 193.176 117.323 193.093 117.323H189.742C189.752 117.64 189.795 117.916 189.87 118.15C189.95 118.384 190.059 118.581 190.197 118.739C190.336 118.894 190.501 119.011 190.692 119.09C190.884 119.166 191.098 119.204 191.336 119.204C191.557 119.204 191.747 119.18 191.905 119.13C192.067 119.077 192.206 119.021 192.321 118.962C192.437 118.902 192.532 118.848 192.608 118.798C192.687 118.746 192.755 118.719 192.811 118.719C192.884 118.719 192.94 118.747 192.979 118.803L193.227 119.125ZM195.299 112.536V119.828H194.418V112.536H195.299ZM200.085 116.774C200.085 116.569 200.055 116.383 199.996 116.214C199.94 116.043 199.856 115.896 199.743 115.774C199.634 115.648 199.501 115.552 199.342 115.486C199.184 115.417 199.004 115.383 198.803 115.383C198.38 115.383 198.045 115.506 197.798 115.754C197.554 115.998 197.402 116.338 197.342 116.774H200.085ZM200.798 119.125C200.689 119.257 200.559 119.373 200.407 119.472C200.255 119.567 200.092 119.647 199.917 119.709C199.745 119.772 199.567 119.818 199.382 119.848C199.197 119.881 199.014 119.897 198.832 119.897C198.486 119.897 198.166 119.84 197.872 119.724C197.582 119.605 197.329 119.434 197.115 119.209C196.903 118.982 196.738 118.701 196.62 118.368C196.501 118.034 196.441 117.652 196.441 117.219C196.441 116.869 196.494 116.543 196.6 116.239C196.709 115.935 196.864 115.673 197.065 115.452C197.266 115.227 197.512 115.052 197.803 114.927C198.093 114.798 198.42 114.734 198.783 114.734C199.083 114.734 199.361 114.785 199.615 114.887C199.872 114.986 200.093 115.132 200.278 115.323C200.466 115.511 200.613 115.746 200.719 116.026C200.824 116.303 200.877 116.62 200.877 116.977C200.877 117.115 200.862 117.208 200.833 117.254C200.803 117.3 200.747 117.323 200.664 117.323H197.313C197.323 117.64 197.365 117.916 197.441 118.15C197.521 118.384 197.629 118.581 197.768 118.739C197.907 118.894 198.072 119.011 198.263 119.09C198.455 119.166 198.669 119.204 198.907 119.204C199.128 119.204 199.318 119.18 199.476 119.13C199.638 119.077 199.776 119.021 199.892 118.962C200.007 118.902 200.103 118.848 200.179 118.798C200.258 118.746 200.326 118.719 200.382 118.719C200.455 118.719 200.511 118.747 200.55 118.803L200.798 119.125ZM205.45 115.704C205.423 115.741 205.397 115.769 205.37 115.788C205.344 115.808 205.308 115.818 205.261 115.818C205.212 115.818 205.158 115.798 205.098 115.759C205.039 115.716 204.964 115.67 204.875 115.62C204.79 115.571 204.682 115.526 204.554 115.486C204.428 115.444 204.273 115.422 204.088 115.422C203.841 115.422 203.623 115.467 203.435 115.556C203.247 115.642 203.088 115.767 202.959 115.932C202.834 116.097 202.738 116.297 202.672 116.531C202.61 116.765 202.578 117.028 202.578 117.318C202.578 117.622 202.613 117.892 202.682 118.13C202.752 118.364 202.849 118.562 202.974 118.724C203.103 118.883 203.257 119.005 203.435 119.09C203.616 119.173 203.819 119.214 204.044 119.214C204.258 119.214 204.435 119.19 204.573 119.14C204.712 119.087 204.826 119.029 204.915 118.967C205.007 118.904 205.083 118.848 205.143 118.798C205.205 118.746 205.266 118.719 205.326 118.719C205.398 118.719 205.455 118.747 205.494 118.803L205.742 119.125C205.633 119.26 205.509 119.376 205.37 119.472C205.232 119.567 205.082 119.648 204.92 119.714C204.761 119.777 204.595 119.823 204.42 119.853C204.245 119.883 204.067 119.897 203.885 119.897C203.572 119.897 203.28 119.84 203.009 119.724C202.742 119.609 202.509 119.442 202.311 119.224C202.113 119.003 201.958 118.732 201.846 118.412C201.733 118.092 201.677 117.727 201.677 117.318C201.677 116.945 201.728 116.6 201.831 116.284C201.936 115.967 202.088 115.694 202.286 115.467C202.488 115.236 202.733 115.056 203.024 114.927C203.318 114.798 203.654 114.734 204.034 114.734C204.387 114.734 204.697 114.792 204.964 114.907C205.235 115.019 205.474 115.18 205.682 115.387L205.45 115.704ZM208.227 119.907C207.831 119.907 207.526 119.797 207.311 119.576C207.1 119.355 206.995 119.036 206.995 118.62V115.551H206.391C206.338 115.551 206.293 115.536 206.257 115.506C206.221 115.473 206.202 115.424 206.202 115.358V115.006L207.024 114.902L207.227 113.353C207.237 113.303 207.259 113.264 207.292 113.234C207.328 113.201 207.374 113.184 207.43 113.184H207.876V114.912H209.326V115.551H207.876V118.561C207.876 118.772 207.927 118.929 208.029 119.031C208.132 119.133 208.264 119.185 208.425 119.185C208.518 119.185 208.597 119.173 208.663 119.15C208.732 119.123 208.792 119.095 208.841 119.066C208.891 119.036 208.932 119.01 208.965 118.987C209.001 118.96 209.033 118.947 209.059 118.947C209.105 118.947 209.146 118.975 209.183 119.031L209.44 119.452C209.288 119.594 209.105 119.706 208.891 119.789C208.676 119.868 208.455 119.907 208.227 119.907ZM213.564 116.774C213.564 116.569 213.534 116.383 213.475 116.214C213.418 116.043 213.334 115.896 213.222 115.774C213.113 115.648 212.979 115.552 212.821 115.486C212.663 115.417 212.483 115.383 212.281 115.383C211.859 115.383 211.524 115.506 211.276 115.754C211.032 115.998 210.88 116.338 210.821 116.774H213.564ZM214.277 119.125C214.168 119.257 214.037 119.373 213.885 119.472C213.734 119.567 213.57 119.647 213.395 119.709C213.224 119.772 213.045 119.818 212.861 119.848C212.676 119.881 212.493 119.897 212.311 119.897C211.965 119.897 211.644 119.84 211.351 119.724C211.06 119.605 210.808 119.434 210.593 119.209C210.382 118.982 210.217 118.701 210.098 118.368C209.979 118.034 209.92 117.652 209.92 117.219C209.92 116.869 209.973 116.543 210.078 116.239C210.187 115.935 210.342 115.673 210.544 115.452C210.745 115.227 210.991 115.052 211.281 114.927C211.572 114.798 211.899 114.734 212.262 114.734C212.562 114.734 212.839 114.785 213.093 114.887C213.351 114.986 213.572 115.132 213.757 115.323C213.945 115.511 214.092 115.746 214.197 116.026C214.303 116.303 214.356 116.62 214.356 116.977C214.356 117.115 214.341 117.208 214.311 117.254C214.281 117.3 214.225 117.323 214.143 117.323H210.791C210.801 117.64 210.844 117.916 210.92 118.15C210.999 118.384 211.108 118.581 211.247 118.739C211.385 118.894 211.55 119.011 211.742 119.09C211.933 119.166 212.148 119.204 212.385 119.204C212.607 119.204 212.796 119.18 212.955 119.13C213.116 119.077 213.255 119.021 213.371 118.962C213.486 118.902 213.582 118.848 213.658 118.798C213.737 118.746 213.805 118.719 213.861 118.719C213.933 118.719 213.989 118.747 214.029 118.803L214.277 119.125ZM218.706 116.006C218.54 115.785 218.362 115.632 218.171 115.546C217.979 115.457 217.765 115.412 217.527 115.412C217.062 115.412 216.704 115.579 216.453 115.912C216.202 116.246 216.077 116.721 216.077 117.338C216.077 117.665 216.105 117.945 216.161 118.18C216.217 118.411 216.3 118.602 216.408 118.754C216.517 118.902 216.651 119.011 216.809 119.081C216.968 119.15 217.148 119.185 217.349 119.185C217.639 119.185 217.892 119.119 218.106 118.987C218.324 118.855 218.524 118.668 218.706 118.427V116.006ZM219.587 112.536V119.828H219.062C218.937 119.828 218.857 119.767 218.824 119.645L218.745 119.036C218.531 119.293 218.286 119.501 218.012 119.66C217.738 119.818 217.422 119.897 217.062 119.897C216.775 119.897 216.514 119.843 216.28 119.734C216.045 119.622 215.846 119.458 215.681 119.244C215.516 119.029 215.389 118.762 215.3 118.442C215.21 118.122 215.166 117.754 215.166 117.338C215.166 116.968 215.215 116.625 215.314 116.308C215.413 115.988 215.555 115.711 215.74 115.477C215.925 115.242 216.151 115.059 216.418 114.927C216.689 114.792 216.993 114.724 217.329 114.724C217.636 114.724 217.899 114.777 218.116 114.883C218.338 114.985 218.534 115.128 218.706 115.313V112.536H219.587Z" fill="#7A7A7A"/>
<defs>
<filter id="filter0_d_89_6421" x="0.428555" y="0.95237" width="290.8" height="208.055" filterUnits="userSpaceOnUse" color-interpolation-filters="sRGB">
<feFlood flood-opacity="0" result="BackgroundImageFix"/>
<feColorMatrix in="SourceAlpha" type="matrix" values="0 0 0 0 0 0 0 0 0 0 0 0 0 0 0 0 0 0 127 0" result="hardAlpha"/>
<feOffset dy="16.5238"/>
<feGaussianBlur stdDeviation="24.7857"/>
<feComposite in2="hardAlpha" operator="out"/>
<feColorMatrix type="matrix" values="0 0 0 0 1 0 0 0 0 1 0 0 0 0 1 0 0 0 0.25 0"/>
<feBlend mode="normal" in2="BackgroundImageFix" result="effect1_dropShadow_89_6421"/>
<feBlend mode="normal" in="SourceGraphic" in2="effect1_dropShadow_89_6421" result="shape"/>
</filter>
<clipPath id="clip0_89_6421">
<rect width="7.77945" height="7.77945" fill="white" transform="translate(62.729 69.3574)"/>
</clipPath>
<clipPath id="clip1_89_6421">
<rect width="16.9734" height="16.9734" fill="white" transform="translate(58.4897 48)"/>
</clipPath>
<clipPath id="clip2_89_6421">
<rect width="11.3156" height="11.3156" fill="white" transform="translate(195.681 51.1113)"/>
</clipPath>
<clipPath id="clip3_89_6421">
<rect width="11.3156" height="11.3156" fill="white" transform="translate(216.9 51.1113)"/>
</clipPath>
</defs>
</svg>
