<svg width="50" height="51" viewBox="0 0 50 51" fill="none" xmlns="http://www.w3.org/2000/svg">
<path d="M37.8267 35.8374L35.3538 38.2831C33.5311 40.0718 31.1663 42.3718 28.2582 45.1833C26.4411 46.9404 23.5582 46.9402 21.7413 45.1829L14.4681 38.1081C13.554 37.2106 12.7888 36.4537 12.1725 35.8374C5.08833 28.7533 5.08833 17.2674 12.1725 10.1833C19.2567 3.09907 30.7425 3.09907 37.8267 10.1833C44.9109 17.2674 44.9109 28.7533 37.8267 35.8374ZM30.2084 23.5827C30.2084 20.7059 27.8763 18.3738 24.9996 18.3738C22.123 18.3738 19.7908 20.7059 19.7908 23.5827C19.7908 26.4593 22.123 28.7914 24.9996 28.7914C27.8763 28.7914 30.2084 26.4593 30.2084 23.5827Z" fill="#EB5D2A"/>
</svg>
