<svg width="48" height="48" viewBox="0 0 460 460" fill="none" xmlns="http://www.w3.org/2000/svg">
<path fill-rule="evenodd" clip-rule="evenodd" d="M102 459.334H37.9998C28.1012 459.334 18.6078 455.408 11.6105 448.39C4.59184 441.392 0.666504 431.899 0.666504 422V38.0003C0.666504 28.1017 4.59184 18.6083 11.6105 11.611C18.6078 4.59233 28.1012 0.666992 37.9998 0.666992H272.667C282.565 0.666992 292.059 4.59233 299.056 11.611C306.075 18.6083 310 28.1017 310 38.0003V443.334C310 452.166 302.832 459.334 294 459.334H208.667V336.667C208.667 324.891 199.109 315.334 187.333 315.334H123.333C111.557 315.334 102 324.891 102 336.667V459.334ZM171.333 219.334H139.333V251.334H171.333V219.334ZM235.333 70.0003H203.333V102H235.333V70.0003ZM235.333 144.667H203.333V176.667H235.333V144.667ZM235.333 219.334H203.333V251.334H235.333V219.334ZM107.333 70.0003H75.3332V102H107.333V70.0003ZM107.333 144.667H75.3332V176.667H107.333V144.667ZM107.333 219.334H75.3332V251.334H107.333V219.334ZM171.333 70.0003H139.333V102H171.333V70.0003ZM171.333 144.667H139.333V176.667H171.333V144.667Z" fill="black"/>
<path fill-rule="evenodd" clip-rule="evenodd" d="M331.333 128.667H422C442.608 128.667 459.333 145.371 459.333 166V422C459.333 442.63 442.608 459.334 422 459.334H327.749C330.053 454.491 331.333 449.051 331.333 443.334V128.667ZM406 203.334H374V235.334H406V203.334ZM406 278H374V310H406V278ZM406 352.667H374V384.667H406V352.667Z" fill="black"/>
</svg>
