<svg width="48" height="48" viewBox="0 0 364 362" fill="none" xmlns="http://www.w3.org/2000/svg">
<path d="M0 18.6215C2.99 6.72148 13.48 -1.20852 25.93 0.151477L194.88 25.9215C205.19 28.5915 211.37 37.0015 212.48 47.4115L212.56 135.101L346.81 161.811C356.32 164.181 363.12 172.621 363.89 182.401V338.811C363.34 351.231 354.54 360.221 342.21 361.191H21.65C10.31 360.301 3.17 353.231 0 342.691V18.6215ZM196.86 346.241V45.2715C196.86 44.5915 194.41 41.9015 193.57 41.4515L23.69 15.1315C18.1 14.8415 15.1 18.5815 14.89 23.9215L15.4 340.431C15.64 342.711 19.69 346.241 21.67 346.241H60.4V275.531C60.4 265.861 71.24 256.111 80.62 255.251C97.42 253.711 116.73 256.321 133.78 255.451C140.09 255.931 151.36 266.741 151.36 272.691V346.241H196.84H196.86ZM212.49 150.801V346.231H342.19C344.17 346.231 348.22 342.701 348.46 340.421L348.97 185.241C348.84 182.281 347.61 178.691 344.94 177.191L212.49 150.801ZM136.45 346.241V276.241C136.45 272.631 131.41 270.461 128.3 270.171C113.68 268.811 96.96 271.211 82.12 270.231C80.06 270.391 76.04 273.611 76.04 275.521V346.231H136.45V346.241Z" fill="black"/>
<path d="M50.9802 73.5017C55.0702 72.6817 81.3902 72.6817 85.4802 73.5017C93.2102 75.0617 92.7602 86.9817 84.1602 88.2017C78.7302 88.9717 56.8902 89.0417 51.7002 88.1017C43.8102 86.6717 43.3702 75.0417 50.9902 73.5117L50.9802 73.5017Z" fill="black"/>
<path d="M50.9802 118.991C55.0702 118.171 81.3902 118.171 85.4802 118.991C93.2102 120.551 92.7602 132.471 84.1602 133.691C78.7302 134.461 56.8902 134.531 51.7002 133.591C43.8102 132.161 43.3702 120.531 50.9902 119.001L50.9802 118.991Z" fill="black"/>
<path d="M50.9802 164.471C55.0702 163.651 81.3902 163.651 85.4802 164.471C93.2102 166.031 92.7602 177.951 84.1602 179.171C78.7302 179.941 56.8902 180.011 51.7002 179.071C43.8102 177.641 43.3702 166.011 50.9902 164.481L50.9802 164.471Z" fill="black"/>
<path d="M50.9802 209.951C55.0702 209.131 81.3902 209.131 85.4802 209.951C93.2102 211.511 92.7602 223.431 84.1602 224.651C78.7302 225.421 56.8902 225.491 51.7002 224.551C43.8102 223.121 43.3702 211.491 50.9902 209.961L50.9802 209.951Z" fill="black"/>
<path d="M123.17 85.9116C119.8 82.1016 121.28 74.2616 126.9 73.3816C132.12 72.5616 155.72 72.5616 160.93 73.3816C168.37 74.5616 169.04 86.8616 160.21 88.2216C154.53 89.1016 134.15 89.0016 128.26 88.2916C126.77 88.1116 124.1 86.9716 123.17 85.9216V85.9116Z" fill="black"/>
<path d="M123.17 131.401C119.8 127.591 121.28 119.751 126.9 118.871C132.12 118.051 155.72 118.051 160.93 118.871C168.37 120.051 169.04 132.351 160.21 133.711C154.53 134.591 134.15 134.491 128.26 133.781C126.77 133.601 124.1 132.461 123.17 131.411V131.401Z" fill="black"/>
<path d="M123.17 176.881C119.8 173.071 121.28 165.231 126.9 164.351C132.12 163.531 155.72 163.531 160.93 164.351C168.37 165.531 169.04 177.831 160.21 179.191C154.53 180.071 134.15 179.971 128.26 179.261C126.77 179.081 124.1 177.941 123.17 176.891V176.881Z" fill="black"/>
<path d="M123.17 222.361C119.8 218.551 121.28 210.711 126.9 209.831C132.12 209.011 155.72 209.011 160.93 209.831C168.37 211.011 169.04 223.311 160.21 224.671C154.53 225.551 134.15 225.451 128.26 224.741C126.77 224.561 124.1 223.421 123.17 222.371V222.361Z" fill="black"/>
<path d="M259.62 222.361C256.25 218.551 257.73 210.711 263.35 209.831C268.57 209.011 292.17 209.011 297.38 209.831C304.82 211.011 305.49 223.311 296.66 224.671C290.98 225.551 270.6 225.451 264.71 224.741C263.22 224.561 260.55 223.421 259.62 222.371V222.361Z" fill="black"/>
<path d="M259.62 267.852C256.25 264.042 257.73 256.202 263.35 255.322C268.57 254.502 292.17 254.502 297.38 255.322C304.82 256.502 305.49 268.802 296.66 270.162C290.98 271.042 270.6 270.942 264.71 270.232C263.22 270.052 260.55 268.912 259.62 267.862V267.852Z" fill="black"/>
<path d="M259.62 313.332C256.25 309.522 257.73 301.682 263.35 300.802C268.57 299.982 292.17 299.982 297.38 300.802C304.82 301.982 305.49 314.282 296.66 315.642C290.98 316.522 270.6 316.422 264.71 315.712C263.22 315.532 260.55 314.392 259.62 313.342V313.332Z" fill="black"/>
</svg>
