<svg width="48" height="48" viewBox="0 0 460 460" fill="none" xmlns="http://www.w3.org/2000/svg">
<path fill-rule="evenodd" clip-rule="evenodd" d="M310 38.0003V443.334C310 452.166 302.832 459.334 294 459.334H37.9998C28.1012 459.334 18.6078 455.408 11.6105 448.39C4.59184 441.392 0.666504 431.899 0.666504 422V38.0003C0.666504 28.1017 4.59184 18.6083 11.6105 11.611C18.6078 4.59233 28.1012 0.666992 37.9998 0.666992H272.667C282.565 0.666992 292.059 4.59233 299.056 11.611C306.075 18.6083 310 28.1017 310 38.0003ZM278 38.0003C278 36.5923 277.445 35.227 276.443 34.2243C275.44 33.2217 274.075 32.667 272.667 32.667H37.9998C36.5918 32.667 35.2265 33.2217 34.2238 34.2243C33.2212 35.227 32.6665 36.5923 32.6665 38.0003V422C32.6665 423.408 33.2212 424.774 34.2238 425.776C35.2265 426.779 36.5918 427.334 37.9998 427.334H278V38.0003Z" fill="black"/>
<path fill-rule="evenodd" clip-rule="evenodd" d="M224.667 304.667V443.333C224.667 452.165 217.499 459.333 208.667 459.333H102C93.168 459.333 86 452.165 86 443.333V304.667C86 297.584 88.816 290.821 93.808 285.808C98.8213 280.816 105.605 278 112.667 278H198C205.061 278 211.845 280.816 216.859 285.808C221.851 290.821 224.667 297.584 224.667 304.667ZM118 310V427.333H192.667V310H118Z" fill="black"/>
<path fill-rule="evenodd" clip-rule="evenodd" d="M459.333 166V422C459.333 442.63 442.608 459.334 422 459.334H294C285.168 459.334 278 452.166 278 443.334V144.667C278 135.835 285.168 128.667 294 128.667H422C442.608 128.667 459.333 145.371 459.333 166ZM427.333 166C427.333 163.056 424.944 160.667 422 160.667H310V427.334H422C424.944 427.334 427.333 424.944 427.333 422V166Z" fill="black"/>
<path fill-rule="evenodd" clip-rule="evenodd" d="M75.333 70H107.333V102H75.333V70Z" fill="black"/>
<path fill-rule="evenodd" clip-rule="evenodd" d="M75.333 144.667H107.333V176.667H75.333V144.667Z" fill="black"/>
<path fill-rule="evenodd" clip-rule="evenodd" d="M75.333 219.334H107.333V251.334H75.333V219.334Z" fill="black"/>
<path fill-rule="evenodd" clip-rule="evenodd" d="M139.333 70H171.333V102H139.333V70Z" fill="black"/>
<path fill-rule="evenodd" clip-rule="evenodd" d="M139.333 144.667H171.333V176.667H139.333V144.667Z" fill="black"/>
<path fill-rule="evenodd" clip-rule="evenodd" d="M139.333 219.334H171.333V251.334H139.333V219.334Z" fill="black"/>
<path fill-rule="evenodd" clip-rule="evenodd" d="M203.333 70H235.333V102H203.333V70Z" fill="black"/>
<path fill-rule="evenodd" clip-rule="evenodd" d="M352.667 203.334H384.667V235.334H352.667V203.334Z" fill="black"/>
<path fill-rule="evenodd" clip-rule="evenodd" d="M352.667 278H384.667V310H352.667V278Z" fill="black"/>
<path fill-rule="evenodd" clip-rule="evenodd" d="M352.667 352.667H384.667V384.667H352.667V352.667Z" fill="black"/>
<path fill-rule="evenodd" clip-rule="evenodd" d="M203.333 144.667H235.333V176.667H203.333V144.667Z" fill="black"/>
<path fill-rule="evenodd" clip-rule="evenodd" d="M203.333 219.334H235.333V251.334H203.333V219.334Z" fill="black"/>
</svg>
