<svg width="48" height="48" viewBox="0 0 335 332" fill="none" xmlns="http://www.w3.org/2000/svg">
<path d="M330.04 162.086L197.59 135.696V331.126H327.29C329.27 331.126 333.32 327.596 333.56 325.316L334.07 170.136C333.94 167.166 332.71 163.586 330.04 162.086ZM281.75 300.516C276.07 301.396 255.69 301.296 249.8 300.576C248.31 300.396 245.64 299.256 244.71 298.206C241.34 294.396 242.82 286.556 248.44 285.676C253.66 284.856 277.26 284.856 282.47 285.676C289.91 286.856 290.58 299.156 281.75 300.516ZM281.75 255.036C276.07 255.916 255.69 255.816 249.8 255.106C248.31 254.926 245.64 253.786 244.71 252.736C241.34 248.926 242.82 241.086 248.44 240.206C253.66 239.386 277.26 239.386 282.47 240.206C289.91 241.386 290.58 253.686 281.75 255.046V255.036ZM281.75 209.556C276.07 210.436 255.69 210.336 249.8 209.626C248.31 209.446 245.64 208.306 244.71 207.256C241.34 203.446 242.82 195.606 248.44 194.726C253.66 193.906 277.26 193.906 282.47 194.726C289.91 195.906 290.58 208.206 281.75 209.566V209.556Z" fill="black"/>
<path d="M178.67 26.3358L8.78998 0.0157664C3.19998 -0.274234 0.2 3.46577 0 8.80577L0.509949 325.316C0.749949 327.596 4.79997 331.126 6.77997 331.126H45.5099V260.416C45.5099 250.746 56.35 240.996 65.73 240.136C82.53 238.596 101.84 241.206 118.9 240.326C125.21 240.806 136.48 251.616 136.48 257.576V331.126H181.96V30.1558C181.96 29.4858 179.51 26.7858 178.67 26.3358ZM69.23 209.536C63.8 210.306 41.96 210.376 36.77 209.436C28.88 208.006 28.44 196.376 36.06 194.846C40.15 194.026 66.47 194.026 70.56 194.846C78.29 196.406 77.84 208.326 69.24 209.546L69.23 209.536ZM69.23 164.056C63.8 164.826 41.96 164.896 36.77 163.956C28.88 162.526 28.44 150.896 36.06 149.366C40.15 148.546 66.47 148.546 70.56 149.366C78.29 150.926 77.84 162.846 69.24 164.066L69.23 164.056ZM69.23 118.566C63.8 119.336 41.96 119.406 36.77 118.466C28.88 117.036 28.44 105.406 36.06 103.876C40.15 103.056 66.47 103.056 70.56 103.876C78.29 105.436 77.84 117.356 69.24 118.576L69.23 118.566ZM69.23 73.0858C63.8 73.8558 41.96 73.9258 36.77 72.9858C28.88 71.5558 28.44 59.9258 36.06 58.3958C40.15 57.5758 66.47 57.5758 70.56 58.3958C78.29 59.9558 77.84 71.8758 69.24 73.0958L69.23 73.0858ZM145.3 209.556C139.62 210.436 119.24 210.336 113.35 209.626C111.86 209.446 109.19 208.306 108.26 207.256C104.89 203.446 106.37 195.606 111.99 194.726C117.21 193.906 140.81 193.906 146.02 194.726C153.46 195.906 154.13 208.206 145.3 209.566V209.556ZM145.3 164.076C139.62 164.956 119.24 164.856 113.35 164.146C111.86 163.966 109.19 162.826 108.26 161.776C104.89 157.966 106.37 150.126 111.99 149.246C117.21 148.426 140.81 148.426 146.02 149.246C153.46 150.426 154.13 162.726 145.3 164.086V164.076ZM145.3 118.586C139.62 119.466 119.24 119.366 113.35 118.656C111.86 118.476 109.19 117.336 108.26 116.286C104.89 112.476 106.37 104.636 111.99 103.756C117.21 102.936 140.81 102.936 146.02 103.756C153.46 104.936 154.13 117.236 145.3 118.596V118.586ZM145.3 73.1058C139.62 73.9858 119.24 73.8858 113.35 73.1758C111.86 72.9958 109.19 71.8558 108.26 70.8058C104.89 66.9958 106.37 59.1558 111.99 58.2758C117.21 57.4558 140.81 57.4558 146.02 58.2758C153.46 59.4558 154.13 71.7558 145.3 73.1158V73.1058Z" fill="black"/>
</svg>
