<svg width="48" height="48" viewBox="0 0 512 512" fill="none" xmlns="http://www.w3.org/2000/svg">
<g clip-path="url(#clip0_36_1890)">
<path d="M122.912 391.28H19.6538C11.3698 391.28 4.65381 397.996 4.65381 406.28V497C4.65381 505.284 11.3698 512 19.6538 512H137.913V406.28C137.912 397.996 131.197 391.28 122.912 391.28Z" fill="black"/>
<path d="M271.171 307.28H182.912C174.628 307.28 167.912 313.996 167.912 322.28V512H286.171V322.28C286.171 313.996 279.455 307.28 271.171 307.28Z" fill="black"/>
<path d="M477.798 81.01L508.028 48.2C512.068 43.82 513.128 37.47 510.738 32.02C508.348 26.56 502.958 23.04 496.998 23.04H400.299V15C400.299 6.72 393.589 0 385.299 0C377.019 0 370.299 6.72 370.299 15V190H331.169C322.885 190 316.169 196.716 316.169 205V512H436.978C445.268 512 451.978 505.28 451.978 497V205C451.978 196.72 445.268 190 436.978 190H400.299V136.33H496.998C503.068 136.33 508.538 132.67 510.858 127.06C513.178 121.45 511.888 114.99 507.588 110.71L477.798 81.01Z" fill="black"/>
<path d="M254.552 128.785C258.233 136.207 267.231 139.239 274.654 135.559C282.076 131.878 285.109 122.878 281.428 115.456C254.234 60.6186 256.985 66.1466 256.59 65.4016C253.771 60.0756 247.971 56.8596 241.794 57.4996C241.752 57.5036 241.709 57.5126 241.666 57.5176C240.439 57.6556 243.716 57.0126 186.902 68.9686C178.795 70.6746 173.607 78.6296 175.312 86.7366C176.799 93.8016 183.032 98.6506 189.975 98.6506C192.063 98.6506 190.718 98.8236 217.099 93.2716C197.429 131.882 171.828 167.068 140.739 198.159C102.636 236.263 58.3658 266.136 9.15878 286.948C1.52878 290.176 -2.04022 298.976 1.18678 306.606C4.41578 314.243 13.2208 317.803 20.8448 314.579C73.6278 292.254 121.103 260.222 161.951 219.372C195.244 186.079 222.676 148.394 243.764 107.034L254.552 128.785Z" fill="black"/>
</g>
<defs>
<clipPath id="clip0_36_1890">
<rect width="512" height="512" fill="white"/>
</clipPath>
</defs>
</svg>
