<svg width="48" height="48" viewBox="0 0 512 512" fill="none" xmlns="http://www.w3.org/2000/svg">
<path d="M507.573 110.705L477.788 81.012L508.014 48.203C516.861 38.599 510.011 23.039 496.983 23.039H380.293V15C380.293 6.716 373.577 0 365.294 0C357.01 0 350.295 6.716 350.295 15V190H296.166C287.882 190 281.167 196.716 281.167 205V307.278H157.909C149.625 307.278 142.91 313.994 142.91 322.278V391.279H19.6528C11.3688 391.279 4.65381 397.995 4.65381 406.279V497C4.65381 505.284 11.3698 512 19.6528 512H436.969C445.253 512 451.968 505.284 451.968 497V205C451.968 196.716 445.252 190 436.969 190H380.294V136.328H496.984C510.318 136.328 517.028 120.131 507.573 110.705ZM34.6518 421.279H142.91V482H34.6518V421.279ZM172.908 337.278H281.166V482H172.908C172.908 478.79 172.908 340.276 172.908 337.278ZM421.969 482H311.165C311.165 475.628 311.165 222.728 311.165 220H421.969V482ZM446.395 92.076L460.69 106.328H380.292V53.039H462.767L445.953 71.289C440.496 77.213 440.691 86.39 446.395 92.076Z" fill="black"/>
<path d="M20.8458 314.579C73.6268 292.254 121.101 260.222 161.948 219.372C195.24 186.079 222.671 148.394 243.759 107.034L254.545 128.785C258.225 136.207 267.223 139.239 274.647 135.559C282.069 131.878 285.102 122.878 281.421 115.456L256.776 65.7563C253.766 59.6843 246.984 56.3273 240.249 57.7413L186.899 68.9693C178.792 70.6753 173.604 78.6303 175.31 86.7373C176.797 93.8023 183.029 98.6513 189.973 98.6513C192.061 98.6513 190.716 98.8243 217.096 93.2723C197.426 131.882 171.827 167.068 140.738 198.159C102.636 236.263 58.3678 266.136 9.16178 286.948C1.53178 290.176 -2.03722 298.976 1.19078 306.606C4.41778 314.243 13.2228 317.804 20.8458 314.579Z" fill="black"/>
</svg>
