<svg width="267" height="45" viewBox="0 0 267 45" fill="none" xmlns="http://www.w3.org/2000/svg">
<g clip-path="url(#clip0_163_1641)">
<path d="M18.136 0H15.3087C14.3303 0 13.5371 0.793177 13.5371 1.77161V7.39328C13.5371 8.37171 14.3303 9.16489 15.3087 9.16489H18.136C19.1144 9.16489 19.9076 8.37171 19.9076 7.39328V1.77161C19.9076 0.793177 19.1144 0 18.136 0Z" fill="#EB5D2A"/>
<path d="M15.992 19.9082H28.0207C28.8152 19.9082 29.6061 20.047 30.3531 20.3191L30.3768 20.3283C30.3768 20.3283 31.3265 20.6935 32.1338 21.2616C32.1995 21.309 32.2635 21.3584 32.3274 21.4077C32.3731 21.4442 32.4187 21.4771 32.4644 21.5136C34.0899 22.7957 35.1766 24.7317 35.3209 26.9271V29.1644C35.3209 30.1507 36.1208 30.9488 37.1053 30.9488H42.7014C43.6876 30.9488 44.4858 30.1488 44.4858 29.1644V26.3645C44.4858 25.3783 43.6858 24.5801 42.7014 24.5801H37.4304C36.1628 24.5491 35.1437 23.5172 35.1437 22.2405C35.1437 21.046 36.0386 20.0653 37.1948 19.9191H42.7032C43.6894 19.9191 44.4876 19.1192 44.4876 18.1348V15.3349C44.4876 14.3486 43.6876 13.5505 42.7032 13.5505H39.8942C39.0869 13.4683 36.2359 13.0756 33.825 10.6648C31.4178 8.25939 31.0233 5.41568 30.9393 4.60111V1.79758C30.9393 0.811322 30.1394 0.0131836 29.1549 0.0131836H26.3551C25.3688 0.0131836 24.5707 0.813148 24.5707 1.79758V7.39368C24.5707 8.37994 25.3706 9.17807 26.3551 9.17807H28.3148C28.3586 9.17807 28.4025 9.18173 28.4499 9.18355H28.5687C32.2543 9.19086 35.2551 12.1642 35.3227 15.8335C35.3227 15.8755 35.3282 15.9157 35.3282 15.9577V16.5732C35.246 17.7092 34.3017 18.6096 33.1383 18.6096C31.9749 18.6096 30.932 17.627 30.932 16.4161V16.091C30.932 16.091 30.9284 16.0764 30.9265 16.0709V15.9906C30.9265 14.6664 29.8544 13.5925 28.5303 13.5888L15.7053 13.5633C14.4889 13.7021 13.541 14.7303 13.541 15.9833V17.4572C13.541 18.8123 14.6405 19.9118 15.9957 19.9118L15.992 19.9082Z" fill="#EB5D2A"/>
<path d="M29.177 35.3188H26.3497C25.3713 35.3188 24.5781 36.112 24.5781 37.0905V42.7121C24.5781 43.6906 25.3713 44.4837 26.3497 44.4837H29.177C30.1554 44.4837 30.9486 43.6906 30.9486 42.7121V37.0905C30.9486 36.112 30.1554 35.3188 29.177 35.3188Z" fill="#EB5D2A"/>
<path d="M28.4919 24.5762H16.4632C15.6687 24.5762 14.8779 24.4374 14.1309 24.1653L14.1071 24.1562C14.1071 24.1562 13.1574 23.7909 12.3501 23.2229C12.2844 23.1754 12.2205 23.1261 12.1565 23.0768C12.1109 23.0402 12.0652 23.0074 12.0196 22.9708C10.3941 21.6887 9.30735 19.7527 9.16306 17.5574V15.32C9.16306 14.3338 8.3631 13.5356 7.37867 13.5356H1.7844C0.798138 13.5356 0 14.3356 0 15.32V18.1199C0 19.1062 0.799965 19.9043 1.7844 19.9043H7.05539C8.32292 19.9354 9.34205 20.9673 9.34205 22.2439C9.34205 23.4384 8.44711 24.4192 7.291 24.5653H1.7844C0.798138 24.5653 0 25.3653 0 26.3497V29.1496C0 30.1358 0.799965 30.934 1.7844 30.934H4.5934C5.40067 31.0161 8.25169 31.4088 10.6625 33.8197C13.0697 36.225 13.4642 39.0688 13.5483 39.8833V42.6869C13.5483 43.6731 14.3482 44.4713 15.3327 44.4713H18.1325C19.1188 44.4713 19.9169 43.6713 19.9169 42.6869V37.0908C19.9169 36.1045 19.117 35.3064 18.1325 35.3064H16.1728C16.129 35.3064 16.0851 35.3027 16.0376 35.3009H15.9189C12.2332 35.2936 9.23247 32.3202 9.16489 28.651C9.16489 28.6089 9.15941 28.5688 9.15941 28.5268V27.9113C9.2416 26.7752 10.1858 25.8748 11.3493 25.8748C12.5127 25.8748 13.5556 26.8574 13.5556 28.0683V28.3934C13.5556 28.3934 13.5592 28.408 13.561 28.4135V28.4939C13.561 29.818 14.6331 30.892 15.9573 30.8956L28.7823 30.9212C29.9987 30.7824 30.9466 29.7541 30.9466 28.5012V27.0273C30.9466 25.6721 29.8471 24.5726 28.4919 24.5726V24.5762Z" fill="#EB5D2A"/>
<path d="M76.4779 20.8702H71.9192C71.0608 20.8702 70.3613 20.1707 70.3613 19.3123C70.3613 18.4538 71.0608 17.7543 71.9192 17.7543H79.5554V14.854H71.9192C69.4608 14.854 67.4609 16.8539 67.4609 19.3123C67.4609 21.7706 69.4608 23.7961 71.9192 23.7961H76.4779C77.3089 23.7961 77.9847 24.4718 77.9847 25.3029C77.9847 26.1339 77.3089 26.7822 76.4779 26.7822H68.1385V29.7081H76.4779C78.907 29.7081 80.8832 27.732 80.8832 25.3029C80.8832 22.8737 78.907 20.8702 76.4779 20.8702Z" fill="white"/>
<path d="M91.8556 14.854H88.9297V29.657H91.8556V14.854Z" fill="white"/>
<path d="M116.181 14.8541C114.265 14.8541 112.473 15.6833 111.27 17.128L111.233 17.1718L111.197 17.128C109.993 15.6815 108.201 14.8523 106.285 14.8523C102.764 14.8523 99.9004 17.7161 99.9004 21.2374V29.6535H102.826V21.2374C102.826 19.316 104.379 17.7526 106.285 17.7526C108.192 17.7526 109.77 19.316 109.77 21.2374V29.6535H112.696V21.2374C112.696 19.316 114.26 17.7526 116.181 17.7526C118.102 17.7526 119.64 19.316 119.64 21.2374V29.6535H122.566V21.2374C122.566 17.7161 119.702 14.8523 116.181 14.8523V14.8541Z" fill="white"/>
<path d="M155.004 24.0518V14.854H152.078V24.0518C152.078 27.142 154.591 29.6552 157.682 29.6552H165.526V26.7293H157.682C156.204 26.7293 155.004 25.5275 155.004 24.0518Z" fill="white"/>
<path d="M176.496 14.854H173.57V29.657H176.496V14.854Z" fill="white"/>
<path d="M244.023 19.261C244.023 16.8173 242.046 14.8284 239.615 14.8284H228.882V17.7543H239.615C240.446 17.7543 241.122 18.43 241.122 19.261C241.122 20.0373 240.543 20.6856 239.773 20.7678H231.85V23.6682L239.776 23.6937C240.543 23.7759 241.12 24.4243 241.12 25.2005C241.12 26.0315 240.445 26.7073 239.614 26.7073H228.88V29.6332H239.614C242.043 29.6332 244.021 27.6442 244.021 25.2005C244.021 24.101 243.628 23.0563 242.912 22.2637L242.883 22.2326L242.912 22.2016C243.626 21.4071 244.021 20.3642 244.021 19.2647L244.023 19.261Z" fill="white"/>
<path d="M266.999 15.6941V14.854H264.064V15.6941C264.064 18.1854 262.037 20.2127 259.546 20.2127C257.054 20.2127 255.027 18.1854 255.027 15.6941V14.854H252.12V15.6941C252.12 18.052 253.19 20.209 255.055 21.6153L255.106 21.6537L255.055 21.6921C253.157 23.1495 252.068 25.3284 252.068 27.6662V29.7081H255.003V27.6662C255.003 25.1604 257.031 23.1221 259.522 23.1221C262.013 23.1221 264.04 25.1604 264.04 27.6662V29.7081H266.95V27.6662C266.95 25.3193 265.88 23.1514 264.015 21.7195L263.964 21.6811L264.015 21.6427C265.885 20.2328 267.001 18.01 267.001 15.696L266.999 15.6941Z" fill="white"/>
<path d="M184.542 20.4318V29.6569H187.442V20.4318C187.442 18.956 188.655 17.7543 190.147 17.7543H197.966V14.8284H190.147C187.057 14.8284 184.544 17.3415 184.544 20.4318H184.542Z" fill="white"/>
<path d="M192.639 20.7791H191.07C190.696 20.7791 190.393 21.0859 190.393 21.4621V23.0237C190.393 23.3999 190.698 23.7068 191.07 23.7068H192.639C193.013 23.7068 193.317 23.3999 193.317 23.0237V21.4621C193.317 21.0859 193.012 20.7791 192.639 20.7791Z" fill="#EB5D2A"/>
<path d="M217.937 16.37C217.937 18.8521 215.917 20.8721 213.435 20.8721C210.953 20.8721 208.907 18.8521 208.907 16.37V14.856H206.007V16.37C206.007 20.4521 209.338 23.7706 213.435 23.7706C217.531 23.7706 220.835 20.4502 220.835 16.37V14.856H217.935V16.37H217.937Z" fill="white"/>
<path d="M214.206 26.7058H212.638C212.263 26.7058 211.96 27.0126 211.96 27.3889V28.9505C211.96 29.3267 212.265 29.6335 212.638 29.6335H214.206C214.581 29.6335 214.884 29.3267 214.884 28.9505V27.3889C214.884 27.0126 214.579 26.7058 214.206 26.7058Z" fill="#EB5D2A"/>
<path d="M132.86 14.854H131.291C130.916 14.854 130.613 15.1608 130.613 15.5371V17.0987C130.613 17.4749 130.918 17.7817 131.291 17.7817H132.86C133.234 17.7817 133.537 17.4749 133.537 17.0987V15.5371C133.537 15.1608 133.232 14.854 132.86 14.854Z" fill="#EB5D2A"/>
<path d="M138.43 14.854H136.465V17.7543H138.43C139.921 17.7543 141.133 18.9561 141.133 20.4318C141.133 21.9076 139.921 23.1367 138.43 23.1367H130.613V29.657H133.539V26.0371H138.432C141.522 26.0371 144.036 23.5239 144.036 20.4337C144.036 17.3434 141.522 14.8558 138.432 14.8558L138.43 14.854Z" fill="white"/>
</g>
<defs>
<clipPath id="clip0_163_1641">
<rect width="267" height="44.4839" fill="white"/>
</clipPath>
</defs>
</svg>
