<svg width="48" height="48" viewBox="0 0 378 378" fill="none" xmlns="http://www.w3.org/2000/svg">
<path d="M350.338 57.14L375.708 29.6C377.728 27.41 378.218 24.47 377.018 21.73C375.818 18.99 373.318 17.35 370.348 17.35H278.458V7.3C278.448 3.28 275.178 0 271.148 0C267.118 0 263.848 3.27 263.848 7.3V143.11H219.078C215.058 143.11 211.778 146.38 211.778 150.41V231.45H114.938C110.918 231.45 107.638 234.72 107.638 238.75V294.72H10.8078C6.78781 294.72 3.50781 297.99 3.50781 302.02V370.35C3.50781 374.37 6.77781 377.65 10.8078 377.65H325.138C329.158 377.65 332.438 374.38 332.438 370.35V150.41C332.438 146.39 329.168 143.11 325.138 143.11H278.448V94.68H370.338C373.378 94.68 375.898 92.99 377.068 90.16C378.238 87.33 377.648 84.36 375.488 82.21L350.328 57.13L350.338 57.14ZM107.648 363.05H18.1078V309.31H107.648V363.05ZM211.788 363.05H122.248V246.04H211.788V363.05ZM317.838 157.71V363.05H226.378V157.71H317.838ZM278.448 80.09V31.95H353.698L334.848 52.41C332.178 55.3 332.278 59.75 335.068 62.52L352.688 80.09H278.458H278.448Z" fill="black"/>
<path d="M204.388 84.7399L185.828 47.2999C184.348 44.3199 181.048 42.7199 177.788 43.3999L137.608 51.8599C135.698 52.2599 134.068 53.3799 132.998 55.0099C131.928 56.6399 131.568 58.5899 131.968 60.4999C132.678 63.8599 135.678 66.2999 139.098 66.2999H139.268C139.908 66.2999 140.368 66.2099 149.078 64.3699L166.888 60.6099L163.088 68.0599C148.088 97.4999 128.488 124.42 104.838 148.08C75.7678 177.15 41.9978 199.94 4.45781 215.81C0.747813 217.38 -0.992187 221.67 0.577813 225.37C1.33781 227.17 2.74781 228.56 4.55781 229.29C6.36781 230.02 8.34781 230.01 10.1378 229.25C49.4178 212.64 84.7478 188.8 115.148 158.39C139.868 133.67 160.358 105.54 176.038 74.7899L179.648 67.6999L191.308 91.2099C193.098 94.8199 197.478 96.2899 201.088 94.5099C202.838 93.6399 204.138 92.1499 204.758 90.2999C205.378 88.4499 205.248 86.4699 204.378 84.7299L204.388 84.7399Z" fill="black"/>
</svg>
