<svg width="48" height="48" viewBox="0 0 378 364" fill="none" xmlns="http://www.w3.org/2000/svg">
<path d="M179.658 67.7201L191.318 91.2301C193.108 94.8401 197.488 96.3101 201.098 94.5301C202.848 93.6601 204.148 92.1701 204.768 90.3201C205.388 88.4701 205.258 86.4901 204.388 84.7501L185.828 47.3101C184.348 44.3301 181.048 42.7301 177.788 43.4101L137.608 51.8701C135.698 52.2701 134.068 53.3901 132.998 55.0201C131.928 56.6501 131.568 58.6001 131.968 60.5101C132.678 63.8701 135.678 66.3101 139.098 66.3101H139.268C139.908 66.3101 140.368 66.2201 149.078 64.3801L166.888 60.6201L163.088 68.0701C148.088 97.5101 128.488 124.43 104.838 148.09C75.7678 177.16 41.9978 199.95 4.45782 215.82C0.747817 217.39 -0.992188 221.68 0.577812 225.38C1.33781 227.18 2.74785 228.57 4.55785 229.3C6.36785 230.03 8.34787 230.02 10.1379 229.26C49.4179 212.65 84.7478 188.81 115.148 158.4C139.868 133.68 160.358 105.55 176.038 74.8001L179.648 67.7101L179.658 67.7201Z" fill="black"/>
<path d="M100.307 309.32H25.4474C21.3974 309.32 18.1074 312.61 18.1074 316.66V363.05H107.647V316.66C107.647 312.61 104.357 309.32 100.307 309.32Z" fill="black"/>
<path d="M204.448 246.05H129.588C125.538 246.05 122.248 249.34 122.248 253.39V363.05H211.788V253.39C211.788 249.34 208.498 246.05 204.448 246.05Z" fill="black"/>
<path d="M350.328 57.14L375.698 29.6C377.718 27.41 378.208 24.47 377.008 21.73C375.808 18.99 373.308 17.36 370.338 17.36H278.438V7.3C278.438 3.28 275.168 0 271.148 0C267.128 0 263.848 3.28 263.848 7.3V157.71H233.718C229.668 157.71 226.378 161 226.378 165.05V363.05H317.828V165.05C317.828 161 314.538 157.71 310.488 157.71H278.438V94.69H370.338C373.378 94.69 375.898 93 377.068 90.17C378.238 87.34 377.648 84.37 375.488 82.22L350.328 57.14Z" fill="black"/>
</svg>
