<svg width="47" height="47" viewBox="0 0 47 47" fill="none" xmlns="http://www.w3.org/2000/svg">
<rect width="47" height="46.9988" rx="23.4994" fill="white"/>
<path d="M36.2016 18.5876L21.6388 33.1652C21.1643 33.6397 20.6156 33.9957 20.0372 34.2403C20.0224 34.2552 20.015 34.2626 19.9853 34.2774C19.9186 34.2997 19.8593 34.3293 19.7925 34.3442C19.7703 34.359 19.7406 34.3664 19.7258 34.3664C19.6591 34.3886 19.5998 34.4183 19.533 34.4405C19.5108 34.4405 19.496 34.4554 19.4663 34.4554C17.9018 34.9299 16.1741 34.6333 14.8246 33.5953C14.8098 33.5804 14.7875 33.573 14.7727 33.5582C14.7208 33.5211 14.6837 33.484 14.6466 33.4395C14.5799 33.3876 14.5206 33.3357 14.4539 33.2764C14.402 33.2393 14.3649 33.2023 14.3278 33.1578L12.9561 31.786L14.8394 29.9175H14.8543L15.7663 28.998L16.2779 29.5097C16.8933 30.1103 17.7016 30.4439 18.5617 30.4439C19.4218 30.4439 20.23 30.1103 20.8306 29.5097L21.2014 29.1389L18.406 26.3584L31.2262 13.5232C31.9158 12.8411 32.813 12.5 33.7102 12.5C34.6074 12.5 35.5194 12.8485 36.1942 13.5232C37.603 14.9321 37.603 17.1936 36.1942 18.5876H36.2016Z" fill="#344966"/>
<path d="M20.4829 29.1389L20.4681 29.1612C19.4152 30.2141 17.7023 30.2141 16.6346 29.1612L15.7522 28.2788L15.5891 28.4419L15.4111 28.6347L14.4917 29.5467L12.6454 31.393L10.4506 29.1982C9.1011 27.8413 9.1011 25.6317 10.4506 24.2748C11.8891 22.8511 14.1951 22.8511 15.6188 24.2748L16.3602 25.0163L16.5234 25.1942L16.7013 25.3573H16.7162L20.4829 29.1241V29.1389Z" fill="#68A5FF"/>
</svg>
