<svg width="48" height="48" viewBox="0 0 470 470" fill="none" xmlns="http://www.w3.org/2000/svg">
<path d="M235 0.333008C188.588 0.333008 143.217 14.096 104.626 39.8815C66.0357 65.667 35.9579 102.317 18.1965 145.197C0.435174 188.076 -4.21201 235.26 4.84266 280.781C13.8973 326.302 36.2472 368.115 69.0659 400.934C101.885 433.753 143.698 456.103 189.219 465.157C234.74 474.212 281.924 469.565 324.803 451.803C367.683 434.042 404.333 403.964 430.118 365.373C455.904 326.783 469.667 281.412 469.667 235C469.667 172.762 444.943 113.074 400.935 69.0653C356.926 25.0568 297.238 0.333008 235 0.333008ZM139.608 44.3863L152.334 53.2183C155.148 55.1793 157.429 57.8117 158.968 60.877L162.168 67.277C163.866 70.6784 166.478 73.5392 169.711 75.5384C172.944 77.5375 176.671 78.5958 180.472 78.5943H203.224C208.653 78.5943 213.86 80.7509 217.698 84.5897C221.537 88.4284 223.694 93.6349 223.694 99.0637V99.469C223.696 103.271 222.639 106.998 220.639 110.231C218.64 113.465 215.778 116.077 212.376 117.773L157.795 145.08C157.031 145.452 156.293 145.876 155.587 146.349L127.651 164.973C124.686 166.953 122.286 169.67 120.686 172.856L116.536 181.197C115.102 184.033 114.355 187.166 114.355 190.344C114.355 193.521 115.102 196.655 116.536 199.49C118.454 203.336 119.115 207.688 118.424 211.93C117.733 216.172 115.725 220.089 112.686 223.128L112.078 223.746C108.85 226.974 104.636 229.03 100.105 229.587C95.5745 230.143 90.9879 229.169 87.0749 226.818L51.3736 205.378C47.1858 202.861 44.0347 198.931 42.4883 194.296L33.7096 167.949C33.3043 167.949 33.0163 167.821 32.6429 167.81C50.5465 114.127 89.0154 69.7392 139.608 44.3863ZM257.198 310.978C257.199 312.461 256.961 313.934 256.494 315.341L247.054 343.65C246.38 345.684 245.24 347.532 243.726 349.048L226.659 366.114C224.728 368.041 223.413 370.499 222.883 373.176L213.848 418.317C213.43 420.372 212.549 422.305 211.272 423.969C209.995 425.632 208.355 426.983 206.478 427.917L199.075 431.629C196.479 432.917 193.545 433.36 190.685 432.895C187.825 432.43 185.182 431.081 183.128 429.037L169.411 415.32C168.363 414.266 167.488 413.052 166.819 411.725L158.104 394.296C157.153 392.376 156.656 390.262 156.654 388.12V344.109C156.649 341.544 155.932 339.03 154.584 336.847C153.236 334.665 151.308 332.899 149.016 331.746L137.582 326.04C135.424 324.969 133.585 323.351 132.248 321.346L114.254 294.349C112.738 292.082 111.929 289.417 111.928 286.69V277.09C111.935 274.527 112.652 272.015 114.001 269.835C115.349 267.654 117.275 265.89 119.566 264.738L130.158 259.405C132.833 258.073 135.002 255.905 136.334 253.229L141.667 242.637C142.816 240.351 144.575 238.428 146.75 237.08C148.924 235.732 151.429 235.012 153.987 235H173.251C175.065 234.998 176.862 235.355 178.539 236.048C180.215 236.742 181.739 237.759 183.022 239.042L186.104 242.125C188.698 244.714 192.21 246.171 195.875 246.178H198.734C202.402 246.192 205.915 247.66 208.504 250.259C211.093 252.858 212.547 256.377 212.547 260.045C212.553 262.608 213.268 265.118 214.615 267.299C215.961 269.479 217.885 271.244 220.174 272.397L249.614 287.106C251.904 288.26 253.829 290.027 255.175 292.209C256.522 294.392 257.236 296.905 257.24 299.469L257.198 310.978ZM313.411 108.216C314.363 105.911 315.758 103.817 317.518 102.05L336.622 82.957C338.061 81.5187 339.721 80.3196 341.539 79.405L361.592 69.3783C363.344 68.5427 365.215 67.9849 367.139 67.725C390.174 85.8853 409.228 108.588 423.118 134.424H413.688C408.661 134.424 403.838 132.429 400.28 128.877L397.976 126.573C394.419 123.018 389.597 121.019 384.568 121.016H370.083C367.121 121.007 364.198 121.694 361.55 123.021L342.755 132.429C340.105 133.751 337.183 134.434 334.222 134.424H330.84C327.724 134.421 324.656 133.651 321.908 132.182C319.16 130.712 316.817 128.587 315.085 125.996C313.354 123.405 312.287 120.427 311.98 117.326C311.673 114.225 312.135 111.096 313.326 108.216H313.411ZM393.827 377.069L392.44 373.666C391.684 371.385 391.299 368.998 391.299 366.594V341.965C391.298 338.496 390.491 335.074 388.942 331.97L371.299 296.706C369.75 293.602 368.943 290.181 368.942 286.712V283.448C368.941 279.64 367.968 275.895 366.113 272.569C364.259 269.243 361.586 266.446 358.347 264.444C355.108 262.441 351.411 261.299 347.607 261.127C343.803 260.954 340.018 261.757 336.611 263.458L328.963 267.288C325.862 268.835 322.444 269.642 318.979 269.645H318.008C313.317 269.637 308.747 268.156 304.942 265.412C301.138 262.668 298.291 258.798 296.803 254.349L291.875 239.554C291.114 237.274 290.725 234.886 290.723 232.482V214.552C290.722 210.873 291.63 207.251 293.367 204.007C295.103 200.764 297.613 197.999 300.675 195.96L321.027 182.392C323.157 180.97 325.517 179.927 328.003 179.309L362.627 170.648C366.755 169.617 371.091 169.784 375.128 171.128L399.022 179.096C401.306 179.856 403.697 180.245 406.104 180.248H440.974C450.231 214.378 450.766 250.287 442.528 284.677C434.29 319.068 417.544 350.837 393.827 377.069Z" fill="black"/>
</svg>
