<svg width="48" height="48" viewBox="0 0 472 472" fill="none" xmlns="http://www.w3.org/2000/svg">
<path d="M401.934 70.0662C380.16 48.1991 354.287 30.8413 325.796 18.9864C297.305 7.13161 266.755 1.01256 235.896 0.979626C205.038 0.946688 174.475 7.0005 145.959 18.7945C117.442 30.5885 91.5323 47.891 69.7116 69.7116C47.891 91.5322 30.5883 117.442 18.7943 145.959C7.0002 174.475 0.946292 205.037 0.979137 235.896C1.01198 266.755 7.13093 297.305 18.9857 325.796C30.8404 354.287 48.1982 380.16 70.0652 401.934C91.8392 423.801 117.712 441.159 146.203 453.014C174.695 464.869 205.244 470.988 236.103 471.021C266.962 471.054 297.524 465 326.041 453.206C354.557 441.412 380.467 424.109 402.288 402.289C424.108 380.468 441.411 354.558 453.205 326.042C464.999 297.526 471.053 266.963 471.02 236.104C470.987 205.245 464.869 174.696 453.014 146.205C441.159 117.713 423.801 91.8403 401.934 70.0662ZM420.7 129.333H406.566C404.595 129.328 402.706 128.545 401.309 127.155L399.109 124.955C393.702 119.579 386.392 116.552 378.767 116.53H364.944C360.474 116.534 356.065 117.574 352.063 119.567L334.14 128.539C333.1 129.06 331.953 129.331 330.79 129.329H327.569C325.598 129.327 323.708 128.543 322.315 127.149C320.921 125.755 320.137 123.865 320.134 121.894C320.134 120.918 320.327 119.951 320.7 119.049C321.074 118.147 321.622 117.327 322.312 116.637L340.542 98.4062C341.103 97.8436 341.751 97.3737 342.459 97.0142L361.608 87.4452C362.645 86.9303 363.787 86.6623 364.944 86.6622H388.19C400.769 99.4705 411.691 113.806 420.7 129.333ZM125.534 53.5532L151.009 71.2462C152.23 72.0963 153.218 73.2388 153.883 74.5692L156.916 80.6242C159.407 85.6567 163.258 89.8901 168.034 92.8435C172.809 95.7969 178.317 97.352 183.932 97.3322H205.649C208.002 97.3349 210.258 98.2706 211.922 99.9342C213.585 101.598 214.521 103.853 214.524 106.206V106.59C214.53 108.239 214.073 109.857 213.205 111.259C212.337 112.661 211.093 113.791 209.615 114.522L157.509 140.58C156.388 141.14 155.303 141.768 154.26 142.462L127.586 160.248C123.216 163.171 119.679 167.178 117.321 171.877L113.356 179.825C111.256 184.017 110.163 188.64 110.163 193.329C110.163 198.017 111.256 202.641 113.356 206.832C114.19 208.501 114.478 210.389 114.178 212.23C113.878 214.071 113.005 215.771 111.684 217.088L111.102 217.671C109.705 219.073 107.878 219.967 105.914 220.208C103.949 220.448 101.961 220.023 100.266 219L66.2082 198.577C64.3921 197.485 63.027 195.779 62.3602 193.767L53.9762 168.626C53.2681 166.503 51.9098 164.656 50.0937 163.347C48.2776 162.038 46.0958 161.334 43.8572 161.334C41.3974 161.41 38.9567 160.88 36.7502 159.79C53.7926 115.54 85.0134 78.182 125.534 53.5532ZM22.6662 236C22.6583 217.154 25.1535 198.39 30.0862 180.2C31.9756 180.942 33.9269 181.515 35.9172 181.912L42.1172 200.512C44.3942 207.358 49.0465 213.164 55.2322 216.877L89.2812 237.297C95.0532 240.776 101.825 242.22 108.514 241.398C115.203 240.576 121.423 237.535 126.181 232.762L126.764 232.179C131.253 227.699 134.216 221.918 135.233 215.658C136.25 209.399 135.27 202.977 132.431 197.306C131.81 196.075 131.487 194.714 131.488 193.335C131.489 191.956 131.814 190.596 132.436 189.365L136.393 181.43C137.09 180.045 138.133 178.864 139.421 178.001L166.087 160.22C166.394 160.017 166.713 159.833 167.042 159.669L219.142 133.614C224.174 131.123 228.407 127.272 231.36 122.496C234.314 117.721 235.869 112.213 235.849 106.598V106.214C235.842 98.2057 232.658 90.527 226.997 84.8628C221.335 79.1986 213.658 76.0113 205.649 76.0002H183.932C182.283 76.0048 180.665 75.5465 179.263 74.6775C177.86 73.8085 176.73 72.5636 176 71.0842L172.964 65.0222C170.699 60.4976 167.336 56.6126 163.183 53.7222L146.7 42.2822C181.615 26.161 220.243 19.7945 258.485 23.8584C296.726 27.9224 333.154 42.2652 363.9 65.3642C359.789 65.5117 355.757 66.5345 352.072 68.3642L332.9 77.9492C330.149 79.3333 327.637 81.1489 325.46 83.3272L307.232 101.555C304.56 104.227 302.439 107.398 300.992 110.889C299.546 114.38 298.801 118.121 298.8 121.9C298.809 129.528 301.842 136.84 307.236 142.233C312.629 147.626 319.942 150.66 327.569 150.668H330.79C335.26 150.661 339.669 149.622 343.671 147.631L361.607 138.652C362.644 138.137 363.786 137.869 364.943 137.869H378.768C380.739 137.875 382.628 138.658 384.025 140.047L386.225 142.247C391.632 147.625 398.942 150.653 406.568 150.674H431.5C434.705 157.978 437.494 165.456 439.854 173.074H399.324C398.176 173.074 397.035 172.888 395.945 172.523L373.12 164.914C367.347 162.992 361.146 162.755 355.243 164.23L322.167 172.502C318.617 173.391 315.247 174.883 312.202 176.913L292.782 189.86C288.392 192.777 284.793 196.735 282.305 201.381C279.817 206.027 278.518 211.217 278.524 216.487V233.6C278.524 237.041 279.08 240.46 280.17 243.723L284.87 257.844C286.987 264.222 291.061 269.771 296.513 273.701C301.964 277.63 308.516 279.742 315.236 279.734H316.154C321.12 279.732 326.017 278.576 330.459 276.357L337.759 272.709C339.386 271.897 341.192 271.514 343.008 271.596C344.824 271.679 346.589 272.224 348.135 273.18C349.681 274.136 350.958 275.471 351.843 277.059C352.728 278.647 353.192 280.434 353.192 282.252V285.367C353.195 290.333 354.351 295.23 356.569 299.672L373.409 333.353C374.144 334.828 374.527 336.454 374.526 338.102V361.602C374.526 365.045 375.082 368.465 376.173 371.73C376.24 371.938 376.316 372.145 376.401 372.349L383.517 389.968C343.875 428.094 291.001 449.372 236 449.333C118.367 449.333 22.6662 353.632 22.6662 236ZM399.58 372.777L396.325 364.716C396.015 363.707 395.858 362.656 395.857 361.6V338.1C395.854 333.136 394.698 328.241 392.48 323.8L375.64 290.119C374.905 288.644 374.523 287.018 374.523 285.37V282.255C374.543 276.307 372.895 270.473 369.768 265.414C366.641 260.355 362.158 256.273 356.829 253.631C352.387 251.411 347.489 250.255 342.523 250.255C337.556 250.255 332.658 251.411 328.216 253.631L320.904 257.287C319.429 258.022 317.803 258.405 316.155 258.404H315.237C312.996 258.407 310.811 257.703 308.994 256.392C307.176 255.082 305.818 253.231 305.112 251.104L300.407 236.976C300.043 235.888 299.857 234.748 299.856 233.6V216.48C299.855 214.724 300.288 212.994 301.117 211.445C301.947 209.897 303.147 208.578 304.61 207.606L324.046 194.649C325.059 193.976 326.181 193.481 327.361 193.186L360.409 184.921C362.381 184.429 364.453 184.508 366.382 185.149L389.199 192.755C392.463 193.845 395.882 194.4 399.323 194.4H445.248C451.457 225.655 450.578 257.905 442.674 288.776C434.771 319.646 420.045 348.351 399.58 372.777Z" fill="black"/>
</svg>
