<svg width="18" height="18" viewBox="0 0 18 18" fill="none" xmlns="http://www.w3.org/2000/svg">
<path d="M16.7484 10.3936C16.7484 6.5383 13.623 3.41296 9.76773 3.41296C5.91244 3.41296 2.78711 6.5383 2.78711 10.3936C2.78711 14.2489 5.91244 17.3742 9.76773 17.3742C13.623 17.3742 16.7484 14.2489 16.7484 10.3936Z" fill="url(#paint0_linear_135_122)"/>
<path d="M7.92703 3.6678L0 0.625732L3.04207 8.55276C3.04207 8.55276 4.44164 4.71476 7.92703 3.6678Z" fill="url(#paint1_linear_135_122)"/>
<path d="M6.77895 3.2273C6.47098 3.42805 5.31574 4.20078 4.44527 5.07125C3.5748 5.94172 2.80242 7.0973 2.60168 7.40527L2.13867 6.19906C3.02182 4.81951 4.19353 3.64779 5.57309 2.76465L6.77895 3.2273Z" fill="white"/>
<path d="M2.23215 1.48319C1.98605 1.68886 1.73996 1.90964 1.51074 2.13745C1.28152 2.36526 1.06215 2.61276 0.856133 2.85921L0.412109 1.70116C0.514766 1.58819 0.622578 1.47522 0.735547 1.36226C0.848516 1.24929 0.961484 1.14147 1.07445 1.03882L2.23215 1.48319Z" fill="white"/>
<path d="M4.47355 2.34285C4.01266 2.68281 3.45402 3.1293 2.97766 3.60461C2.50129 4.07992 2.05586 4.63961 1.7166 5.10121L1.25781 3.9059C1.84038 3.14694 2.51973 2.46746 3.27859 1.88477L4.47355 2.34285Z" fill="white"/>
<path d="M13.9344 6.95001C13.9425 6.90783 13.8992 6.83154 13.8992 6.83154C13.8992 6.83154 13.4454 6.26904 12.7936 6.00607C12.1418 5.7431 11.6703 5.75224 11.3342 5.88935C10.9865 6.02997 10.5643 6.35904 10.7717 6.8688C10.8807 7.13564 11.1296 7.02454 11.4024 6.95634C11.6752 6.88814 12.5049 6.59037 13.7491 7.00029C13.8841 7.04423 13.9249 6.99923 13.9344 6.95001Z" fill="#1E1E1E"/>
<path d="M5.60257 6.95001C5.59448 6.90783 5.63773 6.83154 5.63773 6.83154C5.63773 6.83154 6.09159 6.26904 6.74339 6.00607C7.39519 5.7431 7.86663 5.75224 8.20273 5.88935C8.55042 6.02997 8.97265 6.35904 8.76523 6.8688C8.65624 7.13564 8.40734 7.02454 8.13487 6.95634C7.86241 6.88814 7.03202 6.59037 5.78784 7.00029C5.65284 7.04423 5.61206 6.99923 5.60257 6.95001Z" fill="#1E1E1E"/>
<path d="M10.5979 14.8264C10.0614 14.8264 9.56465 14.5704 9.33227 14.1739L9.14453 13.8529L9.49609 13.971C9.50137 13.971 10.0389 14.1514 10.44 14.1514C10.787 14.1514 10.787 14.0269 10.787 13.9802C10.787 13.4356 10.4731 13.3635 10.4597 13.3607L9.99109 13.2236L10.4622 13.0858C10.4731 13.0833 10.787 13.0113 10.787 12.4667C10.787 12.4199 10.787 12.2958 10.44 12.2958C10.0386 12.2958 9.50137 12.4741 9.49609 12.4758L9.14453 12.5936L9.33227 12.273C9.56395 11.8768 10.0604 11.6205 10.5979 11.6205C11.1977 11.6205 11.6005 11.9369 11.6005 12.4052C11.6005 12.858 11.4546 13.0974 11.2929 13.2236C11.4546 13.3498 11.6005 13.5892 11.6005 14.042C11.6009 14.5124 11.1973 14.8264 10.5979 14.8264Z" fill="#EF790F"/>
<path d="M11.4602 14.0422C11.4602 14.88 9.92035 14.9028 9.45312 14.1037C9.45312 14.1037 10.9279 14.5984 10.9279 13.9803C10.9279 13.3007 10.4874 13.2234 10.4874 13.2234C10.4874 13.2234 10.9279 13.1464 10.9279 12.4668C10.9279 11.8491 9.45312 12.3434 9.45312 12.3434C9.92035 11.5443 11.4602 11.5679 11.4602 12.4053C11.4602 13.2237 10.9459 13.2234 10.8893 13.2234C10.9462 13.2234 11.4602 13.2237 11.4602 14.0422Z" fill="#1E1E1E"/>
<path d="M12.3946 8.23364C12.3946 8.23364 11.8015 8.47165 11.3399 9.11993C11.3399 9.11993 12.435 8.42067 13.4345 8.63478C13.4345 8.63478 12.2649 8.95716 11.9931 9.19974C11.9931 9.19974 13.1434 9.07071 13.7035 9.41067C13.7035 9.41067 12.0641 9.41735 10.7992 9.82165C10.7757 9.82936 10.7505 9.83043 10.7264 9.82474C10.7024 9.81904 10.6803 9.80682 10.6628 9.7894C10.6452 9.77198 10.6328 9.75005 10.6269 9.72603C10.621 9.702 10.6219 9.67682 10.6294 9.65325C10.7647 9.22856 11.1803 8.39536 12.3946 8.23364Z" fill="#1E1E1E"/>
<path d="M7.13895 8.23364C7.13895 8.23364 7.73203 8.47165 8.19363 9.11993C8.19363 9.11993 7.09852 8.42067 6.09902 8.63478C6.09902 8.63478 7.26867 8.95716 7.54043 9.19974C7.54043 9.19974 6.39012 9.07071 5.83008 9.41067C5.83008 9.41067 7.46941 9.41735 8.73434 9.82165C8.75784 9.82936 8.78302 9.83043 8.80709 9.82474C8.83116 9.81904 8.85319 9.80682 8.87075 9.7894C8.88832 9.77198 8.90073 9.75005 8.90662 9.72603C8.91251 9.702 8.91165 9.67682 8.90414 9.65325C8.76879 9.22856 8.35324 8.39536 7.13895 8.23364Z" fill="#1E1E1E"/>
<path d="M17.9971 11.4919C17.9862 10.4628 16.8369 9.64475 15.8743 10.0628C15.1259 10.3619 14.8017 11.462 15.4391 12.0266C15.996 12.5697 17.0211 12.2579 17 11.4289C17 10.7065 15.8947 10.4611 15.7429 11.2331C15.6465 11.6652 16.2407 12.0065 16.5198 11.6286C16.582 11.5421 16.6566 11.3266 16.4991 11.3038C16.375 11.2985 16.4161 11.4444 16.3584 11.5094C16.2301 11.6729 15.9587 11.5284 15.9675 11.3382C15.9907 10.8232 16.7364 10.9775 16.7128 11.4335C16.582 12.4488 15.1519 11.8926 15.5354 10.9631C15.8023 10.2322 16.8127 10.2459 17.2409 10.8225C17.9218 11.6849 16.9318 12.9357 16.0223 12.9357C15.1129 12.9357 13.084 12.9357 13.084 12.9357V13.5527C13.084 13.5527 15.013 13.551 16.0223 13.551C17.0317 13.551 18.0639 12.5789 17.9971 11.4919Z" fill="#993AA6"/>
<path opacity="0.75" d="M13.9492 12.934C13.9453 13.0199 13.9084 13.101 13.8462 13.1604C13.784 13.2198 13.7013 13.253 13.6152 13.253C13.5292 13.253 13.4465 13.2198 13.3843 13.1604C13.3221 13.101 13.2852 13.0199 13.2812 12.934H13.9492Z" fill="white"/>
<path opacity="0.35" d="M14.6191 13.5496H13.9512C13.9567 13.4647 13.9943 13.3852 14.0563 13.3271C14.1183 13.2689 14.2001 13.2366 14.2852 13.2366C14.3702 13.2366 14.452 13.2689 14.514 13.3271C14.5761 13.3852 14.6136 13.4647 14.6191 13.5496Z" fill="white"/>
<path opacity="0.5" d="M15.4336 12.9347C15.4297 13.0206 15.3927 13.1017 15.3305 13.1611C15.2683 13.2205 15.1856 13.2537 15.0996 13.2537C15.0136 13.2537 14.9309 13.2205 14.8687 13.1611C14.8065 13.1017 14.7696 13.0206 14.7656 12.9347H15.4336Z" fill="white"/>
<path opacity="0.75" d="M16.405 13.5035C16.2794 13.5334 16.1507 13.5486 16.0215 13.5489H15.7402C15.7404 13.4641 15.7726 13.3826 15.8305 13.3207C15.8884 13.2589 15.9677 13.2212 16.0522 13.2155C16.1367 13.2097 16.2203 13.2363 16.286 13.2897C16.3518 13.3432 16.3948 13.4196 16.4064 13.5035H16.405Z" fill="white"/>
<path opacity="0.35" d="M17.978 11.8568C17.9412 12.0786 17.8643 12.2919 17.7509 12.4861C17.6764 12.4599 17.6136 12.4082 17.5736 12.3401C17.5335 12.2721 17.5188 12.192 17.5321 12.1142C17.5453 12.0364 17.5857 11.9657 17.646 11.9148C17.7063 11.8638 17.7827 11.8358 17.8617 11.8357C17.9014 11.8357 17.9408 11.8428 17.978 11.8568Z" fill="white"/>
<path opacity="0.5" d="M17.7454 11.3337C17.7455 11.4164 17.7149 11.4961 17.6597 11.5576C17.6044 11.6191 17.5284 11.6579 17.4462 11.6666C17.49 11.4418 17.4581 11.2087 17.3555 11.0039C17.3738 11.0007 17.3924 10.999 17.411 10.999C17.455 10.999 17.4985 11.0077 17.539 11.0245C17.5796 11.0413 17.6165 11.066 17.6476 11.0971C17.6786 11.1282 17.7032 11.1651 17.72 11.2057C17.7368 11.2463 17.7454 11.2898 17.7454 11.3337Z" fill="white"/>
<path opacity="0.35" d="M17.4887 10.394C17.4345 10.4327 17.3701 10.4543 17.3035 10.4561C17.237 10.4579 17.1715 10.4398 17.1153 10.404C17.0592 10.3682 17.015 10.3165 16.9885 10.2555C16.962 10.1944 16.9544 10.1268 16.9666 10.0614C17.1597 10.1389 17.3368 10.2517 17.4887 10.394Z" fill="white"/>
<path opacity="0.5" d="M16.4806 10.7821C16.409 10.7977 16.3342 10.7896 16.2676 10.7589C16.3394 10.7553 16.4113 10.7631 16.4806 10.7821Z" fill="white"/>
<path opacity="0.8" d="M16.7422 10.4554C16.7424 10.458 16.7424 10.4606 16.7422 10.4631C16.527 10.3866 16.293 10.3806 16.0742 10.4463C16.0808 10.3614 16.1194 10.2822 16.1822 10.2249C16.2451 10.1675 16.3274 10.1362 16.4125 10.1374C16.4976 10.1385 16.579 10.1721 16.6403 10.2311C16.7015 10.2902 16.738 10.3704 16.7422 10.4554Z" fill="white"/>
<path opacity="0.75" d="M15.6344 10.3666C15.6344 10.4554 15.5991 10.5405 15.5363 10.6032C15.4736 10.666 15.3885 10.7013 15.2997 10.7013C15.2751 10.7011 15.2506 10.6984 15.2266 10.6932C15.3125 10.5084 15.4408 10.3464 15.601 10.2203C15.623 10.2659 15.6345 10.3159 15.6344 10.3666Z" fill="white"/>
<path opacity="0.25" d="M15.6195 10.7885C15.5842 10.843 15.5553 10.9014 15.5333 10.9625C15.4693 11.1074 15.4523 11.2687 15.4848 11.4237C15.4177 11.391 15.3635 11.3368 15.3308 11.2697C15.298 11.2026 15.2887 11.1265 15.3041 11.0535C15.3196 10.9805 15.3591 10.9148 15.4162 10.8667C15.4733 10.8187 15.5449 10.7911 15.6195 10.7885Z" fill="white"/>
<path opacity="0.5" d="M15.9657 11.1227C15.9657 11.1915 15.9445 11.2585 15.9051 11.3148C15.8657 11.3711 15.8099 11.4139 15.7453 11.4374C15.7272 11.3704 15.7256 11.3001 15.7407 11.2324C15.7607 11.1149 15.8147 11.0059 15.8961 10.9188C15.9415 10.9771 15.9661 11.0489 15.9657 11.1227Z" fill="white"/>
<path d="M15.7709 12.1219C15.7706 12.1577 15.7647 12.1933 15.7533 12.2273C15.636 12.1812 15.5292 12.1121 15.439 12.0241C15.3743 11.9672 15.3174 11.9021 15.2695 11.8304C15.3201 11.801 15.3776 11.7856 15.4362 11.7858C15.4802 11.7858 15.5239 11.7945 15.5646 11.8114C15.6053 11.8283 15.6422 11.8531 15.6733 11.8843C15.7044 11.9155 15.7291 11.9526 15.7458 11.9934C15.7625 12.0341 15.771 12.0778 15.7709 12.1219Z" fill="white"/>
<path opacity="0.25" d="M16.9576 11.7236C16.8964 11.9099 16.7687 12.0672 16.599 12.1655C16.5801 12.1116 16.5752 12.0538 16.585 11.9976C16.5948 11.9414 16.6188 11.8886 16.6547 11.8442C16.6907 11.7999 16.7374 11.7656 16.7904 11.7444C16.8434 11.7233 16.901 11.7161 16.9576 11.7236Z" fill="white"/>
<path opacity="0.5" d="M16.5109 11.0672V11.0781C16.457 11.0453 16.3964 11.0252 16.3337 11.0191C16.2709 11.013 16.2076 11.0211 16.1484 11.0429C16.1542 10.9967 16.1774 10.9545 16.2133 10.9249C16.2492 10.8953 16.2951 10.8806 16.3415 10.8837C16.3879 10.8869 16.4314 10.9077 16.4629 10.9418C16.4945 10.976 16.5118 11.021 16.5113 11.0675L16.5109 11.0672Z" fill="white"/>
<path opacity="0.9" d="M16.5371 11.6005C16.5162 11.6087 16.4939 11.6128 16.4714 11.6128C16.4434 11.6129 16.4158 11.6067 16.3906 11.5945C16.3654 11.5823 16.3434 11.5645 16.3262 11.5425C16.3378 11.5329 16.3484 11.5222 16.3578 11.5105C16.4158 11.4451 16.3747 11.2995 16.4984 11.3044C16.6415 11.3234 16.5937 11.5027 16.5371 11.6005Z" fill="white"/>
<path opacity="0.5" d="M17.1088 12.6907C17.1093 12.7729 17.0821 12.8529 17.0316 12.9177C16.981 12.9826 16.9101 13.0285 16.8303 13.0481C16.7504 13.0677 16.6663 13.0598 16.5915 13.0257C16.5167 12.9916 16.4555 12.9333 16.418 12.8601C16.647 12.7723 16.8535 12.6343 17.0223 12.4562C17.0779 12.5217 17.1085 12.6048 17.1088 12.6907Z" fill="white"/>
<path d="M11.2129 12.8795H13.0832V13.6178H11.2129C11.115 13.6178 11.0211 13.5789 10.9519 13.5097C10.8826 13.4405 10.8438 13.3466 10.8438 13.2487C10.8438 13.1508 10.8826 13.0569 10.9519 12.9876C11.0211 12.9184 11.115 12.8795 11.2129 12.8795Z" fill="#634DDB"/>
<path d="M13.0226 12.7135H12.9161C12.8308 12.7135 12.7617 12.7826 12.7617 12.8678V13.6293C12.7617 13.7146 12.8308 13.7837 12.9161 13.7837H13.0226C13.1078 13.7837 13.1769 13.7146 13.1769 13.6293V12.8678C13.1769 12.7826 13.1078 12.7135 13.0226 12.7135Z" fill="url(#paint2_linear_135_122)"/>
<path d="M13.0226 12.7135H12.9161C12.8308 12.7135 12.7617 12.7826 12.7617 12.8678V13.6293C12.7617 13.7146 12.8308 13.7837 12.9161 13.7837H13.0226C13.1078 13.7837 13.1769 13.7146 13.1769 13.6293V12.8678C13.1769 12.7826 13.1078 12.7135 13.0226 12.7135Z" fill="#7062EF"/>
<path d="M15.9126 6.80872L16.5827 7.72383L15.9126 8.63895L15.2422 7.72383L15.9126 6.80872Z" fill="#BB97FF"/>
<path d="M12.0543 3.41296L12.1805 4.54007L11.1441 5.00062L11.0176 3.87351L12.0543 3.41296Z" fill="white"/>
<path d="M12.4379 1.23889L13.4683 1.71315L13.3273 2.8385L12.2969 2.36459L12.4379 1.23889Z" fill="#FFE08E"/>
<path d="M8.46012 2.61597L9.49371 3.08355L9.35977 4.20995L8.32617 3.74237L8.46012 2.61597Z" fill="#2BEF47"/>
<path d="M16.3605 4.34395L15.2363 4.49441L14.7539 3.46785L15.8782 3.31738L16.3605 4.34395Z" fill="#F4424E"/>
<path d="M4.86977 13.8727L4.16207 14.7593L3.10352 14.3519L3.81086 13.4656L4.86977 13.8727Z" fill="#88D5FF"/>
<path d="M14.4454 15.5721L13.7936 16.3888L12.8184 16.0137L13.4702 15.197L14.4454 15.5721Z" fill="white"/>
<defs>
<linearGradient id="paint0_linear_135_122" x1="9.76773" y1="17.3742" x2="9.76773" y2="3.41296" gradientUnits="userSpaceOnUse">
<stop stop-color="#EF790F"/>
<stop offset="0.56" stop-color="#FFDD00"/>
<stop offset="1" stop-color="#FFEC70"/>
</linearGradient>
<linearGradient id="paint1_linear_135_122" x1="0" y1="4.58925" x2="7.92703" y2="4.58925" gradientUnits="userSpaceOnUse">
<stop offset="0.23" stop-color="#0084DB"/>
<stop offset="1" stop-color="#73C6FF"/>
</linearGradient>
<linearGradient id="paint2_linear_135_122" x1="12.9691" y1="13.7837" x2="12.9691" y2="12.7135" gradientUnits="userSpaceOnUse">
<stop stop-color="#211762"/>
<stop offset="0.5" stop-color="#634DDB"/>
<stop offset="1" stop-color="#211762"/>
</linearGradient>
</defs>
</svg>
