<svg width="17" height="16" viewBox="0 0 17 16" fill="none" xmlns="http://www.w3.org/2000/svg">
<path fill-rule="evenodd" clip-rule="evenodd" d="M5.35894 2.98657L13.0545 10.6822C12.1985 11.4524 6.57004 13.3371 1.756 15.0355C1.54194 15.1123 1.3028 15.0589 1.14176 14.8983C0.980723 14.7377 0.926603 14.4985 1.00272 14.2842C2.61576 9.69701 4.62084 3.96601 5.35894 2.98657Z" fill="#4FC8FB"/>
<path fill-rule="evenodd" clip-rule="evenodd" d="M5.35983 2.98665C6.05833 2.28793 8.34985 3.44491 10.4735 5.56857C12.5972 7.69245 13.7542 9.98375 13.0554 10.6822C12.3569 11.3807 10.0656 10.2238 7.94197 8.10011C5.81831 5.97645 4.66133 3.68515 5.35983 2.98665Z" fill="#3356B9"/>
<path fill-rule="evenodd" clip-rule="evenodd" d="M3.96234 6.08911C5.46582 9.46853 8.9691 11.4646 11.2355 11.6045C10.314 11.9864 9.12398 12.4308 7.8053 12.9056C5.94982 11.7568 4.16848 9.78951 3.34766 7.71645C3.5604 7.14181 3.76654 6.59489 3.96234 6.08911Z" fill="#FF5D14"/>
<path fill-rule="evenodd" clip-rule="evenodd" d="M2.32633 10.5367C3.14539 12.0173 4.48893 13.0797 5.75019 13.6357C5.13705 13.851 4.51291 14.0695 3.88877 14.2877C3.08225 13.5947 2.36065 12.7183 1.88281 11.7863C2.03043 11.3692 2.17849 10.9514 2.32633 10.5367Z" fill="#FF5D14"/>
<path fill-rule="evenodd" clip-rule="evenodd" d="M2.75422 11.9339L5.09678 6.46167C5.13264 6.37807 5.09392 6.28083 5.0101 6.24519C4.9265 6.20933 4.82926 6.24805 4.7934 6.33187L2.45084 11.8039C2.41498 11.8877 2.45392 11.9848 2.53752 12.0206C2.62134 12.0565 2.71836 12.0175 2.75422 11.9339Z" fill="white"/>
<path fill-rule="evenodd" clip-rule="evenodd" d="M13.8808 6.88238C13.9136 6.79636 13.9961 6.73938 14.0883 6.73938C14.1803 6.73938 14.263 6.79636 14.2955 6.88238C14.4579 7.30962 14.6563 7.83168 14.6563 7.83168C14.6924 7.9265 14.7481 8.01252 14.82 8.08424C14.8917 8.15596 14.9778 8.21162 15.0726 8.2477C15.0726 8.2477 15.5946 8.44614 16.0217 8.6085C16.1079 8.64128 16.1647 8.72378 16.1647 8.81596C16.1647 8.90814 16.1079 8.99064 16.0217 9.02342C15.5946 9.18578 15.0726 9.384 15.0726 9.384C14.9778 9.42008 14.8917 9.47596 14.82 9.54768C14.7481 9.6194 14.6924 9.70542 14.6563 9.80024C14.6563 9.80024 14.4579 10.3223 14.2955 10.7493C14.263 10.8356 14.1803 10.8923 14.0883 10.8923C13.9961 10.8923 13.9136 10.8356 13.8808 10.7493C13.7185 10.3223 13.52 9.80024 13.52 9.80024C13.484 9.70542 13.4283 9.6194 13.3566 9.54768C13.2849 9.47596 13.1986 9.42008 13.1038 9.384C13.1038 9.384 12.5817 9.18578 12.1547 9.02342C12.0687 8.99064 12.0117 8.90814 12.0117 8.81596C12.0117 8.72378 12.0687 8.64128 12.1547 8.6085C12.5817 8.44614 13.1038 8.2477 13.1038 8.2477C13.1986 8.21162 13.2849 8.15596 13.3566 8.08424C13.4283 8.01252 13.484 7.9265 13.52 7.83168C13.52 7.83168 13.7185 7.30962 13.8808 6.88238Z" fill="#FDBE00"/>
<path fill-rule="evenodd" clip-rule="evenodd" d="M2.08368 5.73171C2.10634 5.67231 2.16332 5.63293 2.2269 5.63293C2.2907 5.63293 2.34768 5.67231 2.37034 5.73171C2.48364 6.02959 2.62268 6.39523 2.62268 6.39523C2.64776 6.46123 2.68648 6.52129 2.73642 6.57123C2.78636 6.62117 2.84642 6.65989 2.91242 6.68497C2.91242 6.68497 3.27806 6.82401 3.57594 6.93731C3.63534 6.95975 3.67472 7.01695 3.67472 7.08053C3.67472 7.14433 3.63534 7.20131 3.57594 7.22397C3.27806 7.33727 2.91242 7.47631 2.91242 7.47631C2.84642 7.50139 2.78636 7.54011 2.73642 7.59005C2.68648 7.63999 2.64776 7.70005 2.62268 7.76605C2.62268 7.76605 2.48364 8.13169 2.37034 8.42957C2.34768 8.48897 2.2907 8.52835 2.2269 8.52835C2.16332 8.52835 2.10634 8.48897 2.08368 8.42957C1.97038 8.13169 1.83134 7.76605 1.83134 7.76605C1.80626 7.70005 1.76754 7.63999 1.7176 7.59005C1.66766 7.54011 1.6076 7.50139 1.5416 7.47631C1.5416 7.47631 1.17596 7.33727 0.878077 7.22397C0.818677 7.20131 0.779297 7.14433 0.779297 7.08053C0.779297 7.01695 0.818677 6.95975 0.878077 6.93731C1.17596 6.82401 1.5416 6.68497 1.5416 6.68497C1.6076 6.65989 1.66766 6.62117 1.7176 6.57123C1.76754 6.52129 1.80626 6.46123 1.83134 6.39523C1.83134 6.39523 1.97038 6.02959 2.08368 5.73171Z" fill="#FDBE00"/>
<path fill-rule="evenodd" clip-rule="evenodd" d="M6.80703 0.412589C6.82331 0.369689 6.86445 0.341309 6.91043 0.341309C6.95619 0.341309 6.99733 0.369689 7.01361 0.412589C7.09523 0.627089 7.19533 0.890649 7.19533 0.890649C7.21337 0.938169 7.24153 0.981509 7.27739 1.01737C7.31347 1.05345 7.35659 1.08139 7.40411 1.09943C7.40411 1.09943 7.66767 1.19953 7.88239 1.28115C7.92529 1.29743 7.95367 1.33857 7.95367 1.38455C7.95367 1.43031 7.92529 1.47145 7.88239 1.48773C7.66767 1.56935 7.40411 1.66945 7.40411 1.66945C7.35659 1.68771 7.31347 1.71565 7.27739 1.75151C7.24153 1.78759 7.21337 1.83071 7.19533 1.87845C7.19533 1.87845 7.09523 2.14179 7.01361 2.35651C6.99733 2.39941 6.95619 2.42779 6.91043 2.42779C6.86445 2.42779 6.82331 2.39941 6.80703 2.35651C6.72541 2.14179 6.62531 1.87845 6.62531 1.87845C6.60727 1.83071 6.57933 1.78759 6.54325 1.75151C6.50717 1.71565 6.46405 1.68771 6.41653 1.66945C6.41653 1.66945 6.15297 1.56935 5.93825 1.48773C5.89535 1.47145 5.86719 1.43031 5.86719 1.38455C5.86719 1.33857 5.89535 1.29743 5.93825 1.28115C6.15297 1.19953 6.41653 1.09943 6.41653 1.09943C6.46405 1.08139 6.50717 1.05345 6.54325 1.01737C6.57933 0.981509 6.60727 0.938169 6.62531 0.890649C6.62531 0.890649 6.72541 0.627089 6.80703 0.412589Z" fill="#FF5D14"/>
<path fill-rule="evenodd" clip-rule="evenodd" d="M2.80507 14.8938C2.80507 14.8938 11.8446 11.6222 12.7266 10.9818C12.8003 10.9281 12.8168 10.8249 12.7634 10.7512C12.7097 10.6775 12.6065 10.6612 12.5328 10.7147C11.6583 11.3496 2.69309 14.5834 2.69309 14.5834C2.60729 14.6144 2.56285 14.709 2.59387 14.7948C2.62489 14.8804 2.71949 14.9248 2.80507 14.8938Z" fill="#575C69"/>
<path fill-rule="evenodd" clip-rule="evenodd" d="M9.97773 8.77286C10.108 8.32648 10.4716 7.12 11.16 6.32118C11.2194 6.25232 11.2117 6.14804 11.1428 6.08864C11.0738 6.02902 10.9695 6.03694 10.9101 6.1058C10.1863 6.94554 9.79799 8.21098 9.66093 8.68024C9.63541 8.7678 9.68579 8.85932 9.77313 8.88484C9.86047 8.91036 9.95221 8.8602 9.97773 8.77286Z" fill="#FDBE00"/>
<path fill-rule="evenodd" clip-rule="evenodd" d="M12.122 5.3162C11.6448 5.42246 11.242 5.71946 10.9091 6.10578C10.8497 6.17486 10.8574 6.27914 10.9263 6.33854C10.9953 6.39794 11.0996 6.39024 11.159 6.32116C11.3902 6.05276 11.6591 5.83056 11.9704 5.70758C11.9427 5.84552 11.9464 5.97752 11.9864 6.09874C12.048 6.28596 12.1902 6.39288 12.3743 6.43336C12.5237 6.46636 12.7043 6.45184 12.879 6.40234C13.082 6.34492 13.2759 6.24108 13.401 6.12448C13.511 6.02218 13.5702 5.90624 13.5744 5.7991C13.5786 5.69108 13.5361 5.5813 13.4103 5.48824C13.2902 5.39936 13.0666 5.31906 12.6964 5.28276C12.6445 5.2777 12.5932 5.27484 12.5426 5.27396C12.573 5.23282 12.6053 5.19168 12.6394 5.15054C13.0633 4.6386 13.7451 4.14118 14.1873 3.89874C14.2672 3.85496 14.2964 3.75464 14.2527 3.67478C14.2089 3.59492 14.1086 3.56566 14.0287 3.60944C13.4783 3.91106 12.5829 4.58602 12.1789 5.22094C12.1587 5.25284 12.1398 5.28452 12.122 5.3162ZM12.3426 5.61364L12.3358 5.63014C12.2839 5.76038 12.2632 5.88424 12.2999 5.99578C12.3222 6.06354 12.3785 6.09632 12.4454 6.11106C12.5472 6.1335 12.67 6.11854 12.7892 6.08488C12.939 6.04242 13.0838 5.96894 13.1764 5.88292C13.2116 5.85014 13.2433 5.82066 13.2446 5.78612C13.2451 5.77732 13.2358 5.77182 13.227 5.7639C13.2129 5.75158 13.1953 5.74014 13.1742 5.72892C13.0715 5.67458 12.9069 5.63498 12.6643 5.61122C12.5529 5.60022 12.4458 5.60154 12.3426 5.61364Z" fill="#575C69"/>
<path fill-rule="evenodd" clip-rule="evenodd" d="M8.78919 3.67501C8.72649 3.46601 8.63035 3.30453 8.52585 3.20839C8.39407 3.08695 8.24469 3.05329 8.10191 3.10565C7.98553 3.14811 7.86101 3.26075 7.76487 3.47987C7.64695 3.74849 7.60845 3.95067 7.61879 4.09213C7.62847 4.22677 7.67951 4.32093 7.75035 4.38385C7.85749 4.47889 8.02931 4.50881 8.23611 4.44677C8.32895 4.41905 8.43125 4.37241 8.53685 4.30883C8.51771 4.80713 8.30431 5.41917 7.73693 5.94893C7.67049 6.01097 7.66675 6.11547 7.72901 6.18213C7.79105 6.24857 7.89555 6.25231 7.96221 6.19005C8.70428 5.49727 8.90623 4.67733 8.86003 4.06815C8.90997 4.02349 8.95925 3.97575 9.00722 3.92493C9.38253 3.52827 9.68569 2.95077 9.64235 2.32025C9.63597 2.22939 9.55721 2.16053 9.46635 2.16691C9.37549 2.17307 9.30685 2.25205 9.31301 2.34291C9.34359 2.78621 9.16539 3.19673 8.92295 3.51529C8.88005 3.57139 8.83539 3.62485 8.78919 3.67501ZM8.51199 3.92911C8.48999 3.80591 8.45501 3.69701 8.41101 3.60747C8.37911 3.54191 8.34281 3.48845 8.30255 3.45127C8.28011 3.43059 8.25811 3.41431 8.23391 3.41255C8.20795 3.41079 8.18595 3.42971 8.16153 3.45633C8.12765 3.49329 8.09641 3.54521 8.06715 3.61231C7.99169 3.78413 7.95297 3.91921 7.94769 4.02261C7.94483 4.07563 7.94483 4.11523 7.96925 4.13701C7.98421 4.15021 8.00643 4.15065 8.03085 4.15043C8.06451 4.14977 8.10169 4.14273 8.14129 4.13085C8.25437 4.09675 8.38263 4.02723 8.51199 3.92911Z" fill="#FDBE00"/>
<path fill-rule="evenodd" clip-rule="evenodd" d="M13.7691 2.70007C12.9952 2.74055 12.2531 3.20497 11.7909 3.90567C11.7407 3.98179 11.7619 4.08409 11.838 4.13425C11.9139 4.18441 12.0164 4.16351 12.0666 4.08739C12.4692 3.47667 13.1118 3.06483 13.7863 3.02963C13.8774 3.02479 13.9473 2.94713 13.9425 2.85627C13.9377 2.76519 13.86 2.69523 13.7691 2.70007Z" fill="#FDBE00"/>
<path fill-rule="evenodd" clip-rule="evenodd" d="M10.4986 4.49743C11.1647 3.42273 11.4419 2.12979 10.5633 0.94465C10.5091 0.87139 10.4055 0.85621 10.3325 0.91033C10.2592 0.96467 10.244 1.06807 10.2982 1.14111C11.0853 2.20283 10.8149 3.36069 10.2181 4.32341C10.1701 4.40085 10.1941 4.50271 10.2713 4.55067C10.3488 4.59863 10.4506 4.57487 10.4986 4.49743Z" fill="#575C69"/>
<path d="M13.4872 2.26956C13.7876 2.26956 14.031 2.02608 14.031 1.72572C14.031 1.42537 13.7876 1.18188 13.4872 1.18188C13.1868 1.18188 12.9434 1.42537 12.9434 1.72572C12.9434 2.02608 13.1868 2.26956 13.4872 2.26956Z" fill="#FDBE00"/>
<path d="M3.09462 3.538C3.39498 3.538 3.63846 3.29451 3.63846 2.99416C3.63846 2.6938 3.39498 2.45032 3.09462 2.45032C2.79427 2.45032 2.55078 2.6938 2.55078 2.99416C2.55078 3.29451 2.79427 3.538 3.09462 3.538Z" fill="#FDBE00"/>
<path d="M11.6688 13.7187C11.9692 13.7187 12.2127 13.4752 12.2127 13.1748C12.2127 12.8745 11.9692 12.631 11.6688 12.631C11.3685 12.631 11.125 12.8745 11.125 13.1748C11.125 13.4752 11.3685 13.7187 11.6688 13.7187Z" fill="#FF5D14"/>
</svg>
