<svg width="12" height="10" viewBox="0 0 12 10" fill="none" xmlns="http://www.w3.org/2000/svg">
<path d="M1.09961 4.4C0.768239 4.4 0.499609 4.66863 0.499609 5C0.499609 5.33137 0.768239 5.6 1.09961 5.6V4.4ZM11.4234 5.42426C11.6577 5.18995 11.6577 4.81005 11.4234 4.57574L7.60499 0.757359C7.37068 0.523045 6.99078 0.523045 6.75646 0.757359C6.52215 0.991674 6.52215 1.37157 6.75646 1.60589L10.1506 5L6.75646 8.39411C6.52215 8.62843 6.52215 9.00833 6.75646 9.24264C6.99078 9.47696 7.37068 9.47696 7.60499 9.24264L11.4234 5.42426ZM1.09961 5V5.6L10.9991 5.6V5V4.4L1.09961 4.4V5Z" fill="black"/>
</svg>
