<svg width="126" height="20" viewBox="0 0 126 20" fill="none" xmlns="http://www.w3.org/2000/svg">
<path d="M10.1154 2.54526C10.3757 1.74412 11.5091 1.74412 11.7694 2.54526L13.2293 7.03847C13.3457 7.39675 13.6796 7.63932 14.0563 7.63932H18.7807C19.6231 7.63932 19.9733 8.71725 19.2919 9.21238L15.4697 11.9893C15.1649 12.2108 15.0374 12.6033 15.1538 12.9615L16.6137 17.4547C16.8741 18.2559 15.9571 18.9221 15.2756 18.4269L11.4535 15.65C11.1487 15.4286 10.736 15.4286 10.4312 15.65L6.60909 18.4269C5.9276 18.9221 5.01066 18.2559 5.27097 17.4547L6.7309 12.9615C6.84731 12.6033 6.71978 12.2108 6.41501 11.9893L2.59286 9.21238C1.91137 8.71725 2.26161 7.63932 3.10398 7.63932H7.82842C8.20513 7.63932 8.53901 7.39675 8.65542 7.03847L10.1154 2.54526Z" fill="#FED259"/>
<path d="M36.1446 2.54526C36.405 1.74412 37.5384 1.74412 37.7987 2.54526L39.2586 7.03847C39.375 7.39675 39.7089 7.63932 40.0856 7.63932H44.81C45.6524 7.63932 46.0026 8.71725 45.3212 9.21238L41.499 11.9893C41.1942 12.2108 41.0667 12.6033 41.1831 12.9615L42.643 17.4547C42.9034 18.2559 41.9864 18.9221 41.3049 18.4269L37.4828 15.65C37.178 15.4286 36.7653 15.4286 36.4605 15.65L32.6384 18.4269C31.9569 18.9221 31.04 18.2559 31.3003 17.4547L32.7602 12.9615C32.8766 12.6033 32.7491 12.2108 32.4443 11.9893L28.6222 9.21238C27.9407 8.71725 28.2909 7.63932 29.1333 7.63932H33.8577C34.2344 7.63932 34.5683 7.39675 34.6847 7.03847L36.1446 2.54526Z" fill="#FED259"/>
<path d="M62.1739 2.54526C62.4343 1.74412 63.5677 1.74412 63.828 2.54526L65.2879 7.03847C65.4043 7.39675 65.7382 7.63932 66.1149 7.63932H70.8393C71.6817 7.63932 72.0319 8.71725 71.3504 9.21238L67.5283 11.9893C67.2235 12.2108 67.096 12.6033 67.2124 12.9615L68.6723 17.4547C68.9326 18.2559 68.0157 18.9221 67.3342 18.4269L63.5121 15.65C63.2073 15.4286 62.7946 15.4286 62.4898 15.65L58.6677 18.4269C57.9862 18.9221 57.0693 18.2559 57.3296 17.4547L58.7895 12.9615C58.9059 12.6033 58.7784 12.2108 58.4736 11.9893L54.6515 9.21238C53.97 8.71725 54.3202 7.63932 55.1626 7.63932H59.887C60.2637 7.63932 60.5976 7.39675 60.714 7.03847L62.1739 2.54526Z" fill="#FED259"/>
<path d="M88.2032 2.54526C88.4635 1.74412 89.5969 1.74412 89.8573 2.54526L91.3172 7.03847C91.4336 7.39675 91.7675 7.63932 92.1442 7.63932H96.8686C97.711 7.63932 98.0612 8.71725 97.3797 9.21238L93.5576 11.9893C93.2528 12.2108 93.1253 12.6033 93.2417 12.9615L94.7016 17.4547C94.9619 18.2559 94.045 18.9221 93.3635 18.4269L89.5414 15.65C89.2366 15.4286 88.8239 15.4286 88.5191 15.65L84.697 18.4269C84.0155 18.9221 83.0986 18.2559 83.3589 17.4547L84.8188 12.9615C84.9352 12.6033 84.8077 12.2108 84.5029 11.9893L80.6808 9.21238C79.9993 8.71725 80.3495 7.63932 81.1919 7.63932H85.9163C86.293 7.63932 86.6269 7.39675 86.7433 7.03847L88.2032 2.54526Z" fill="#FED259"/>
<path d="M114.233 2.54526C114.493 1.74412 115.626 1.74412 115.887 2.54526L117.346 7.03847C117.463 7.39675 117.797 7.63932 118.173 7.63932H122.898C123.74 7.63932 124.091 8.71725 123.409 9.21238L119.587 11.9893C119.282 12.2108 119.155 12.6033 119.271 12.9615L120.731 17.4547C120.991 18.2559 120.074 18.9221 119.393 18.4269L115.571 15.65C115.266 15.4286 114.853 15.4286 114.548 15.65L110.726 18.4269C110.045 18.9221 109.128 18.2559 109.388 17.4547L110.848 12.9615C110.964 12.6033 110.837 12.2108 110.532 11.9893L106.71 9.21238C106.029 8.71725 106.379 7.63932 107.221 7.63932H111.946C112.322 7.63932 112.656 7.39675 112.773 7.03847L114.233 2.54526Z" fill="#FED259"/>
</svg>
