<svg width="9" height="9" viewBox="0 0 9 9" fill="none" xmlns="http://www.w3.org/2000/svg">
<path d="M8.12459 4.09732H4.90358V0.87624C4.90358 0.654036 4.72318 0.473633 4.5009 0.473633C4.2787 0.473633 4.09829 0.654036 4.09829 0.87624V4.09732H0.877216C0.655012 4.09732 0.474609 4.27772 0.474609 4.49992C0.474609 4.7222 0.655012 4.90261 0.877216 4.90261H4.09829V8.12361C4.09829 8.34589 4.2787 8.52629 4.5009 8.52629C4.72318 8.52629 4.90358 8.34589 4.90358 8.12361V4.90261H8.12459C8.34686 4.90261 8.52727 4.7222 8.52727 4.49992C8.52727 4.27772 8.34686 4.09732 8.12459 4.09732Z" fill="#121512"/>
</svg>
